G75*
%MOIN*%
%OFA0B0*%
%FSLAX24Y24*%
%IPPOS*%
%LPD*%
%AMOC8*
5,1,8,0,0,1.08239X$1,22.5*
%
%ADD10C,0.0000*%
%ADD11R,0.0500X0.0220*%
%ADD12R,0.0220X0.0500*%
%ADD13R,0.0600X0.0300*%
%ADD14R,0.0600X0.0400*%
%ADD15R,0.0800X0.0600*%
%ADD16R,0.0600X0.0600*%
%ADD17C,0.0157*%
%ADD18C,0.0315*%
%ADD19C,0.0275*%
%ADD20R,0.0336X0.0118*%
%ADD21C,0.0088*%
%ADD22R,0.0450X0.0400*%
%ADD23R,0.0598X0.0150*%
%ADD24C,0.0180*%
%ADD25R,0.0748X0.0748*%
%ADD26R,0.0650X0.0650*%
%ADD27C,0.0650*%
%ADD28R,0.0500X0.1000*%
%ADD29R,0.0800X0.0700*%
%ADD30R,0.0500X0.1300*%
%ADD31R,0.0500X0.0900*%
%ADD32R,0.0500X0.1100*%
%ADD33R,0.0900X0.0450*%
%ADD34R,0.0500X0.0500*%
%ADD35C,0.0100*%
%ADD36R,0.0728X0.0728*%
%ADD37C,0.0728*%
%ADD38OC8,0.0650*%
%ADD39C,0.0160*%
%ADD40C,0.0356*%
%ADD41C,0.0120*%
D10*
X004872Y000861D02*
X027372Y000861D01*
X027372Y021861D01*
X004872Y021861D01*
X004872Y000861D01*
X005242Y001861D02*
X005244Y001911D01*
X005250Y001961D01*
X005260Y002010D01*
X005274Y002058D01*
X005291Y002105D01*
X005312Y002150D01*
X005337Y002194D01*
X005365Y002235D01*
X005397Y002274D01*
X005431Y002311D01*
X005468Y002345D01*
X005508Y002375D01*
X005550Y002402D01*
X005594Y002426D01*
X005640Y002447D01*
X005687Y002463D01*
X005735Y002476D01*
X005785Y002485D01*
X005834Y002490D01*
X005885Y002491D01*
X005935Y002488D01*
X005984Y002481D01*
X006033Y002470D01*
X006081Y002455D01*
X006127Y002437D01*
X006172Y002415D01*
X006215Y002389D01*
X006256Y002360D01*
X006295Y002328D01*
X006331Y002293D01*
X006363Y002255D01*
X006393Y002215D01*
X006420Y002172D01*
X006443Y002128D01*
X006462Y002082D01*
X006478Y002034D01*
X006490Y001985D01*
X006498Y001936D01*
X006502Y001886D01*
X006502Y001836D01*
X006498Y001786D01*
X006490Y001737D01*
X006478Y001688D01*
X006462Y001640D01*
X006443Y001594D01*
X006420Y001550D01*
X006393Y001507D01*
X006363Y001467D01*
X006331Y001429D01*
X006295Y001394D01*
X006256Y001362D01*
X006215Y001333D01*
X006172Y001307D01*
X006127Y001285D01*
X006081Y001267D01*
X006033Y001252D01*
X005984Y001241D01*
X005935Y001234D01*
X005885Y001231D01*
X005834Y001232D01*
X005785Y001237D01*
X005735Y001246D01*
X005687Y001259D01*
X005640Y001275D01*
X005594Y001296D01*
X005550Y001320D01*
X005508Y001347D01*
X005468Y001377D01*
X005431Y001411D01*
X005397Y001448D01*
X005365Y001487D01*
X005337Y001528D01*
X005312Y001572D01*
X005291Y001617D01*
X005274Y001664D01*
X005260Y001712D01*
X005250Y001761D01*
X005244Y001811D01*
X005242Y001861D01*
X023522Y004861D02*
X023524Y004892D01*
X023530Y004923D01*
X023540Y004953D01*
X023553Y004981D01*
X023570Y005008D01*
X023590Y005032D01*
X023613Y005054D01*
X023638Y005072D01*
X023666Y005087D01*
X023695Y005099D01*
X023725Y005107D01*
X023756Y005111D01*
X023788Y005111D01*
X023819Y005107D01*
X023849Y005099D01*
X023878Y005087D01*
X023906Y005072D01*
X023931Y005054D01*
X023954Y005032D01*
X023974Y005008D01*
X023991Y004981D01*
X024004Y004953D01*
X024014Y004923D01*
X024020Y004892D01*
X024022Y004861D01*
X024020Y004830D01*
X024014Y004799D01*
X024004Y004769D01*
X023991Y004741D01*
X023974Y004714D01*
X023954Y004690D01*
X023931Y004668D01*
X023906Y004650D01*
X023878Y004635D01*
X023849Y004623D01*
X023819Y004615D01*
X023788Y004611D01*
X023756Y004611D01*
X023725Y004615D01*
X023695Y004623D01*
X023666Y004635D01*
X023638Y004650D01*
X023613Y004668D01*
X023590Y004690D01*
X023570Y004714D01*
X023553Y004741D01*
X023540Y004769D01*
X023530Y004799D01*
X023524Y004830D01*
X023522Y004861D01*
X025742Y001861D02*
X025744Y001911D01*
X025750Y001961D01*
X025760Y002010D01*
X025774Y002058D01*
X025791Y002105D01*
X025812Y002150D01*
X025837Y002194D01*
X025865Y002235D01*
X025897Y002274D01*
X025931Y002311D01*
X025968Y002345D01*
X026008Y002375D01*
X026050Y002402D01*
X026094Y002426D01*
X026140Y002447D01*
X026187Y002463D01*
X026235Y002476D01*
X026285Y002485D01*
X026334Y002490D01*
X026385Y002491D01*
X026435Y002488D01*
X026484Y002481D01*
X026533Y002470D01*
X026581Y002455D01*
X026627Y002437D01*
X026672Y002415D01*
X026715Y002389D01*
X026756Y002360D01*
X026795Y002328D01*
X026831Y002293D01*
X026863Y002255D01*
X026893Y002215D01*
X026920Y002172D01*
X026943Y002128D01*
X026962Y002082D01*
X026978Y002034D01*
X026990Y001985D01*
X026998Y001936D01*
X027002Y001886D01*
X027002Y001836D01*
X026998Y001786D01*
X026990Y001737D01*
X026978Y001688D01*
X026962Y001640D01*
X026943Y001594D01*
X026920Y001550D01*
X026893Y001507D01*
X026863Y001467D01*
X026831Y001429D01*
X026795Y001394D01*
X026756Y001362D01*
X026715Y001333D01*
X026672Y001307D01*
X026627Y001285D01*
X026581Y001267D01*
X026533Y001252D01*
X026484Y001241D01*
X026435Y001234D01*
X026385Y001231D01*
X026334Y001232D01*
X026285Y001237D01*
X026235Y001246D01*
X026187Y001259D01*
X026140Y001275D01*
X026094Y001296D01*
X026050Y001320D01*
X026008Y001347D01*
X025968Y001377D01*
X025931Y001411D01*
X025897Y001448D01*
X025865Y001487D01*
X025837Y001528D01*
X025812Y001572D01*
X025791Y001617D01*
X025774Y001664D01*
X025760Y001712D01*
X025750Y001761D01*
X025744Y001811D01*
X025742Y001861D01*
X025538Y014937D02*
X025540Y014963D01*
X025546Y014989D01*
X025555Y015013D01*
X025568Y015036D01*
X025585Y015056D01*
X025604Y015074D01*
X025626Y015089D01*
X025649Y015100D01*
X025674Y015108D01*
X025700Y015112D01*
X025726Y015112D01*
X025752Y015108D01*
X025777Y015100D01*
X025801Y015089D01*
X025822Y015074D01*
X025841Y015056D01*
X025858Y015036D01*
X025871Y015013D01*
X025880Y014989D01*
X025886Y014963D01*
X025888Y014937D01*
X025886Y014911D01*
X025880Y014885D01*
X025871Y014861D01*
X025858Y014838D01*
X025841Y014818D01*
X025822Y014800D01*
X025800Y014785D01*
X025777Y014774D01*
X025752Y014766D01*
X025726Y014762D01*
X025700Y014762D01*
X025674Y014766D01*
X025649Y014774D01*
X025625Y014785D01*
X025604Y014800D01*
X025585Y014818D01*
X025568Y014838D01*
X025555Y014861D01*
X025546Y014885D01*
X025540Y014911D01*
X025538Y014937D01*
X025538Y018087D02*
X025540Y018113D01*
X025546Y018139D01*
X025555Y018163D01*
X025568Y018186D01*
X025585Y018206D01*
X025604Y018224D01*
X025626Y018239D01*
X025649Y018250D01*
X025674Y018258D01*
X025700Y018262D01*
X025726Y018262D01*
X025752Y018258D01*
X025777Y018250D01*
X025801Y018239D01*
X025822Y018224D01*
X025841Y018206D01*
X025858Y018186D01*
X025871Y018163D01*
X025880Y018139D01*
X025886Y018113D01*
X025888Y018087D01*
X025886Y018061D01*
X025880Y018035D01*
X025871Y018011D01*
X025858Y017988D01*
X025841Y017968D01*
X025822Y017950D01*
X025800Y017935D01*
X025777Y017924D01*
X025752Y017916D01*
X025726Y017912D01*
X025700Y017912D01*
X025674Y017916D01*
X025649Y017924D01*
X025625Y017935D01*
X025604Y017950D01*
X025585Y017968D01*
X025568Y017988D01*
X025555Y018011D01*
X025546Y018035D01*
X025540Y018061D01*
X025538Y018087D01*
X025742Y020861D02*
X025744Y020911D01*
X025750Y020961D01*
X025760Y021010D01*
X025774Y021058D01*
X025791Y021105D01*
X025812Y021150D01*
X025837Y021194D01*
X025865Y021235D01*
X025897Y021274D01*
X025931Y021311D01*
X025968Y021345D01*
X026008Y021375D01*
X026050Y021402D01*
X026094Y021426D01*
X026140Y021447D01*
X026187Y021463D01*
X026235Y021476D01*
X026285Y021485D01*
X026334Y021490D01*
X026385Y021491D01*
X026435Y021488D01*
X026484Y021481D01*
X026533Y021470D01*
X026581Y021455D01*
X026627Y021437D01*
X026672Y021415D01*
X026715Y021389D01*
X026756Y021360D01*
X026795Y021328D01*
X026831Y021293D01*
X026863Y021255D01*
X026893Y021215D01*
X026920Y021172D01*
X026943Y021128D01*
X026962Y021082D01*
X026978Y021034D01*
X026990Y020985D01*
X026998Y020936D01*
X027002Y020886D01*
X027002Y020836D01*
X026998Y020786D01*
X026990Y020737D01*
X026978Y020688D01*
X026962Y020640D01*
X026943Y020594D01*
X026920Y020550D01*
X026893Y020507D01*
X026863Y020467D01*
X026831Y020429D01*
X026795Y020394D01*
X026756Y020362D01*
X026715Y020333D01*
X026672Y020307D01*
X026627Y020285D01*
X026581Y020267D01*
X026533Y020252D01*
X026484Y020241D01*
X026435Y020234D01*
X026385Y020231D01*
X026334Y020232D01*
X026285Y020237D01*
X026235Y020246D01*
X026187Y020259D01*
X026140Y020275D01*
X026094Y020296D01*
X026050Y020320D01*
X026008Y020347D01*
X025968Y020377D01*
X025931Y020411D01*
X025897Y020448D01*
X025865Y020487D01*
X025837Y020528D01*
X025812Y020572D01*
X025791Y020617D01*
X025774Y020664D01*
X025760Y020712D01*
X025750Y020761D01*
X025744Y020811D01*
X025742Y020861D01*
X005242Y020861D02*
X005244Y020911D01*
X005250Y020961D01*
X005260Y021010D01*
X005274Y021058D01*
X005291Y021105D01*
X005312Y021150D01*
X005337Y021194D01*
X005365Y021235D01*
X005397Y021274D01*
X005431Y021311D01*
X005468Y021345D01*
X005508Y021375D01*
X005550Y021402D01*
X005594Y021426D01*
X005640Y021447D01*
X005687Y021463D01*
X005735Y021476D01*
X005785Y021485D01*
X005834Y021490D01*
X005885Y021491D01*
X005935Y021488D01*
X005984Y021481D01*
X006033Y021470D01*
X006081Y021455D01*
X006127Y021437D01*
X006172Y021415D01*
X006215Y021389D01*
X006256Y021360D01*
X006295Y021328D01*
X006331Y021293D01*
X006363Y021255D01*
X006393Y021215D01*
X006420Y021172D01*
X006443Y021128D01*
X006462Y021082D01*
X006478Y021034D01*
X006490Y020985D01*
X006498Y020936D01*
X006502Y020886D01*
X006502Y020836D01*
X006498Y020786D01*
X006490Y020737D01*
X006478Y020688D01*
X006462Y020640D01*
X006443Y020594D01*
X006420Y020550D01*
X006393Y020507D01*
X006363Y020467D01*
X006331Y020429D01*
X006295Y020394D01*
X006256Y020362D01*
X006215Y020333D01*
X006172Y020307D01*
X006127Y020285D01*
X006081Y020267D01*
X006033Y020252D01*
X005984Y020241D01*
X005935Y020234D01*
X005885Y020231D01*
X005834Y020232D01*
X005785Y020237D01*
X005735Y020246D01*
X005687Y020259D01*
X005640Y020275D01*
X005594Y020296D01*
X005550Y020320D01*
X005508Y020347D01*
X005468Y020377D01*
X005431Y020411D01*
X005397Y020448D01*
X005365Y020487D01*
X005337Y020528D01*
X005312Y020572D01*
X005291Y020617D01*
X005274Y020664D01*
X005260Y020712D01*
X005250Y020761D01*
X005244Y020811D01*
X005242Y020861D01*
D11*
X015682Y010463D03*
X015682Y010148D03*
X015682Y009833D03*
X015682Y009518D03*
X015682Y009203D03*
X015682Y008888D03*
X015682Y008573D03*
X015682Y008258D03*
X019062Y008258D03*
X019062Y008573D03*
X019062Y008888D03*
X019062Y009203D03*
X019062Y009518D03*
X019062Y009833D03*
X019062Y010148D03*
X019062Y010463D03*
D12*
X018474Y011051D03*
X018159Y011051D03*
X017844Y011051D03*
X017529Y011051D03*
X017214Y011051D03*
X016900Y011051D03*
X016585Y011051D03*
X016270Y011051D03*
X016270Y007671D03*
X016585Y007671D03*
X016900Y007671D03*
X017214Y007671D03*
X017529Y007671D03*
X017844Y007671D03*
X018159Y007671D03*
X018474Y007671D03*
D13*
X021422Y014228D03*
X021422Y014661D03*
X021422Y015095D03*
X021422Y015528D03*
X021422Y015961D03*
X021422Y016394D03*
X021422Y016827D03*
X021422Y017260D03*
X021422Y017693D03*
D14*
X021658Y013698D03*
D15*
X025506Y013835D03*
X025506Y019898D03*
D16*
X021576Y019575D03*
D17*
X009002Y011675D02*
X007742Y011675D01*
X007742Y011833D01*
X009002Y011833D01*
X009002Y011675D01*
X009002Y011831D02*
X007742Y011831D01*
X007742Y010888D02*
X009002Y010888D01*
X007742Y010888D02*
X007742Y011046D01*
X009002Y011046D01*
X009002Y010888D01*
X009002Y011044D02*
X007742Y011044D01*
D18*
X005828Y009667D02*
X005198Y009667D01*
X005198Y009983D01*
X005828Y009983D01*
X005828Y009667D01*
X005828Y009981D02*
X005198Y009981D01*
X005198Y012738D02*
X005828Y012738D01*
X005198Y012738D02*
X005198Y013054D01*
X005828Y013054D01*
X005828Y012738D01*
X005828Y013052D02*
X005198Y013052D01*
D19*
X012234Y016523D02*
X012234Y017199D01*
X012510Y017199D01*
X012510Y016523D01*
X012234Y016523D01*
X012234Y016797D02*
X012510Y016797D01*
X012510Y017071D02*
X012234Y017071D01*
D20*
X011790Y017156D03*
X011790Y016959D03*
X011790Y016762D03*
X011790Y016565D03*
X012953Y016565D03*
X012953Y016762D03*
X012953Y016959D03*
X012953Y017156D03*
D21*
X010791Y017192D02*
X010791Y016930D01*
X010791Y017192D02*
X011053Y017192D01*
X011053Y016930D01*
X010791Y016930D01*
X010791Y017017D02*
X011053Y017017D01*
X011053Y017104D02*
X010791Y017104D01*
X010791Y017191D02*
X011053Y017191D01*
X010791Y017530D02*
X010791Y017792D01*
X011053Y017792D01*
X011053Y017530D01*
X010791Y017530D01*
X010791Y017617D02*
X011053Y017617D01*
X011053Y017704D02*
X010791Y017704D01*
X010791Y017791D02*
X011053Y017791D01*
X018903Y017392D02*
X018903Y017130D01*
X018641Y017130D01*
X018641Y017392D01*
X018903Y017392D01*
X018903Y017217D02*
X018641Y017217D01*
X018641Y017304D02*
X018903Y017304D01*
X018903Y017391D02*
X018641Y017391D01*
X018903Y016792D02*
X018903Y016530D01*
X018641Y016530D01*
X018641Y016792D01*
X018903Y016792D01*
X018903Y016617D02*
X018641Y016617D01*
X018641Y016704D02*
X018903Y016704D01*
X018903Y016791D02*
X018641Y016791D01*
X022253Y011342D02*
X022253Y011080D01*
X021991Y011080D01*
X021991Y011342D01*
X022253Y011342D01*
X022253Y011167D02*
X021991Y011167D01*
X021991Y011254D02*
X022253Y011254D01*
X022253Y011341D02*
X021991Y011341D01*
X022253Y010742D02*
X022253Y010480D01*
X021991Y010480D01*
X021991Y010742D01*
X022253Y010742D01*
X022253Y010567D02*
X021991Y010567D01*
X021991Y010654D02*
X022253Y010654D01*
X022253Y010741D02*
X021991Y010741D01*
X021991Y010092D02*
X021991Y009830D01*
X021991Y010092D02*
X022253Y010092D01*
X022253Y009830D01*
X021991Y009830D01*
X021991Y009917D02*
X022253Y009917D01*
X022253Y010004D02*
X021991Y010004D01*
X021991Y010091D02*
X022253Y010091D01*
X021991Y009492D02*
X021991Y009230D01*
X021991Y009492D02*
X022253Y009492D01*
X022253Y009230D01*
X021991Y009230D01*
X021991Y009317D02*
X022253Y009317D01*
X022253Y009404D02*
X021991Y009404D01*
X021991Y009491D02*
X022253Y009491D01*
X019903Y009630D02*
X019903Y009892D01*
X019903Y009630D02*
X019641Y009630D01*
X019641Y009892D01*
X019903Y009892D01*
X019903Y009717D02*
X019641Y009717D01*
X019641Y009804D02*
X019903Y009804D01*
X019903Y009891D02*
X019641Y009891D01*
X019903Y009292D02*
X019903Y009030D01*
X019641Y009030D01*
X019641Y009292D01*
X019903Y009292D01*
X019903Y009117D02*
X019641Y009117D01*
X019641Y009204D02*
X019903Y009204D01*
X019903Y009291D02*
X019641Y009291D01*
X011941Y007692D02*
X011941Y007430D01*
X011941Y007692D02*
X012203Y007692D01*
X012203Y007430D01*
X011941Y007430D01*
X011941Y007517D02*
X012203Y007517D01*
X012203Y007604D02*
X011941Y007604D01*
X011941Y007691D02*
X012203Y007691D01*
X011941Y007092D02*
X011941Y006830D01*
X011941Y007092D02*
X012203Y007092D01*
X012203Y006830D01*
X011941Y006830D01*
X011941Y006917D02*
X012203Y006917D01*
X012203Y007004D02*
X011941Y007004D01*
X011941Y007091D02*
X012203Y007091D01*
X009303Y008230D02*
X009041Y008230D01*
X009041Y008492D01*
X009303Y008492D01*
X009303Y008230D01*
X009303Y008317D02*
X009041Y008317D01*
X009041Y008404D02*
X009303Y008404D01*
X009303Y008491D02*
X009041Y008491D01*
X008703Y008230D02*
X008441Y008230D01*
X008441Y008492D01*
X008703Y008492D01*
X008703Y008230D01*
X008703Y008317D02*
X008441Y008317D01*
X008441Y008404D02*
X008703Y008404D01*
X008703Y008491D02*
X008441Y008491D01*
D22*
X011972Y010861D03*
X012772Y011211D03*
X012772Y010511D03*
D23*
X006572Y016349D03*
X006572Y016605D03*
X006572Y016861D03*
X006572Y017117D03*
X006572Y017372D03*
D24*
X005212Y017471D02*
X005212Y017051D01*
X005212Y017471D02*
X005632Y017471D01*
X005632Y017051D01*
X005212Y017051D01*
X005212Y017230D02*
X005632Y017230D01*
X005632Y017409D02*
X005212Y017409D01*
X005212Y016671D02*
X005212Y016251D01*
X005212Y016671D02*
X005632Y016671D01*
X005632Y016251D01*
X005212Y016251D01*
X005212Y016430D02*
X005632Y016430D01*
X005632Y016609D02*
X005212Y016609D01*
D25*
X005422Y015306D03*
X005422Y018416D03*
D26*
X017872Y020861D03*
X024922Y012861D03*
X024872Y001861D03*
X010872Y001861D03*
X006872Y003361D03*
D27*
X006872Y004361D03*
X006872Y005361D03*
X006872Y006361D03*
X006872Y007361D03*
X006872Y008361D03*
X011872Y001861D03*
X012872Y001861D03*
X013872Y001861D03*
X014872Y001861D03*
X015872Y001861D03*
X016872Y001861D03*
X017872Y001861D03*
X019872Y001861D03*
X020872Y001861D03*
X021872Y001861D03*
X022872Y001861D03*
X023872Y001861D03*
X024922Y010861D03*
X025922Y010861D03*
X025922Y011861D03*
X024922Y011861D03*
X025922Y012861D03*
X024872Y020861D03*
X023872Y020861D03*
X022872Y020861D03*
X021872Y020861D03*
X020872Y020861D03*
X019872Y020861D03*
X018872Y020861D03*
X016272Y020861D03*
X015272Y020861D03*
X014272Y020861D03*
X013272Y020861D03*
X012272Y020861D03*
X011272Y020861D03*
X010272Y020861D03*
X009272Y020861D03*
X008272Y020861D03*
D28*
X009022Y007086D03*
X010722Y007086D03*
X010722Y003835D03*
X009022Y003835D03*
D29*
X020872Y009461D03*
X020872Y011161D03*
D30*
X023472Y003511D03*
D31*
X024272Y003311D03*
X023872Y006411D03*
X025722Y006411D03*
X026922Y006411D03*
D32*
X026872Y003411D03*
D33*
X009372Y016286D03*
X009372Y017436D03*
D34*
X013872Y016361D03*
X014872Y016361D03*
X014872Y015361D03*
X013872Y015361D03*
D35*
X013922Y015340D02*
X014492Y015340D01*
X014492Y015242D02*
X014272Y015242D01*
X014272Y015311D02*
X013922Y015311D01*
X013922Y015411D01*
X013822Y015411D01*
X013822Y015761D01*
X013602Y015761D01*
X013564Y015750D01*
X013530Y015731D01*
X013502Y015703D01*
X013482Y015669D01*
X013472Y015630D01*
X013472Y015411D01*
X013822Y015411D01*
X013822Y015311D01*
X013472Y015311D01*
X013472Y015091D01*
X013482Y015053D01*
X013502Y015019D01*
X013530Y014991D01*
X013564Y014971D01*
X013602Y014961D01*
X013822Y014961D01*
X013822Y015311D01*
X013922Y015311D01*
X013922Y014961D01*
X014142Y014961D01*
X014180Y014971D01*
X014214Y014991D01*
X014242Y015019D01*
X014262Y015053D01*
X014272Y015091D01*
X014272Y015311D01*
X014272Y015411D02*
X013922Y015411D01*
X013922Y015761D01*
X014142Y015761D01*
X014180Y015750D01*
X014214Y015731D01*
X014242Y015703D01*
X014262Y015669D01*
X014272Y015630D01*
X014272Y015411D01*
X014272Y015439D02*
X014492Y015439D01*
X014492Y015537D02*
X014272Y015537D01*
X014271Y015636D02*
X014492Y015636D01*
X014492Y015665D02*
X014492Y015057D01*
X014568Y014981D01*
X015176Y014981D01*
X015252Y015057D01*
X015252Y015665D01*
X015176Y015741D01*
X015082Y015741D01*
X015082Y015981D01*
X015176Y015981D01*
X015252Y016057D01*
X015252Y016665D01*
X015176Y016741D01*
X014568Y016741D01*
X014492Y016665D01*
X014492Y016057D01*
X014568Y015981D01*
X014662Y015981D01*
X014662Y015741D01*
X014568Y015741D01*
X014492Y015665D01*
X014562Y015734D02*
X014208Y015734D01*
X014176Y015981D02*
X014252Y016057D01*
X014252Y016665D01*
X014176Y016741D01*
X014082Y016741D01*
X014082Y017243D01*
X013954Y017371D01*
X013185Y017371D01*
X013160Y017346D01*
X012875Y017346D01*
X012874Y017345D01*
X012738Y017345D01*
X012736Y017350D01*
X012661Y017425D01*
X012563Y017466D01*
X012181Y017466D01*
X012083Y017425D01*
X012014Y017356D01*
X011978Y017365D01*
X011790Y017365D01*
X011603Y017365D01*
X011564Y017355D01*
X011530Y017335D01*
X011502Y017307D01*
X011483Y017273D01*
X011472Y017235D01*
X011472Y017156D01*
X011790Y017156D01*
X011790Y017156D01*
X011472Y017156D01*
X011472Y017139D01*
X011227Y017139D01*
X011227Y017264D01*
X011137Y017354D01*
X011172Y017374D01*
X011208Y017410D01*
X011234Y017455D01*
X011247Y017504D01*
X011247Y017623D01*
X010959Y017623D01*
X010959Y017698D01*
X010884Y017698D01*
X010884Y017623D01*
X010597Y017623D01*
X010597Y017504D01*
X010610Y017455D01*
X010636Y017410D01*
X010672Y017374D01*
X010707Y017354D01*
X010617Y017264D01*
X010617Y016857D01*
X010719Y016756D01*
X011125Y016756D01*
X011149Y016779D01*
X011472Y016779D01*
X011472Y016762D01*
X011472Y016721D01*
X010482Y016721D01*
X010482Y017523D01*
X010359Y017646D01*
X009952Y017646D01*
X009952Y017715D01*
X009876Y017791D01*
X008868Y017791D01*
X008792Y017715D01*
X008792Y017646D01*
X007715Y017646D01*
X007710Y017650D01*
X007629Y017646D01*
X007548Y017646D01*
X007543Y017641D01*
X006478Y017577D01*
X006219Y017577D01*
X006143Y017501D01*
X006143Y016498D01*
X006133Y016482D01*
X006123Y016443D01*
X006123Y016349D01*
X006572Y016349D01*
X007021Y016349D01*
X007021Y016443D01*
X007011Y016482D01*
X007001Y016498D01*
X007001Y017188D01*
X007641Y017226D01*
X008792Y017226D01*
X008792Y017157D01*
X008868Y017081D01*
X009876Y017081D01*
X009952Y017157D01*
X009952Y017226D01*
X010062Y017226D01*
X010062Y016424D01*
X009972Y016424D01*
X009972Y016336D02*
X009972Y016530D01*
X009962Y016569D01*
X009942Y016603D01*
X009914Y016631D01*
X009880Y016650D01*
X009842Y016661D01*
X009422Y016661D01*
X009422Y016336D01*
X009322Y016336D01*
X009322Y016661D01*
X008902Y016661D01*
X008864Y016650D01*
X008830Y016631D01*
X008802Y016603D01*
X008782Y016569D01*
X008772Y016530D01*
X008772Y016336D01*
X009322Y016336D01*
X009322Y016236D01*
X008772Y016236D01*
X008772Y016041D01*
X008782Y016003D01*
X008802Y015969D01*
X008830Y015941D01*
X008864Y015921D01*
X008902Y015911D01*
X009322Y015911D01*
X009322Y016236D01*
X009422Y016236D01*
X009422Y016336D01*
X009972Y016336D01*
X009972Y016236D02*
X009422Y016236D01*
X009422Y015911D01*
X009842Y015911D01*
X009880Y015921D01*
X009914Y015941D01*
X009942Y015969D01*
X009962Y016003D01*
X009972Y016041D01*
X009972Y016236D01*
X009972Y016227D02*
X010562Y016227D01*
X010562Y016301D02*
X010185Y016301D01*
X010062Y016424D01*
X010062Y016522D02*
X009972Y016522D01*
X009924Y016621D02*
X010062Y016621D01*
X010062Y016719D02*
X007001Y016719D01*
X007001Y016621D02*
X008820Y016621D01*
X008772Y016522D02*
X007001Y016522D01*
X007021Y016424D02*
X008772Y016424D01*
X008772Y016227D02*
X007014Y016227D01*
X007011Y016216D02*
X007021Y016254D01*
X007021Y016349D01*
X006572Y016349D01*
X006572Y016349D01*
X006572Y016349D01*
X006572Y016124D01*
X006891Y016124D01*
X006929Y016134D01*
X006963Y016154D01*
X006991Y016182D01*
X007011Y016216D01*
X007021Y016325D02*
X009322Y016325D01*
X009322Y016227D02*
X009422Y016227D01*
X009422Y016325D02*
X010160Y016325D01*
X009972Y016128D02*
X010562Y016128D01*
X010562Y016030D02*
X009969Y016030D01*
X009898Y015931D02*
X010509Y015931D01*
X010511Y015935D02*
X010464Y015822D01*
X010464Y015699D01*
X010511Y015586D01*
X010597Y015499D01*
X010711Y015453D01*
X010833Y015453D01*
X010946Y015499D01*
X011033Y015586D01*
X011080Y015699D01*
X011080Y015822D01*
X011033Y015935D01*
X010982Y015986D01*
X010982Y016301D01*
X011859Y016301D01*
X011935Y016376D01*
X012006Y016376D01*
X012008Y016372D01*
X012083Y016296D01*
X012181Y016256D01*
X012563Y016256D01*
X012661Y016296D01*
X012736Y016372D01*
X012738Y016376D01*
X012743Y016376D01*
X012743Y013029D01*
X011885Y012171D01*
X011762Y012048D01*
X011762Y011368D01*
X011165Y011964D01*
X009166Y011964D01*
X009088Y012042D01*
X007656Y012042D01*
X007578Y011964D01*
X006865Y011964D01*
X006859Y011971D01*
X006685Y011971D01*
X006562Y011848D01*
X006162Y011448D01*
X006162Y009448D01*
X005162Y008448D01*
X005162Y003774D01*
X005285Y003651D01*
X006562Y002374D01*
X006562Y002344D01*
X006342Y002564D01*
X006037Y002691D01*
X005707Y002691D01*
X005402Y002564D01*
X005168Y002331D01*
X005072Y002098D01*
X005072Y009409D01*
X005141Y009380D01*
X005885Y009380D01*
X005991Y009424D01*
X006072Y009505D01*
X006116Y009611D01*
X006116Y010040D01*
X006072Y010146D01*
X005991Y010226D01*
X005885Y010270D01*
X005141Y010270D01*
X005072Y010242D01*
X005072Y012480D01*
X005141Y012451D01*
X005885Y012451D01*
X005991Y012495D01*
X006072Y012576D01*
X006116Y012681D01*
X006116Y013111D01*
X006072Y013216D01*
X005991Y013297D01*
X005885Y013341D01*
X005141Y013341D01*
X005072Y013312D01*
X005072Y014802D01*
X005850Y014802D01*
X005926Y014878D01*
X005926Y015733D01*
X005850Y015810D01*
X005072Y015810D01*
X005072Y016080D01*
X005121Y016031D01*
X005723Y016031D01*
X005852Y016160D01*
X005852Y016762D01*
X005753Y016861D01*
X005852Y016960D01*
X005852Y017562D01*
X005723Y017691D01*
X005121Y017691D01*
X005072Y017642D01*
X005072Y017912D01*
X005850Y017912D01*
X005926Y017988D01*
X005926Y018844D01*
X005850Y018920D01*
X005072Y018920D01*
X005072Y020623D01*
X005168Y020391D01*
X005402Y020157D01*
X005707Y020031D01*
X006037Y020031D01*
X006342Y020157D01*
X006576Y020391D01*
X006702Y020696D01*
X006702Y021026D01*
X006576Y021331D01*
X006342Y021564D01*
X006109Y021661D01*
X026135Y021661D01*
X025902Y021564D01*
X025668Y021331D01*
X025542Y021026D01*
X025542Y020696D01*
X025668Y020391D01*
X025711Y020348D01*
X025556Y020348D01*
X025556Y019948D01*
X025456Y019948D01*
X025456Y020348D01*
X025086Y020348D01*
X025048Y020337D01*
X025014Y020318D01*
X024986Y020290D01*
X024966Y020256D01*
X024956Y020217D01*
X024956Y019948D01*
X025456Y019948D01*
X025456Y019848D01*
X024956Y019848D01*
X024956Y019578D01*
X024966Y019540D01*
X024986Y019506D01*
X025014Y019478D01*
X025048Y019458D01*
X025086Y019448D01*
X025456Y019448D01*
X025456Y019848D01*
X025556Y019848D01*
X025556Y019948D01*
X026056Y019948D01*
X026056Y020093D01*
X026207Y020031D01*
X026537Y020031D01*
X026842Y020157D01*
X027076Y020391D01*
X027172Y020623D01*
X027172Y007011D01*
X026972Y007011D01*
X026972Y006461D01*
X026872Y006461D01*
X026872Y007011D01*
X026652Y007011D01*
X026614Y007000D01*
X026580Y006981D01*
X026552Y006953D01*
X026532Y006919D01*
X026522Y006880D01*
X026522Y006461D01*
X026872Y006461D01*
X026872Y006361D01*
X026522Y006361D01*
X026522Y005941D01*
X026532Y005903D01*
X026552Y005869D01*
X026580Y005841D01*
X026614Y005821D01*
X026652Y005811D01*
X026872Y005811D01*
X026872Y006361D01*
X026972Y006361D01*
X026972Y005811D01*
X027172Y005811D01*
X027172Y004103D01*
X027142Y004111D01*
X026922Y004111D01*
X026922Y003461D01*
X026822Y003461D01*
X026822Y004111D01*
X026602Y004111D01*
X026564Y004100D01*
X026530Y004081D01*
X026502Y004053D01*
X026482Y004019D01*
X026472Y003980D01*
X026472Y003461D01*
X026822Y003461D01*
X026822Y003361D01*
X026472Y003361D01*
X026472Y002841D01*
X026482Y002803D01*
X026502Y002769D01*
X026530Y002741D01*
X026564Y002721D01*
X026602Y002711D01*
X026822Y002711D01*
X026822Y003361D01*
X026922Y003361D01*
X026922Y002711D01*
X027142Y002711D01*
X027172Y002719D01*
X027172Y002098D01*
X027076Y002331D01*
X026842Y002564D01*
X026537Y002691D01*
X026207Y002691D01*
X025902Y002564D01*
X025668Y002331D01*
X025542Y002026D01*
X025542Y001696D01*
X025668Y001391D01*
X025902Y001157D01*
X026135Y001061D01*
X017369Y001061D01*
X017482Y001174D01*
X017734Y001425D01*
X017781Y001406D01*
X017962Y001406D01*
X018130Y001475D01*
X018258Y001603D01*
X018327Y001770D01*
X018327Y001951D01*
X018258Y002118D01*
X018130Y002246D01*
X017962Y002316D01*
X017781Y002316D01*
X017614Y002246D01*
X017486Y002118D01*
X017417Y001951D01*
X017417Y001770D01*
X017437Y001722D01*
X017185Y001471D01*
X017143Y001471D01*
X017181Y001498D01*
X017234Y001551D01*
X017278Y001612D01*
X017312Y001678D01*
X017335Y001749D01*
X017347Y001823D01*
X016909Y001823D01*
X016909Y001898D01*
X016834Y001898D01*
X016834Y001823D01*
X016397Y001823D01*
X016409Y001749D01*
X016432Y001678D01*
X016466Y001612D01*
X016510Y001551D01*
X016562Y001498D01*
X016601Y001471D01*
X016143Y001471D01*
X016181Y001498D01*
X016234Y001551D01*
X016278Y001612D01*
X016312Y001678D01*
X016335Y001749D01*
X016347Y001823D01*
X015909Y001823D01*
X015909Y001898D01*
X015834Y001898D01*
X015834Y001823D01*
X015397Y001823D01*
X015409Y001749D01*
X015432Y001678D01*
X015466Y001612D01*
X015510Y001551D01*
X015562Y001498D01*
X015601Y001471D01*
X015119Y001471D01*
X015130Y001475D01*
X015258Y001603D01*
X015327Y001770D01*
X015327Y001951D01*
X015258Y002118D01*
X015130Y002246D01*
X014962Y002316D01*
X014781Y002316D01*
X014614Y002246D01*
X014486Y002118D01*
X014417Y001951D01*
X014417Y001770D01*
X014486Y001603D01*
X014614Y001475D01*
X014625Y001471D01*
X014119Y001471D01*
X014130Y001475D01*
X014258Y001603D01*
X014327Y001770D01*
X014327Y001951D01*
X014258Y002118D01*
X014130Y002246D01*
X013962Y002316D01*
X013781Y002316D01*
X013614Y002246D01*
X013486Y002118D01*
X013417Y001951D01*
X013417Y001770D01*
X013486Y001603D01*
X013614Y001475D01*
X013625Y001471D01*
X013119Y001471D01*
X013130Y001475D01*
X013258Y001603D01*
X013327Y001770D01*
X013327Y001951D01*
X013258Y002118D01*
X013130Y002246D01*
X013052Y002279D01*
X013052Y002286D01*
X014446Y003681D01*
X016346Y003681D01*
X019946Y007281D01*
X024046Y007281D01*
X024446Y007681D01*
X024552Y007786D01*
X024552Y010236D01*
X024754Y010438D01*
X024831Y010406D01*
X025012Y010406D01*
X025180Y010475D01*
X025308Y010603D01*
X025377Y010770D01*
X025377Y010951D01*
X025308Y011118D01*
X025180Y011246D01*
X025012Y011316D01*
X024831Y011316D01*
X024664Y011246D01*
X024536Y011118D01*
X024467Y010951D01*
X024467Y010770D01*
X024499Y010692D01*
X024192Y010385D01*
X024192Y007935D01*
X023897Y007641D01*
X019346Y007641D01*
X018969Y008018D01*
X019047Y008018D01*
X019180Y007886D01*
X019285Y007781D01*
X020816Y007781D01*
X020897Y007699D01*
X021011Y007653D01*
X021133Y007653D01*
X021246Y007699D01*
X021328Y007781D01*
X023416Y007781D01*
X023497Y007699D01*
X023611Y007653D01*
X023733Y007653D01*
X023846Y007699D01*
X023933Y007786D01*
X023980Y007899D01*
X023980Y008022D01*
X023933Y008135D01*
X023846Y008222D01*
X023733Y008269D01*
X023611Y008269D01*
X023497Y008222D01*
X023416Y008141D01*
X021328Y008141D01*
X021246Y008222D01*
X021133Y008269D01*
X021011Y008269D01*
X020897Y008222D01*
X020816Y008141D01*
X019442Y008141D01*
X019442Y008393D01*
X021106Y008393D01*
X021187Y008312D01*
X021301Y008265D01*
X021423Y008265D01*
X021536Y008312D01*
X021623Y008399D01*
X021670Y008512D01*
X021670Y008635D01*
X021623Y008748D01*
X021536Y008834D01*
X021423Y008881D01*
X021301Y008881D01*
X021187Y008834D01*
X021106Y008753D01*
X019461Y008753D01*
X019462Y008758D01*
X019462Y008883D01*
X019067Y008883D01*
X019067Y008893D01*
X019462Y008893D01*
X019462Y008952D01*
X019486Y008910D01*
X019522Y008874D01*
X019566Y008849D01*
X019615Y008836D01*
X019734Y008836D01*
X019734Y009123D01*
X019447Y009123D01*
X019447Y009064D01*
X019442Y009073D01*
X019442Y009333D01*
X019452Y009350D01*
X019462Y009388D01*
X019462Y009513D01*
X019067Y009513D01*
X019067Y009523D01*
X019462Y009523D01*
X019462Y009648D01*
X019461Y009653D01*
X019467Y009653D01*
X019467Y009557D01*
X019557Y009467D01*
X019522Y009447D01*
X019486Y009411D01*
X019460Y009367D01*
X019447Y009317D01*
X019447Y009198D01*
X019734Y009198D01*
X019734Y009123D01*
X019809Y009123D01*
X019809Y008836D01*
X019929Y008836D01*
X019978Y008849D01*
X020022Y008874D01*
X020058Y008910D01*
X020084Y008955D01*
X020097Y009004D01*
X020097Y009123D01*
X019809Y009123D01*
X019809Y009198D01*
X020097Y009198D01*
X020097Y009317D01*
X020084Y009367D01*
X020058Y009411D01*
X020022Y009447D01*
X019987Y009467D01*
X020077Y009557D01*
X020077Y009964D01*
X020073Y009968D01*
X020280Y009968D01*
X020350Y009872D01*
X020342Y009865D01*
X020342Y009057D01*
X020418Y008981D01*
X021326Y008981D01*
X021402Y009057D01*
X021402Y009281D01*
X021604Y009281D01*
X021817Y009238D01*
X021817Y009157D01*
X021919Y009056D01*
X022325Y009056D01*
X022427Y009157D01*
X022427Y009564D01*
X022337Y009654D01*
X022372Y009674D01*
X022408Y009710D01*
X022434Y009755D01*
X022447Y009804D01*
X022447Y009923D01*
X022159Y009923D01*
X022159Y009998D01*
X022084Y009998D01*
X022084Y009923D01*
X021797Y009923D01*
X021797Y009804D01*
X021810Y009755D01*
X021836Y009710D01*
X021872Y009674D01*
X021907Y009654D01*
X021851Y009598D01*
X021711Y009626D01*
X021696Y009641D01*
X021640Y009641D01*
X021584Y009652D01*
X021567Y009641D01*
X021402Y009641D01*
X021402Y009865D01*
X021326Y009941D01*
X020745Y009941D01*
X020552Y010207D01*
X020552Y010223D01*
X020509Y010265D01*
X020480Y010305D01*
X020510Y010346D01*
X020552Y010388D01*
X020552Y010405D01*
X020749Y010681D01*
X021326Y010681D01*
X021402Y010757D01*
X021402Y010981D01*
X021558Y010981D01*
X021566Y010974D01*
X021631Y010981D01*
X021696Y010981D01*
X021704Y010988D01*
X021824Y011000D01*
X021907Y010917D01*
X021872Y010897D01*
X021836Y010861D01*
X021810Y010817D01*
X021797Y010767D01*
X021797Y010648D01*
X022084Y010648D01*
X022084Y010573D01*
X021797Y010573D01*
X021797Y010454D01*
X021810Y010405D01*
X021836Y010360D01*
X021872Y010324D01*
X021916Y010299D01*
X021965Y010286D01*
X022084Y010286D01*
X022084Y010573D01*
X022159Y010573D01*
X022159Y010286D01*
X022279Y010286D01*
X022328Y010299D01*
X022372Y010324D01*
X022408Y010360D01*
X022434Y010405D01*
X022447Y010454D01*
X022447Y010573D01*
X022159Y010573D01*
X022159Y010648D01*
X022447Y010648D01*
X022447Y010767D01*
X022434Y010817D01*
X022408Y010861D01*
X022372Y010897D01*
X022337Y010917D01*
X022427Y011007D01*
X022427Y011414D01*
X022325Y011516D01*
X021919Y011516D01*
X021817Y011414D01*
X021817Y011361D01*
X021613Y011341D01*
X021402Y011341D01*
X021402Y011565D01*
X021326Y011641D01*
X020418Y011641D01*
X020342Y011565D01*
X020342Y010757D01*
X020353Y010746D01*
X020279Y010643D01*
X019426Y010643D01*
X019366Y010703D01*
X018758Y010703D01*
X018682Y010627D01*
X018682Y010049D01*
X018165Y010058D01*
X018163Y010058D01*
X018162Y010059D01*
X018077Y010059D01*
X017460Y010069D01*
X017172Y010358D01*
X016062Y010358D01*
X016062Y010627D01*
X015986Y010703D01*
X015862Y010703D01*
X015862Y012035D01*
X015897Y011999D01*
X016011Y011953D01*
X016090Y011953D01*
X016090Y011415D01*
X016030Y011355D01*
X016030Y010747D01*
X016106Y010671D01*
X018638Y010671D01*
X018714Y010747D01*
X018714Y010948D01*
X019318Y011553D01*
X019433Y011553D01*
X019546Y011599D01*
X019633Y011686D01*
X019680Y011799D01*
X019680Y011922D01*
X019633Y012035D01*
X019546Y012122D01*
X019433Y012169D01*
X019311Y012169D01*
X019197Y012122D01*
X019122Y012046D01*
X019046Y012122D01*
X018933Y012169D01*
X018811Y012169D01*
X018697Y012122D01*
X018611Y012035D01*
X018564Y011922D01*
X018564Y011807D01*
X018497Y011741D01*
X018297Y011741D01*
X018280Y011723D01*
X018233Y011835D01*
X018216Y011853D01*
X018233Y011853D01*
X018346Y011899D01*
X018433Y011986D01*
X018480Y012099D01*
X018480Y012222D01*
X018433Y012335D01*
X018346Y012422D01*
X018234Y012468D01*
X019246Y013481D01*
X020327Y013481D01*
X020373Y013467D01*
X020399Y013481D01*
X020429Y013481D01*
X020462Y013514D01*
X021208Y013911D01*
X021208Y013748D01*
X021608Y013748D01*
X021608Y013648D01*
X021708Y013648D01*
X021708Y013348D01*
X021978Y013348D01*
X022016Y013359D01*
X022050Y013378D01*
X022078Y013406D01*
X022098Y013441D01*
X022108Y013479D01*
X022108Y013648D01*
X021708Y013648D01*
X021708Y013748D01*
X022108Y013748D01*
X022108Y013918D01*
X022098Y013956D01*
X022078Y013991D01*
X022050Y014018D01*
X022016Y014038D01*
X021978Y014048D01*
X021852Y014048D01*
X021852Y014432D01*
X021839Y014445D01*
X021852Y014458D01*
X021852Y014865D01*
X021839Y014878D01*
X021852Y014891D01*
X021852Y014915D01*
X022614Y014915D01*
X024467Y013061D01*
X024467Y012520D01*
X022680Y014307D01*
X022680Y014422D01*
X022633Y014535D01*
X022546Y014622D01*
X022433Y014669D01*
X022311Y014669D01*
X022197Y014622D01*
X022111Y014535D01*
X022064Y014422D01*
X022064Y014299D01*
X022111Y014186D01*
X022197Y014099D01*
X022311Y014053D01*
X022425Y014053D01*
X024484Y011994D01*
X024467Y011951D01*
X024467Y011770D01*
X024536Y011603D01*
X024664Y011475D01*
X024831Y011406D01*
X025012Y011406D01*
X025180Y011475D01*
X025308Y011603D01*
X025377Y011770D01*
X025377Y011951D01*
X025308Y012118D01*
X025180Y012246D01*
X025012Y012316D01*
X024831Y012316D01*
X024718Y012269D01*
X024581Y012406D01*
X025301Y012406D01*
X025377Y012482D01*
X025377Y013240D01*
X025301Y013316D01*
X024721Y013316D01*
X022763Y015275D01*
X021852Y015275D01*
X021852Y015298D01*
X021850Y015300D01*
X021862Y015320D01*
X021872Y015358D01*
X021872Y015503D01*
X021447Y015503D01*
X021447Y015553D01*
X021872Y015553D01*
X021872Y015681D01*
X022116Y015681D01*
X022197Y015599D01*
X022311Y015553D01*
X022433Y015553D01*
X022546Y015599D01*
X022633Y015686D01*
X022680Y015799D01*
X022680Y015922D01*
X022633Y016035D01*
X022546Y016122D01*
X022433Y016169D01*
X022311Y016169D01*
X022197Y016122D01*
X022116Y016041D01*
X021852Y016041D01*
X021852Y016165D01*
X021839Y016177D01*
X021843Y016181D01*
X025297Y016181D01*
X026492Y014986D01*
X026492Y013135D01*
X026397Y013041D01*
X026340Y013041D01*
X026308Y013118D01*
X026180Y013246D01*
X026012Y013316D01*
X025831Y013316D01*
X025664Y013246D01*
X025536Y013118D01*
X025467Y012951D01*
X025467Y012770D01*
X025536Y012603D01*
X025664Y012475D01*
X025831Y012406D01*
X026012Y012406D01*
X026180Y012475D01*
X026308Y012603D01*
X026340Y012681D01*
X026487Y012681D01*
X026090Y012283D01*
X026012Y012316D01*
X025831Y012316D01*
X025664Y012246D01*
X025536Y012118D01*
X025467Y011951D01*
X025467Y011770D01*
X025536Y011603D01*
X025664Y011475D01*
X025831Y011406D01*
X026012Y011406D01*
X026180Y011475D01*
X026308Y011603D01*
X026377Y011770D01*
X026377Y011951D01*
X026345Y012029D01*
X027046Y012731D01*
X027152Y012836D01*
X027152Y015835D01*
X026086Y016901D01*
X025980Y017007D01*
X021852Y017007D01*
X021852Y017031D01*
X021839Y017043D01*
X021852Y017056D01*
X021852Y017464D01*
X021839Y017476D01*
X021852Y017489D01*
X021852Y017897D01*
X021776Y017973D01*
X021068Y017973D01*
X020992Y017897D01*
X020992Y017489D01*
X021005Y017476D01*
X020992Y017464D01*
X020992Y017440D01*
X020428Y017440D01*
X020346Y017522D01*
X020233Y017569D01*
X020118Y017569D01*
X017752Y019935D01*
X017646Y020041D01*
X014946Y020041D01*
X014517Y020470D01*
X014530Y020475D01*
X014658Y020603D01*
X014727Y020770D01*
X014727Y020951D01*
X014658Y021118D01*
X014530Y021246D01*
X014362Y021316D01*
X014181Y021316D01*
X014014Y021246D01*
X013886Y021118D01*
X013817Y020951D01*
X013817Y020770D01*
X013886Y020603D01*
X014014Y020475D01*
X014092Y020443D01*
X014092Y020386D01*
X014197Y020281D01*
X014797Y019681D01*
X017497Y019681D01*
X019864Y017314D01*
X019864Y017199D01*
X019911Y017086D01*
X019990Y017007D01*
X019552Y017007D01*
X019552Y017435D01*
X017552Y019435D01*
X017446Y019541D01*
X014846Y019541D01*
X013695Y020692D01*
X013727Y020770D01*
X013727Y020951D01*
X013658Y021118D01*
X013530Y021246D01*
X013362Y021316D01*
X013181Y021316D01*
X013014Y021246D01*
X012886Y021118D01*
X012817Y020951D01*
X012817Y020770D01*
X012886Y020603D01*
X013014Y020475D01*
X013181Y020406D01*
X013362Y020406D01*
X013440Y020438D01*
X014697Y019181D01*
X017297Y019181D01*
X018892Y017586D01*
X018809Y017586D01*
X018809Y017298D01*
X018734Y017298D01*
X018734Y017223D01*
X018447Y017223D01*
X018447Y017104D01*
X018460Y017055D01*
X018486Y017010D01*
X018522Y016974D01*
X018557Y016954D01*
X018467Y016864D01*
X018467Y016457D01*
X018554Y016371D01*
X018085Y016371D01*
X014685Y012971D01*
X014562Y012848D01*
X014562Y011421D01*
X014277Y011421D01*
X014277Y011435D01*
X014171Y011541D01*
X013572Y011541D01*
X013467Y011435D01*
X013467Y011421D01*
X013127Y011421D01*
X013127Y011465D01*
X013051Y011541D01*
X012493Y011541D01*
X012417Y011465D01*
X012417Y010957D01*
X012493Y010881D01*
X013051Y010881D01*
X013127Y010957D01*
X013127Y011001D01*
X013467Y011001D01*
X013467Y010986D01*
X013572Y010881D01*
X014171Y010881D01*
X014277Y010986D01*
X014277Y011001D01*
X014862Y011001D01*
X014862Y010471D01*
X014385Y010471D01*
X014297Y010383D01*
X014297Y010461D01*
X013922Y010461D01*
X013922Y010561D01*
X013822Y010561D01*
X013822Y010861D01*
X013621Y010861D01*
X013570Y010847D01*
X013524Y010821D01*
X013487Y010783D01*
X013461Y010738D01*
X013447Y010687D01*
X013447Y010561D01*
X013822Y010561D01*
X013822Y010461D01*
X013447Y010461D01*
X013447Y010334D01*
X013461Y010283D01*
X013487Y010238D01*
X013524Y010201D01*
X013570Y010174D01*
X013621Y010161D01*
X013822Y010161D01*
X013822Y010461D01*
X013922Y010461D01*
X013922Y010161D01*
X014075Y010161D01*
X013072Y009158D01*
X013072Y009311D01*
X012772Y009311D01*
X012772Y009411D01*
X012672Y009411D01*
X012672Y009786D01*
X012546Y009786D01*
X012495Y009772D01*
X012449Y009746D01*
X012412Y009708D01*
X012386Y009663D01*
X012372Y009612D01*
X012372Y009411D01*
X012672Y009411D01*
X012672Y009311D01*
X012372Y009311D01*
X012372Y009109D01*
X012386Y009058D01*
X012412Y009013D01*
X012449Y008976D01*
X012495Y008949D01*
X012546Y008936D01*
X012672Y008936D01*
X012672Y009311D01*
X012772Y009311D01*
X012772Y008936D01*
X012850Y008936D01*
X011862Y007948D01*
X011862Y007859D01*
X011767Y007764D01*
X011767Y007357D01*
X011864Y007261D01*
X011767Y007164D01*
X011767Y007141D01*
X011102Y007141D01*
X011102Y007640D01*
X011026Y007716D01*
X010418Y007716D01*
X010382Y007680D01*
X009522Y008541D01*
X009477Y008541D01*
X009477Y008564D01*
X009375Y008666D01*
X008969Y008666D01*
X008872Y008569D01*
X008775Y008666D01*
X008369Y008666D01*
X008267Y008564D01*
X008267Y008541D01*
X007290Y008541D01*
X007258Y008618D01*
X007130Y008746D01*
X006962Y008816D01*
X006781Y008816D01*
X006614Y008746D01*
X006486Y008618D01*
X006417Y008451D01*
X006417Y008270D01*
X006486Y008103D01*
X006614Y007975D01*
X006781Y007906D01*
X006962Y007906D01*
X007130Y007975D01*
X007258Y008103D01*
X007290Y008181D01*
X008267Y008181D01*
X008267Y008157D01*
X008369Y008056D01*
X008775Y008056D01*
X008872Y008152D01*
X008969Y008056D01*
X009375Y008056D01*
X009437Y008117D01*
X010342Y007212D01*
X010342Y006532D01*
X010418Y006456D01*
X011026Y006456D01*
X011102Y006532D01*
X011102Y006781D01*
X011767Y006781D01*
X011767Y006757D01*
X011869Y006656D01*
X012275Y006656D01*
X012299Y006679D01*
X013437Y005541D01*
X007946Y005541D01*
X007295Y006192D01*
X007327Y006270D01*
X007327Y006451D01*
X007258Y006618D01*
X007130Y006746D01*
X006962Y006816D01*
X006781Y006816D01*
X006614Y006746D01*
X006552Y006684D01*
X006552Y006786D01*
X006704Y006938D01*
X006781Y006906D01*
X006962Y006906D01*
X007130Y006975D01*
X007258Y007103D01*
X007327Y007270D01*
X007327Y007451D01*
X007258Y007618D01*
X007130Y007746D01*
X006962Y007816D01*
X006781Y007816D01*
X006614Y007746D01*
X006486Y007618D01*
X006417Y007451D01*
X006417Y007270D01*
X006449Y007192D01*
X006297Y007041D01*
X006192Y006935D01*
X006192Y004786D01*
X006297Y004681D01*
X006548Y004681D01*
X006486Y004618D01*
X006417Y004451D01*
X006417Y004270D01*
X006486Y004103D01*
X006614Y003975D01*
X006781Y003906D01*
X006962Y003906D01*
X007130Y003975D01*
X007258Y004103D01*
X007327Y004270D01*
X007327Y004451D01*
X007258Y004618D01*
X007195Y004681D01*
X016837Y004681D01*
X016197Y004041D01*
X014297Y004041D01*
X014192Y003935D01*
X012797Y002541D01*
X012692Y002435D01*
X012692Y002279D01*
X012614Y002246D01*
X012486Y002118D01*
X012417Y001951D01*
X012417Y001770D01*
X012486Y001603D01*
X012614Y001475D01*
X012625Y001471D01*
X012119Y001471D01*
X012130Y001475D01*
X012258Y001603D01*
X012327Y001770D01*
X012327Y001951D01*
X012258Y002118D01*
X012130Y002246D01*
X011962Y002316D01*
X011781Y002316D01*
X011614Y002246D01*
X011486Y002118D01*
X011417Y001951D01*
X011417Y001770D01*
X011486Y001603D01*
X011614Y001475D01*
X011625Y001471D01*
X011316Y001471D01*
X011327Y001482D01*
X011327Y002240D01*
X011607Y002240D01*
X011509Y002141D02*
X011327Y002141D01*
X011327Y002043D02*
X011455Y002043D01*
X011417Y001944D02*
X011327Y001944D01*
X011327Y001846D02*
X011417Y001846D01*
X011426Y001747D02*
X011327Y001747D01*
X011327Y001649D02*
X011467Y001649D01*
X011539Y001550D02*
X011327Y001550D01*
X011327Y002240D02*
X011251Y002316D01*
X010493Y002316D01*
X010417Y002240D01*
X006982Y002240D01*
X006982Y002338D02*
X012692Y002338D01*
X012693Y002437D02*
X006982Y002437D01*
X006982Y002535D02*
X012792Y002535D01*
X012797Y002541D02*
X012797Y002541D01*
X012890Y002634D02*
X006896Y002634D01*
X006982Y002548D02*
X006644Y002886D01*
X006834Y002886D01*
X006834Y003323D01*
X006397Y003323D01*
X006397Y003133D01*
X005582Y003948D01*
X005582Y008274D01*
X006459Y009151D01*
X006582Y009274D01*
X006582Y011274D01*
X006853Y011544D01*
X007578Y011544D01*
X007656Y011467D01*
X009088Y011467D01*
X009166Y011544D01*
X010991Y011544D01*
X011617Y010919D01*
X011617Y010607D01*
X011693Y010531D01*
X011762Y010531D01*
X011762Y009730D01*
X011692Y009660D01*
X011692Y009061D01*
X011797Y008956D01*
X012246Y008956D01*
X012352Y009061D01*
X012352Y009660D01*
X012246Y009766D01*
X012182Y009766D01*
X012182Y010531D01*
X012251Y010531D01*
X012327Y010607D01*
X012327Y011115D01*
X012251Y011191D01*
X012182Y011191D01*
X012182Y011874D01*
X013040Y012732D01*
X013040Y012732D01*
X013163Y012855D01*
X013163Y016151D01*
X013492Y016151D01*
X013492Y016057D01*
X013568Y015981D01*
X014176Y015981D01*
X014225Y016030D02*
X014519Y016030D01*
X014492Y016128D02*
X014252Y016128D01*
X014252Y016227D02*
X014492Y016227D01*
X014492Y016325D02*
X014252Y016325D01*
X014252Y016424D02*
X014492Y016424D01*
X014492Y016522D02*
X014252Y016522D01*
X014252Y016621D02*
X014492Y016621D01*
X014547Y016719D02*
X014197Y016719D01*
X014082Y016818D02*
X018467Y016818D01*
X018467Y016719D02*
X015197Y016719D01*
X015252Y016621D02*
X018467Y016621D01*
X018467Y016522D02*
X015252Y016522D01*
X015252Y016424D02*
X018501Y016424D01*
X018039Y016325D02*
X015252Y016325D01*
X015252Y016227D02*
X017941Y016227D01*
X017842Y016128D02*
X015252Y016128D01*
X015225Y016030D02*
X017744Y016030D01*
X017645Y015931D02*
X015082Y015931D01*
X015082Y015833D02*
X017547Y015833D01*
X017448Y015734D02*
X015182Y015734D01*
X015252Y015636D02*
X017350Y015636D01*
X017251Y015537D02*
X015252Y015537D01*
X015252Y015439D02*
X017153Y015439D01*
X017054Y015340D02*
X015252Y015340D01*
X015252Y015242D02*
X016956Y015242D01*
X016857Y015143D02*
X015252Y015143D01*
X015240Y015045D02*
X016759Y015045D01*
X016660Y014946D02*
X013163Y014946D01*
X013163Y014848D02*
X016562Y014848D01*
X016463Y014749D02*
X013163Y014749D01*
X013163Y014651D02*
X016365Y014651D01*
X016266Y014552D02*
X013163Y014552D01*
X013163Y014454D02*
X016168Y014454D01*
X016069Y014355D02*
X013163Y014355D01*
X013163Y014257D02*
X015971Y014257D01*
X015872Y014158D02*
X013163Y014158D01*
X013163Y014060D02*
X015774Y014060D01*
X015675Y013961D02*
X013163Y013961D01*
X013163Y013863D02*
X015577Y013863D01*
X015478Y013764D02*
X013163Y013764D01*
X013163Y013666D02*
X015380Y013666D01*
X015281Y013567D02*
X013163Y013567D01*
X013163Y013469D02*
X015183Y013469D01*
X015084Y013370D02*
X013163Y013370D01*
X013163Y013272D02*
X014986Y013272D01*
X014887Y013173D02*
X013163Y013173D01*
X013163Y013075D02*
X014789Y013075D01*
X014690Y012976D02*
X013163Y012976D01*
X013163Y012878D02*
X014592Y012878D01*
X014562Y012779D02*
X013087Y012779D01*
X012989Y012681D02*
X014562Y012681D01*
X014562Y012582D02*
X012890Y012582D01*
X012792Y012484D02*
X014562Y012484D01*
X014562Y012385D02*
X012693Y012385D01*
X012595Y012287D02*
X014562Y012287D01*
X014562Y012188D02*
X012496Y012188D01*
X012398Y012090D02*
X014562Y012090D01*
X014562Y011991D02*
X012299Y011991D01*
X012201Y011893D02*
X014562Y011893D01*
X014562Y011794D02*
X012182Y011794D01*
X012182Y011696D02*
X014562Y011696D01*
X014562Y011597D02*
X012182Y011597D01*
X012182Y011499D02*
X012451Y011499D01*
X012417Y011400D02*
X012182Y011400D01*
X012182Y011302D02*
X012417Y011302D01*
X012417Y011203D02*
X012182Y011203D01*
X012327Y011105D02*
X012417Y011105D01*
X012417Y011006D02*
X012327Y011006D01*
X012327Y010908D02*
X012466Y010908D01*
X012489Y010850D02*
X012455Y010831D01*
X012427Y010803D01*
X012407Y010769D01*
X012397Y010730D01*
X012397Y010561D01*
X012722Y010561D01*
X012722Y010861D01*
X012527Y010861D01*
X012489Y010850D01*
X012433Y010809D02*
X012327Y010809D01*
X012327Y010711D02*
X012397Y010711D01*
X012397Y010612D02*
X012327Y010612D01*
X012397Y010461D02*
X012397Y010291D01*
X012407Y010253D01*
X012427Y010219D01*
X012455Y010191D01*
X012489Y010171D01*
X012527Y010161D01*
X012722Y010161D01*
X012722Y010461D01*
X012397Y010461D01*
X012397Y010415D02*
X012182Y010415D01*
X012182Y010317D02*
X012397Y010317D01*
X012427Y010218D02*
X012182Y010218D01*
X012182Y010120D02*
X014034Y010120D01*
X013935Y010021D02*
X012182Y010021D01*
X012182Y009923D02*
X013837Y009923D01*
X013738Y009824D02*
X012182Y009824D01*
X012286Y009726D02*
X012429Y009726D01*
X012376Y009627D02*
X012352Y009627D01*
X012352Y009529D02*
X012372Y009529D01*
X012372Y009430D02*
X012352Y009430D01*
X012352Y009332D02*
X012672Y009332D01*
X012572Y009586D02*
X012872Y009586D01*
X012872Y009136D01*
X012572Y009136D01*
X012572Y009586D01*
X012572Y009235D02*
X012872Y009235D01*
X012872Y009334D02*
X012572Y009334D01*
X012572Y009433D02*
X012872Y009433D01*
X012872Y009532D02*
X012572Y009532D01*
X012672Y009529D02*
X012772Y009529D01*
X012772Y009627D02*
X012672Y009627D01*
X012672Y009726D02*
X012772Y009726D01*
X012772Y009786D02*
X012772Y009411D01*
X013072Y009411D01*
X013072Y009612D01*
X013058Y009663D01*
X013032Y009708D01*
X012995Y009746D01*
X012949Y009772D01*
X012898Y009786D01*
X012772Y009786D01*
X013015Y009726D02*
X013640Y009726D01*
X013541Y009627D02*
X013068Y009627D01*
X013072Y009529D02*
X013443Y009529D01*
X013344Y009430D02*
X013072Y009430D01*
X013072Y009233D02*
X013147Y009233D01*
X013246Y009332D02*
X012772Y009332D01*
X012772Y009430D02*
X012672Y009430D01*
X012672Y009233D02*
X012772Y009233D01*
X012772Y009135D02*
X012672Y009135D01*
X012672Y009036D02*
X012772Y009036D01*
X012772Y008938D02*
X012672Y008938D01*
X012753Y008839D02*
X006147Y008839D01*
X006049Y008741D02*
X006608Y008741D01*
X006510Y008642D02*
X005950Y008642D01*
X005852Y008544D02*
X006455Y008544D01*
X006417Y008445D02*
X005753Y008445D01*
X005655Y008347D02*
X006417Y008347D01*
X006426Y008248D02*
X005582Y008248D01*
X005582Y008150D02*
X006467Y008150D01*
X006538Y008051D02*
X005582Y008051D01*
X005582Y007953D02*
X006668Y007953D01*
X006637Y007756D02*
X005582Y007756D01*
X005582Y007854D02*
X009699Y007854D01*
X009601Y007953D02*
X007076Y007953D01*
X007206Y008051D02*
X009502Y008051D01*
X009448Y008361D02*
X010722Y007086D01*
X010848Y006961D01*
X012072Y006961D01*
X012272Y006961D01*
X013572Y005661D01*
X016272Y005661D01*
X017529Y006918D01*
X017529Y007671D01*
X017529Y008218D01*
X017672Y008361D01*
X018372Y008361D01*
X019272Y007461D01*
X019872Y007461D01*
X023972Y007461D01*
X024372Y007861D01*
X024372Y010311D01*
X024922Y010861D01*
X025223Y011203D02*
X025593Y011203D01*
X025612Y011223D02*
X025560Y011170D01*
X025516Y011110D01*
X025482Y011043D01*
X025459Y010972D01*
X025447Y010898D01*
X025884Y010898D01*
X025884Y010823D01*
X025447Y010823D01*
X025459Y010749D01*
X025482Y010678D01*
X025516Y010612D01*
X025560Y010551D01*
X025612Y010498D01*
X025673Y010454D01*
X025740Y010420D01*
X025811Y010397D01*
X025884Y010386D01*
X025884Y010823D01*
X025959Y010823D01*
X025959Y010386D01*
X026033Y010397D01*
X026104Y010420D01*
X026171Y010454D01*
X026231Y010498D01*
X026284Y010551D01*
X026328Y010612D01*
X026362Y010678D01*
X026385Y010749D01*
X026397Y010823D01*
X025959Y010823D01*
X025959Y010898D01*
X025884Y010898D01*
X025884Y011336D01*
X025811Y011324D01*
X025740Y011301D01*
X025673Y011267D01*
X025612Y011223D01*
X025742Y011302D02*
X025046Y011302D01*
X024798Y011302D02*
X022427Y011302D01*
X022427Y011400D02*
X027172Y011400D01*
X027172Y011302D02*
X026102Y011302D01*
X026104Y011301D02*
X026033Y011324D01*
X025959Y011336D01*
X025959Y010898D01*
X026397Y010898D01*
X026385Y010972D01*
X026362Y011043D01*
X026328Y011110D01*
X026284Y011170D01*
X026231Y011223D01*
X026171Y011267D01*
X026104Y011301D01*
X025959Y011302D02*
X025884Y011302D01*
X025884Y011203D02*
X025959Y011203D01*
X025959Y011105D02*
X025884Y011105D01*
X025884Y011006D02*
X025959Y011006D01*
X025959Y010908D02*
X025884Y010908D01*
X025884Y010809D02*
X025959Y010809D01*
X025959Y010711D02*
X025884Y010711D01*
X025884Y010612D02*
X025959Y010612D01*
X025959Y010514D02*
X025884Y010514D01*
X025884Y010415D02*
X025959Y010415D01*
X026088Y010415D02*
X027172Y010415D01*
X027172Y010317D02*
X024633Y010317D01*
X024552Y010218D02*
X027172Y010218D01*
X027172Y010120D02*
X024552Y010120D01*
X024552Y010021D02*
X027172Y010021D01*
X027172Y009923D02*
X024552Y009923D01*
X024552Y009824D02*
X027172Y009824D01*
X027172Y009726D02*
X026374Y009726D01*
X026376Y009722D02*
X026356Y009756D01*
X026328Y009784D01*
X026294Y009804D01*
X026256Y009814D01*
X025920Y009814D01*
X025920Y009348D01*
X025824Y009348D01*
X025824Y009814D01*
X025488Y009814D01*
X025450Y009804D01*
X025416Y009784D01*
X025388Y009756D01*
X025368Y009722D01*
X025358Y009684D01*
X025358Y009348D01*
X025824Y009348D01*
X025824Y009251D01*
X025920Y009251D01*
X025920Y008785D01*
X026256Y008785D01*
X026294Y008796D01*
X026328Y008815D01*
X026356Y008843D01*
X026376Y008878D01*
X026386Y008916D01*
X026386Y009251D01*
X025920Y009251D01*
X025920Y009348D01*
X026386Y009348D01*
X026386Y009684D01*
X026376Y009722D01*
X026386Y009627D02*
X027172Y009627D01*
X027172Y009529D02*
X026386Y009529D01*
X026386Y009430D02*
X027172Y009430D01*
X027172Y009332D02*
X025920Y009332D01*
X025824Y009332D02*
X024552Y009332D01*
X024552Y009430D02*
X025358Y009430D01*
X025358Y009529D02*
X024552Y009529D01*
X024552Y009627D02*
X025358Y009627D01*
X025370Y009726D02*
X024552Y009726D01*
X024192Y009726D02*
X022417Y009726D01*
X022447Y009824D02*
X024192Y009824D01*
X024192Y009923D02*
X022447Y009923D01*
X022447Y009998D02*
X022447Y010117D01*
X022434Y010167D01*
X022408Y010211D01*
X022372Y010247D01*
X022328Y010272D01*
X022279Y010286D01*
X022159Y010286D01*
X022159Y009998D01*
X022447Y009998D01*
X022447Y010021D02*
X024192Y010021D01*
X024192Y010120D02*
X022446Y010120D01*
X022401Y010218D02*
X024192Y010218D01*
X024192Y010317D02*
X022359Y010317D01*
X022437Y010415D02*
X024222Y010415D01*
X024320Y010514D02*
X022447Y010514D01*
X022447Y010711D02*
X024492Y010711D01*
X024467Y010809D02*
X022436Y010809D01*
X022354Y010908D02*
X024467Y010908D01*
X024490Y011006D02*
X022426Y011006D01*
X022427Y011105D02*
X024531Y011105D01*
X024621Y011203D02*
X022427Y011203D01*
X022122Y011211D02*
X021622Y011161D01*
X020872Y011161D01*
X020372Y010463D01*
X019062Y010463D01*
X019062Y010148D02*
X020372Y010148D01*
X020872Y009461D01*
X021622Y009461D01*
X022122Y009361D01*
X022427Y009332D02*
X024192Y009332D01*
X024192Y009430D02*
X022427Y009430D01*
X022427Y009529D02*
X024192Y009529D01*
X024192Y009627D02*
X022364Y009627D01*
X021880Y009627D02*
X021710Y009627D01*
X021827Y009726D02*
X021402Y009726D01*
X021402Y009824D02*
X021797Y009824D01*
X021797Y009923D02*
X021344Y009923D01*
X021797Y009998D02*
X022084Y009998D01*
X022084Y010286D01*
X021965Y010286D01*
X021916Y010272D01*
X021872Y010247D01*
X021836Y010211D01*
X021810Y010167D01*
X021797Y010117D01*
X021797Y009998D01*
X021797Y010021D02*
X020687Y010021D01*
X020615Y010120D02*
X021798Y010120D01*
X021843Y010218D02*
X020552Y010218D01*
X020489Y010317D02*
X021885Y010317D01*
X021807Y010415D02*
X020559Y010415D01*
X020630Y010514D02*
X021797Y010514D01*
X021797Y010711D02*
X021356Y010711D01*
X021402Y010809D02*
X021808Y010809D01*
X021890Y010908D02*
X021402Y010908D01*
X021402Y011400D02*
X021817Y011400D01*
X021902Y011499D02*
X021402Y011499D01*
X021369Y011597D02*
X024542Y011597D01*
X024498Y011696D02*
X019637Y011696D01*
X019678Y011794D02*
X024467Y011794D01*
X024467Y011893D02*
X019680Y011893D01*
X019651Y011991D02*
X024484Y011991D01*
X024388Y012090D02*
X019579Y012090D01*
X019372Y011861D02*
X018562Y011051D01*
X018474Y011051D01*
X018714Y010908D02*
X020342Y010908D01*
X020342Y011006D02*
X018772Y011006D01*
X018871Y011105D02*
X020342Y011105D01*
X020342Y011203D02*
X018969Y011203D01*
X019068Y011302D02*
X020342Y011302D01*
X020342Y011400D02*
X019166Y011400D01*
X019265Y011499D02*
X020342Y011499D01*
X020375Y011597D02*
X019541Y011597D01*
X019165Y012090D02*
X019079Y012090D01*
X018872Y011861D02*
X018572Y011561D01*
X018372Y011561D01*
X018159Y011348D01*
X018159Y011051D01*
X017844Y011051D02*
X017844Y011533D01*
X017972Y011661D01*
X018250Y011794D02*
X018551Y011794D01*
X018564Y011893D02*
X018330Y011893D01*
X018435Y011991D02*
X018593Y011991D01*
X018665Y012090D02*
X018476Y012090D01*
X018480Y012188D02*
X024290Y012188D01*
X024191Y012287D02*
X018453Y012287D01*
X018383Y012385D02*
X024093Y012385D01*
X023994Y012484D02*
X018250Y012484D01*
X018348Y012582D02*
X023896Y012582D01*
X023797Y012681D02*
X018447Y012681D01*
X018545Y012779D02*
X023699Y012779D01*
X023600Y012878D02*
X018644Y012878D01*
X018742Y012976D02*
X023502Y012976D01*
X023403Y013075D02*
X018841Y013075D01*
X018939Y013173D02*
X023305Y013173D01*
X023206Y013272D02*
X019038Y013272D01*
X019136Y013370D02*
X021280Y013370D01*
X021266Y013378D02*
X021300Y013359D01*
X021338Y013348D01*
X021608Y013348D01*
X021608Y013648D01*
X021208Y013648D01*
X021208Y013479D01*
X021218Y013441D01*
X021238Y013406D01*
X021266Y013378D01*
X021211Y013469D02*
X020377Y013469D01*
X020366Y013469D02*
X019235Y013469D01*
X019172Y013661D02*
X020354Y013661D01*
X021422Y014228D01*
X021208Y013863D02*
X021118Y013863D01*
X021208Y013764D02*
X020932Y013764D01*
X020747Y013666D02*
X021608Y013666D01*
X021608Y013567D02*
X021708Y013567D01*
X021708Y013469D02*
X021608Y013469D01*
X021608Y013370D02*
X021708Y013370D01*
X022036Y013370D02*
X023108Y013370D01*
X023009Y013469D02*
X022105Y013469D01*
X022108Y013567D02*
X022911Y013567D01*
X022812Y013666D02*
X021708Y013666D01*
X022108Y013764D02*
X022714Y013764D01*
X022615Y013863D02*
X022108Y013863D01*
X022095Y013961D02*
X022517Y013961D01*
X022293Y014060D02*
X021852Y014060D01*
X021852Y014158D02*
X022139Y014158D01*
X022082Y014257D02*
X021852Y014257D01*
X021852Y014355D02*
X022064Y014355D01*
X022077Y014454D02*
X021848Y014454D01*
X021852Y014552D02*
X022128Y014552D01*
X022267Y014651D02*
X021852Y014651D01*
X021852Y014749D02*
X022779Y014749D01*
X022877Y014651D02*
X022477Y014651D01*
X022616Y014552D02*
X022976Y014552D01*
X023074Y014454D02*
X022667Y014454D01*
X022680Y014355D02*
X023173Y014355D01*
X023271Y014257D02*
X022730Y014257D01*
X022829Y014158D02*
X023370Y014158D01*
X023468Y014060D02*
X022927Y014060D01*
X023026Y013961D02*
X023567Y013961D01*
X023665Y013863D02*
X023124Y013863D01*
X023223Y013764D02*
X023764Y013764D01*
X023862Y013666D02*
X023321Y013666D01*
X023420Y013567D02*
X023961Y013567D01*
X024059Y013469D02*
X023518Y013469D01*
X023617Y013370D02*
X024158Y013370D01*
X024256Y013272D02*
X023715Y013272D01*
X023814Y013173D02*
X024355Y013173D01*
X024453Y013075D02*
X023912Y013075D01*
X024011Y012976D02*
X024467Y012976D01*
X024467Y012878D02*
X024109Y012878D01*
X024208Y012779D02*
X024467Y012779D01*
X024467Y012681D02*
X024306Y012681D01*
X024405Y012582D02*
X024467Y012582D01*
X024602Y012385D02*
X026192Y012385D01*
X026188Y012484D02*
X026290Y012484D01*
X026287Y012582D02*
X026389Y012582D01*
X026472Y012861D02*
X026672Y013061D01*
X026672Y015061D01*
X025372Y016361D01*
X021455Y016361D01*
X021422Y016394D01*
X021422Y016827D02*
X025906Y016827D01*
X026972Y015761D01*
X026972Y012911D01*
X025922Y011861D01*
X025498Y011696D02*
X025346Y011696D01*
X025377Y011794D02*
X025467Y011794D01*
X025467Y011893D02*
X025377Y011893D01*
X025360Y011991D02*
X025484Y011991D01*
X025524Y012090D02*
X025320Y012090D01*
X025238Y012188D02*
X025606Y012188D01*
X025761Y012287D02*
X025082Y012287D01*
X024761Y012287D02*
X024700Y012287D01*
X024872Y011861D02*
X022372Y014361D01*
X022680Y014848D02*
X021852Y014848D01*
X021867Y015340D02*
X026138Y015340D01*
X026236Y015242D02*
X025939Y015242D01*
X025926Y015255D02*
X025788Y015312D01*
X025639Y015312D01*
X025501Y015255D01*
X025395Y015149D01*
X025338Y015012D01*
X025338Y014862D01*
X025395Y014725D01*
X025501Y014619D01*
X025639Y014562D01*
X025788Y014562D01*
X025926Y014619D01*
X026031Y014725D01*
X026088Y014862D01*
X026088Y015012D01*
X026031Y015149D01*
X025926Y015255D01*
X026034Y015143D02*
X026335Y015143D01*
X026433Y015045D02*
X026075Y015045D01*
X026088Y014946D02*
X026492Y014946D01*
X026492Y014848D02*
X026082Y014848D01*
X026041Y014749D02*
X026492Y014749D01*
X026492Y014651D02*
X025957Y014651D01*
X026492Y014552D02*
X023485Y014552D01*
X023583Y014454D02*
X026492Y014454D01*
X026492Y014355D02*
X023682Y014355D01*
X023780Y014257D02*
X025017Y014257D01*
X025014Y014255D02*
X024986Y014227D01*
X024966Y014193D01*
X024956Y014154D01*
X024956Y013885D01*
X025456Y013885D01*
X025456Y014285D01*
X025086Y014285D01*
X025048Y014274D01*
X025014Y014255D01*
X024957Y014158D02*
X023879Y014158D01*
X023977Y014060D02*
X024956Y014060D01*
X024956Y013961D02*
X024076Y013961D01*
X024174Y013863D02*
X025456Y013863D01*
X025456Y013885D02*
X025456Y013785D01*
X024956Y013785D01*
X024956Y013515D01*
X024966Y013477D01*
X024986Y013443D01*
X025014Y013415D01*
X025048Y013395D01*
X025086Y013385D01*
X025456Y013385D01*
X025456Y013785D01*
X025556Y013785D01*
X025556Y013885D01*
X025456Y013885D01*
X025456Y013961D02*
X025556Y013961D01*
X025556Y013885D02*
X025556Y014285D01*
X025926Y014285D01*
X025964Y014274D01*
X025998Y014255D01*
X026026Y014227D01*
X026046Y014193D01*
X026056Y014154D01*
X026056Y013885D01*
X025556Y013885D01*
X025556Y013863D02*
X026492Y013863D01*
X026492Y013961D02*
X026056Y013961D01*
X026056Y014060D02*
X026492Y014060D01*
X026492Y014158D02*
X026055Y014158D01*
X025994Y014257D02*
X026492Y014257D01*
X026492Y013764D02*
X026056Y013764D01*
X026056Y013785D02*
X025556Y013785D01*
X025556Y013385D01*
X025926Y013385D01*
X025964Y013395D01*
X025998Y013415D01*
X026026Y013443D01*
X026046Y013477D01*
X026056Y013515D01*
X026056Y013785D01*
X026056Y013666D02*
X026492Y013666D01*
X026492Y013567D02*
X026056Y013567D01*
X026041Y013469D02*
X026492Y013469D01*
X026492Y013370D02*
X024667Y013370D01*
X024568Y013469D02*
X024971Y013469D01*
X024956Y013567D02*
X024470Y013567D01*
X024371Y013666D02*
X024956Y013666D01*
X024956Y013764D02*
X024273Y013764D01*
X024922Y012861D02*
X022688Y015095D01*
X021422Y015095D01*
X021288Y015161D01*
X018872Y015161D01*
X016270Y012558D01*
X016270Y011051D01*
X016270Y012063D01*
X016072Y012261D01*
X015862Y012486D02*
X015862Y012596D01*
X018946Y015681D01*
X020972Y015681D01*
X020972Y015553D01*
X021397Y015553D01*
X021397Y015503D01*
X020972Y015503D01*
X020972Y015358D01*
X020977Y015341D01*
X018797Y015341D01*
X018692Y015235D01*
X016090Y012633D01*
X016090Y012569D01*
X016011Y012569D01*
X015897Y012522D01*
X015862Y012486D01*
X015862Y012582D02*
X016090Y012582D01*
X016137Y012681D02*
X015947Y012681D01*
X016045Y012779D02*
X016236Y012779D01*
X016144Y012878D02*
X016334Y012878D01*
X016242Y012976D02*
X016433Y012976D01*
X016341Y013075D02*
X016531Y013075D01*
X016439Y013173D02*
X016630Y013173D01*
X016538Y013272D02*
X016728Y013272D01*
X016636Y013370D02*
X016827Y013370D01*
X016735Y013469D02*
X016925Y013469D01*
X016833Y013567D02*
X017024Y013567D01*
X016932Y013666D02*
X017122Y013666D01*
X017030Y013764D02*
X017221Y013764D01*
X017129Y013863D02*
X017319Y013863D01*
X017227Y013961D02*
X017418Y013961D01*
X017326Y014060D02*
X017516Y014060D01*
X017424Y014158D02*
X017615Y014158D01*
X017523Y014257D02*
X017713Y014257D01*
X017621Y014355D02*
X017812Y014355D01*
X017720Y014454D02*
X017910Y014454D01*
X017818Y014552D02*
X018009Y014552D01*
X017917Y014651D02*
X018107Y014651D01*
X018015Y014749D02*
X018206Y014749D01*
X018114Y014848D02*
X018304Y014848D01*
X018212Y014946D02*
X018403Y014946D01*
X018311Y015045D02*
X018501Y015045D01*
X018409Y015143D02*
X018600Y015143D01*
X018508Y015242D02*
X018698Y015242D01*
X018606Y015340D02*
X018797Y015340D01*
X018705Y015439D02*
X020972Y015439D01*
X020972Y015636D02*
X018902Y015636D01*
X018803Y015537D02*
X021397Y015537D01*
X021447Y015537D02*
X025941Y015537D01*
X026039Y015439D02*
X021872Y015439D01*
X021872Y015636D02*
X022161Y015636D01*
X022372Y015861D02*
X021522Y015861D01*
X021422Y015961D01*
X021322Y015861D01*
X018872Y015861D01*
X015682Y012671D01*
X015682Y012361D01*
X015372Y012361D01*
X015682Y012361D02*
X015682Y010463D01*
X015862Y010711D02*
X016066Y010711D01*
X016062Y010612D02*
X018682Y010612D01*
X018682Y010514D02*
X016062Y010514D01*
X016062Y010415D02*
X018682Y010415D01*
X018682Y010317D02*
X017213Y010317D01*
X017311Y010218D02*
X018682Y010218D01*
X018682Y010120D02*
X017410Y010120D01*
X017111Y009824D02*
X016062Y009824D01*
X016062Y009726D02*
X017210Y009726D01*
X017222Y009713D02*
X017282Y009652D01*
X017284Y009652D01*
X017285Y009651D01*
X017370Y009651D01*
X017865Y009643D01*
X017865Y009116D01*
X017988Y008993D01*
X018662Y008993D01*
X018662Y008893D01*
X019057Y008893D01*
X019057Y008883D01*
X018662Y008883D01*
X018662Y008758D01*
X018672Y008720D01*
X018682Y008703D01*
X018682Y008305D01*
X018446Y008541D01*
X017597Y008541D01*
X017492Y008435D01*
X017349Y008293D01*
X017349Y008051D01*
X016019Y008051D01*
X015986Y008018D02*
X016062Y008094D01*
X016062Y009018D01*
X016072Y009035D01*
X016082Y009073D01*
X016082Y009198D01*
X015687Y009198D01*
X015687Y009208D01*
X016082Y009208D01*
X016082Y009333D01*
X016072Y009371D01*
X016062Y009388D01*
X016062Y009938D01*
X016998Y009938D01*
X017222Y009713D01*
X017013Y009923D02*
X016062Y009923D01*
X016062Y009627D02*
X017865Y009627D01*
X017865Y009529D02*
X016062Y009529D01*
X016062Y009430D02*
X017865Y009430D01*
X017865Y009332D02*
X016082Y009332D01*
X016082Y009233D02*
X017865Y009233D01*
X017865Y009135D02*
X016082Y009135D01*
X016072Y009036D02*
X017945Y009036D01*
X018285Y009413D02*
X018285Y009636D01*
X018662Y009630D01*
X018662Y009523D01*
X019057Y009523D01*
X019057Y009513D01*
X018662Y009513D01*
X018662Y009413D01*
X018285Y009413D01*
X018285Y009430D02*
X018662Y009430D01*
X018662Y009529D02*
X018285Y009529D01*
X018285Y009627D02*
X018662Y009627D01*
X019062Y009833D02*
X019500Y009833D01*
X019772Y009761D01*
X020077Y009726D02*
X020342Y009726D01*
X020342Y009824D02*
X020077Y009824D01*
X020077Y009923D02*
X020313Y009923D01*
X020342Y009627D02*
X020077Y009627D01*
X020048Y009529D02*
X020342Y009529D01*
X020342Y009430D02*
X020039Y009430D01*
X020093Y009332D02*
X020342Y009332D01*
X020342Y009233D02*
X020097Y009233D01*
X020097Y009036D02*
X020363Y009036D01*
X020342Y009135D02*
X019809Y009135D01*
X019734Y009135D02*
X019442Y009135D01*
X019442Y009233D02*
X019447Y009233D01*
X019442Y009332D02*
X019451Y009332D01*
X019462Y009430D02*
X019505Y009430D01*
X019496Y009529D02*
X019462Y009529D01*
X019462Y009627D02*
X019467Y009627D01*
X019734Y009036D02*
X019809Y009036D01*
X019809Y008938D02*
X019734Y008938D01*
X019734Y008839D02*
X019809Y008839D01*
X019942Y008839D02*
X021199Y008839D01*
X021381Y009036D02*
X024192Y009036D01*
X024192Y008938D02*
X020074Y008938D01*
X019602Y008839D02*
X019462Y008839D01*
X019462Y008938D02*
X019470Y008938D01*
X019062Y008573D02*
X021362Y008573D01*
X021571Y008347D02*
X024192Y008347D01*
X024192Y008445D02*
X021642Y008445D01*
X021670Y008544D02*
X024192Y008544D01*
X024192Y008642D02*
X021667Y008642D01*
X021626Y008741D02*
X024192Y008741D01*
X024192Y008839D02*
X021525Y008839D01*
X021402Y009135D02*
X021840Y009135D01*
X021817Y009233D02*
X021402Y009233D01*
X022404Y009135D02*
X024192Y009135D01*
X024192Y009233D02*
X022427Y009233D01*
X022159Y010021D02*
X022084Y010021D01*
X022084Y010120D02*
X022159Y010120D01*
X022159Y010218D02*
X022084Y010218D01*
X022084Y010317D02*
X022159Y010317D01*
X022159Y010415D02*
X022084Y010415D01*
X022084Y010514D02*
X022159Y010514D01*
X022159Y010612D02*
X024419Y010612D01*
X024731Y010415D02*
X024808Y010415D01*
X025035Y010415D02*
X025756Y010415D01*
X025597Y010514D02*
X025218Y010514D01*
X025312Y010612D02*
X025515Y010612D01*
X025471Y010711D02*
X025352Y010711D01*
X025377Y010809D02*
X025449Y010809D01*
X025448Y010908D02*
X025377Y010908D01*
X025354Y011006D02*
X025470Y011006D01*
X025513Y011105D02*
X025313Y011105D01*
X025203Y011499D02*
X025640Y011499D01*
X025542Y011597D02*
X025302Y011597D01*
X024922Y011861D02*
X024872Y011861D01*
X024640Y011499D02*
X022342Y011499D01*
X022084Y010612D02*
X020700Y010612D01*
X020328Y010711D02*
X018678Y010711D01*
X018714Y010809D02*
X020342Y010809D01*
X018165Y010058D02*
X018165Y010058D01*
X017529Y011051D02*
X017529Y011718D01*
X017972Y012161D01*
X018172Y012161D01*
X017772Y012761D02*
X019172Y014161D01*
X020172Y014161D01*
X020562Y013567D02*
X021208Y013567D01*
X019372Y014761D02*
X017572Y012961D01*
X017072Y012961D01*
X016585Y012473D01*
X016585Y011051D01*
X016872Y011051D02*
X016872Y012361D01*
X017272Y012761D01*
X017772Y012761D01*
X017372Y012361D02*
X017214Y012218D01*
X017214Y011051D01*
X017214Y011703D01*
X019172Y013661D01*
X016090Y011893D02*
X015862Y011893D01*
X015862Y011991D02*
X015917Y011991D01*
X015862Y011794D02*
X016090Y011794D01*
X016090Y011696D02*
X015862Y011696D01*
X015862Y011597D02*
X016090Y011597D01*
X016090Y011499D02*
X015862Y011499D01*
X015862Y011400D02*
X016075Y011400D01*
X016030Y011302D02*
X015862Y011302D01*
X015862Y011203D02*
X016030Y011203D01*
X016030Y011105D02*
X015862Y011105D01*
X015862Y011006D02*
X016030Y011006D01*
X016030Y010908D02*
X015862Y010908D01*
X015862Y010809D02*
X016030Y010809D01*
X016872Y011051D02*
X016900Y011051D01*
X014965Y009969D02*
X014911Y009969D01*
X014797Y009922D01*
X014711Y009835D01*
X014664Y009722D01*
X014664Y009599D01*
X014711Y009486D01*
X014797Y009399D01*
X014863Y009372D01*
X014897Y009338D01*
X015283Y009338D01*
X015282Y009333D01*
X015282Y009208D01*
X015677Y009208D01*
X015677Y009198D01*
X015282Y009198D01*
X015282Y009073D01*
X015292Y009035D01*
X015302Y009018D01*
X015302Y008753D01*
X013510Y008753D01*
X013425Y008669D01*
X013311Y008669D01*
X013197Y008622D01*
X013111Y008535D01*
X013064Y008422D01*
X013064Y008299D01*
X013111Y008186D01*
X013197Y008099D01*
X013311Y008053D01*
X013433Y008053D01*
X013476Y008070D01*
X013511Y007986D01*
X013597Y007899D01*
X013711Y007853D01*
X013833Y007853D01*
X013864Y007865D01*
X013864Y007799D01*
X013911Y007686D01*
X013997Y007599D01*
X014111Y007553D01*
X014225Y007553D01*
X014287Y007491D01*
X014592Y007491D01*
X014564Y007422D01*
X014564Y007299D01*
X014611Y007186D01*
X014697Y007099D01*
X014811Y007053D01*
X014933Y007053D01*
X015001Y007081D01*
X015656Y007081D01*
X015611Y007035D01*
X015564Y006922D01*
X015564Y006799D01*
X015611Y006686D01*
X015697Y006599D01*
X015811Y006553D01*
X015933Y006553D01*
X016046Y006599D01*
X016128Y006681D01*
X016364Y006681D01*
X016364Y006599D01*
X016411Y006486D01*
X016497Y006399D01*
X016611Y006353D01*
X016709Y006353D01*
X016197Y005841D01*
X013646Y005841D01*
X012934Y006553D01*
X013046Y006599D01*
X013133Y006686D01*
X013180Y006799D01*
X013180Y006922D01*
X013133Y007035D01*
X013082Y007086D01*
X013082Y007248D01*
X012959Y007371D01*
X012559Y007771D01*
X012370Y007771D01*
X012325Y007816D01*
X014559Y010051D01*
X014885Y010051D01*
X014922Y010014D01*
X014965Y009969D01*
X014914Y010021D02*
X014529Y010021D01*
X014431Y009923D02*
X014799Y009923D01*
X014706Y009824D02*
X014332Y009824D01*
X014234Y009726D02*
X014665Y009726D01*
X014664Y009627D02*
X014135Y009627D01*
X014037Y009529D02*
X014693Y009529D01*
X014767Y009430D02*
X013938Y009430D01*
X013840Y009332D02*
X015282Y009332D01*
X015282Y009233D02*
X013741Y009233D01*
X013643Y009135D02*
X015282Y009135D01*
X015292Y009036D02*
X013544Y009036D01*
X013446Y008938D02*
X015302Y008938D01*
X015302Y008839D02*
X013347Y008839D01*
X013249Y008741D02*
X013497Y008741D01*
X013585Y008573D02*
X013372Y008361D01*
X013585Y008573D02*
X015682Y008573D01*
X015682Y008258D02*
X013870Y008258D01*
X013772Y008161D01*
X013484Y008051D02*
X012559Y008051D01*
X012461Y007953D02*
X013544Y007953D01*
X013707Y007854D02*
X012362Y007854D01*
X012574Y007756D02*
X013882Y007756D01*
X013864Y007854D02*
X013837Y007854D01*
X013940Y007657D02*
X012672Y007657D01*
X012771Y007559D02*
X014096Y007559D01*
X014362Y007671D02*
X014172Y007861D01*
X014362Y007671D02*
X016270Y007671D01*
X016030Y007851D02*
X014480Y007851D01*
X014480Y007922D01*
X014433Y008035D01*
X014390Y008078D01*
X015318Y008078D01*
X015378Y008018D01*
X015986Y008018D01*
X016030Y007975D02*
X016030Y007851D01*
X016030Y007854D02*
X014480Y007854D01*
X014467Y007953D02*
X016030Y007953D01*
X016030Y007975D02*
X016106Y008051D01*
X017349Y008051D01*
X017349Y008150D02*
X016062Y008150D01*
X016062Y008248D02*
X017349Y008248D01*
X017403Y008347D02*
X016062Y008347D01*
X016062Y008445D02*
X017502Y008445D01*
X018542Y008445D02*
X018682Y008445D01*
X018682Y008347D02*
X018640Y008347D01*
X018682Y008544D02*
X016062Y008544D01*
X016062Y008642D02*
X018682Y008642D01*
X018667Y008741D02*
X016062Y008741D01*
X016062Y008839D02*
X018662Y008839D01*
X018662Y008938D02*
X016062Y008938D01*
X015682Y009518D02*
X014972Y009518D01*
X014972Y009661D01*
X013922Y010218D02*
X013822Y010218D01*
X013822Y010317D02*
X013922Y010317D01*
X013922Y010415D02*
X013822Y010415D01*
X013822Y010514D02*
X012822Y010514D01*
X012822Y010561D02*
X013147Y010561D01*
X013147Y010730D01*
X013137Y010769D01*
X013117Y010803D01*
X013089Y010831D01*
X013055Y010850D01*
X013017Y010861D01*
X012822Y010861D01*
X012822Y010561D01*
X012722Y010561D01*
X012722Y010461D01*
X012822Y010461D01*
X012822Y010561D01*
X012822Y010612D02*
X012722Y010612D01*
X012722Y010514D02*
X012182Y010514D01*
X011762Y010514D02*
X006582Y010514D01*
X006582Y010612D02*
X011617Y010612D01*
X011617Y010711D02*
X009148Y010711D01*
X009180Y010742D01*
X009205Y010780D01*
X009222Y010822D01*
X009231Y010866D01*
X009231Y010938D01*
X008401Y010938D01*
X008401Y010996D01*
X009231Y010996D01*
X009231Y011068D01*
X009222Y011112D01*
X009205Y011154D01*
X009180Y011192D01*
X009148Y011223D01*
X009110Y011248D01*
X009069Y011266D01*
X009024Y011274D01*
X008401Y011274D01*
X008401Y010996D01*
X008343Y010996D01*
X008343Y011274D01*
X007719Y011274D01*
X007675Y011266D01*
X007634Y011248D01*
X007596Y011223D01*
X007564Y011192D01*
X007539Y011154D01*
X007522Y011112D01*
X007513Y011068D01*
X007513Y010996D01*
X008343Y010996D01*
X008343Y010938D01*
X008401Y010938D01*
X008401Y010659D01*
X009024Y010659D01*
X009069Y010668D01*
X009110Y010686D01*
X009148Y010711D01*
X009217Y010809D02*
X011617Y010809D01*
X011617Y010908D02*
X009231Y010908D01*
X009231Y011006D02*
X011529Y011006D01*
X011431Y011105D02*
X009223Y011105D01*
X009168Y011203D02*
X011332Y011203D01*
X011234Y011302D02*
X006610Y011302D01*
X006582Y011203D02*
X007576Y011203D01*
X007521Y011105D02*
X006582Y011105D01*
X006582Y011006D02*
X007513Y011006D01*
X007513Y010938D02*
X007513Y010866D01*
X007522Y010822D01*
X007539Y010780D01*
X007564Y010742D01*
X007596Y010711D01*
X006582Y010711D01*
X006582Y010809D02*
X007527Y010809D01*
X007513Y010908D02*
X006582Y010908D01*
X006162Y010908D02*
X005072Y010908D01*
X005072Y011006D02*
X006162Y011006D01*
X006162Y011105D02*
X005072Y011105D01*
X005072Y011203D02*
X006162Y011203D01*
X006162Y011302D02*
X005072Y011302D01*
X005072Y011400D02*
X006162Y011400D01*
X006213Y011499D02*
X005072Y011499D01*
X005072Y011597D02*
X006311Y011597D01*
X006410Y011696D02*
X005072Y011696D01*
X005072Y011794D02*
X006508Y011794D01*
X006607Y011893D02*
X005072Y011893D01*
X005072Y011991D02*
X007605Y011991D01*
X007624Y011499D02*
X006807Y011499D01*
X006708Y011400D02*
X011135Y011400D01*
X011037Y011499D02*
X009120Y011499D01*
X009139Y011991D02*
X011762Y011991D01*
X011762Y011893D02*
X011237Y011893D01*
X011335Y011794D02*
X011762Y011794D01*
X011762Y011696D02*
X011434Y011696D01*
X011532Y011597D02*
X011762Y011597D01*
X011762Y011499D02*
X011631Y011499D01*
X011729Y011400D02*
X011762Y011400D01*
X011804Y012090D02*
X005072Y012090D01*
X005072Y012188D02*
X011902Y012188D01*
X011885Y012171D02*
X011885Y012171D01*
X012001Y012287D02*
X005072Y012287D01*
X005072Y012385D02*
X012099Y012385D01*
X012198Y012484D02*
X005964Y012484D01*
X006075Y012582D02*
X012296Y012582D01*
X012395Y012681D02*
X006115Y012681D01*
X006116Y012779D02*
X012493Y012779D01*
X012592Y012878D02*
X006116Y012878D01*
X006116Y012976D02*
X012690Y012976D01*
X012743Y013075D02*
X006116Y013075D01*
X006090Y013173D02*
X012743Y013173D01*
X012743Y013272D02*
X006017Y013272D01*
X005072Y013370D02*
X012743Y013370D01*
X012743Y013469D02*
X005072Y013469D01*
X005072Y013567D02*
X012743Y013567D01*
X012743Y013666D02*
X005072Y013666D01*
X005072Y013764D02*
X012743Y013764D01*
X012743Y013863D02*
X005072Y013863D01*
X005072Y013961D02*
X012743Y013961D01*
X012743Y014060D02*
X005072Y014060D01*
X005072Y014158D02*
X012743Y014158D01*
X012743Y014257D02*
X005072Y014257D01*
X005072Y014355D02*
X012743Y014355D01*
X012743Y014454D02*
X005072Y014454D01*
X005072Y014552D02*
X012743Y014552D01*
X012743Y014651D02*
X005072Y014651D01*
X005072Y014749D02*
X012743Y014749D01*
X012743Y014848D02*
X005896Y014848D01*
X005926Y014946D02*
X012743Y014946D01*
X012743Y015045D02*
X005926Y015045D01*
X005926Y015143D02*
X012743Y015143D01*
X012743Y015242D02*
X005926Y015242D01*
X005926Y015340D02*
X012743Y015340D01*
X012743Y015439D02*
X005926Y015439D01*
X005926Y015537D02*
X010560Y015537D01*
X010490Y015636D02*
X005926Y015636D01*
X005925Y015734D02*
X010464Y015734D01*
X010468Y015833D02*
X005072Y015833D01*
X005072Y015931D02*
X008846Y015931D01*
X008775Y016030D02*
X005072Y016030D01*
X005821Y016128D02*
X006237Y016128D01*
X006253Y016124D02*
X006572Y016124D01*
X006572Y016349D01*
X006572Y016349D01*
X006123Y016349D01*
X006123Y016254D01*
X006133Y016216D01*
X006153Y016182D01*
X006181Y016154D01*
X006215Y016134D01*
X006253Y016124D01*
X006130Y016227D02*
X005852Y016227D01*
X005852Y016325D02*
X006123Y016325D01*
X006123Y016424D02*
X005852Y016424D01*
X005852Y016522D02*
X006143Y016522D01*
X006143Y016621D02*
X005852Y016621D01*
X005852Y016719D02*
X006143Y016719D01*
X006143Y016818D02*
X005796Y016818D01*
X005809Y016916D02*
X006143Y016916D01*
X006143Y017015D02*
X005852Y017015D01*
X005852Y017113D02*
X006143Y017113D01*
X006143Y017212D02*
X005852Y017212D01*
X005852Y017310D02*
X006143Y017310D01*
X006143Y017409D02*
X005852Y017409D01*
X005852Y017507D02*
X006149Y017507D01*
X005808Y017606D02*
X006957Y017606D01*
X007001Y017113D02*
X008836Y017113D01*
X008792Y017212D02*
X007406Y017212D01*
X007001Y017015D02*
X010062Y017015D01*
X010062Y017113D02*
X009908Y017113D01*
X009952Y017212D02*
X010062Y017212D01*
X010399Y017606D02*
X010597Y017606D01*
X010597Y017698D02*
X010884Y017698D01*
X010884Y017986D01*
X010765Y017986D01*
X010716Y017972D01*
X010672Y017947D01*
X010636Y017911D01*
X010610Y017867D01*
X010597Y017817D01*
X010597Y017698D01*
X010597Y017704D02*
X009952Y017704D01*
X010482Y017507D02*
X010597Y017507D01*
X010637Y017409D02*
X010482Y017409D01*
X010482Y017310D02*
X010663Y017310D01*
X010617Y017212D02*
X010482Y017212D01*
X010482Y017113D02*
X010617Y017113D01*
X010617Y017015D02*
X010482Y017015D01*
X010482Y016916D02*
X010617Y016916D01*
X010657Y016818D02*
X010482Y016818D01*
X010672Y016511D02*
X010772Y016411D01*
X010562Y016301D02*
X010562Y015986D01*
X010511Y015935D01*
X010982Y016030D02*
X012743Y016030D01*
X012743Y016128D02*
X010982Y016128D01*
X010982Y016227D02*
X012743Y016227D01*
X012743Y016325D02*
X012690Y016325D01*
X013163Y016128D02*
X013492Y016128D01*
X013519Y016030D02*
X013163Y016030D01*
X013163Y015931D02*
X014662Y015931D01*
X014662Y015833D02*
X013163Y015833D01*
X013163Y015734D02*
X013536Y015734D01*
X013473Y015636D02*
X013163Y015636D01*
X013163Y015537D02*
X013472Y015537D01*
X013472Y015439D02*
X013163Y015439D01*
X013163Y015340D02*
X013822Y015340D01*
X013822Y015242D02*
X013922Y015242D01*
X013922Y015143D02*
X013822Y015143D01*
X013822Y015045D02*
X013922Y015045D01*
X014257Y015045D02*
X014504Y015045D01*
X014492Y015143D02*
X014272Y015143D01*
X013922Y015439D02*
X013822Y015439D01*
X013822Y015537D02*
X013922Y015537D01*
X013922Y015636D02*
X013822Y015636D01*
X013822Y015734D02*
X013922Y015734D01*
X013472Y015242D02*
X013163Y015242D01*
X013163Y015143D02*
X013472Y015143D01*
X013487Y015045D02*
X013163Y015045D01*
X012743Y015537D02*
X010984Y015537D01*
X011054Y015636D02*
X012743Y015636D01*
X012743Y015734D02*
X011080Y015734D01*
X011076Y015833D02*
X012743Y015833D01*
X012743Y015931D02*
X011035Y015931D01*
X011883Y016325D02*
X012054Y016325D01*
X011772Y016511D02*
X011772Y016565D01*
X011790Y016565D01*
X011790Y016762D02*
X011472Y016762D01*
X011790Y016762D01*
X011790Y016762D01*
X011790Y016959D02*
X010922Y016959D01*
X010922Y017061D01*
X011227Y017212D02*
X011472Y017212D01*
X011505Y017310D02*
X011181Y017310D01*
X011206Y017409D02*
X012067Y017409D01*
X011790Y017365D02*
X011790Y017156D01*
X011790Y017365D01*
X011790Y017310D02*
X011790Y017310D01*
X011790Y017212D02*
X011790Y017212D01*
X011790Y017156D02*
X011790Y017156D01*
X011247Y017507D02*
X018484Y017507D01*
X018486Y017511D02*
X018460Y017467D01*
X018447Y017417D01*
X018447Y017298D01*
X018734Y017298D01*
X018734Y017586D01*
X018615Y017586D01*
X018566Y017572D01*
X018522Y017547D01*
X018486Y017511D01*
X018447Y017409D02*
X012677Y017409D01*
X014015Y017310D02*
X018447Y017310D01*
X018447Y017212D02*
X014082Y017212D01*
X014082Y017113D02*
X018447Y017113D01*
X018483Y017015D02*
X014082Y017015D01*
X014082Y016916D02*
X018519Y016916D01*
X018809Y017223D02*
X018809Y017298D01*
X019097Y017298D01*
X019097Y017381D01*
X019192Y017286D01*
X019192Y016916D01*
X019025Y016916D01*
X018987Y016954D02*
X019077Y016864D01*
X019077Y016754D01*
X019111Y016835D01*
X019192Y016916D01*
X019192Y017015D02*
X019061Y017015D01*
X019058Y017010D02*
X019084Y017055D01*
X019097Y017104D01*
X019097Y017223D01*
X018809Y017223D01*
X018809Y017310D02*
X018734Y017310D01*
X018734Y017409D02*
X018809Y017409D01*
X018809Y017507D02*
X018734Y017507D01*
X018872Y017606D02*
X011247Y017606D01*
X011247Y017698D02*
X010959Y017698D01*
X010959Y017986D01*
X011079Y017986D01*
X011128Y017972D01*
X011172Y017947D01*
X011208Y017911D01*
X011234Y017867D01*
X011247Y017817D01*
X011247Y017698D01*
X011247Y017704D02*
X018774Y017704D01*
X018675Y017803D02*
X011247Y017803D01*
X011214Y017901D02*
X018577Y017901D01*
X018478Y018000D02*
X005926Y018000D01*
X005926Y018098D02*
X018380Y018098D01*
X018281Y018197D02*
X005926Y018197D01*
X005926Y018295D02*
X018183Y018295D01*
X018084Y018394D02*
X005926Y018394D01*
X005926Y018492D02*
X017986Y018492D01*
X017887Y018591D02*
X005926Y018591D01*
X005926Y018689D02*
X017789Y018689D01*
X017690Y018788D02*
X005926Y018788D01*
X005883Y018886D02*
X017592Y018886D01*
X017493Y018985D02*
X005072Y018985D01*
X005072Y019083D02*
X017395Y019083D01*
X017372Y019361D02*
X014772Y019361D01*
X013272Y020861D01*
X012817Y020856D02*
X012727Y020856D01*
X012727Y020770D02*
X012658Y020603D01*
X012530Y020475D01*
X012362Y020406D01*
X012181Y020406D01*
X012014Y020475D01*
X011886Y020603D01*
X011817Y020770D01*
X011817Y020951D01*
X011886Y021118D01*
X012014Y021246D01*
X012181Y021316D01*
X012362Y021316D01*
X012530Y021246D01*
X012658Y021118D01*
X012727Y020951D01*
X012727Y020770D01*
X012722Y020758D02*
X012822Y020758D01*
X012863Y020659D02*
X012681Y020659D01*
X012615Y020561D02*
X012928Y020561D01*
X013045Y020462D02*
X012499Y020462D01*
X012045Y020462D02*
X011499Y020462D01*
X011530Y020475D02*
X011658Y020603D01*
X011727Y020770D01*
X011727Y020951D01*
X011658Y021118D01*
X011530Y021246D01*
X011362Y021316D01*
X011181Y021316D01*
X011014Y021246D01*
X010886Y021118D01*
X010817Y020951D01*
X010817Y020770D01*
X010886Y020603D01*
X011014Y020475D01*
X011181Y020406D01*
X011362Y020406D01*
X011530Y020475D01*
X011615Y020561D02*
X011928Y020561D01*
X011863Y020659D02*
X011681Y020659D01*
X011722Y020758D02*
X011822Y020758D01*
X011817Y020856D02*
X011727Y020856D01*
X011725Y020955D02*
X011818Y020955D01*
X011859Y021053D02*
X011685Y021053D01*
X011624Y021152D02*
X011920Y021152D01*
X012023Y021250D02*
X011520Y021250D01*
X011023Y021250D02*
X010544Y021250D01*
X010521Y021267D02*
X010454Y021301D01*
X010383Y021324D01*
X010309Y021336D01*
X010309Y020898D01*
X010234Y020898D01*
X010234Y020823D01*
X009797Y020823D01*
X009809Y020749D01*
X009832Y020678D01*
X009866Y020612D01*
X009910Y020551D01*
X009962Y020498D01*
X010023Y020454D01*
X010090Y020420D01*
X010161Y020397D01*
X010234Y020386D01*
X010234Y020823D01*
X010309Y020823D01*
X010309Y020386D01*
X010383Y020397D01*
X010454Y020420D01*
X010521Y020454D01*
X010581Y020498D01*
X010634Y020551D01*
X010678Y020612D01*
X010712Y020678D01*
X010735Y020749D01*
X010747Y020823D01*
X010309Y020823D01*
X010309Y020898D01*
X010747Y020898D01*
X010735Y020972D01*
X010712Y021043D01*
X010678Y021110D01*
X010634Y021170D01*
X010581Y021223D01*
X010521Y021267D01*
X010648Y021152D02*
X010920Y021152D01*
X010859Y021053D02*
X010707Y021053D01*
X010738Y020955D02*
X010818Y020955D01*
X010817Y020856D02*
X010309Y020856D01*
X010234Y020856D02*
X009727Y020856D01*
X009797Y020898D02*
X010234Y020898D01*
X010234Y021336D01*
X010161Y021324D01*
X010090Y021301D01*
X010023Y021267D01*
X009962Y021223D01*
X009910Y021170D01*
X009866Y021110D01*
X009832Y021043D01*
X009809Y020972D01*
X009797Y020898D01*
X009806Y020955D02*
X009725Y020955D01*
X009727Y020951D02*
X009658Y021118D01*
X009530Y021246D01*
X009362Y021316D01*
X009181Y021316D01*
X009014Y021246D01*
X008886Y021118D01*
X008817Y020951D01*
X008817Y020770D01*
X008886Y020603D01*
X009014Y020475D01*
X009181Y020406D01*
X009362Y020406D01*
X009530Y020475D01*
X009658Y020603D01*
X009727Y020770D01*
X009727Y020951D01*
X009685Y021053D02*
X009837Y021053D01*
X009896Y021152D02*
X009624Y021152D01*
X009520Y021250D02*
X010000Y021250D01*
X010234Y021250D02*
X010309Y021250D01*
X010309Y021152D02*
X010234Y021152D01*
X010234Y021053D02*
X010309Y021053D01*
X010309Y020955D02*
X010234Y020955D01*
X010234Y020758D02*
X010309Y020758D01*
X010309Y020659D02*
X010234Y020659D01*
X010234Y020561D02*
X010309Y020561D01*
X010309Y020462D02*
X010234Y020462D01*
X010012Y020462D02*
X009499Y020462D01*
X009615Y020561D02*
X009903Y020561D01*
X009841Y020659D02*
X009681Y020659D01*
X009722Y020758D02*
X009807Y020758D01*
X009045Y020462D02*
X008499Y020462D01*
X008530Y020475D02*
X008362Y020406D01*
X008181Y020406D01*
X008014Y020475D01*
X007886Y020603D01*
X007817Y020770D01*
X007817Y020951D01*
X007886Y021118D01*
X008014Y021246D01*
X008181Y021316D01*
X008362Y021316D01*
X008530Y021246D01*
X008658Y021118D01*
X008727Y020951D01*
X008727Y020770D01*
X008658Y020603D01*
X008530Y020475D01*
X008615Y020561D02*
X008928Y020561D01*
X008863Y020659D02*
X008681Y020659D01*
X008722Y020758D02*
X008822Y020758D01*
X008817Y020856D02*
X008727Y020856D01*
X008725Y020955D02*
X008818Y020955D01*
X008859Y021053D02*
X008685Y021053D01*
X008624Y021152D02*
X008920Y021152D01*
X009023Y021250D02*
X008520Y021250D01*
X008023Y021250D02*
X007526Y021250D01*
X007460Y021316D02*
X007083Y021316D01*
X006817Y021049D01*
X006817Y020672D01*
X007083Y020406D01*
X007460Y020406D01*
X007727Y020672D01*
X007727Y021049D01*
X007460Y021316D01*
X007624Y021152D02*
X007920Y021152D01*
X007859Y021053D02*
X007723Y021053D01*
X007727Y020955D02*
X007818Y020955D01*
X007817Y020856D02*
X007727Y020856D01*
X007727Y020758D02*
X007822Y020758D01*
X007863Y020659D02*
X007714Y020659D01*
X007615Y020561D02*
X007928Y020561D01*
X008045Y020462D02*
X007517Y020462D01*
X007027Y020462D02*
X006605Y020462D01*
X006646Y020561D02*
X006928Y020561D01*
X006830Y020659D02*
X006687Y020659D01*
X006702Y020758D02*
X006817Y020758D01*
X006817Y020856D02*
X006702Y020856D01*
X006702Y020955D02*
X006817Y020955D01*
X006821Y021053D02*
X006690Y021053D01*
X006650Y021152D02*
X006920Y021152D01*
X007018Y021250D02*
X006609Y021250D01*
X006558Y021349D02*
X025686Y021349D01*
X025635Y021250D02*
X025120Y021250D01*
X025130Y021246D02*
X024962Y021316D01*
X024781Y021316D01*
X024614Y021246D01*
X024486Y021118D01*
X024417Y020951D01*
X024417Y020770D01*
X024486Y020603D01*
X024614Y020475D01*
X024781Y020406D01*
X024962Y020406D01*
X025130Y020475D01*
X025258Y020603D01*
X025327Y020770D01*
X025327Y020951D01*
X025258Y021118D01*
X025130Y021246D01*
X025224Y021152D02*
X025594Y021152D01*
X025553Y021053D02*
X025285Y021053D01*
X025325Y020955D02*
X025542Y020955D01*
X025542Y020856D02*
X025327Y020856D01*
X025322Y020758D02*
X025542Y020758D01*
X025557Y020659D02*
X025281Y020659D01*
X025215Y020561D02*
X025598Y020561D01*
X025639Y020462D02*
X025099Y020462D01*
X024972Y020265D02*
X014722Y020265D01*
X014820Y020167D02*
X024956Y020167D01*
X024956Y020068D02*
X014919Y020068D01*
X014872Y019861D02*
X014272Y020461D01*
X014272Y020861D01*
X014727Y020856D02*
X014817Y020856D01*
X014817Y020770D02*
X014886Y020603D01*
X015014Y020475D01*
X015181Y020406D01*
X015362Y020406D01*
X015530Y020475D01*
X015658Y020603D01*
X015727Y020770D01*
X015727Y020951D01*
X015658Y021118D01*
X015530Y021246D01*
X015362Y021316D01*
X015181Y021316D01*
X015014Y021246D01*
X014886Y021118D01*
X014817Y020951D01*
X014817Y020770D01*
X014822Y020758D02*
X014722Y020758D01*
X014681Y020659D02*
X014863Y020659D01*
X014928Y020561D02*
X014615Y020561D01*
X014525Y020462D02*
X015045Y020462D01*
X014623Y020364D02*
X025695Y020364D01*
X025556Y020265D02*
X025456Y020265D01*
X025456Y020167D02*
X025556Y020167D01*
X025556Y020068D02*
X025456Y020068D01*
X025456Y019970D02*
X025556Y019970D01*
X025556Y019871D02*
X027172Y019871D01*
X027172Y019773D02*
X026056Y019773D01*
X026056Y019848D02*
X026056Y019578D01*
X026046Y019540D01*
X026026Y019506D01*
X025998Y019478D01*
X025964Y019458D01*
X025926Y019448D01*
X025556Y019448D01*
X025556Y019848D01*
X026056Y019848D01*
X026056Y019970D02*
X027172Y019970D01*
X027172Y020068D02*
X026627Y020068D01*
X026852Y020167D02*
X027172Y020167D01*
X027172Y020265D02*
X026950Y020265D01*
X027049Y020364D02*
X027172Y020364D01*
X027172Y020462D02*
X027105Y020462D01*
X027146Y020561D02*
X027172Y020561D01*
X026116Y020068D02*
X026056Y020068D01*
X026056Y019674D02*
X027172Y019674D01*
X027172Y019576D02*
X026055Y019576D01*
X025997Y019477D02*
X027172Y019477D01*
X027172Y019379D02*
X022026Y019379D01*
X022026Y019477D02*
X025014Y019477D01*
X024956Y019576D02*
X021626Y019576D01*
X021626Y019625D02*
X021626Y019525D01*
X021626Y019125D01*
X021896Y019125D01*
X021934Y019135D01*
X021968Y019155D01*
X021996Y019183D01*
X022016Y019217D01*
X022026Y019255D01*
X022026Y019525D01*
X021626Y019525D01*
X021526Y019525D01*
X021526Y019125D01*
X021257Y019125D01*
X021218Y019135D01*
X021184Y019155D01*
X021156Y019183D01*
X021136Y019217D01*
X021126Y019255D01*
X021126Y019525D01*
X021526Y019525D01*
X021526Y019625D01*
X021126Y019625D01*
X021126Y019895D01*
X021136Y019933D01*
X021156Y019967D01*
X021184Y019995D01*
X021218Y020015D01*
X021257Y020025D01*
X021526Y020025D01*
X021526Y019625D01*
X021626Y019625D01*
X021626Y020025D01*
X021896Y020025D01*
X021934Y020015D01*
X021968Y019995D01*
X021996Y019967D01*
X022016Y019933D01*
X022026Y019895D01*
X022026Y019625D01*
X021626Y019625D01*
X021626Y019674D02*
X021526Y019674D01*
X021526Y019576D02*
X018111Y019576D01*
X018013Y019674D02*
X021126Y019674D01*
X021126Y019773D02*
X017914Y019773D01*
X017816Y019871D02*
X021126Y019871D01*
X021159Y019970D02*
X017717Y019970D01*
X017572Y019861D02*
X014872Y019861D01*
X014705Y019773D02*
X014614Y019773D01*
X014607Y019871D02*
X014516Y019871D01*
X014508Y019970D02*
X014417Y019970D01*
X014410Y020068D02*
X014319Y020068D01*
X014311Y020167D02*
X014220Y020167D01*
X014213Y020265D02*
X014122Y020265D01*
X014114Y020364D02*
X014023Y020364D01*
X014045Y020462D02*
X013925Y020462D01*
X013928Y020561D02*
X013826Y020561D01*
X013863Y020659D02*
X013728Y020659D01*
X013722Y020758D02*
X013822Y020758D01*
X013817Y020856D02*
X013727Y020856D01*
X013725Y020955D02*
X013818Y020955D01*
X013859Y021053D02*
X013685Y021053D01*
X013624Y021152D02*
X013920Y021152D01*
X014023Y021250D02*
X013520Y021250D01*
X013023Y021250D02*
X012520Y021250D01*
X012624Y021152D02*
X012920Y021152D01*
X012859Y021053D02*
X012685Y021053D01*
X012725Y020955D02*
X012818Y020955D01*
X013514Y020364D02*
X006549Y020364D01*
X006450Y020265D02*
X013613Y020265D01*
X013711Y020167D02*
X006352Y020167D01*
X006127Y020068D02*
X013810Y020068D01*
X013908Y019970D02*
X005072Y019970D01*
X005072Y020068D02*
X005616Y020068D01*
X005392Y020167D02*
X005072Y020167D01*
X005072Y020265D02*
X005294Y020265D01*
X005195Y020364D02*
X005072Y020364D01*
X005072Y020462D02*
X005139Y020462D01*
X005098Y020561D02*
X005072Y020561D01*
X005072Y019871D02*
X014007Y019871D01*
X014105Y019773D02*
X005072Y019773D01*
X005072Y019674D02*
X014204Y019674D01*
X014302Y019576D02*
X005072Y019576D01*
X005072Y019477D02*
X014401Y019477D01*
X014499Y019379D02*
X005072Y019379D01*
X005072Y019280D02*
X014598Y019280D01*
X014696Y019182D02*
X005072Y019182D01*
X005072Y017901D02*
X010630Y017901D01*
X010597Y017803D02*
X005072Y017803D01*
X005072Y017704D02*
X008792Y017704D01*
X010062Y016916D02*
X007001Y016916D01*
X007001Y016818D02*
X010062Y016818D01*
X009422Y016621D02*
X009322Y016621D01*
X009322Y016522D02*
X009422Y016522D01*
X009422Y016424D02*
X009322Y016424D01*
X009322Y016128D02*
X009422Y016128D01*
X009422Y016030D02*
X009322Y016030D01*
X009322Y015931D02*
X009422Y015931D01*
X008772Y016128D02*
X006906Y016128D01*
X006572Y016128D02*
X006572Y016128D01*
X006572Y016227D02*
X006572Y016227D01*
X006572Y016325D02*
X006572Y016325D01*
X010884Y017704D02*
X010959Y017704D01*
X010959Y017803D02*
X010884Y017803D01*
X010884Y017901D02*
X010959Y017901D01*
X011045Y020462D02*
X010532Y020462D01*
X010641Y020561D02*
X010928Y020561D01*
X010863Y020659D02*
X010702Y020659D01*
X010737Y020758D02*
X010822Y020758D01*
X014520Y021250D02*
X015023Y021250D01*
X014920Y021152D02*
X014624Y021152D01*
X014685Y021053D02*
X014859Y021053D01*
X014818Y020955D02*
X014725Y020955D01*
X015520Y021250D02*
X016023Y021250D01*
X016014Y021246D02*
X015886Y021118D01*
X015817Y020951D01*
X015817Y020770D01*
X015886Y020603D01*
X016014Y020475D01*
X016181Y020406D01*
X016362Y020406D01*
X016530Y020475D01*
X016658Y020603D01*
X016727Y020770D01*
X016727Y020951D01*
X016658Y021118D01*
X016530Y021246D01*
X016362Y021316D01*
X016181Y021316D01*
X016014Y021246D01*
X015920Y021152D02*
X015624Y021152D01*
X015685Y021053D02*
X015859Y021053D01*
X015818Y020955D02*
X015725Y020955D01*
X015727Y020856D02*
X015817Y020856D01*
X015822Y020758D02*
X015722Y020758D01*
X015681Y020659D02*
X015863Y020659D01*
X015928Y020561D02*
X015615Y020561D01*
X015499Y020462D02*
X016045Y020462D01*
X016499Y020462D02*
X017437Y020462D01*
X017417Y020482D02*
X017493Y020406D01*
X018251Y020406D01*
X018327Y020482D01*
X018327Y021240D01*
X018251Y021316D01*
X017493Y021316D01*
X017417Y021240D01*
X017417Y020482D01*
X017417Y020561D02*
X016615Y020561D01*
X016681Y020659D02*
X017417Y020659D01*
X017417Y020758D02*
X016722Y020758D01*
X016727Y020856D02*
X017417Y020856D01*
X017417Y020955D02*
X016725Y020955D01*
X016685Y021053D02*
X017417Y021053D01*
X017417Y021152D02*
X016624Y021152D01*
X016520Y021250D02*
X017428Y021250D01*
X018316Y021250D02*
X018623Y021250D01*
X018614Y021246D02*
X018486Y021118D01*
X018417Y020951D01*
X018417Y020770D01*
X018486Y020603D01*
X018614Y020475D01*
X018781Y020406D01*
X018962Y020406D01*
X019130Y020475D01*
X019258Y020603D01*
X019327Y020770D01*
X019327Y020951D01*
X019258Y021118D01*
X019130Y021246D01*
X018962Y021316D01*
X018781Y021316D01*
X018614Y021246D01*
X018520Y021152D02*
X018327Y021152D01*
X018327Y021053D02*
X018459Y021053D01*
X018418Y020955D02*
X018327Y020955D01*
X018327Y020856D02*
X018417Y020856D01*
X018422Y020758D02*
X018327Y020758D01*
X018327Y020659D02*
X018463Y020659D01*
X018528Y020561D02*
X018327Y020561D01*
X018307Y020462D02*
X018645Y020462D01*
X019099Y020462D02*
X019645Y020462D01*
X019614Y020475D02*
X019781Y020406D01*
X019962Y020406D01*
X020130Y020475D01*
X020258Y020603D01*
X020327Y020770D01*
X020327Y020951D01*
X020258Y021118D01*
X020130Y021246D01*
X019962Y021316D01*
X019781Y021316D01*
X019614Y021246D01*
X019486Y021118D01*
X019417Y020951D01*
X019417Y020770D01*
X019486Y020603D01*
X019614Y020475D01*
X019528Y020561D02*
X019215Y020561D01*
X019281Y020659D02*
X019463Y020659D01*
X019422Y020758D02*
X019322Y020758D01*
X019327Y020856D02*
X019417Y020856D01*
X019418Y020955D02*
X019325Y020955D01*
X019285Y021053D02*
X019459Y021053D01*
X019520Y021152D02*
X019224Y021152D01*
X019120Y021250D02*
X019623Y021250D01*
X020120Y021250D02*
X020623Y021250D01*
X020614Y021246D02*
X020486Y021118D01*
X020417Y020951D01*
X020417Y020770D01*
X020486Y020603D01*
X020614Y020475D01*
X020781Y020406D01*
X020962Y020406D01*
X021130Y020475D01*
X021258Y020603D01*
X021327Y020770D01*
X021327Y020951D01*
X021258Y021118D01*
X021130Y021246D01*
X020962Y021316D01*
X020781Y021316D01*
X020614Y021246D01*
X020520Y021152D02*
X020224Y021152D01*
X020285Y021053D02*
X020459Y021053D01*
X020418Y020955D02*
X020325Y020955D01*
X020327Y020856D02*
X020417Y020856D01*
X020422Y020758D02*
X020322Y020758D01*
X020281Y020659D02*
X020463Y020659D01*
X020528Y020561D02*
X020215Y020561D01*
X020099Y020462D02*
X020645Y020462D01*
X021099Y020462D02*
X021645Y020462D01*
X021614Y020475D02*
X021781Y020406D01*
X021962Y020406D01*
X022130Y020475D01*
X022258Y020603D01*
X022327Y020770D01*
X022327Y020951D01*
X022258Y021118D01*
X022130Y021246D01*
X021962Y021316D01*
X021781Y021316D01*
X021614Y021246D01*
X021486Y021118D01*
X021417Y020951D01*
X021417Y020770D01*
X021486Y020603D01*
X021614Y020475D01*
X021528Y020561D02*
X021215Y020561D01*
X021281Y020659D02*
X021463Y020659D01*
X021422Y020758D02*
X021322Y020758D01*
X021327Y020856D02*
X021417Y020856D01*
X021418Y020955D02*
X021325Y020955D01*
X021285Y021053D02*
X021459Y021053D01*
X021520Y021152D02*
X021224Y021152D01*
X021120Y021250D02*
X021623Y021250D01*
X022120Y021250D02*
X022623Y021250D01*
X022614Y021246D02*
X022486Y021118D01*
X022417Y020951D01*
X022417Y020770D01*
X022486Y020603D01*
X022614Y020475D01*
X022781Y020406D01*
X022962Y020406D01*
X023130Y020475D01*
X023258Y020603D01*
X023327Y020770D01*
X023327Y020951D01*
X023258Y021118D01*
X023130Y021246D01*
X022962Y021316D01*
X022781Y021316D01*
X022614Y021246D01*
X022520Y021152D02*
X022224Y021152D01*
X022285Y021053D02*
X022459Y021053D01*
X022418Y020955D02*
X022325Y020955D01*
X022327Y020856D02*
X022417Y020856D01*
X022422Y020758D02*
X022322Y020758D01*
X022281Y020659D02*
X022463Y020659D01*
X022528Y020561D02*
X022215Y020561D01*
X022099Y020462D02*
X022645Y020462D01*
X023099Y020462D02*
X023645Y020462D01*
X023614Y020475D02*
X023781Y020406D01*
X023962Y020406D01*
X024130Y020475D01*
X024258Y020603D01*
X024327Y020770D01*
X024327Y020951D01*
X024258Y021118D01*
X024130Y021246D01*
X023962Y021316D01*
X023781Y021316D01*
X023614Y021246D01*
X023486Y021118D01*
X023417Y020951D01*
X023417Y020770D01*
X023486Y020603D01*
X023614Y020475D01*
X023528Y020561D02*
X023215Y020561D01*
X023281Y020659D02*
X023463Y020659D01*
X023422Y020758D02*
X023322Y020758D01*
X023327Y020856D02*
X023417Y020856D01*
X023418Y020955D02*
X023325Y020955D01*
X023285Y021053D02*
X023459Y021053D01*
X023520Y021152D02*
X023224Y021152D01*
X023120Y021250D02*
X023623Y021250D01*
X024120Y021250D02*
X024623Y021250D01*
X024520Y021152D02*
X024224Y021152D01*
X024285Y021053D02*
X024459Y021053D01*
X024418Y020955D02*
X024325Y020955D01*
X024327Y020856D02*
X024417Y020856D01*
X024422Y020758D02*
X024322Y020758D01*
X024281Y020659D02*
X024463Y020659D01*
X024528Y020561D02*
X024215Y020561D01*
X024099Y020462D02*
X024645Y020462D01*
X024956Y019970D02*
X021994Y019970D01*
X022026Y019871D02*
X025456Y019871D01*
X025456Y019773D02*
X025556Y019773D01*
X025556Y019674D02*
X025456Y019674D01*
X025456Y019576D02*
X025556Y019576D01*
X025556Y019477D02*
X025456Y019477D01*
X024956Y019674D02*
X022026Y019674D01*
X022026Y019773D02*
X024956Y019773D01*
X025501Y018405D02*
X025395Y018299D01*
X025338Y018161D01*
X025338Y018012D01*
X025395Y017874D01*
X025501Y017769D01*
X025639Y017712D01*
X025788Y017712D01*
X025926Y017769D01*
X026031Y017874D01*
X026088Y018012D01*
X026088Y018161D01*
X026031Y018299D01*
X025926Y018405D01*
X025788Y018462D01*
X025639Y018462D01*
X025501Y018405D01*
X025490Y018394D02*
X019293Y018394D01*
X019195Y018492D02*
X027172Y018492D01*
X027172Y018394D02*
X025937Y018394D01*
X026033Y018295D02*
X027172Y018295D01*
X027172Y018197D02*
X026074Y018197D01*
X026088Y018098D02*
X027172Y018098D01*
X027172Y018000D02*
X026083Y018000D01*
X026042Y017901D02*
X027172Y017901D01*
X027172Y017803D02*
X025960Y017803D01*
X025467Y017803D02*
X021852Y017803D01*
X021848Y017901D02*
X025384Y017901D01*
X025343Y018000D02*
X019687Y018000D01*
X019589Y018098D02*
X025338Y018098D01*
X025353Y018197D02*
X019490Y018197D01*
X019392Y018295D02*
X025394Y018295D01*
X027172Y018591D02*
X019096Y018591D01*
X018998Y018689D02*
X027172Y018689D01*
X027172Y018788D02*
X018899Y018788D01*
X018801Y018886D02*
X027172Y018886D01*
X027172Y018985D02*
X018702Y018985D01*
X018604Y019083D02*
X027172Y019083D01*
X027172Y019182D02*
X021995Y019182D01*
X022026Y019280D02*
X027172Y019280D01*
X027172Y017704D02*
X021852Y017704D01*
X021852Y017606D02*
X027172Y017606D01*
X027172Y017507D02*
X021852Y017507D01*
X021852Y017409D02*
X027172Y017409D01*
X027172Y017310D02*
X021852Y017310D01*
X021852Y017212D02*
X027172Y017212D01*
X027172Y017113D02*
X021852Y017113D01*
X021852Y017015D02*
X027172Y017015D01*
X027172Y016916D02*
X026071Y016916D01*
X026169Y016818D02*
X027172Y016818D01*
X027172Y016719D02*
X026268Y016719D01*
X026366Y016621D02*
X027172Y016621D01*
X027172Y016522D02*
X026465Y016522D01*
X026563Y016424D02*
X027172Y016424D01*
X027172Y016325D02*
X026662Y016325D01*
X026760Y016227D02*
X027172Y016227D01*
X027172Y016128D02*
X026859Y016128D01*
X026957Y016030D02*
X027172Y016030D01*
X027172Y015931D02*
X027056Y015931D01*
X027152Y015833D02*
X027172Y015833D01*
X027172Y015734D02*
X027152Y015734D01*
X027152Y015636D02*
X027172Y015636D01*
X027172Y015537D02*
X027152Y015537D01*
X027152Y015439D02*
X027172Y015439D01*
X027172Y015340D02*
X027152Y015340D01*
X027152Y015242D02*
X027172Y015242D01*
X027172Y015143D02*
X027152Y015143D01*
X027152Y015045D02*
X027172Y015045D01*
X027172Y014946D02*
X027152Y014946D01*
X027152Y014848D02*
X027172Y014848D01*
X027172Y014749D02*
X027152Y014749D01*
X027152Y014651D02*
X027172Y014651D01*
X027172Y014552D02*
X027152Y014552D01*
X027152Y014454D02*
X027172Y014454D01*
X027172Y014355D02*
X027152Y014355D01*
X027152Y014257D02*
X027172Y014257D01*
X027172Y014158D02*
X027152Y014158D01*
X027152Y014060D02*
X027172Y014060D01*
X027172Y013961D02*
X027152Y013961D01*
X027152Y013863D02*
X027172Y013863D01*
X027172Y013764D02*
X027152Y013764D01*
X027152Y013666D02*
X027172Y013666D01*
X027172Y013567D02*
X027152Y013567D01*
X027152Y013469D02*
X027172Y013469D01*
X027172Y013370D02*
X027152Y013370D01*
X027152Y013272D02*
X027172Y013272D01*
X027172Y013173D02*
X027152Y013173D01*
X027152Y013075D02*
X027172Y013075D01*
X027172Y012976D02*
X027152Y012976D01*
X027152Y012878D02*
X027172Y012878D01*
X027172Y012779D02*
X027095Y012779D01*
X027172Y012681D02*
X026997Y012681D01*
X026898Y012582D02*
X027172Y012582D01*
X027172Y012484D02*
X026800Y012484D01*
X026701Y012385D02*
X027172Y012385D01*
X027172Y012287D02*
X026603Y012287D01*
X026504Y012188D02*
X027172Y012188D01*
X027172Y012090D02*
X026406Y012090D01*
X026360Y011991D02*
X027172Y011991D01*
X027172Y011893D02*
X026377Y011893D01*
X026377Y011794D02*
X027172Y011794D01*
X027172Y011696D02*
X026346Y011696D01*
X026302Y011597D02*
X027172Y011597D01*
X027172Y011499D02*
X026203Y011499D01*
X026251Y011203D02*
X027172Y011203D01*
X027172Y011105D02*
X026331Y011105D01*
X026374Y011006D02*
X027172Y011006D01*
X027172Y010908D02*
X026395Y010908D01*
X026395Y010809D02*
X027172Y010809D01*
X027172Y010711D02*
X026373Y010711D01*
X026328Y010612D02*
X027172Y010612D01*
X027172Y010514D02*
X026247Y010514D01*
X025920Y009726D02*
X025824Y009726D01*
X025824Y009627D02*
X025920Y009627D01*
X025920Y009529D02*
X025824Y009529D01*
X025824Y009430D02*
X025920Y009430D01*
X025920Y009233D02*
X025824Y009233D01*
X025824Y009251D02*
X025824Y008785D01*
X025488Y008785D01*
X025450Y008796D01*
X025416Y008815D01*
X025388Y008843D01*
X025368Y008878D01*
X025358Y008916D01*
X025358Y009251D01*
X025824Y009251D01*
X025824Y009135D02*
X025920Y009135D01*
X025920Y009036D02*
X025824Y009036D01*
X025824Y008938D02*
X025920Y008938D01*
X025920Y008839D02*
X025824Y008839D01*
X025392Y008839D02*
X024552Y008839D01*
X024552Y008741D02*
X027172Y008741D01*
X027172Y008839D02*
X026352Y008839D01*
X026386Y008938D02*
X027172Y008938D01*
X027172Y009036D02*
X026386Y009036D01*
X026386Y009135D02*
X027172Y009135D01*
X027172Y009233D02*
X026386Y009233D01*
X027172Y008642D02*
X024552Y008642D01*
X024552Y008544D02*
X027172Y008544D01*
X027172Y008445D02*
X024552Y008445D01*
X024552Y008347D02*
X025607Y008347D01*
X025592Y008341D02*
X025453Y008202D01*
X025378Y008020D01*
X025378Y007823D01*
X025453Y007642D01*
X025542Y007553D01*
X025542Y006991D01*
X025418Y006991D01*
X025342Y006915D01*
X025342Y005907D01*
X025418Y005831D01*
X025542Y005831D01*
X025542Y004835D01*
X024587Y003880D01*
X024576Y003891D01*
X023968Y003891D01*
X023892Y003815D01*
X023892Y002807D01*
X023968Y002731D01*
X024576Y002731D01*
X024652Y002807D01*
X024652Y003436D01*
X025902Y004686D01*
X025902Y005831D01*
X026026Y005831D01*
X026102Y005907D01*
X026102Y006915D01*
X026026Y006991D01*
X025902Y006991D01*
X025902Y007428D01*
X025970Y007428D01*
X026152Y007503D01*
X026291Y007642D01*
X026366Y007823D01*
X026366Y008020D01*
X026291Y008202D01*
X026152Y008341D01*
X025970Y008416D01*
X025774Y008416D01*
X025592Y008341D01*
X025500Y008248D02*
X024552Y008248D01*
X024552Y008150D02*
X025431Y008150D01*
X025391Y008051D02*
X024552Y008051D01*
X024552Y007953D02*
X025378Y007953D01*
X025378Y007854D02*
X024552Y007854D01*
X024522Y007756D02*
X025406Y007756D01*
X025447Y007657D02*
X024423Y007657D01*
X024325Y007559D02*
X025536Y007559D01*
X025542Y007460D02*
X024226Y007460D01*
X024128Y007362D02*
X025542Y007362D01*
X025542Y007263D02*
X019929Y007263D01*
X019831Y007165D02*
X025542Y007165D01*
X025542Y007066D02*
X019732Y007066D01*
X019634Y006968D02*
X023545Y006968D01*
X023568Y006991D02*
X023492Y006915D01*
X023492Y005907D01*
X023568Y005831D01*
X024176Y005831D01*
X024252Y005907D01*
X024252Y006915D01*
X024176Y006991D01*
X023568Y006991D01*
X023492Y006869D02*
X019535Y006869D01*
X019437Y006771D02*
X023492Y006771D01*
X023492Y006672D02*
X019338Y006672D01*
X019240Y006574D02*
X023492Y006574D01*
X023492Y006475D02*
X019141Y006475D01*
X019043Y006377D02*
X023492Y006377D01*
X023492Y006278D02*
X018944Y006278D01*
X018846Y006180D02*
X023492Y006180D01*
X023492Y006081D02*
X018747Y006081D01*
X018649Y005983D02*
X023492Y005983D01*
X023515Y005884D02*
X018550Y005884D01*
X018452Y005786D02*
X025542Y005786D01*
X025542Y005687D02*
X018353Y005687D01*
X018255Y005589D02*
X025542Y005589D01*
X025542Y005490D02*
X018156Y005490D01*
X018058Y005392D02*
X025542Y005392D01*
X025542Y005293D02*
X023904Y005293D01*
X023861Y005311D02*
X023682Y005311D01*
X023517Y005242D01*
X023390Y005116D01*
X023322Y004950D01*
X023322Y004771D01*
X023390Y004606D01*
X023517Y004479D01*
X023682Y004411D01*
X023861Y004411D01*
X024027Y004479D01*
X024153Y004606D01*
X024222Y004771D01*
X024222Y004950D01*
X024153Y005116D01*
X024027Y005242D01*
X023861Y005311D01*
X023640Y005293D02*
X017959Y005293D01*
X017861Y005195D02*
X023470Y005195D01*
X023382Y005096D02*
X017762Y005096D01*
X017664Y004998D02*
X023342Y004998D01*
X023322Y004899D02*
X017565Y004899D01*
X017467Y004801D02*
X023322Y004801D01*
X023351Y004702D02*
X017368Y004702D01*
X017270Y004604D02*
X023393Y004604D01*
X023491Y004505D02*
X017171Y004505D01*
X017073Y004407D02*
X025113Y004407D01*
X025015Y004308D02*
X016974Y004308D01*
X016876Y004210D02*
X023092Y004210D01*
X023092Y004215D02*
X023092Y002807D01*
X023168Y002731D01*
X023776Y002731D01*
X023852Y002807D01*
X023852Y004215D01*
X023776Y004291D01*
X023168Y004291D01*
X023092Y004215D01*
X023092Y004111D02*
X016777Y004111D01*
X016679Y004013D02*
X023092Y004013D01*
X023092Y003914D02*
X016580Y003914D01*
X016482Y003816D02*
X023092Y003816D01*
X023092Y003717D02*
X016383Y003717D01*
X016272Y003861D02*
X019872Y007461D01*
X019330Y007657D02*
X020999Y007657D01*
X021144Y007657D02*
X023599Y007657D01*
X023744Y007657D02*
X023914Y007657D01*
X023903Y007756D02*
X024012Y007756D01*
X023961Y007854D02*
X024111Y007854D01*
X024192Y007953D02*
X023980Y007953D01*
X023968Y008051D02*
X024192Y008051D01*
X024192Y008150D02*
X023919Y008150D01*
X023783Y008248D02*
X024192Y008248D01*
X023672Y007961D02*
X021072Y007961D01*
X019360Y007961D01*
X019062Y008258D01*
X019062Y008261D01*
X019034Y007953D02*
X019113Y007953D01*
X019133Y007854D02*
X019212Y007854D01*
X019231Y007756D02*
X020841Y007756D01*
X020825Y008150D02*
X019442Y008150D01*
X019442Y008248D02*
X020961Y008248D01*
X021153Y008347D02*
X019442Y008347D01*
X018474Y007671D02*
X018474Y007258D01*
X018772Y006961D01*
X018472Y006561D02*
X018159Y006561D01*
X018159Y007671D01*
X017872Y007643D02*
X017844Y007671D01*
X017844Y006333D01*
X017672Y006161D01*
X018159Y006148D02*
X018159Y006561D01*
X018159Y006148D02*
X016872Y004861D01*
X006372Y004861D01*
X006372Y006861D01*
X006872Y007361D01*
X006417Y007362D02*
X005582Y007362D01*
X005582Y007460D02*
X006421Y007460D01*
X006461Y007559D02*
X005582Y007559D01*
X005582Y007657D02*
X006525Y007657D01*
X006420Y007263D02*
X005582Y007263D01*
X005582Y007165D02*
X006421Y007165D01*
X006323Y007066D02*
X005582Y007066D01*
X005582Y006968D02*
X006224Y006968D01*
X006192Y006869D02*
X005582Y006869D01*
X005582Y006771D02*
X006192Y006771D01*
X006192Y006672D02*
X005582Y006672D01*
X005582Y006574D02*
X006192Y006574D01*
X006192Y006475D02*
X005582Y006475D01*
X005582Y006377D02*
X006192Y006377D01*
X006192Y006278D02*
X005582Y006278D01*
X005582Y006180D02*
X006192Y006180D01*
X006192Y006081D02*
X005582Y006081D01*
X005582Y005983D02*
X006192Y005983D01*
X006192Y005884D02*
X005582Y005884D01*
X005582Y005786D02*
X006192Y005786D01*
X006192Y005687D02*
X005582Y005687D01*
X005582Y005589D02*
X006192Y005589D01*
X006192Y005490D02*
X005582Y005490D01*
X005582Y005392D02*
X006192Y005392D01*
X006192Y005293D02*
X005582Y005293D01*
X005582Y005195D02*
X006192Y005195D01*
X006192Y005096D02*
X005582Y005096D01*
X005582Y004998D02*
X006192Y004998D01*
X006192Y004899D02*
X005582Y004899D01*
X005582Y004801D02*
X006192Y004801D01*
X006276Y004702D02*
X005582Y004702D01*
X005582Y004604D02*
X006480Y004604D01*
X006439Y004505D02*
X005582Y004505D01*
X005582Y004407D02*
X006417Y004407D01*
X006417Y004308D02*
X005582Y004308D01*
X005582Y004210D02*
X006442Y004210D01*
X006483Y004111D02*
X005582Y004111D01*
X005582Y004013D02*
X006576Y004013D01*
X006527Y003836D02*
X006489Y003825D01*
X006455Y003806D01*
X006427Y003778D01*
X006407Y003744D01*
X006397Y003705D01*
X006397Y003398D01*
X006834Y003398D01*
X006834Y003323D01*
X006206Y003323D01*
X006108Y003422D02*
X006397Y003422D01*
X006397Y003520D02*
X006009Y003520D01*
X005911Y003619D02*
X006397Y003619D01*
X006400Y003717D02*
X005812Y003717D01*
X005714Y003816D02*
X006472Y003816D01*
X006527Y003836D02*
X006834Y003836D01*
X006834Y003398D01*
X006909Y003398D01*
X006909Y003836D01*
X007217Y003836D01*
X007255Y003825D01*
X007289Y003806D01*
X007317Y003778D01*
X007337Y003744D01*
X007347Y003705D01*
X007347Y003398D01*
X006909Y003398D01*
X006909Y003323D01*
X006909Y002886D01*
X007217Y002886D01*
X007255Y002896D01*
X007289Y002916D01*
X007317Y002944D01*
X007337Y002978D01*
X007347Y003016D01*
X007347Y003323D01*
X006909Y003323D01*
X006834Y003323D01*
X006909Y003323D02*
X008622Y003323D01*
X008622Y003315D02*
X008632Y003277D01*
X008652Y003243D01*
X008680Y003215D01*
X008714Y003195D01*
X008752Y003185D01*
X008972Y003185D01*
X008972Y003785D01*
X009072Y003785D01*
X009072Y003885D01*
X009422Y003885D01*
X009422Y004355D01*
X009412Y004393D01*
X009392Y004427D01*
X009364Y004455D01*
X009330Y004475D01*
X009292Y004485D01*
X009072Y004485D01*
X009072Y003885D01*
X008972Y003885D01*
X008972Y003785D01*
X008622Y003785D01*
X008622Y003315D01*
X008670Y003225D02*
X007347Y003225D01*
X007347Y003126D02*
X013383Y003126D01*
X013284Y003028D02*
X007347Y003028D01*
X007303Y002929D02*
X013186Y002929D01*
X013087Y002831D02*
X006699Y002831D01*
X006797Y002732D02*
X012989Y002732D01*
X013203Y002437D02*
X025774Y002437D01*
X025873Y002535D02*
X013301Y002535D01*
X013400Y002634D02*
X026069Y002634D01*
X026475Y002831D02*
X024652Y002831D01*
X024652Y002929D02*
X026472Y002929D01*
X026472Y003028D02*
X024652Y003028D01*
X024652Y003126D02*
X026472Y003126D01*
X026472Y003225D02*
X024652Y003225D01*
X024652Y003323D02*
X026472Y003323D01*
X026472Y003520D02*
X024736Y003520D01*
X024652Y003422D02*
X026822Y003422D01*
X026822Y003520D02*
X026922Y003520D01*
X026922Y003619D02*
X026822Y003619D01*
X026822Y003717D02*
X026922Y003717D01*
X026922Y003816D02*
X026822Y003816D01*
X026822Y003914D02*
X026922Y003914D01*
X026922Y004013D02*
X026822Y004013D01*
X026481Y004013D02*
X025229Y004013D01*
X025327Y004111D02*
X027172Y004111D01*
X027172Y004210D02*
X025426Y004210D01*
X025524Y004308D02*
X027172Y004308D01*
X027172Y004407D02*
X025623Y004407D01*
X025721Y004505D02*
X027172Y004505D01*
X027172Y004604D02*
X025820Y004604D01*
X025902Y004702D02*
X027172Y004702D01*
X027172Y004801D02*
X025902Y004801D01*
X025902Y004899D02*
X027172Y004899D01*
X027172Y004998D02*
X025902Y004998D01*
X025902Y005096D02*
X027172Y005096D01*
X027172Y005195D02*
X025902Y005195D01*
X025902Y005293D02*
X027172Y005293D01*
X027172Y005392D02*
X025902Y005392D01*
X025902Y005490D02*
X027172Y005490D01*
X027172Y005589D02*
X025902Y005589D01*
X025902Y005687D02*
X027172Y005687D01*
X027172Y005786D02*
X025902Y005786D01*
X026079Y005884D02*
X026543Y005884D01*
X026522Y005983D02*
X026102Y005983D01*
X026102Y006081D02*
X026522Y006081D01*
X026522Y006180D02*
X026102Y006180D01*
X026102Y006278D02*
X026522Y006278D01*
X026522Y006475D02*
X026102Y006475D01*
X026102Y006377D02*
X026872Y006377D01*
X026872Y006475D02*
X026972Y006475D01*
X026972Y006574D02*
X026872Y006574D01*
X026872Y006672D02*
X026972Y006672D01*
X026972Y006771D02*
X026872Y006771D01*
X026872Y006869D02*
X026972Y006869D01*
X026972Y006968D02*
X026872Y006968D01*
X026567Y006968D02*
X026049Y006968D01*
X026102Y006869D02*
X026522Y006869D01*
X026522Y006771D02*
X026102Y006771D01*
X026102Y006672D02*
X026522Y006672D01*
X026522Y006574D02*
X026102Y006574D01*
X025722Y006411D02*
X025722Y004761D01*
X024272Y003311D01*
X023892Y003323D02*
X023852Y003323D01*
X023852Y003225D02*
X023892Y003225D01*
X023892Y003126D02*
X023852Y003126D01*
X023852Y003028D02*
X023892Y003028D01*
X023892Y002929D02*
X023852Y002929D01*
X023852Y002831D02*
X023892Y002831D01*
X023967Y002732D02*
X023777Y002732D01*
X023781Y002316D02*
X023614Y002246D01*
X023486Y002118D01*
X023417Y001951D01*
X023417Y001770D01*
X023486Y001603D01*
X023614Y001475D01*
X023781Y001406D01*
X023962Y001406D01*
X024130Y001475D01*
X024258Y001603D01*
X024327Y001770D01*
X024327Y001951D01*
X024258Y002118D01*
X024130Y002246D01*
X023962Y002316D01*
X023781Y002316D01*
X023607Y002240D02*
X023136Y002240D01*
X023130Y002246D02*
X022962Y002316D01*
X022781Y002316D01*
X022614Y002246D01*
X022486Y002118D01*
X022417Y001951D01*
X022417Y001770D01*
X022486Y001603D01*
X022614Y001475D01*
X022781Y001406D01*
X022962Y001406D01*
X023130Y001475D01*
X023258Y001603D01*
X023327Y001770D01*
X023327Y001951D01*
X023258Y002118D01*
X023130Y002246D01*
X023235Y002141D02*
X023509Y002141D01*
X023455Y002043D02*
X023289Y002043D01*
X023327Y001944D02*
X023417Y001944D01*
X023417Y001846D02*
X023327Y001846D01*
X023317Y001747D02*
X023426Y001747D01*
X023467Y001649D02*
X023277Y001649D01*
X023205Y001550D02*
X023539Y001550D01*
X023670Y001452D02*
X023074Y001452D01*
X022670Y001452D02*
X022074Y001452D01*
X022130Y001475D02*
X022258Y001603D01*
X022327Y001770D01*
X022327Y001951D01*
X022258Y002118D01*
X022130Y002246D01*
X021962Y002316D01*
X021781Y002316D01*
X021614Y002246D01*
X021486Y002118D01*
X021417Y001951D01*
X021417Y001770D01*
X021486Y001603D01*
X021614Y001475D01*
X021781Y001406D01*
X021962Y001406D01*
X022130Y001475D01*
X022205Y001550D02*
X022539Y001550D01*
X022467Y001649D02*
X022277Y001649D01*
X022317Y001747D02*
X022426Y001747D01*
X022417Y001846D02*
X022327Y001846D01*
X022327Y001944D02*
X022417Y001944D01*
X022455Y002043D02*
X022289Y002043D01*
X022235Y002141D02*
X022509Y002141D01*
X022607Y002240D02*
X022136Y002240D01*
X021607Y002240D02*
X021136Y002240D01*
X021130Y002246D02*
X020962Y002316D01*
X020781Y002316D01*
X020614Y002246D01*
X020486Y002118D01*
X020417Y001951D01*
X020417Y001770D01*
X020486Y001603D01*
X020614Y001475D01*
X020781Y001406D01*
X020962Y001406D01*
X021130Y001475D01*
X021258Y001603D01*
X021327Y001770D01*
X021327Y001951D01*
X021258Y002118D01*
X021130Y002246D01*
X021235Y002141D02*
X021509Y002141D01*
X021455Y002043D02*
X021289Y002043D01*
X021327Y001944D02*
X021417Y001944D01*
X021417Y001846D02*
X021327Y001846D01*
X021317Y001747D02*
X021426Y001747D01*
X021467Y001649D02*
X021277Y001649D01*
X021205Y001550D02*
X021539Y001550D01*
X021670Y001452D02*
X021074Y001452D01*
X020670Y001452D02*
X020074Y001452D01*
X020130Y001475D02*
X020258Y001603D01*
X020327Y001770D01*
X020327Y001951D01*
X020258Y002118D01*
X020130Y002246D01*
X019962Y002316D01*
X019781Y002316D01*
X019614Y002246D01*
X019486Y002118D01*
X019417Y001951D01*
X019417Y001770D01*
X019486Y001603D01*
X019614Y001475D01*
X019781Y001406D01*
X019962Y001406D01*
X020130Y001475D01*
X020205Y001550D02*
X020539Y001550D01*
X020467Y001649D02*
X020277Y001649D01*
X020317Y001747D02*
X020426Y001747D01*
X020417Y001846D02*
X020327Y001846D01*
X020327Y001944D02*
X020417Y001944D01*
X020455Y002043D02*
X020289Y002043D01*
X020235Y002141D02*
X020509Y002141D01*
X020607Y002240D02*
X020136Y002240D01*
X019607Y002240D02*
X018136Y002240D01*
X018235Y002141D02*
X019509Y002141D01*
X019455Y002043D02*
X018289Y002043D01*
X018327Y001944D02*
X019417Y001944D01*
X019417Y001846D02*
X018327Y001846D01*
X018317Y001747D02*
X019426Y001747D01*
X019467Y001649D02*
X018277Y001649D01*
X018205Y001550D02*
X019539Y001550D01*
X019670Y001452D02*
X018074Y001452D01*
X017661Y001353D02*
X025706Y001353D01*
X025643Y001452D02*
X025297Y001452D01*
X025327Y001482D02*
X025251Y001406D01*
X024493Y001406D01*
X024417Y001482D01*
X024417Y002240D01*
X024136Y002240D01*
X024235Y002141D02*
X024417Y002141D01*
X024417Y002043D02*
X024289Y002043D01*
X024327Y001944D02*
X024417Y001944D01*
X024417Y001846D02*
X024327Y001846D01*
X024317Y001747D02*
X024417Y001747D01*
X024417Y001649D02*
X024277Y001649D01*
X024205Y001550D02*
X024417Y001550D01*
X024447Y001452D02*
X024074Y001452D01*
X024417Y002240D02*
X024493Y002316D01*
X025251Y002316D01*
X025327Y002240D01*
X025631Y002240D01*
X025590Y002141D02*
X025327Y002141D01*
X025327Y002043D02*
X025549Y002043D01*
X025542Y001944D02*
X025327Y001944D01*
X025327Y001846D02*
X025542Y001846D01*
X025542Y001747D02*
X025327Y001747D01*
X025327Y001649D02*
X025561Y001649D01*
X025602Y001550D02*
X025327Y001550D01*
X025327Y001482D02*
X025327Y002240D01*
X025676Y002338D02*
X013104Y002338D01*
X013136Y002240D02*
X013607Y002240D01*
X013509Y002141D02*
X013235Y002141D01*
X013289Y002043D02*
X013455Y002043D01*
X013417Y001944D02*
X013327Y001944D01*
X013327Y001846D02*
X013417Y001846D01*
X013426Y001747D02*
X013317Y001747D01*
X013277Y001649D02*
X013467Y001649D01*
X013539Y001550D02*
X013205Y001550D01*
X012872Y001861D02*
X012872Y002361D01*
X014372Y003861D01*
X016272Y003861D01*
X016268Y004111D02*
X011102Y004111D01*
X011102Y004013D02*
X014269Y004013D01*
X014192Y003935D02*
X014192Y003935D01*
X014171Y003914D02*
X011102Y003914D01*
X011102Y003816D02*
X014072Y003816D01*
X013974Y003717D02*
X011102Y003717D01*
X011102Y003619D02*
X013875Y003619D01*
X013777Y003520D02*
X011102Y003520D01*
X011102Y003422D02*
X013678Y003422D01*
X013580Y003323D02*
X011102Y003323D01*
X011102Y003281D02*
X011026Y003205D01*
X010418Y003205D01*
X010342Y003281D01*
X010342Y004389D01*
X010418Y004465D01*
X011026Y004465D01*
X011102Y004389D01*
X011102Y003281D01*
X011045Y003225D02*
X013481Y003225D01*
X013695Y002929D02*
X023092Y002929D01*
X023092Y002831D02*
X013597Y002831D01*
X013498Y002732D02*
X023167Y002732D01*
X023092Y003028D02*
X013794Y003028D01*
X013892Y003126D02*
X023092Y003126D01*
X023092Y003225D02*
X013991Y003225D01*
X014089Y003323D02*
X023092Y003323D01*
X023092Y003422D02*
X014188Y003422D01*
X014286Y003520D02*
X023092Y003520D01*
X023092Y003619D02*
X014385Y003619D01*
X014607Y002240D02*
X014136Y002240D01*
X014235Y002141D02*
X014509Y002141D01*
X014455Y002043D02*
X014289Y002043D01*
X014327Y001944D02*
X014417Y001944D01*
X014417Y001846D02*
X014327Y001846D01*
X014317Y001747D02*
X014426Y001747D01*
X014467Y001649D02*
X014277Y001649D01*
X014205Y001550D02*
X014539Y001550D01*
X015205Y001550D02*
X015511Y001550D01*
X015447Y001649D02*
X015277Y001649D01*
X015317Y001747D02*
X015409Y001747D01*
X015327Y001846D02*
X015834Y001846D01*
X015834Y001898D02*
X015397Y001898D01*
X015409Y001972D01*
X015432Y002043D01*
X015466Y002110D01*
X015510Y002170D01*
X015562Y002223D01*
X015623Y002267D01*
X015690Y002301D01*
X015761Y002324D01*
X015834Y002336D01*
X015834Y001898D01*
X015834Y001944D02*
X015909Y001944D01*
X015909Y001898D02*
X015909Y002336D01*
X015983Y002324D01*
X016054Y002301D01*
X016121Y002267D01*
X016181Y002223D01*
X016234Y002170D01*
X016278Y002110D01*
X016312Y002043D01*
X016335Y001972D01*
X016347Y001898D01*
X015909Y001898D01*
X015909Y001846D02*
X016834Y001846D01*
X016834Y001898D02*
X016397Y001898D01*
X016409Y001972D01*
X016432Y002043D01*
X016466Y002110D01*
X016510Y002170D01*
X016562Y002223D01*
X016623Y002267D01*
X016690Y002301D01*
X016761Y002324D01*
X016834Y002336D01*
X016834Y001898D01*
X016834Y001944D02*
X016909Y001944D01*
X016909Y001898D02*
X016909Y002336D01*
X016983Y002324D01*
X017054Y002301D01*
X017121Y002267D01*
X017181Y002223D01*
X017234Y002170D01*
X017278Y002110D01*
X017312Y002043D01*
X017335Y001972D01*
X017347Y001898D01*
X016909Y001898D01*
X016909Y001846D02*
X017417Y001846D01*
X017417Y001944D02*
X017340Y001944D01*
X017312Y002043D02*
X017455Y002043D01*
X017509Y002141D02*
X017255Y002141D01*
X017158Y002240D02*
X017607Y002240D01*
X016909Y002240D02*
X016834Y002240D01*
X016834Y002141D02*
X016909Y002141D01*
X016909Y002043D02*
X016834Y002043D01*
X016585Y002240D02*
X016158Y002240D01*
X016255Y002141D02*
X016489Y002141D01*
X016432Y002043D02*
X016312Y002043D01*
X016340Y001944D02*
X016404Y001944D01*
X016409Y001747D02*
X016335Y001747D01*
X016297Y001649D02*
X016447Y001649D01*
X016511Y001550D02*
X016233Y001550D01*
X015909Y002043D02*
X015834Y002043D01*
X015834Y002141D02*
X015909Y002141D01*
X015909Y002240D02*
X015834Y002240D01*
X015585Y002240D02*
X015136Y002240D01*
X015235Y002141D02*
X015489Y002141D01*
X015432Y002043D02*
X015289Y002043D01*
X015327Y001944D02*
X015404Y001944D01*
X017233Y001550D02*
X017264Y001550D01*
X017297Y001649D02*
X017363Y001649D01*
X017335Y001747D02*
X017426Y001747D01*
X017563Y001255D02*
X025804Y001255D01*
X025904Y001156D02*
X017464Y001156D01*
X016366Y004210D02*
X011102Y004210D01*
X011102Y004308D02*
X016465Y004308D01*
X016563Y004407D02*
X011084Y004407D01*
X010360Y004407D02*
X009404Y004407D01*
X009422Y004308D02*
X010342Y004308D01*
X010342Y004210D02*
X009422Y004210D01*
X009422Y004111D02*
X010342Y004111D01*
X010342Y004013D02*
X009422Y004013D01*
X009422Y003914D02*
X010342Y003914D01*
X010342Y003816D02*
X009072Y003816D01*
X009072Y003785D02*
X009422Y003785D01*
X009422Y003315D01*
X009412Y003277D01*
X009392Y003243D01*
X009364Y003215D01*
X009330Y003195D01*
X009292Y003185D01*
X009072Y003185D01*
X009072Y003785D01*
X009072Y003717D02*
X008972Y003717D01*
X008972Y003619D02*
X009072Y003619D01*
X009072Y003520D02*
X008972Y003520D01*
X008972Y003422D02*
X009072Y003422D01*
X009072Y003323D02*
X008972Y003323D01*
X008972Y003225D02*
X009072Y003225D01*
X009374Y003225D02*
X010398Y003225D01*
X010342Y003323D02*
X009422Y003323D01*
X009422Y003422D02*
X010342Y003422D01*
X010342Y003520D02*
X009422Y003520D01*
X009422Y003619D02*
X010342Y003619D01*
X010342Y003717D02*
X009422Y003717D01*
X009072Y003914D02*
X008972Y003914D01*
X008972Y003885D02*
X008972Y004485D01*
X008752Y004485D01*
X008714Y004475D01*
X008680Y004455D01*
X008652Y004427D01*
X008632Y004393D01*
X008622Y004355D01*
X008622Y003885D01*
X008972Y003885D01*
X008972Y003816D02*
X007272Y003816D01*
X007344Y003717D02*
X008622Y003717D01*
X008622Y003619D02*
X007347Y003619D01*
X007347Y003520D02*
X008622Y003520D01*
X008622Y003422D02*
X007347Y003422D01*
X006909Y003422D02*
X006834Y003422D01*
X006834Y003520D02*
X006909Y003520D01*
X006909Y003619D02*
X006834Y003619D01*
X006834Y003717D02*
X006909Y003717D01*
X006909Y003816D02*
X006834Y003816D01*
X006761Y003914D02*
X005615Y003914D01*
X005317Y003619D02*
X005072Y003619D01*
X005072Y003717D02*
X005218Y003717D01*
X005162Y003816D02*
X005072Y003816D01*
X005072Y003914D02*
X005162Y003914D01*
X005162Y004013D02*
X005072Y004013D01*
X005072Y004111D02*
X005162Y004111D01*
X005162Y004210D02*
X005072Y004210D01*
X005072Y004308D02*
X005162Y004308D01*
X005162Y004407D02*
X005072Y004407D01*
X005072Y004505D02*
X005162Y004505D01*
X005162Y004604D02*
X005072Y004604D01*
X005072Y004702D02*
X005162Y004702D01*
X005162Y004801D02*
X005072Y004801D01*
X005072Y004899D02*
X005162Y004899D01*
X005162Y004998D02*
X005072Y004998D01*
X005072Y005096D02*
X005162Y005096D01*
X005162Y005195D02*
X005072Y005195D01*
X005072Y005293D02*
X005162Y005293D01*
X005162Y005392D02*
X005072Y005392D01*
X005072Y005490D02*
X005162Y005490D01*
X005162Y005589D02*
X005072Y005589D01*
X005072Y005687D02*
X005162Y005687D01*
X005162Y005786D02*
X005072Y005786D01*
X005072Y005884D02*
X005162Y005884D01*
X005162Y005983D02*
X005072Y005983D01*
X005072Y006081D02*
X005162Y006081D01*
X005162Y006180D02*
X005072Y006180D01*
X005072Y006278D02*
X005162Y006278D01*
X005162Y006377D02*
X005072Y006377D01*
X005072Y006475D02*
X005162Y006475D01*
X005162Y006574D02*
X005072Y006574D01*
X005072Y006672D02*
X005162Y006672D01*
X005162Y006771D02*
X005072Y006771D01*
X005072Y006869D02*
X005162Y006869D01*
X005162Y006968D02*
X005072Y006968D01*
X005072Y007066D02*
X005162Y007066D01*
X005162Y007165D02*
X005072Y007165D01*
X005072Y007263D02*
X005162Y007263D01*
X005162Y007362D02*
X005072Y007362D01*
X005072Y007460D02*
X005162Y007460D01*
X005162Y007559D02*
X005072Y007559D01*
X005072Y007657D02*
X005162Y007657D01*
X005162Y007756D02*
X005072Y007756D01*
X005072Y007854D02*
X005162Y007854D01*
X005162Y007953D02*
X005072Y007953D01*
X005072Y008051D02*
X005162Y008051D01*
X005162Y008150D02*
X005072Y008150D01*
X005072Y008248D02*
X005162Y008248D01*
X005162Y008347D02*
X005072Y008347D01*
X005072Y008445D02*
X005162Y008445D01*
X005072Y008544D02*
X005258Y008544D01*
X005356Y008642D02*
X005072Y008642D01*
X005072Y008741D02*
X005455Y008741D01*
X005553Y008839D02*
X005072Y008839D01*
X005072Y008938D02*
X005652Y008938D01*
X005750Y009036D02*
X005072Y009036D01*
X005072Y009135D02*
X005849Y009135D01*
X005947Y009233D02*
X005072Y009233D01*
X005072Y009332D02*
X006046Y009332D01*
X005997Y009430D02*
X006144Y009430D01*
X006162Y009529D02*
X006082Y009529D01*
X006116Y009627D02*
X006162Y009627D01*
X006162Y009726D02*
X006116Y009726D01*
X006116Y009824D02*
X006162Y009824D01*
X006162Y009923D02*
X006116Y009923D01*
X006116Y010021D02*
X006162Y010021D01*
X006162Y010120D02*
X006083Y010120D01*
X006162Y010218D02*
X005999Y010218D01*
X006162Y010317D02*
X005072Y010317D01*
X005072Y010415D02*
X006162Y010415D01*
X006162Y010514D02*
X005072Y010514D01*
X005072Y010612D02*
X006162Y010612D01*
X006162Y010711D02*
X005072Y010711D01*
X005072Y010809D02*
X006162Y010809D01*
X006582Y010415D02*
X011762Y010415D01*
X011762Y010317D02*
X006582Y010317D01*
X006582Y010218D02*
X011762Y010218D01*
X011762Y010120D02*
X006582Y010120D01*
X006582Y010021D02*
X011762Y010021D01*
X011762Y009923D02*
X006582Y009923D01*
X006582Y009824D02*
X011762Y009824D01*
X011757Y009726D02*
X006582Y009726D01*
X006582Y009627D02*
X011692Y009627D01*
X011692Y009529D02*
X006582Y009529D01*
X006582Y009430D02*
X011692Y009430D01*
X011692Y009332D02*
X006582Y009332D01*
X006541Y009233D02*
X011692Y009233D01*
X011692Y009135D02*
X006443Y009135D01*
X006344Y009036D02*
X011717Y009036D01*
X011872Y009586D02*
X012172Y009586D01*
X012172Y009136D01*
X011872Y009136D01*
X011872Y009586D01*
X011872Y009235D02*
X012172Y009235D01*
X012172Y009334D02*
X011872Y009334D01*
X011872Y009433D02*
X012172Y009433D01*
X012172Y009532D02*
X011872Y009532D01*
X012352Y009233D02*
X012372Y009233D01*
X012372Y009135D02*
X012352Y009135D01*
X012327Y009036D02*
X012398Y009036D01*
X012538Y008938D02*
X006246Y008938D01*
X006872Y008361D02*
X008572Y008361D01*
X008267Y008544D02*
X007289Y008544D01*
X007234Y008642D02*
X008345Y008642D01*
X008799Y008642D02*
X008945Y008642D01*
X009399Y008642D02*
X012556Y008642D01*
X012458Y008544D02*
X009477Y008544D01*
X009618Y008445D02*
X012359Y008445D01*
X012261Y008347D02*
X009716Y008347D01*
X009815Y008248D02*
X012162Y008248D01*
X012064Y008150D02*
X009913Y008150D01*
X010012Y008051D02*
X011965Y008051D01*
X011867Y007953D02*
X010110Y007953D01*
X010209Y007854D02*
X011857Y007854D01*
X011767Y007756D02*
X010307Y007756D01*
X009995Y007559D02*
X009402Y007559D01*
X009402Y007640D02*
X009326Y007716D01*
X008718Y007716D01*
X008642Y007640D01*
X008642Y006532D01*
X008718Y006456D01*
X009326Y006456D01*
X009402Y006532D01*
X009402Y007640D01*
X009385Y007657D02*
X009896Y007657D01*
X009798Y007756D02*
X007107Y007756D01*
X007219Y007657D02*
X008659Y007657D01*
X008642Y007559D02*
X007282Y007559D01*
X007323Y007460D02*
X008642Y007460D01*
X008642Y007362D02*
X007327Y007362D01*
X007324Y007263D02*
X008642Y007263D01*
X008642Y007165D02*
X007283Y007165D01*
X007221Y007066D02*
X008642Y007066D01*
X008642Y006968D02*
X007112Y006968D01*
X007071Y006771D02*
X008642Y006771D01*
X008642Y006869D02*
X006635Y006869D01*
X006673Y006771D02*
X006552Y006771D01*
X006872Y006361D02*
X007872Y005361D01*
X016372Y005361D01*
X017872Y006861D01*
X017872Y007643D01*
X017214Y007671D02*
X017214Y007203D01*
X016672Y006661D01*
X016364Y006672D02*
X016119Y006672D01*
X015984Y006574D02*
X016374Y006574D01*
X016422Y006475D02*
X013012Y006475D01*
X012984Y006574D02*
X015760Y006574D01*
X015625Y006672D02*
X013119Y006672D01*
X013168Y006771D02*
X015576Y006771D01*
X015564Y006869D02*
X013180Y006869D01*
X013161Y006968D02*
X015583Y006968D01*
X015642Y007066D02*
X014966Y007066D01*
X014778Y007066D02*
X013102Y007066D01*
X013082Y007165D02*
X014632Y007165D01*
X014579Y007263D02*
X013066Y007263D01*
X012968Y007362D02*
X014564Y007362D01*
X014580Y007460D02*
X012869Y007460D01*
X012306Y006672D02*
X012292Y006672D01*
X012404Y006574D02*
X011102Y006574D01*
X011102Y006672D02*
X011852Y006672D01*
X011767Y006771D02*
X011102Y006771D01*
X011045Y006475D02*
X012503Y006475D01*
X012601Y006377D02*
X007327Y006377D01*
X007317Y006475D02*
X008699Y006475D01*
X008642Y006574D02*
X007276Y006574D01*
X007204Y006672D02*
X008642Y006672D01*
X009345Y006475D02*
X010399Y006475D01*
X010342Y006574D02*
X009402Y006574D01*
X009402Y006672D02*
X010342Y006672D01*
X010342Y006771D02*
X009402Y006771D01*
X009402Y006869D02*
X010342Y006869D01*
X010342Y006968D02*
X009402Y006968D01*
X009402Y007066D02*
X010342Y007066D01*
X010342Y007165D02*
X009402Y007165D01*
X009402Y007263D02*
X010290Y007263D01*
X010192Y007362D02*
X009402Y007362D01*
X009402Y007460D02*
X010093Y007460D01*
X011102Y007460D02*
X011767Y007460D01*
X011767Y007362D02*
X011102Y007362D01*
X011102Y007263D02*
X011861Y007263D01*
X011768Y007165D02*
X011102Y007165D01*
X011102Y007559D02*
X011767Y007559D01*
X011767Y007657D02*
X011085Y007657D01*
X012658Y008150D02*
X013147Y008150D01*
X013085Y008248D02*
X012756Y008248D01*
X012855Y008347D02*
X013064Y008347D01*
X013073Y008445D02*
X012953Y008445D01*
X013052Y008544D02*
X013119Y008544D01*
X013150Y008642D02*
X013246Y008642D01*
X012655Y008741D02*
X007135Y008741D01*
X007277Y008150D02*
X008275Y008150D01*
X008869Y008150D02*
X008875Y008150D01*
X009172Y008361D02*
X009448Y008361D01*
X007327Y006278D02*
X012700Y006278D01*
X012798Y006180D02*
X007307Y006180D01*
X007406Y006081D02*
X012897Y006081D01*
X012995Y005983D02*
X007504Y005983D01*
X007603Y005884D02*
X013094Y005884D01*
X013192Y005786D02*
X007701Y005786D01*
X007800Y005687D02*
X013291Y005687D01*
X013389Y005589D02*
X007898Y005589D01*
X007264Y004604D02*
X016760Y004604D01*
X016662Y004505D02*
X007305Y004505D01*
X007327Y004407D02*
X008640Y004407D01*
X008622Y004308D02*
X007327Y004308D01*
X007302Y004210D02*
X008622Y004210D01*
X008622Y004111D02*
X007261Y004111D01*
X007167Y004013D02*
X008622Y004013D01*
X008622Y003914D02*
X006983Y003914D01*
X006909Y003225D02*
X006834Y003225D01*
X006834Y003126D02*
X006909Y003126D01*
X006909Y003028D02*
X006834Y003028D01*
X006834Y002929D02*
X006909Y002929D01*
X006397Y003225D02*
X006305Y003225D01*
X006006Y002929D02*
X005072Y002929D01*
X005072Y002831D02*
X006105Y002831D01*
X006203Y002732D02*
X005072Y002732D01*
X005072Y002634D02*
X005569Y002634D01*
X005373Y002535D02*
X005072Y002535D01*
X005072Y002437D02*
X005274Y002437D01*
X005176Y002338D02*
X005072Y002338D01*
X005072Y002240D02*
X005131Y002240D01*
X005090Y002141D02*
X005072Y002141D01*
X006174Y002634D02*
X006302Y002634D01*
X006371Y002535D02*
X006400Y002535D01*
X006470Y002437D02*
X006499Y002437D01*
X006982Y002548D02*
X006982Y001848D01*
X007359Y001471D01*
X010428Y001471D01*
X010417Y001482D01*
X010417Y002240D01*
X010417Y002141D02*
X006982Y002141D01*
X006982Y002043D02*
X010417Y002043D01*
X010417Y001944D02*
X006982Y001944D01*
X006984Y001846D02*
X010417Y001846D01*
X010417Y001747D02*
X007082Y001747D01*
X007181Y001649D02*
X010417Y001649D01*
X010417Y001550D02*
X007279Y001550D01*
X005908Y003028D02*
X005072Y003028D01*
X005072Y003126D02*
X005809Y003126D01*
X005711Y003225D02*
X005072Y003225D01*
X005072Y003323D02*
X005612Y003323D01*
X005514Y003422D02*
X005072Y003422D01*
X005072Y003520D02*
X005415Y003520D01*
X008972Y004013D02*
X009072Y004013D01*
X009072Y004111D02*
X008972Y004111D01*
X008972Y004210D02*
X009072Y004210D01*
X009072Y004308D02*
X008972Y004308D01*
X008972Y004407D02*
X009072Y004407D01*
X012136Y002240D02*
X012607Y002240D01*
X012509Y002141D02*
X012235Y002141D01*
X012289Y002043D02*
X012455Y002043D01*
X012417Y001944D02*
X012327Y001944D01*
X012327Y001846D02*
X012417Y001846D01*
X012426Y001747D02*
X012317Y001747D01*
X012277Y001649D02*
X012467Y001649D01*
X012539Y001550D02*
X012205Y001550D01*
X013603Y005884D02*
X016241Y005884D01*
X016339Y005983D02*
X013504Y005983D01*
X013406Y006081D02*
X016438Y006081D01*
X016536Y006180D02*
X013307Y006180D01*
X013209Y006278D02*
X016635Y006278D01*
X016552Y006377D02*
X013110Y006377D01*
X014872Y007361D02*
X014972Y007261D01*
X016472Y007261D01*
X016585Y007373D01*
X016585Y007671D01*
X016900Y007671D02*
X016900Y007388D01*
X016372Y006861D01*
X015872Y006861D01*
X015345Y008051D02*
X014417Y008051D01*
X013507Y010218D02*
X013117Y010218D01*
X013117Y010219D02*
X013137Y010253D01*
X013147Y010291D01*
X013147Y010461D01*
X012822Y010461D01*
X012822Y010161D01*
X013017Y010161D01*
X013055Y010171D01*
X013089Y010191D01*
X013117Y010219D01*
X013147Y010317D02*
X013452Y010317D01*
X013447Y010415D02*
X013147Y010415D01*
X013147Y010612D02*
X013447Y010612D01*
X013453Y010711D02*
X013147Y010711D01*
X013111Y010809D02*
X013513Y010809D01*
X013545Y010908D02*
X013078Y010908D01*
X012822Y010809D02*
X012722Y010809D01*
X012722Y010711D02*
X012822Y010711D01*
X012822Y010415D02*
X012722Y010415D01*
X012722Y010317D02*
X012822Y010317D01*
X012822Y010218D02*
X012722Y010218D01*
X013822Y010612D02*
X013922Y010612D01*
X013922Y010561D02*
X013922Y010861D01*
X014123Y010861D01*
X014174Y010847D01*
X014220Y010821D01*
X014257Y010783D01*
X014283Y010738D01*
X014297Y010687D01*
X014297Y010561D01*
X013922Y010561D01*
X013922Y010514D02*
X014862Y010514D01*
X014862Y010612D02*
X014297Y010612D01*
X014291Y010711D02*
X014862Y010711D01*
X014862Y010809D02*
X014231Y010809D01*
X014199Y010908D02*
X014862Y010908D01*
X014329Y010415D02*
X014297Y010415D01*
X013922Y010711D02*
X013822Y010711D01*
X013822Y010809D02*
X013922Y010809D01*
X014097Y011061D02*
X014097Y011361D01*
X014097Y011061D02*
X013647Y011061D01*
X013647Y011361D01*
X014097Y011361D01*
X014097Y011160D02*
X013647Y011160D01*
X013647Y011259D02*
X014097Y011259D01*
X014097Y011358D02*
X013647Y011358D01*
X013530Y011499D02*
X013093Y011499D01*
X014213Y011499D02*
X014562Y011499D01*
X014097Y010661D02*
X014097Y010361D01*
X013647Y010361D01*
X013647Y010661D01*
X014097Y010661D01*
X014097Y010460D02*
X013647Y010460D01*
X013647Y010559D02*
X014097Y010559D01*
X014097Y010658D02*
X013647Y010658D01*
X008401Y010711D02*
X008343Y010711D01*
X008343Y010659D02*
X008343Y010938D01*
X007513Y010938D01*
X007596Y010711D02*
X007634Y010686D01*
X007675Y010668D01*
X007719Y010659D01*
X008343Y010659D01*
X008343Y010809D02*
X008401Y010809D01*
X008401Y010908D02*
X008343Y010908D01*
X008343Y011006D02*
X008401Y011006D01*
X008401Y011105D02*
X008343Y011105D01*
X008343Y011203D02*
X008401Y011203D01*
X018593Y018394D02*
X018784Y018394D01*
X018692Y018295D02*
X018883Y018295D01*
X018790Y018197D02*
X018981Y018197D01*
X018889Y018098D02*
X019080Y018098D01*
X018987Y018000D02*
X019178Y018000D01*
X019086Y017901D02*
X019277Y017901D01*
X019184Y017803D02*
X019375Y017803D01*
X019283Y017704D02*
X019474Y017704D01*
X019381Y017606D02*
X019572Y017606D01*
X019480Y017507D02*
X019671Y017507D01*
X019769Y017409D02*
X019552Y017409D01*
X019552Y017310D02*
X019864Y017310D01*
X019864Y017212D02*
X019552Y017212D01*
X019552Y017113D02*
X019900Y017113D01*
X019982Y017015D02*
X019552Y017015D01*
X019538Y016827D02*
X021422Y016827D01*
X021422Y017260D02*
X020173Y017260D01*
X020172Y017261D01*
X017572Y019861D01*
X017504Y019674D02*
X014713Y019674D01*
X014811Y019576D02*
X017602Y019576D01*
X017510Y019477D02*
X017701Y019477D01*
X017608Y019379D02*
X017799Y019379D01*
X017707Y019280D02*
X017898Y019280D01*
X017805Y019182D02*
X017996Y019182D01*
X017904Y019083D02*
X018095Y019083D01*
X018002Y018985D02*
X018193Y018985D01*
X018101Y018886D02*
X018292Y018886D01*
X018199Y018788D02*
X018390Y018788D01*
X018298Y018689D02*
X018489Y018689D01*
X018396Y018591D02*
X018587Y018591D01*
X018495Y018492D02*
X018686Y018492D01*
X018505Y019182D02*
X021158Y019182D01*
X021126Y019280D02*
X018407Y019280D01*
X018308Y019379D02*
X021126Y019379D01*
X021126Y019477D02*
X018210Y019477D01*
X017372Y019361D02*
X019372Y017361D01*
X019372Y016661D01*
X019538Y016827D01*
X019103Y016818D02*
X019077Y016818D01*
X018987Y016954D02*
X019022Y016974D01*
X019058Y017010D01*
X019097Y017113D02*
X019192Y017113D01*
X019192Y017212D02*
X019097Y017212D01*
X019097Y017310D02*
X019168Y017310D01*
X019884Y017803D02*
X020992Y017803D01*
X020996Y017901D02*
X019786Y017901D01*
X019983Y017704D02*
X020992Y017704D01*
X020992Y017606D02*
X020081Y017606D01*
X020361Y017507D02*
X020992Y017507D01*
X021852Y016128D02*
X022213Y016128D01*
X022531Y016128D02*
X025350Y016128D01*
X025448Y016030D02*
X022635Y016030D01*
X022676Y015931D02*
X025547Y015931D01*
X025645Y015833D02*
X022680Y015833D01*
X022653Y015734D02*
X025744Y015734D01*
X025842Y015636D02*
X022583Y015636D01*
X022795Y015242D02*
X025488Y015242D01*
X025393Y015143D02*
X022894Y015143D01*
X022992Y015045D02*
X025352Y015045D01*
X025338Y014946D02*
X023091Y014946D01*
X023189Y014848D02*
X025344Y014848D01*
X025385Y014749D02*
X023288Y014749D01*
X023386Y014651D02*
X025469Y014651D01*
X025456Y014257D02*
X025556Y014257D01*
X025556Y014158D02*
X025456Y014158D01*
X025456Y014060D02*
X025556Y014060D01*
X025556Y013764D02*
X025456Y013764D01*
X025456Y013666D02*
X025556Y013666D01*
X025556Y013567D02*
X025456Y013567D01*
X025456Y013469D02*
X025556Y013469D01*
X025725Y013272D02*
X025345Y013272D01*
X025377Y013173D02*
X025591Y013173D01*
X025518Y013075D02*
X025377Y013075D01*
X025377Y012976D02*
X025477Y012976D01*
X025467Y012878D02*
X025377Y012878D01*
X025377Y012779D02*
X025467Y012779D01*
X025504Y012681D02*
X025377Y012681D01*
X025377Y012582D02*
X025557Y012582D01*
X025655Y012484D02*
X025377Y012484D01*
X025922Y012861D02*
X026472Y012861D01*
X026431Y013075D02*
X026326Y013075D01*
X026253Y013173D02*
X026492Y013173D01*
X026492Y013272D02*
X026119Y013272D01*
X026082Y012287D02*
X026093Y012287D01*
X025358Y009233D02*
X024552Y009233D01*
X024552Y009135D02*
X025358Y009135D01*
X025358Y009036D02*
X024552Y009036D01*
X024552Y008938D02*
X025358Y008938D01*
X026137Y008347D02*
X027172Y008347D01*
X027172Y008248D02*
X026244Y008248D01*
X026312Y008150D02*
X027172Y008150D01*
X027172Y008051D02*
X026353Y008051D01*
X026366Y007953D02*
X027172Y007953D01*
X027172Y007854D02*
X026366Y007854D01*
X026338Y007756D02*
X027172Y007756D01*
X027172Y007657D02*
X026297Y007657D01*
X026208Y007559D02*
X027172Y007559D01*
X027172Y007460D02*
X026049Y007460D01*
X025902Y007362D02*
X027172Y007362D01*
X027172Y007263D02*
X025902Y007263D01*
X025902Y007165D02*
X027172Y007165D01*
X027172Y007066D02*
X025902Y007066D01*
X025395Y006968D02*
X024199Y006968D01*
X024252Y006869D02*
X025342Y006869D01*
X025342Y006771D02*
X024252Y006771D01*
X024252Y006672D02*
X025342Y006672D01*
X025342Y006574D02*
X024252Y006574D01*
X024252Y006475D02*
X025342Y006475D01*
X025342Y006377D02*
X024252Y006377D01*
X024252Y006278D02*
X025342Y006278D01*
X025342Y006180D02*
X024252Y006180D01*
X024252Y006081D02*
X025342Y006081D01*
X025342Y005983D02*
X024252Y005983D01*
X024229Y005884D02*
X025365Y005884D01*
X025722Y006411D02*
X025722Y007772D01*
X025872Y007922D01*
X026872Y006278D02*
X026972Y006278D01*
X026972Y006180D02*
X026872Y006180D01*
X026872Y006081D02*
X026972Y006081D01*
X026972Y005983D02*
X026872Y005983D01*
X026872Y005884D02*
X026972Y005884D01*
X025542Y005195D02*
X024074Y005195D01*
X024161Y005096D02*
X025542Y005096D01*
X025542Y004998D02*
X024202Y004998D01*
X024222Y004899D02*
X025542Y004899D01*
X025507Y004801D02*
X024222Y004801D01*
X024193Y004702D02*
X025409Y004702D01*
X025310Y004604D02*
X024151Y004604D01*
X024053Y004505D02*
X025212Y004505D01*
X024916Y004210D02*
X023852Y004210D01*
X023852Y004111D02*
X024818Y004111D01*
X024719Y004013D02*
X023852Y004013D01*
X023852Y003914D02*
X024621Y003914D01*
X024835Y003619D02*
X026472Y003619D01*
X026472Y003717D02*
X024933Y003717D01*
X025032Y003816D02*
X026472Y003816D01*
X026472Y003914D02*
X025130Y003914D01*
X023893Y003816D02*
X023852Y003816D01*
X023852Y003717D02*
X023892Y003717D01*
X023892Y003619D02*
X023852Y003619D01*
X023852Y003520D02*
X023892Y003520D01*
X023892Y003422D02*
X023852Y003422D01*
X024577Y002732D02*
X026545Y002732D01*
X026674Y002634D02*
X027172Y002634D01*
X027172Y002535D02*
X026871Y002535D01*
X026970Y002437D02*
X027172Y002437D01*
X027172Y002338D02*
X027068Y002338D01*
X027113Y002240D02*
X027172Y002240D01*
X027172Y002141D02*
X027154Y002141D01*
X026922Y002732D02*
X026822Y002732D01*
X026822Y002831D02*
X026922Y002831D01*
X026922Y002929D02*
X026822Y002929D01*
X026822Y003028D02*
X026922Y003028D01*
X026922Y003126D02*
X026822Y003126D01*
X026822Y003225D02*
X026922Y003225D01*
X026922Y003323D02*
X026822Y003323D01*
X023441Y007756D02*
X021303Y007756D01*
X021319Y008150D02*
X023425Y008150D01*
X023561Y008248D02*
X021183Y008248D01*
X021526Y019182D02*
X021626Y019182D01*
X021626Y019280D02*
X021526Y019280D01*
X021526Y019379D02*
X021626Y019379D01*
X021626Y019477D02*
X021526Y019477D01*
X021526Y019773D02*
X021626Y019773D01*
X021626Y019871D02*
X021526Y019871D01*
X021526Y019970D02*
X021626Y019970D01*
X025785Y021447D02*
X006459Y021447D01*
X006361Y021546D02*
X025883Y021546D01*
X026095Y021644D02*
X006149Y021644D01*
D36*
X025872Y009300D03*
D37*
X025872Y007922D03*
D38*
X007272Y020861D03*
D39*
X007635Y017436D02*
X009372Y017436D01*
X010272Y017436D01*
X010272Y016511D01*
X010672Y016511D01*
X011772Y016511D01*
X010772Y016411D02*
X010772Y015761D01*
X012953Y016361D02*
X013872Y016361D01*
X013872Y017156D01*
X013867Y017161D01*
X013272Y017161D01*
X012953Y016361D02*
X012953Y012942D01*
X011972Y011961D01*
X011972Y010861D01*
X011972Y009411D01*
X012022Y009361D01*
X011972Y010861D02*
X011078Y011754D01*
X008372Y011754D01*
X006778Y011754D01*
X006772Y011761D01*
X006372Y011361D01*
X006372Y009361D01*
X005372Y008361D01*
X005372Y003861D01*
X006772Y002461D01*
X006772Y001761D01*
X007272Y001261D01*
X017272Y001261D01*
X017872Y001861D01*
X012872Y006861D02*
X012872Y007161D01*
X012472Y007561D01*
X012072Y007561D01*
X012072Y007861D01*
X014472Y010261D01*
X015072Y010261D01*
X015072Y010161D01*
X015682Y010148D01*
X017085Y010148D01*
X017372Y009861D01*
X018075Y009849D01*
X018075Y009203D01*
X019062Y009203D01*
X019062Y009833D02*
X018075Y009849D01*
X015072Y010261D02*
X015072Y011211D01*
X014772Y011211D01*
X014772Y012761D01*
X018172Y016161D01*
X018872Y016161D01*
X018872Y016561D01*
X018772Y016661D01*
X018872Y016161D02*
X019672Y016161D01*
X019905Y016394D01*
X021422Y016394D01*
X014872Y016361D02*
X014872Y015361D01*
X014772Y011211D02*
X013872Y011211D01*
X012772Y011211D01*
X007635Y017436D02*
X006572Y017372D01*
D40*
X010772Y015761D03*
X015372Y012361D03*
X016072Y012261D03*
X017372Y012361D03*
X018172Y012161D03*
X018872Y011861D03*
X019372Y011861D03*
X017972Y011661D03*
X014972Y009661D03*
X013772Y008161D03*
X013372Y008361D03*
X014172Y007861D03*
X014872Y007361D03*
X015872Y006861D03*
X016672Y006661D03*
X017672Y006161D03*
X018472Y006561D03*
X018772Y006961D03*
X021072Y007961D03*
X021362Y008573D03*
X023672Y007961D03*
X020172Y014161D03*
X019372Y014761D03*
X019372Y016661D03*
X020172Y017261D03*
X022372Y015861D03*
X022372Y014361D03*
X012872Y006861D03*
D41*
X012953Y016361D02*
X012953Y016565D01*
X012953Y017156D02*
X013267Y017156D01*
X013272Y017161D01*
M02*
