%
M48
M72
T01C0.0236
T02C0.0350
T03C0.0394
T04C0.0500
T05C0.1260
%
T01
X23672Y7961
X21362Y8573
X21072Y7961
X18772Y6961
X18472Y6561
X17672Y6161
X16672Y6661
X15872Y6861
X14872Y7361
X14172Y7861
X13772Y8161
X13372Y8361
X12872Y6861
X14972Y9661
X17972Y11661
X18172Y12161
X18872Y11861
X19372Y11861
X17372Y12361
X16072Y12261
X15372Y12361
X19372Y14761
X20172Y14161
X22372Y14361
X22372Y15861
X20172Y17261
X19372Y16661
X10772Y15761
T02
X6872Y3361
X6872Y4361
X6872Y5361
X6872Y6361
X6872Y7361
X6872Y8361
X10872Y1861
X11872Y1861
X12872Y1861
X13872Y1861
X14872Y1861
X15872Y1861
X16872Y1861
X17872Y1861
X19872Y1861
X20872Y1861
X21872Y1861
X22872Y1861
X23872Y1861
X24872Y1861
X24922Y10861
X25922Y10861
X25922Y11861
X24922Y11861
X24922Y12861
X25922Y12861
X25713Y14937
X25713Y18087
X24872Y20861
X23872Y20861
X22872Y20861
X21872Y20861
X20872Y20861
X19872Y20861
X18872Y20861
X17872Y20861
X16272Y20861
X15272Y20861
X14272Y20861
X13272Y20861
X12272Y20861
X11272Y20861
X10272Y20861
X9272Y20861
X8272Y20861
X7272Y20861
T03
X25872Y7922
X25872Y9300
T04
X23772Y4861
T05
X5872Y1861
X26372Y1861
X26372Y20861
X5872Y20861
M30
