G75*
%MOIN*%
%OFA0B0*%
%FSLAX24Y24*%
%IPPOS*%
%LPD*%
%AMOC8*
5,1,8,0,0,1.08239X$1,22.5*
%
%ADD10C,0.0000*%
%ADD11C,0.1300*%
%ADD12C,0.0390*%
%ADD13R,0.0690X0.0690*%
%ADD14C,0.0690*%
%ADD15C,0.0540*%
%ADD16R,0.0768X0.0768*%
%ADD17C,0.0768*%
%ADD18OC8,0.0690*%
D10*
X004872Y000861D02*
X027372Y000861D01*
X027372Y021861D01*
X004872Y021861D01*
X004872Y000861D01*
X005242Y001861D02*
X005244Y001911D01*
X005250Y001961D01*
X005260Y002010D01*
X005274Y002058D01*
X005291Y002105D01*
X005312Y002150D01*
X005337Y002194D01*
X005365Y002235D01*
X005397Y002274D01*
X005431Y002311D01*
X005468Y002345D01*
X005508Y002375D01*
X005550Y002402D01*
X005594Y002426D01*
X005640Y002447D01*
X005687Y002463D01*
X005735Y002476D01*
X005785Y002485D01*
X005834Y002490D01*
X005885Y002491D01*
X005935Y002488D01*
X005984Y002481D01*
X006033Y002470D01*
X006081Y002455D01*
X006127Y002437D01*
X006172Y002415D01*
X006215Y002389D01*
X006256Y002360D01*
X006295Y002328D01*
X006331Y002293D01*
X006363Y002255D01*
X006393Y002215D01*
X006420Y002172D01*
X006443Y002128D01*
X006462Y002082D01*
X006478Y002034D01*
X006490Y001985D01*
X006498Y001936D01*
X006502Y001886D01*
X006502Y001836D01*
X006498Y001786D01*
X006490Y001737D01*
X006478Y001688D01*
X006462Y001640D01*
X006443Y001594D01*
X006420Y001550D01*
X006393Y001507D01*
X006363Y001467D01*
X006331Y001429D01*
X006295Y001394D01*
X006256Y001362D01*
X006215Y001333D01*
X006172Y001307D01*
X006127Y001285D01*
X006081Y001267D01*
X006033Y001252D01*
X005984Y001241D01*
X005935Y001234D01*
X005885Y001231D01*
X005834Y001232D01*
X005785Y001237D01*
X005735Y001246D01*
X005687Y001259D01*
X005640Y001275D01*
X005594Y001296D01*
X005550Y001320D01*
X005508Y001347D01*
X005468Y001377D01*
X005431Y001411D01*
X005397Y001448D01*
X005365Y001487D01*
X005337Y001528D01*
X005312Y001572D01*
X005291Y001617D01*
X005274Y001664D01*
X005260Y001712D01*
X005250Y001761D01*
X005244Y001811D01*
X005242Y001861D01*
X023522Y004861D02*
X023524Y004892D01*
X023530Y004923D01*
X023540Y004953D01*
X023553Y004981D01*
X023570Y005008D01*
X023590Y005032D01*
X023613Y005054D01*
X023638Y005072D01*
X023666Y005087D01*
X023695Y005099D01*
X023725Y005107D01*
X023756Y005111D01*
X023788Y005111D01*
X023819Y005107D01*
X023849Y005099D01*
X023878Y005087D01*
X023906Y005072D01*
X023931Y005054D01*
X023954Y005032D01*
X023974Y005008D01*
X023991Y004981D01*
X024004Y004953D01*
X024014Y004923D01*
X024020Y004892D01*
X024022Y004861D01*
X024020Y004830D01*
X024014Y004799D01*
X024004Y004769D01*
X023991Y004741D01*
X023974Y004714D01*
X023954Y004690D01*
X023931Y004668D01*
X023906Y004650D01*
X023878Y004635D01*
X023849Y004623D01*
X023819Y004615D01*
X023788Y004611D01*
X023756Y004611D01*
X023725Y004615D01*
X023695Y004623D01*
X023666Y004635D01*
X023638Y004650D01*
X023613Y004668D01*
X023590Y004690D01*
X023570Y004714D01*
X023553Y004741D01*
X023540Y004769D01*
X023530Y004799D01*
X023524Y004830D01*
X023522Y004861D01*
X025742Y001861D02*
X025744Y001911D01*
X025750Y001961D01*
X025760Y002010D01*
X025774Y002058D01*
X025791Y002105D01*
X025812Y002150D01*
X025837Y002194D01*
X025865Y002235D01*
X025897Y002274D01*
X025931Y002311D01*
X025968Y002345D01*
X026008Y002375D01*
X026050Y002402D01*
X026094Y002426D01*
X026140Y002447D01*
X026187Y002463D01*
X026235Y002476D01*
X026285Y002485D01*
X026334Y002490D01*
X026385Y002491D01*
X026435Y002488D01*
X026484Y002481D01*
X026533Y002470D01*
X026581Y002455D01*
X026627Y002437D01*
X026672Y002415D01*
X026715Y002389D01*
X026756Y002360D01*
X026795Y002328D01*
X026831Y002293D01*
X026863Y002255D01*
X026893Y002215D01*
X026920Y002172D01*
X026943Y002128D01*
X026962Y002082D01*
X026978Y002034D01*
X026990Y001985D01*
X026998Y001936D01*
X027002Y001886D01*
X027002Y001836D01*
X026998Y001786D01*
X026990Y001737D01*
X026978Y001688D01*
X026962Y001640D01*
X026943Y001594D01*
X026920Y001550D01*
X026893Y001507D01*
X026863Y001467D01*
X026831Y001429D01*
X026795Y001394D01*
X026756Y001362D01*
X026715Y001333D01*
X026672Y001307D01*
X026627Y001285D01*
X026581Y001267D01*
X026533Y001252D01*
X026484Y001241D01*
X026435Y001234D01*
X026385Y001231D01*
X026334Y001232D01*
X026285Y001237D01*
X026235Y001246D01*
X026187Y001259D01*
X026140Y001275D01*
X026094Y001296D01*
X026050Y001320D01*
X026008Y001347D01*
X025968Y001377D01*
X025931Y001411D01*
X025897Y001448D01*
X025865Y001487D01*
X025837Y001528D01*
X025812Y001572D01*
X025791Y001617D01*
X025774Y001664D01*
X025760Y001712D01*
X025750Y001761D01*
X025744Y001811D01*
X025742Y001861D01*
X025538Y014937D02*
X025540Y014963D01*
X025546Y014989D01*
X025555Y015013D01*
X025568Y015036D01*
X025585Y015056D01*
X025604Y015074D01*
X025626Y015089D01*
X025649Y015100D01*
X025674Y015108D01*
X025700Y015112D01*
X025726Y015112D01*
X025752Y015108D01*
X025777Y015100D01*
X025801Y015089D01*
X025822Y015074D01*
X025841Y015056D01*
X025858Y015036D01*
X025871Y015013D01*
X025880Y014989D01*
X025886Y014963D01*
X025888Y014937D01*
X025886Y014911D01*
X025880Y014885D01*
X025871Y014861D01*
X025858Y014838D01*
X025841Y014818D01*
X025822Y014800D01*
X025800Y014785D01*
X025777Y014774D01*
X025752Y014766D01*
X025726Y014762D01*
X025700Y014762D01*
X025674Y014766D01*
X025649Y014774D01*
X025625Y014785D01*
X025604Y014800D01*
X025585Y014818D01*
X025568Y014838D01*
X025555Y014861D01*
X025546Y014885D01*
X025540Y014911D01*
X025538Y014937D01*
X025538Y018087D02*
X025540Y018113D01*
X025546Y018139D01*
X025555Y018163D01*
X025568Y018186D01*
X025585Y018206D01*
X025604Y018224D01*
X025626Y018239D01*
X025649Y018250D01*
X025674Y018258D01*
X025700Y018262D01*
X025726Y018262D01*
X025752Y018258D01*
X025777Y018250D01*
X025801Y018239D01*
X025822Y018224D01*
X025841Y018206D01*
X025858Y018186D01*
X025871Y018163D01*
X025880Y018139D01*
X025886Y018113D01*
X025888Y018087D01*
X025886Y018061D01*
X025880Y018035D01*
X025871Y018011D01*
X025858Y017988D01*
X025841Y017968D01*
X025822Y017950D01*
X025800Y017935D01*
X025777Y017924D01*
X025752Y017916D01*
X025726Y017912D01*
X025700Y017912D01*
X025674Y017916D01*
X025649Y017924D01*
X025625Y017935D01*
X025604Y017950D01*
X025585Y017968D01*
X025568Y017988D01*
X025555Y018011D01*
X025546Y018035D01*
X025540Y018061D01*
X025538Y018087D01*
X025742Y020861D02*
X025744Y020911D01*
X025750Y020961D01*
X025760Y021010D01*
X025774Y021058D01*
X025791Y021105D01*
X025812Y021150D01*
X025837Y021194D01*
X025865Y021235D01*
X025897Y021274D01*
X025931Y021311D01*
X025968Y021345D01*
X026008Y021375D01*
X026050Y021402D01*
X026094Y021426D01*
X026140Y021447D01*
X026187Y021463D01*
X026235Y021476D01*
X026285Y021485D01*
X026334Y021490D01*
X026385Y021491D01*
X026435Y021488D01*
X026484Y021481D01*
X026533Y021470D01*
X026581Y021455D01*
X026627Y021437D01*
X026672Y021415D01*
X026715Y021389D01*
X026756Y021360D01*
X026795Y021328D01*
X026831Y021293D01*
X026863Y021255D01*
X026893Y021215D01*
X026920Y021172D01*
X026943Y021128D01*
X026962Y021082D01*
X026978Y021034D01*
X026990Y020985D01*
X026998Y020936D01*
X027002Y020886D01*
X027002Y020836D01*
X026998Y020786D01*
X026990Y020737D01*
X026978Y020688D01*
X026962Y020640D01*
X026943Y020594D01*
X026920Y020550D01*
X026893Y020507D01*
X026863Y020467D01*
X026831Y020429D01*
X026795Y020394D01*
X026756Y020362D01*
X026715Y020333D01*
X026672Y020307D01*
X026627Y020285D01*
X026581Y020267D01*
X026533Y020252D01*
X026484Y020241D01*
X026435Y020234D01*
X026385Y020231D01*
X026334Y020232D01*
X026285Y020237D01*
X026235Y020246D01*
X026187Y020259D01*
X026140Y020275D01*
X026094Y020296D01*
X026050Y020320D01*
X026008Y020347D01*
X025968Y020377D01*
X025931Y020411D01*
X025897Y020448D01*
X025865Y020487D01*
X025837Y020528D01*
X025812Y020572D01*
X025791Y020617D01*
X025774Y020664D01*
X025760Y020712D01*
X025750Y020761D01*
X025744Y020811D01*
X025742Y020861D01*
X005242Y020861D02*
X005244Y020911D01*
X005250Y020961D01*
X005260Y021010D01*
X005274Y021058D01*
X005291Y021105D01*
X005312Y021150D01*
X005337Y021194D01*
X005365Y021235D01*
X005397Y021274D01*
X005431Y021311D01*
X005468Y021345D01*
X005508Y021375D01*
X005550Y021402D01*
X005594Y021426D01*
X005640Y021447D01*
X005687Y021463D01*
X005735Y021476D01*
X005785Y021485D01*
X005834Y021490D01*
X005885Y021491D01*
X005935Y021488D01*
X005984Y021481D01*
X006033Y021470D01*
X006081Y021455D01*
X006127Y021437D01*
X006172Y021415D01*
X006215Y021389D01*
X006256Y021360D01*
X006295Y021328D01*
X006331Y021293D01*
X006363Y021255D01*
X006393Y021215D01*
X006420Y021172D01*
X006443Y021128D01*
X006462Y021082D01*
X006478Y021034D01*
X006490Y020985D01*
X006498Y020936D01*
X006502Y020886D01*
X006502Y020836D01*
X006498Y020786D01*
X006490Y020737D01*
X006478Y020688D01*
X006462Y020640D01*
X006443Y020594D01*
X006420Y020550D01*
X006393Y020507D01*
X006363Y020467D01*
X006331Y020429D01*
X006295Y020394D01*
X006256Y020362D01*
X006215Y020333D01*
X006172Y020307D01*
X006127Y020285D01*
X006081Y020267D01*
X006033Y020252D01*
X005984Y020241D01*
X005935Y020234D01*
X005885Y020231D01*
X005834Y020232D01*
X005785Y020237D01*
X005735Y020246D01*
X005687Y020259D01*
X005640Y020275D01*
X005594Y020296D01*
X005550Y020320D01*
X005508Y020347D01*
X005468Y020377D01*
X005431Y020411D01*
X005397Y020448D01*
X005365Y020487D01*
X005337Y020528D01*
X005312Y020572D01*
X005291Y020617D01*
X005274Y020664D01*
X005260Y020712D01*
X005250Y020761D01*
X005244Y020811D01*
X005242Y020861D01*
D11*
X005872Y020861D03*
X026372Y020861D03*
X026372Y001861D03*
X005872Y001861D03*
D12*
X025713Y014937D03*
X025713Y018087D03*
D13*
X024922Y012861D03*
X017872Y020861D03*
X006872Y003361D03*
X010872Y001861D03*
X024872Y001861D03*
D14*
X023872Y001861D03*
X022872Y001861D03*
X021872Y001861D03*
X020872Y001861D03*
X019872Y001861D03*
X017872Y001861D03*
X016872Y001861D03*
X015872Y001861D03*
X014872Y001861D03*
X013872Y001861D03*
X012872Y001861D03*
X011872Y001861D03*
X006872Y004361D03*
X006872Y005361D03*
X006872Y006361D03*
X006872Y007361D03*
X006872Y008361D03*
X008272Y020861D03*
X009272Y020861D03*
X010272Y020861D03*
X011272Y020861D03*
X012272Y020861D03*
X013272Y020861D03*
X014272Y020861D03*
X015272Y020861D03*
X016272Y020861D03*
X018872Y020861D03*
X019872Y020861D03*
X020872Y020861D03*
X021872Y020861D03*
X022872Y020861D03*
X023872Y020861D03*
X024872Y020861D03*
X025922Y012861D03*
X025922Y011861D03*
X024922Y011861D03*
X024922Y010861D03*
X025922Y010861D03*
D15*
X023772Y004861D03*
D16*
X025872Y009300D03*
D17*
X025872Y007922D03*
D18*
X007272Y020861D03*
M02*
