G75*
%MOIN*%
%OFA0B0*%
%FSLAX24Y24*%
%IPPOS*%
%LPD*%
%AMOC8*
5,1,8,0,0,1.08239X$1,22.5*
%
%ADD10C,0.0000*%
%ADD11C,0.0040*%
%ADD12C,0.0060*%
%ADD13C,0.0100*%
%ADD14C,0.0050*%
D10*
X004872Y000861D02*
X027372Y000861D01*
X027372Y021861D01*
X004872Y021861D01*
X004872Y000861D01*
X005242Y001861D02*
X005244Y001911D01*
X005250Y001961D01*
X005260Y002010D01*
X005274Y002058D01*
X005291Y002105D01*
X005312Y002150D01*
X005337Y002194D01*
X005365Y002235D01*
X005397Y002274D01*
X005431Y002311D01*
X005468Y002345D01*
X005508Y002375D01*
X005550Y002402D01*
X005594Y002426D01*
X005640Y002447D01*
X005687Y002463D01*
X005735Y002476D01*
X005785Y002485D01*
X005834Y002490D01*
X005885Y002491D01*
X005935Y002488D01*
X005984Y002481D01*
X006033Y002470D01*
X006081Y002455D01*
X006127Y002437D01*
X006172Y002415D01*
X006215Y002389D01*
X006256Y002360D01*
X006295Y002328D01*
X006331Y002293D01*
X006363Y002255D01*
X006393Y002215D01*
X006420Y002172D01*
X006443Y002128D01*
X006462Y002082D01*
X006478Y002034D01*
X006490Y001985D01*
X006498Y001936D01*
X006502Y001886D01*
X006502Y001836D01*
X006498Y001786D01*
X006490Y001737D01*
X006478Y001688D01*
X006462Y001640D01*
X006443Y001594D01*
X006420Y001550D01*
X006393Y001507D01*
X006363Y001467D01*
X006331Y001429D01*
X006295Y001394D01*
X006256Y001362D01*
X006215Y001333D01*
X006172Y001307D01*
X006127Y001285D01*
X006081Y001267D01*
X006033Y001252D01*
X005984Y001241D01*
X005935Y001234D01*
X005885Y001231D01*
X005834Y001232D01*
X005785Y001237D01*
X005735Y001246D01*
X005687Y001259D01*
X005640Y001275D01*
X005594Y001296D01*
X005550Y001320D01*
X005508Y001347D01*
X005468Y001377D01*
X005431Y001411D01*
X005397Y001448D01*
X005365Y001487D01*
X005337Y001528D01*
X005312Y001572D01*
X005291Y001617D01*
X005274Y001664D01*
X005260Y001712D01*
X005250Y001761D01*
X005244Y001811D01*
X005242Y001861D01*
X023522Y004861D02*
X023524Y004892D01*
X023530Y004923D01*
X023540Y004953D01*
X023553Y004981D01*
X023570Y005008D01*
X023590Y005032D01*
X023613Y005054D01*
X023638Y005072D01*
X023666Y005087D01*
X023695Y005099D01*
X023725Y005107D01*
X023756Y005111D01*
X023788Y005111D01*
X023819Y005107D01*
X023849Y005099D01*
X023878Y005087D01*
X023906Y005072D01*
X023931Y005054D01*
X023954Y005032D01*
X023974Y005008D01*
X023991Y004981D01*
X024004Y004953D01*
X024014Y004923D01*
X024020Y004892D01*
X024022Y004861D01*
X024020Y004830D01*
X024014Y004799D01*
X024004Y004769D01*
X023991Y004741D01*
X023974Y004714D01*
X023954Y004690D01*
X023931Y004668D01*
X023906Y004650D01*
X023878Y004635D01*
X023849Y004623D01*
X023819Y004615D01*
X023788Y004611D01*
X023756Y004611D01*
X023725Y004615D01*
X023695Y004623D01*
X023666Y004635D01*
X023638Y004650D01*
X023613Y004668D01*
X023590Y004690D01*
X023570Y004714D01*
X023553Y004741D01*
X023540Y004769D01*
X023530Y004799D01*
X023524Y004830D01*
X023522Y004861D01*
X025742Y001861D02*
X025744Y001911D01*
X025750Y001961D01*
X025760Y002010D01*
X025774Y002058D01*
X025791Y002105D01*
X025812Y002150D01*
X025837Y002194D01*
X025865Y002235D01*
X025897Y002274D01*
X025931Y002311D01*
X025968Y002345D01*
X026008Y002375D01*
X026050Y002402D01*
X026094Y002426D01*
X026140Y002447D01*
X026187Y002463D01*
X026235Y002476D01*
X026285Y002485D01*
X026334Y002490D01*
X026385Y002491D01*
X026435Y002488D01*
X026484Y002481D01*
X026533Y002470D01*
X026581Y002455D01*
X026627Y002437D01*
X026672Y002415D01*
X026715Y002389D01*
X026756Y002360D01*
X026795Y002328D01*
X026831Y002293D01*
X026863Y002255D01*
X026893Y002215D01*
X026920Y002172D01*
X026943Y002128D01*
X026962Y002082D01*
X026978Y002034D01*
X026990Y001985D01*
X026998Y001936D01*
X027002Y001886D01*
X027002Y001836D01*
X026998Y001786D01*
X026990Y001737D01*
X026978Y001688D01*
X026962Y001640D01*
X026943Y001594D01*
X026920Y001550D01*
X026893Y001507D01*
X026863Y001467D01*
X026831Y001429D01*
X026795Y001394D01*
X026756Y001362D01*
X026715Y001333D01*
X026672Y001307D01*
X026627Y001285D01*
X026581Y001267D01*
X026533Y001252D01*
X026484Y001241D01*
X026435Y001234D01*
X026385Y001231D01*
X026334Y001232D01*
X026285Y001237D01*
X026235Y001246D01*
X026187Y001259D01*
X026140Y001275D01*
X026094Y001296D01*
X026050Y001320D01*
X026008Y001347D01*
X025968Y001377D01*
X025931Y001411D01*
X025897Y001448D01*
X025865Y001487D01*
X025837Y001528D01*
X025812Y001572D01*
X025791Y001617D01*
X025774Y001664D01*
X025760Y001712D01*
X025750Y001761D01*
X025744Y001811D01*
X025742Y001861D01*
X025538Y014937D02*
X025540Y014963D01*
X025546Y014989D01*
X025555Y015013D01*
X025568Y015036D01*
X025585Y015056D01*
X025604Y015074D01*
X025626Y015089D01*
X025649Y015100D01*
X025674Y015108D01*
X025700Y015112D01*
X025726Y015112D01*
X025752Y015108D01*
X025777Y015100D01*
X025801Y015089D01*
X025822Y015074D01*
X025841Y015056D01*
X025858Y015036D01*
X025871Y015013D01*
X025880Y014989D01*
X025886Y014963D01*
X025888Y014937D01*
X025886Y014911D01*
X025880Y014885D01*
X025871Y014861D01*
X025858Y014838D01*
X025841Y014818D01*
X025822Y014800D01*
X025800Y014785D01*
X025777Y014774D01*
X025752Y014766D01*
X025726Y014762D01*
X025700Y014762D01*
X025674Y014766D01*
X025649Y014774D01*
X025625Y014785D01*
X025604Y014800D01*
X025585Y014818D01*
X025568Y014838D01*
X025555Y014861D01*
X025546Y014885D01*
X025540Y014911D01*
X025538Y014937D01*
X025538Y018087D02*
X025540Y018113D01*
X025546Y018139D01*
X025555Y018163D01*
X025568Y018186D01*
X025585Y018206D01*
X025604Y018224D01*
X025626Y018239D01*
X025649Y018250D01*
X025674Y018258D01*
X025700Y018262D01*
X025726Y018262D01*
X025752Y018258D01*
X025777Y018250D01*
X025801Y018239D01*
X025822Y018224D01*
X025841Y018206D01*
X025858Y018186D01*
X025871Y018163D01*
X025880Y018139D01*
X025886Y018113D01*
X025888Y018087D01*
X025886Y018061D01*
X025880Y018035D01*
X025871Y018011D01*
X025858Y017988D01*
X025841Y017968D01*
X025822Y017950D01*
X025800Y017935D01*
X025777Y017924D01*
X025752Y017916D01*
X025726Y017912D01*
X025700Y017912D01*
X025674Y017916D01*
X025649Y017924D01*
X025625Y017935D01*
X025604Y017950D01*
X025585Y017968D01*
X025568Y017988D01*
X025555Y018011D01*
X025546Y018035D01*
X025540Y018061D01*
X025538Y018087D01*
X025742Y020861D02*
X025744Y020911D01*
X025750Y020961D01*
X025760Y021010D01*
X025774Y021058D01*
X025791Y021105D01*
X025812Y021150D01*
X025837Y021194D01*
X025865Y021235D01*
X025897Y021274D01*
X025931Y021311D01*
X025968Y021345D01*
X026008Y021375D01*
X026050Y021402D01*
X026094Y021426D01*
X026140Y021447D01*
X026187Y021463D01*
X026235Y021476D01*
X026285Y021485D01*
X026334Y021490D01*
X026385Y021491D01*
X026435Y021488D01*
X026484Y021481D01*
X026533Y021470D01*
X026581Y021455D01*
X026627Y021437D01*
X026672Y021415D01*
X026715Y021389D01*
X026756Y021360D01*
X026795Y021328D01*
X026831Y021293D01*
X026863Y021255D01*
X026893Y021215D01*
X026920Y021172D01*
X026943Y021128D01*
X026962Y021082D01*
X026978Y021034D01*
X026990Y020985D01*
X026998Y020936D01*
X027002Y020886D01*
X027002Y020836D01*
X026998Y020786D01*
X026990Y020737D01*
X026978Y020688D01*
X026962Y020640D01*
X026943Y020594D01*
X026920Y020550D01*
X026893Y020507D01*
X026863Y020467D01*
X026831Y020429D01*
X026795Y020394D01*
X026756Y020362D01*
X026715Y020333D01*
X026672Y020307D01*
X026627Y020285D01*
X026581Y020267D01*
X026533Y020252D01*
X026484Y020241D01*
X026435Y020234D01*
X026385Y020231D01*
X026334Y020232D01*
X026285Y020237D01*
X026235Y020246D01*
X026187Y020259D01*
X026140Y020275D01*
X026094Y020296D01*
X026050Y020320D01*
X026008Y020347D01*
X025968Y020377D01*
X025931Y020411D01*
X025897Y020448D01*
X025865Y020487D01*
X025837Y020528D01*
X025812Y020572D01*
X025791Y020617D01*
X025774Y020664D01*
X025760Y020712D01*
X025750Y020761D01*
X025744Y020811D01*
X025742Y020861D01*
X005242Y020861D02*
X005244Y020911D01*
X005250Y020961D01*
X005260Y021010D01*
X005274Y021058D01*
X005291Y021105D01*
X005312Y021150D01*
X005337Y021194D01*
X005365Y021235D01*
X005397Y021274D01*
X005431Y021311D01*
X005468Y021345D01*
X005508Y021375D01*
X005550Y021402D01*
X005594Y021426D01*
X005640Y021447D01*
X005687Y021463D01*
X005735Y021476D01*
X005785Y021485D01*
X005834Y021490D01*
X005885Y021491D01*
X005935Y021488D01*
X005984Y021481D01*
X006033Y021470D01*
X006081Y021455D01*
X006127Y021437D01*
X006172Y021415D01*
X006215Y021389D01*
X006256Y021360D01*
X006295Y021328D01*
X006331Y021293D01*
X006363Y021255D01*
X006393Y021215D01*
X006420Y021172D01*
X006443Y021128D01*
X006462Y021082D01*
X006478Y021034D01*
X006490Y020985D01*
X006498Y020936D01*
X006502Y020886D01*
X006502Y020836D01*
X006498Y020786D01*
X006490Y020737D01*
X006478Y020688D01*
X006462Y020640D01*
X006443Y020594D01*
X006420Y020550D01*
X006393Y020507D01*
X006363Y020467D01*
X006331Y020429D01*
X006295Y020394D01*
X006256Y020362D01*
X006215Y020333D01*
X006172Y020307D01*
X006127Y020285D01*
X006081Y020267D01*
X006033Y020252D01*
X005984Y020241D01*
X005935Y020234D01*
X005885Y020231D01*
X005834Y020232D01*
X005785Y020237D01*
X005735Y020246D01*
X005687Y020259D01*
X005640Y020275D01*
X005594Y020296D01*
X005550Y020320D01*
X005508Y020347D01*
X005468Y020377D01*
X005431Y020411D01*
X005397Y020448D01*
X005365Y020487D01*
X005337Y020528D01*
X005312Y020572D01*
X005291Y020617D01*
X005274Y020664D01*
X005260Y020712D01*
X005250Y020761D01*
X005244Y020811D01*
X005242Y020861D01*
D11*
X007392Y019938D02*
X007392Y019631D01*
X007392Y019861D02*
X007699Y019861D01*
X007699Y019938D02*
X007699Y019631D01*
X007852Y019707D02*
X007929Y019631D01*
X008159Y019631D01*
X008159Y019938D01*
X008313Y019861D02*
X008313Y019707D01*
X008389Y019631D01*
X008620Y019631D01*
X008620Y020091D01*
X008620Y019938D02*
X008389Y019938D01*
X008313Y019861D01*
X008773Y019938D02*
X008850Y019938D01*
X008850Y019631D01*
X008773Y019631D02*
X008927Y019631D01*
X009080Y019707D02*
X009157Y019631D01*
X009310Y019631D01*
X009387Y019707D01*
X009387Y019861D01*
X009310Y019938D01*
X009157Y019938D01*
X009080Y019861D01*
X009080Y019707D01*
X008850Y019418D02*
X008850Y019341D01*
X008850Y019188D02*
X008850Y018881D01*
X008773Y018881D02*
X008927Y018881D01*
X009080Y018957D02*
X009157Y018881D01*
X009387Y018881D01*
X009387Y019341D01*
X009387Y019188D02*
X009157Y019188D01*
X009080Y019111D01*
X009080Y018957D01*
X008850Y019188D02*
X008773Y019188D01*
X008620Y019188D02*
X008466Y018881D01*
X008313Y019188D01*
X008159Y019111D02*
X008159Y018881D01*
X007929Y018881D01*
X007852Y018957D01*
X007929Y019034D01*
X008159Y019034D01*
X008159Y019111D02*
X008083Y019188D01*
X007929Y019188D01*
X007699Y019264D02*
X007699Y018957D01*
X007622Y018881D01*
X007392Y018881D01*
X007392Y019341D01*
X007622Y019341D01*
X007699Y019264D01*
X007852Y019707D02*
X007852Y019938D01*
X007699Y019938D02*
X007545Y020091D01*
X007392Y019938D01*
X008850Y020091D02*
X008850Y020168D01*
X010001Y020091D02*
X010001Y019631D01*
X010001Y019784D02*
X010231Y019784D01*
X010308Y019861D01*
X010308Y020014D01*
X010231Y020091D01*
X010001Y020091D01*
X010461Y020091D02*
X010538Y020091D01*
X010538Y019631D01*
X010461Y019631D02*
X010615Y019631D01*
X010768Y019707D02*
X010845Y019784D01*
X011075Y019784D01*
X011075Y019861D02*
X011075Y019631D01*
X010845Y019631D01*
X010768Y019707D01*
X010845Y019938D02*
X010998Y019938D01*
X011075Y019861D01*
X011229Y019938D02*
X011229Y019707D01*
X011305Y019631D01*
X011535Y019631D01*
X011535Y019554D02*
X011459Y019477D01*
X011382Y019477D01*
X011459Y019341D02*
X011305Y019188D01*
X011152Y019341D01*
X011152Y018881D01*
X011459Y018881D02*
X011459Y019341D01*
X011535Y019554D02*
X011535Y019938D01*
X011689Y019861D02*
X011766Y019938D01*
X011919Y019938D01*
X011996Y019861D01*
X011996Y019784D01*
X011689Y019784D01*
X011689Y019707D02*
X011689Y019861D01*
X011689Y019707D02*
X011766Y019631D01*
X011919Y019631D01*
X012149Y019631D02*
X012149Y019938D01*
X012303Y019938D02*
X012380Y019938D01*
X012303Y019938D02*
X012149Y019784D01*
X012149Y019341D02*
X012149Y018881D01*
X012073Y018881D02*
X012226Y018881D01*
X012380Y018881D02*
X012533Y018881D01*
X012456Y018881D02*
X012456Y019341D01*
X012380Y019341D01*
X012149Y019341D02*
X012073Y019341D01*
X011919Y019111D02*
X011919Y019034D01*
X011612Y019034D01*
X011612Y018957D02*
X011612Y019111D01*
X011689Y019188D01*
X011842Y019188D01*
X011919Y019111D01*
X011842Y018881D02*
X011689Y018881D01*
X011612Y018957D01*
X010538Y018957D02*
X010538Y018881D01*
X010461Y018881D01*
X010461Y018957D01*
X010538Y018957D01*
X010308Y018881D02*
X010308Y019188D01*
X010154Y019341D01*
X010001Y019188D01*
X010001Y018881D01*
X010001Y019111D02*
X010308Y019111D01*
X011192Y017912D02*
X011502Y017912D01*
X011502Y018015D02*
X011502Y017808D01*
X011502Y017693D02*
X011399Y017590D01*
X011399Y017641D02*
X011399Y017486D01*
X011502Y017486D02*
X011192Y017486D01*
X011192Y017641D01*
X011243Y017693D01*
X011347Y017693D01*
X011399Y017641D01*
X011295Y017808D02*
X011192Y017912D01*
X011642Y017941D02*
X011642Y017682D01*
X011694Y017631D01*
X011797Y017631D01*
X011849Y017682D01*
X011849Y017941D01*
X011964Y017889D02*
X012016Y017941D01*
X012119Y017941D01*
X012171Y017889D01*
X012171Y017838D01*
X011964Y017631D01*
X012171Y017631D01*
X012686Y018881D02*
X012840Y018881D01*
X012763Y018881D02*
X012763Y019188D01*
X012686Y019188D01*
X012763Y019341D02*
X012763Y019418D01*
X013070Y019188D02*
X013300Y019188D01*
X013224Y019034D02*
X013070Y019034D01*
X012993Y019111D01*
X013070Y019188D01*
X013224Y019034D02*
X013300Y018957D01*
X013224Y018881D01*
X012993Y018881D01*
X013147Y019631D02*
X012993Y019784D01*
X012993Y019938D01*
X013147Y020091D01*
X013300Y020014D02*
X013377Y020091D01*
X013531Y020091D01*
X013607Y020014D01*
X013607Y019938D01*
X013300Y019631D01*
X013607Y019631D01*
X013761Y019707D02*
X014068Y020014D01*
X014068Y019707D01*
X013991Y019631D01*
X013837Y019631D01*
X013761Y019707D01*
X013761Y020014D01*
X013837Y020091D01*
X013991Y020091D01*
X014068Y020014D01*
X014221Y019938D02*
X014375Y020091D01*
X014375Y019631D01*
X014528Y019631D02*
X014221Y019631D01*
X014681Y019861D02*
X014988Y019861D01*
X014912Y019631D02*
X014912Y020091D01*
X014681Y019861D01*
X015142Y019631D02*
X015449Y020091D01*
X015602Y020014D02*
X015679Y020091D01*
X015832Y020091D01*
X015909Y020014D01*
X015909Y019938D01*
X015602Y019631D01*
X015909Y019631D01*
X016063Y019631D02*
X016370Y020091D01*
X016523Y020014D02*
X016600Y020091D01*
X016753Y020091D01*
X016830Y020014D01*
X016830Y019938D01*
X016523Y019631D01*
X016830Y019631D01*
X016983Y019861D02*
X017290Y019861D01*
X017214Y019631D02*
X017214Y020091D01*
X016983Y019861D01*
X017042Y020234D02*
X017042Y020338D01*
X017042Y020286D02*
X017300Y020286D01*
X017352Y020234D01*
X017352Y020182D01*
X017300Y020131D01*
X017444Y020091D02*
X017597Y019938D01*
X017597Y019784D01*
X017444Y019631D01*
X017352Y020453D02*
X017352Y020660D01*
X017352Y020556D02*
X017042Y020556D01*
X017145Y020453D01*
X017093Y020775D02*
X017042Y020827D01*
X017042Y020930D01*
X017093Y020982D01*
X017300Y020775D01*
X017352Y020827D01*
X017352Y020930D01*
X017300Y020982D01*
X017093Y020982D01*
X017093Y020775D02*
X017300Y020775D01*
X014166Y017200D02*
X014063Y017148D01*
X013959Y017045D01*
X014114Y017045D01*
X014166Y016993D01*
X014166Y016941D01*
X014114Y016890D01*
X014011Y016890D01*
X013959Y016941D01*
X013959Y017045D01*
X013844Y017148D02*
X013792Y017200D01*
X013689Y017200D01*
X013637Y017148D01*
X013637Y016941D01*
X013689Y016890D01*
X013792Y016890D01*
X013844Y016941D01*
X014554Y014832D02*
X014502Y014780D01*
X014502Y014574D01*
X014554Y014522D01*
X014657Y014522D01*
X014709Y014574D01*
X014825Y014574D02*
X014825Y014522D01*
X014825Y014574D02*
X015031Y014780D01*
X015031Y014832D01*
X014825Y014832D01*
X014709Y014780D02*
X014657Y014832D01*
X014554Y014832D01*
X018192Y016282D02*
X018243Y016231D01*
X018450Y016231D01*
X018502Y016282D01*
X018502Y016386D01*
X018450Y016438D01*
X018502Y016553D02*
X018295Y016760D01*
X018243Y016760D01*
X018192Y016708D01*
X018192Y016605D01*
X018243Y016553D01*
X018243Y016438D02*
X018192Y016386D01*
X018192Y016282D01*
X018502Y016553D02*
X018502Y016760D01*
X023995Y013141D02*
X024099Y013141D01*
X024047Y013141D02*
X024047Y012882D01*
X023995Y012831D01*
X023944Y012831D01*
X023892Y012882D01*
X024214Y012986D02*
X024421Y012986D01*
X024369Y012831D02*
X024369Y013141D01*
X024214Y012986D01*
X022852Y011158D02*
X022542Y011158D01*
X022697Y011003D01*
X022697Y011210D01*
X022800Y010888D02*
X022852Y010836D01*
X022852Y010732D01*
X022800Y010681D01*
X022593Y010681D01*
X022542Y010732D01*
X022542Y010836D01*
X022593Y010888D01*
X021321Y011731D02*
X021114Y011731D01*
X021218Y011731D02*
X021218Y012041D01*
X021114Y011938D01*
X020999Y012041D02*
X020792Y011731D01*
X020999Y011731D02*
X020792Y012041D01*
X022543Y009615D02*
X022595Y009615D01*
X022647Y009564D01*
X022699Y009615D01*
X022750Y009615D01*
X022802Y009564D01*
X022802Y009460D01*
X022750Y009408D01*
X022750Y009293D02*
X022802Y009241D01*
X022802Y009138D01*
X022750Y009086D01*
X022543Y009086D01*
X022492Y009138D01*
X022492Y009241D01*
X022543Y009293D01*
X022543Y009408D02*
X022492Y009460D01*
X022492Y009564D01*
X022543Y009615D01*
X022647Y009564D02*
X022647Y009512D01*
X023892Y009265D02*
X023943Y009162D01*
X024047Y009058D01*
X024047Y009214D01*
X024099Y009265D01*
X024150Y009265D01*
X024202Y009214D01*
X024202Y009110D01*
X024150Y009058D01*
X024047Y009058D01*
X023892Y008943D02*
X023892Y008840D01*
X023892Y008891D02*
X024150Y008891D01*
X024202Y008840D01*
X024202Y008788D01*
X024150Y008736D01*
X019502Y008782D02*
X019502Y008886D01*
X019450Y008938D01*
X019502Y009053D02*
X019502Y009260D01*
X019502Y009156D02*
X019192Y009156D01*
X019295Y009053D01*
X019243Y008938D02*
X019192Y008886D01*
X019192Y008782D01*
X019243Y008731D01*
X019450Y008731D01*
X019502Y008782D01*
X018023Y007341D02*
X018023Y007031D01*
X017920Y007031D02*
X018127Y007031D01*
X017920Y007238D02*
X018023Y007341D01*
X017804Y007341D02*
X017804Y007082D01*
X017753Y007031D01*
X017649Y007031D01*
X017597Y007082D01*
X017597Y007341D01*
X012652Y007386D02*
X012342Y007386D01*
X012342Y007541D01*
X012393Y007593D01*
X012497Y007593D01*
X012549Y007541D01*
X012549Y007386D01*
X012549Y007490D02*
X012652Y007593D01*
X012652Y007708D02*
X012445Y007915D01*
X012393Y007915D01*
X012342Y007864D01*
X012342Y007760D01*
X012393Y007708D01*
X012652Y007708D02*
X012652Y007915D01*
X011527Y009082D02*
X011475Y009031D01*
X011371Y009031D01*
X011320Y009082D01*
X011320Y009134D01*
X011371Y009186D01*
X011475Y009186D01*
X011527Y009134D01*
X011527Y009082D01*
X011475Y009186D02*
X011527Y009238D01*
X011527Y009289D01*
X011475Y009341D01*
X011371Y009341D01*
X011320Y009289D01*
X011320Y009238D01*
X011371Y009186D01*
X011204Y009289D02*
X011153Y009341D01*
X011049Y009341D01*
X010997Y009289D01*
X010997Y009082D01*
X011049Y009031D01*
X011153Y009031D01*
X011204Y009082D01*
X011292Y010631D02*
X011550Y010631D01*
X011602Y010682D01*
X011602Y010786D01*
X011550Y010838D01*
X011292Y010838D01*
X011343Y010953D02*
X011292Y011005D01*
X011292Y011108D01*
X011343Y011160D01*
X011395Y011160D01*
X011447Y011108D01*
X011499Y011160D01*
X011550Y011160D01*
X011602Y011108D01*
X011602Y011005D01*
X011550Y010953D01*
X011447Y011056D02*
X011447Y011108D01*
X013542Y011682D02*
X013593Y011631D01*
X013800Y011631D01*
X013852Y011682D01*
X013852Y011786D01*
X013800Y011838D01*
X013800Y011953D02*
X013852Y012005D01*
X013852Y012108D01*
X013800Y012160D01*
X013593Y012160D01*
X013542Y012108D01*
X013542Y012005D01*
X013593Y011953D01*
X013645Y011953D01*
X013697Y012005D01*
X013697Y012160D01*
X013593Y011838D02*
X013542Y011786D01*
X013542Y011682D01*
X008993Y008889D02*
X008993Y008682D01*
X008942Y008631D01*
X008838Y008631D01*
X008786Y008682D01*
X008993Y008889D01*
X008942Y008941D01*
X008838Y008941D01*
X008786Y008889D01*
X008786Y008682D01*
X008671Y008631D02*
X008464Y008631D01*
X008568Y008631D02*
X008568Y008941D01*
X008464Y008838D01*
X008349Y008889D02*
X008297Y008941D01*
X008194Y008941D01*
X008142Y008889D01*
X008142Y008682D01*
X008194Y008631D01*
X008297Y008631D01*
X008349Y008682D01*
X008602Y005260D02*
X008602Y005053D01*
X008602Y005156D02*
X008292Y005156D01*
X008395Y005053D01*
X008292Y004938D02*
X008499Y004731D01*
X008447Y004782D02*
X008602Y004938D01*
X008602Y004731D02*
X008292Y004731D01*
X007527Y002841D02*
X007527Y002789D01*
X007320Y002582D01*
X007320Y002531D01*
X007153Y002582D02*
X007153Y002841D01*
X007204Y002841D02*
X007101Y002841D01*
X007320Y002841D02*
X007527Y002841D01*
X007153Y002582D02*
X007101Y002531D01*
X007049Y002531D01*
X006997Y002582D01*
X010042Y001879D02*
X010352Y001879D01*
X010352Y001982D02*
X010352Y001775D01*
X010352Y001660D02*
X010352Y001453D01*
X010352Y001556D02*
X010042Y001556D01*
X010145Y001453D01*
X010042Y001338D02*
X010042Y001234D01*
X010042Y001286D02*
X010300Y001286D01*
X010352Y001234D01*
X010352Y001182D01*
X010300Y001131D01*
X010145Y001775D02*
X010042Y001879D01*
X025392Y002090D02*
X025392Y002193D01*
X025392Y002141D02*
X025650Y002141D01*
X025702Y002090D01*
X025702Y002038D01*
X025650Y001986D01*
X025650Y002308D02*
X025599Y002308D01*
X025547Y002360D01*
X025547Y002464D01*
X025599Y002515D01*
X025650Y002515D01*
X025702Y002464D01*
X025702Y002360D01*
X025650Y002308D01*
X025547Y002360D02*
X025495Y002308D01*
X025443Y002308D01*
X025392Y002360D01*
X025392Y002464D01*
X025443Y002515D01*
X025495Y002515D01*
X025547Y002464D01*
X008202Y013038D02*
X008150Y012986D01*
X008202Y013038D02*
X008202Y013090D01*
X008150Y013141D01*
X007892Y013141D01*
X007892Y013090D02*
X007892Y013193D01*
X007943Y013308D02*
X007892Y013360D01*
X007892Y013464D01*
X007943Y013515D01*
X007995Y013515D01*
X008202Y013308D01*
X008202Y013515D01*
X008193Y015986D02*
X008400Y015986D01*
X008452Y016038D01*
X008452Y016141D01*
X008400Y016193D01*
X008400Y016308D02*
X008452Y016360D01*
X008452Y016464D01*
X008400Y016515D01*
X008297Y016515D01*
X008245Y016464D01*
X008245Y016412D01*
X008297Y016308D01*
X008142Y016308D01*
X008142Y016515D01*
X008193Y016193D02*
X008142Y016141D01*
X008142Y016038D01*
X008193Y015986D01*
X008822Y015986D02*
X008822Y017736D01*
X009922Y017736D01*
X009922Y015986D01*
X008822Y015986D01*
X007402Y017038D02*
X007402Y017090D01*
X007350Y017141D01*
X007092Y017141D01*
X007092Y017090D02*
X007092Y017193D01*
X007143Y017308D02*
X007092Y017360D01*
X007092Y017464D01*
X007143Y017515D01*
X007195Y017515D01*
X007247Y017464D01*
X007299Y017515D01*
X007350Y017515D01*
X007402Y017464D01*
X007402Y017360D01*
X007350Y017308D01*
X007247Y017412D02*
X007247Y017464D01*
X007402Y017038D02*
X007350Y016986D01*
D12*
X015992Y010741D02*
X018752Y010741D01*
X018752Y008121D01*
X018612Y007981D01*
X015992Y007981D01*
X015992Y010741D01*
X022649Y006081D02*
X022796Y006081D01*
X022722Y006081D02*
X022722Y005714D01*
X022649Y005641D01*
X022575Y005641D01*
X022502Y005714D01*
X022962Y005714D02*
X023036Y005641D01*
X023183Y005641D01*
X023256Y005714D01*
X023256Y005861D01*
X023183Y005934D01*
X023109Y005934D01*
X022962Y005861D01*
X022962Y006081D01*
X023256Y006081D01*
X023206Y019991D02*
X022912Y019991D01*
X023059Y019991D02*
X023059Y020431D01*
X022912Y020284D01*
X022746Y020431D02*
X022599Y020431D01*
X022672Y020431D02*
X022672Y020064D01*
X022599Y019991D01*
X022525Y019991D01*
X022452Y020064D01*
D13*
X018752Y007831D02*
X018754Y007855D01*
X018760Y007879D01*
X018769Y007901D01*
X018782Y007921D01*
X018798Y007939D01*
X018817Y007954D01*
X018838Y007967D01*
X018860Y007975D01*
X018884Y007980D01*
X018908Y007981D01*
X018932Y007978D01*
X018955Y007971D01*
X018977Y007961D01*
X018997Y007947D01*
X019014Y007930D01*
X019029Y007911D01*
X019040Y007890D01*
X019048Y007867D01*
X019052Y007843D01*
X019052Y007819D01*
X019048Y007795D01*
X019040Y007772D01*
X019029Y007751D01*
X019014Y007732D01*
X018997Y007715D01*
X018977Y007701D01*
X018955Y007691D01*
X018932Y007684D01*
X018908Y007681D01*
X018884Y007682D01*
X018860Y007687D01*
X018838Y007695D01*
X018817Y007708D01*
X018798Y007723D01*
X018782Y007741D01*
X018769Y007761D01*
X018760Y007783D01*
X018754Y007807D01*
X018752Y007831D01*
D14*
X019522Y008911D02*
X020022Y008911D01*
X020022Y010011D01*
X019522Y010011D01*
X019522Y008911D01*
X020242Y009326D02*
X020400Y009326D01*
X020242Y009326D02*
X020242Y011295D01*
X020400Y011295D01*
X020872Y010761D02*
X020872Y010561D01*
X020372Y010561D01*
X020472Y010411D02*
X020472Y010211D01*
X021272Y010211D01*
X021272Y010411D01*
X020472Y010411D01*
X020872Y010561D02*
X021372Y010561D01*
X021372Y010061D02*
X020872Y010061D01*
X020872Y009861D01*
X020872Y010061D02*
X020372Y010061D01*
X021344Y009326D02*
X021502Y009326D01*
X021502Y011295D01*
X021344Y011295D01*
X021872Y011461D02*
X022372Y011461D01*
X022372Y010361D01*
X021872Y010361D01*
X021872Y011461D01*
X021872Y010211D02*
X022372Y010211D01*
X022372Y009111D01*
X021872Y009111D01*
X021872Y010211D01*
X024422Y010361D02*
X024422Y013361D01*
X025422Y013361D01*
X025422Y010361D01*
X024422Y010361D01*
X024494Y009989D02*
X025045Y009989D01*
X025045Y007233D01*
X024494Y007233D01*
X024494Y009989D01*
X025045Y009989D02*
X026699Y009989D01*
X026699Y007233D01*
X025045Y007233D01*
X025281Y007930D02*
X025283Y007978D01*
X025289Y008026D01*
X025299Y008073D01*
X025312Y008119D01*
X025330Y008164D01*
X025350Y008208D01*
X025375Y008250D01*
X025403Y008289D01*
X025433Y008326D01*
X025467Y008360D01*
X025504Y008392D01*
X025542Y008421D01*
X025583Y008446D01*
X025626Y008468D01*
X025671Y008486D01*
X025717Y008500D01*
X025764Y008511D01*
X025812Y008518D01*
X025860Y008521D01*
X025908Y008520D01*
X025956Y008515D01*
X026004Y008506D01*
X026050Y008494D01*
X026095Y008477D01*
X026139Y008457D01*
X026181Y008434D01*
X026221Y008407D01*
X026259Y008377D01*
X026294Y008344D01*
X026326Y008308D01*
X026356Y008270D01*
X026382Y008229D01*
X026404Y008186D01*
X026424Y008142D01*
X026439Y008097D01*
X026451Y008050D01*
X026459Y008002D01*
X026463Y007954D01*
X026463Y007906D01*
X026459Y007858D01*
X026451Y007810D01*
X026439Y007763D01*
X026424Y007718D01*
X026404Y007674D01*
X026382Y007631D01*
X026356Y007590D01*
X026326Y007552D01*
X026294Y007516D01*
X026259Y007483D01*
X026221Y007453D01*
X026181Y007426D01*
X026139Y007403D01*
X026095Y007383D01*
X026050Y007366D01*
X026004Y007354D01*
X025956Y007345D01*
X025908Y007340D01*
X025860Y007339D01*
X025812Y007342D01*
X025764Y007349D01*
X025717Y007360D01*
X025671Y007374D01*
X025626Y007392D01*
X025583Y007414D01*
X025542Y007439D01*
X025504Y007468D01*
X025467Y007500D01*
X025433Y007534D01*
X025403Y007571D01*
X025375Y007610D01*
X025350Y007652D01*
X025330Y007696D01*
X025312Y007741D01*
X025299Y007787D01*
X025289Y007834D01*
X025283Y007882D01*
X025281Y007930D01*
X026699Y007233D02*
X027250Y007233D01*
X027250Y009989D01*
X026699Y009989D01*
X026422Y010361D02*
X025422Y010361D01*
X026422Y010361D02*
X026422Y013361D01*
X025422Y013361D01*
X026922Y013911D02*
X021422Y013911D01*
X021422Y019261D01*
X021872Y019261D01*
X021872Y019811D01*
X027322Y019811D01*
X027322Y018814D01*
X027321Y018757D01*
X027316Y018699D01*
X027309Y018642D01*
X027298Y018586D01*
X027285Y018530D01*
X027269Y018475D01*
X027250Y018420D01*
X026922Y016641D02*
X026922Y013911D01*
X026922Y016641D02*
X026924Y016781D01*
X026930Y016921D01*
X026940Y017060D01*
X026953Y017200D01*
X026971Y017339D01*
X026992Y017477D01*
X027018Y017615D01*
X027047Y017752D01*
X027080Y017888D01*
X027117Y018023D01*
X027157Y018157D01*
X027202Y018289D01*
X027250Y018421D01*
X025372Y020361D02*
X017372Y020361D01*
X017372Y021361D01*
X025372Y021361D01*
X025372Y020361D01*
X019022Y017511D02*
X019022Y016411D01*
X018522Y016411D01*
X018522Y017511D01*
X019022Y017511D01*
X015197Y016686D02*
X015197Y016036D01*
X013547Y016036D01*
X013547Y016686D01*
X015197Y016686D01*
X014397Y016361D02*
X014197Y016361D01*
X014297Y016261D02*
X014297Y016461D01*
X013547Y015686D02*
X015197Y015686D01*
X015197Y015036D01*
X013547Y015036D01*
X013547Y015686D01*
X012962Y016270D02*
X011781Y016270D01*
X011781Y017323D01*
X011909Y017451D01*
X012962Y017451D01*
X012962Y016270D01*
X014347Y015361D02*
X014547Y015361D01*
X014447Y015461D02*
X014447Y015261D01*
X011642Y017511D02*
X011644Y017528D01*
X011649Y017545D01*
X011658Y017559D01*
X011670Y017572D01*
X011685Y017582D01*
X011701Y017588D01*
X011718Y017591D01*
X011735Y017590D01*
X011752Y017585D01*
X011767Y017577D01*
X011780Y017566D01*
X011791Y017552D01*
X011798Y017537D01*
X011802Y017520D01*
X011802Y017502D01*
X011798Y017485D01*
X011791Y017470D01*
X011780Y017456D01*
X011767Y017445D01*
X011752Y017437D01*
X011735Y017432D01*
X011718Y017431D01*
X011701Y017434D01*
X011685Y017440D01*
X011670Y017450D01*
X011658Y017463D01*
X011649Y017477D01*
X011644Y017494D01*
X011642Y017511D01*
X011172Y017911D02*
X010672Y017911D01*
X010672Y016811D01*
X011172Y016811D01*
X011172Y017911D01*
X009472Y017036D02*
X009272Y017036D01*
X009372Y017136D02*
X009372Y016936D01*
X006572Y018111D02*
X006572Y015611D01*
X006570Y015581D01*
X006565Y015551D01*
X006556Y015522D01*
X006543Y015495D01*
X006528Y015469D01*
X006509Y015445D01*
X006488Y015424D01*
X006464Y015405D01*
X006438Y015390D01*
X006411Y015377D01*
X006382Y015368D01*
X006352Y015363D01*
X006322Y015361D01*
X004572Y015361D01*
X004322Y015111D01*
X004322Y018611D01*
X004572Y018361D01*
X006322Y018361D01*
X006352Y018359D01*
X006382Y018354D01*
X006411Y018345D01*
X006438Y018332D01*
X006464Y018317D01*
X006488Y018298D01*
X006509Y018277D01*
X006528Y018253D01*
X006543Y018227D01*
X006556Y018200D01*
X006565Y018171D01*
X006570Y018141D01*
X006572Y018111D01*
X004572Y018111D02*
X004572Y015611D01*
X005191Y012935D02*
X007553Y012935D01*
X008272Y012935D01*
X008272Y012699D01*
X007553Y012699D01*
X007553Y010022D01*
X008262Y010022D01*
X008262Y009786D01*
X007553Y009786D01*
X005191Y009786D01*
X005191Y012935D01*
X007553Y012935D02*
X007553Y012699D01*
X007553Y010022D02*
X007553Y009786D01*
X007372Y008861D02*
X006372Y008861D01*
X006372Y002861D01*
X007372Y002861D01*
X007372Y008861D01*
X008322Y008611D02*
X008322Y008111D01*
X009422Y008111D01*
X009422Y008611D01*
X008322Y008611D01*
X008672Y006661D02*
X011072Y006661D01*
X011072Y004261D01*
X008672Y004261D01*
X008672Y006661D01*
X011822Y006711D02*
X011822Y007811D01*
X012322Y007811D01*
X012322Y006711D01*
X011822Y006711D01*
X011722Y009011D02*
X013022Y009011D01*
X013022Y009711D01*
X011722Y009711D01*
X011722Y009011D01*
X012122Y010286D02*
X012472Y010286D01*
X012122Y010286D02*
X012122Y010586D01*
X012622Y010786D02*
X012622Y010936D01*
X012122Y011136D02*
X012122Y011436D01*
X012472Y011436D01*
X013522Y011511D02*
X013522Y010211D01*
X014222Y010211D01*
X014222Y011511D01*
X013522Y011511D01*
X023222Y006111D02*
X023222Y003611D01*
X027972Y003611D01*
X027972Y003861D01*
X028722Y003861D01*
X028722Y005861D01*
X027972Y005861D01*
X027972Y006111D01*
X023222Y006111D01*
X025281Y009292D02*
X025283Y009340D01*
X025289Y009388D01*
X025299Y009435D01*
X025312Y009481D01*
X025330Y009526D01*
X025350Y009570D01*
X025375Y009612D01*
X025403Y009651D01*
X025433Y009688D01*
X025467Y009722D01*
X025504Y009754D01*
X025542Y009783D01*
X025583Y009808D01*
X025626Y009830D01*
X025671Y009848D01*
X025717Y009862D01*
X025764Y009873D01*
X025812Y009880D01*
X025860Y009883D01*
X025908Y009882D01*
X025956Y009877D01*
X026004Y009868D01*
X026050Y009856D01*
X026095Y009839D01*
X026139Y009819D01*
X026181Y009796D01*
X026221Y009769D01*
X026259Y009739D01*
X026294Y009706D01*
X026326Y009670D01*
X026356Y009632D01*
X026382Y009591D01*
X026404Y009548D01*
X026424Y009504D01*
X026439Y009459D01*
X026451Y009412D01*
X026459Y009364D01*
X026463Y009316D01*
X026463Y009268D01*
X026459Y009220D01*
X026451Y009172D01*
X026439Y009125D01*
X026424Y009080D01*
X026404Y009036D01*
X026382Y008993D01*
X026356Y008952D01*
X026326Y008914D01*
X026294Y008878D01*
X026259Y008845D01*
X026221Y008815D01*
X026181Y008788D01*
X026139Y008765D01*
X026095Y008745D01*
X026050Y008728D01*
X026004Y008716D01*
X025956Y008707D01*
X025908Y008702D01*
X025860Y008701D01*
X025812Y008704D01*
X025764Y008711D01*
X025717Y008722D01*
X025671Y008736D01*
X025626Y008754D01*
X025583Y008776D01*
X025542Y008801D01*
X025504Y008830D01*
X025467Y008862D01*
X025433Y008896D01*
X025403Y008933D01*
X025375Y008972D01*
X025350Y009014D01*
X025330Y009058D01*
X025312Y009103D01*
X025299Y009149D01*
X025289Y009196D01*
X025283Y009244D01*
X025281Y009292D01*
X025372Y002361D02*
X019372Y002361D01*
X019372Y001361D01*
X025372Y001361D01*
X025372Y002361D01*
X018372Y002361D02*
X018372Y001361D01*
X010372Y001361D01*
X010372Y002361D01*
X018372Y002361D01*
X006672Y019636D02*
X006747Y019711D01*
X006747Y019786D01*
X006672Y019861D01*
X006297Y019861D01*
X006297Y019786D02*
X006297Y019936D01*
X006372Y020096D02*
X006297Y020171D01*
X006297Y020321D01*
X006372Y020396D01*
X006672Y020396D01*
X006747Y020321D01*
X006747Y020171D01*
X006672Y020096D01*
X006522Y020171D02*
X006522Y020396D01*
X006522Y020171D02*
X006447Y020096D01*
X006372Y020096D01*
X006772Y020361D02*
X016772Y020361D01*
X016772Y021361D01*
X006772Y021361D01*
X006772Y020361D01*
M02*
