G75*
%MOIN*%
%OFA0B0*%
%FSLAX24Y24*%
%IPPOS*%
%LPD*%
%AMOC8*
5,1,8,0,0,1.08239X$1,22.5*
%
%ADD10C,0.0000*%
%ADD11R,0.0650X0.0650*%
%ADD12C,0.0650*%
%ADD13R,0.0728X0.0728*%
%ADD14C,0.0728*%
%ADD15OC8,0.0650*%
%ADD16C,0.0356*%
%ADD17C,0.0160*%
%ADD18C,0.0100*%
D10*
X004872Y000861D02*
X027372Y000861D01*
X027372Y021861D01*
X004872Y021861D01*
X004872Y000861D01*
X005242Y001861D02*
X005244Y001911D01*
X005250Y001961D01*
X005260Y002010D01*
X005274Y002058D01*
X005291Y002105D01*
X005312Y002150D01*
X005337Y002194D01*
X005365Y002235D01*
X005397Y002274D01*
X005431Y002311D01*
X005468Y002345D01*
X005508Y002375D01*
X005550Y002402D01*
X005594Y002426D01*
X005640Y002447D01*
X005687Y002463D01*
X005735Y002476D01*
X005785Y002485D01*
X005834Y002490D01*
X005885Y002491D01*
X005935Y002488D01*
X005984Y002481D01*
X006033Y002470D01*
X006081Y002455D01*
X006127Y002437D01*
X006172Y002415D01*
X006215Y002389D01*
X006256Y002360D01*
X006295Y002328D01*
X006331Y002293D01*
X006363Y002255D01*
X006393Y002215D01*
X006420Y002172D01*
X006443Y002128D01*
X006462Y002082D01*
X006478Y002034D01*
X006490Y001985D01*
X006498Y001936D01*
X006502Y001886D01*
X006502Y001836D01*
X006498Y001786D01*
X006490Y001737D01*
X006478Y001688D01*
X006462Y001640D01*
X006443Y001594D01*
X006420Y001550D01*
X006393Y001507D01*
X006363Y001467D01*
X006331Y001429D01*
X006295Y001394D01*
X006256Y001362D01*
X006215Y001333D01*
X006172Y001307D01*
X006127Y001285D01*
X006081Y001267D01*
X006033Y001252D01*
X005984Y001241D01*
X005935Y001234D01*
X005885Y001231D01*
X005834Y001232D01*
X005785Y001237D01*
X005735Y001246D01*
X005687Y001259D01*
X005640Y001275D01*
X005594Y001296D01*
X005550Y001320D01*
X005508Y001347D01*
X005468Y001377D01*
X005431Y001411D01*
X005397Y001448D01*
X005365Y001487D01*
X005337Y001528D01*
X005312Y001572D01*
X005291Y001617D01*
X005274Y001664D01*
X005260Y001712D01*
X005250Y001761D01*
X005244Y001811D01*
X005242Y001861D01*
X023522Y004861D02*
X023524Y004892D01*
X023530Y004923D01*
X023540Y004953D01*
X023553Y004981D01*
X023570Y005008D01*
X023590Y005032D01*
X023613Y005054D01*
X023638Y005072D01*
X023666Y005087D01*
X023695Y005099D01*
X023725Y005107D01*
X023756Y005111D01*
X023788Y005111D01*
X023819Y005107D01*
X023849Y005099D01*
X023878Y005087D01*
X023906Y005072D01*
X023931Y005054D01*
X023954Y005032D01*
X023974Y005008D01*
X023991Y004981D01*
X024004Y004953D01*
X024014Y004923D01*
X024020Y004892D01*
X024022Y004861D01*
X024020Y004830D01*
X024014Y004799D01*
X024004Y004769D01*
X023991Y004741D01*
X023974Y004714D01*
X023954Y004690D01*
X023931Y004668D01*
X023906Y004650D01*
X023878Y004635D01*
X023849Y004623D01*
X023819Y004615D01*
X023788Y004611D01*
X023756Y004611D01*
X023725Y004615D01*
X023695Y004623D01*
X023666Y004635D01*
X023638Y004650D01*
X023613Y004668D01*
X023590Y004690D01*
X023570Y004714D01*
X023553Y004741D01*
X023540Y004769D01*
X023530Y004799D01*
X023524Y004830D01*
X023522Y004861D01*
X025742Y001861D02*
X025744Y001911D01*
X025750Y001961D01*
X025760Y002010D01*
X025774Y002058D01*
X025791Y002105D01*
X025812Y002150D01*
X025837Y002194D01*
X025865Y002235D01*
X025897Y002274D01*
X025931Y002311D01*
X025968Y002345D01*
X026008Y002375D01*
X026050Y002402D01*
X026094Y002426D01*
X026140Y002447D01*
X026187Y002463D01*
X026235Y002476D01*
X026285Y002485D01*
X026334Y002490D01*
X026385Y002491D01*
X026435Y002488D01*
X026484Y002481D01*
X026533Y002470D01*
X026581Y002455D01*
X026627Y002437D01*
X026672Y002415D01*
X026715Y002389D01*
X026756Y002360D01*
X026795Y002328D01*
X026831Y002293D01*
X026863Y002255D01*
X026893Y002215D01*
X026920Y002172D01*
X026943Y002128D01*
X026962Y002082D01*
X026978Y002034D01*
X026990Y001985D01*
X026998Y001936D01*
X027002Y001886D01*
X027002Y001836D01*
X026998Y001786D01*
X026990Y001737D01*
X026978Y001688D01*
X026962Y001640D01*
X026943Y001594D01*
X026920Y001550D01*
X026893Y001507D01*
X026863Y001467D01*
X026831Y001429D01*
X026795Y001394D01*
X026756Y001362D01*
X026715Y001333D01*
X026672Y001307D01*
X026627Y001285D01*
X026581Y001267D01*
X026533Y001252D01*
X026484Y001241D01*
X026435Y001234D01*
X026385Y001231D01*
X026334Y001232D01*
X026285Y001237D01*
X026235Y001246D01*
X026187Y001259D01*
X026140Y001275D01*
X026094Y001296D01*
X026050Y001320D01*
X026008Y001347D01*
X025968Y001377D01*
X025931Y001411D01*
X025897Y001448D01*
X025865Y001487D01*
X025837Y001528D01*
X025812Y001572D01*
X025791Y001617D01*
X025774Y001664D01*
X025760Y001712D01*
X025750Y001761D01*
X025744Y001811D01*
X025742Y001861D01*
X025538Y014937D02*
X025540Y014963D01*
X025546Y014989D01*
X025555Y015013D01*
X025568Y015036D01*
X025585Y015056D01*
X025604Y015074D01*
X025626Y015089D01*
X025649Y015100D01*
X025674Y015108D01*
X025700Y015112D01*
X025726Y015112D01*
X025752Y015108D01*
X025777Y015100D01*
X025801Y015089D01*
X025822Y015074D01*
X025841Y015056D01*
X025858Y015036D01*
X025871Y015013D01*
X025880Y014989D01*
X025886Y014963D01*
X025888Y014937D01*
X025886Y014911D01*
X025880Y014885D01*
X025871Y014861D01*
X025858Y014838D01*
X025841Y014818D01*
X025822Y014800D01*
X025800Y014785D01*
X025777Y014774D01*
X025752Y014766D01*
X025726Y014762D01*
X025700Y014762D01*
X025674Y014766D01*
X025649Y014774D01*
X025625Y014785D01*
X025604Y014800D01*
X025585Y014818D01*
X025568Y014838D01*
X025555Y014861D01*
X025546Y014885D01*
X025540Y014911D01*
X025538Y014937D01*
X025538Y018087D02*
X025540Y018113D01*
X025546Y018139D01*
X025555Y018163D01*
X025568Y018186D01*
X025585Y018206D01*
X025604Y018224D01*
X025626Y018239D01*
X025649Y018250D01*
X025674Y018258D01*
X025700Y018262D01*
X025726Y018262D01*
X025752Y018258D01*
X025777Y018250D01*
X025801Y018239D01*
X025822Y018224D01*
X025841Y018206D01*
X025858Y018186D01*
X025871Y018163D01*
X025880Y018139D01*
X025886Y018113D01*
X025888Y018087D01*
X025886Y018061D01*
X025880Y018035D01*
X025871Y018011D01*
X025858Y017988D01*
X025841Y017968D01*
X025822Y017950D01*
X025800Y017935D01*
X025777Y017924D01*
X025752Y017916D01*
X025726Y017912D01*
X025700Y017912D01*
X025674Y017916D01*
X025649Y017924D01*
X025625Y017935D01*
X025604Y017950D01*
X025585Y017968D01*
X025568Y017988D01*
X025555Y018011D01*
X025546Y018035D01*
X025540Y018061D01*
X025538Y018087D01*
X025742Y020861D02*
X025744Y020911D01*
X025750Y020961D01*
X025760Y021010D01*
X025774Y021058D01*
X025791Y021105D01*
X025812Y021150D01*
X025837Y021194D01*
X025865Y021235D01*
X025897Y021274D01*
X025931Y021311D01*
X025968Y021345D01*
X026008Y021375D01*
X026050Y021402D01*
X026094Y021426D01*
X026140Y021447D01*
X026187Y021463D01*
X026235Y021476D01*
X026285Y021485D01*
X026334Y021490D01*
X026385Y021491D01*
X026435Y021488D01*
X026484Y021481D01*
X026533Y021470D01*
X026581Y021455D01*
X026627Y021437D01*
X026672Y021415D01*
X026715Y021389D01*
X026756Y021360D01*
X026795Y021328D01*
X026831Y021293D01*
X026863Y021255D01*
X026893Y021215D01*
X026920Y021172D01*
X026943Y021128D01*
X026962Y021082D01*
X026978Y021034D01*
X026990Y020985D01*
X026998Y020936D01*
X027002Y020886D01*
X027002Y020836D01*
X026998Y020786D01*
X026990Y020737D01*
X026978Y020688D01*
X026962Y020640D01*
X026943Y020594D01*
X026920Y020550D01*
X026893Y020507D01*
X026863Y020467D01*
X026831Y020429D01*
X026795Y020394D01*
X026756Y020362D01*
X026715Y020333D01*
X026672Y020307D01*
X026627Y020285D01*
X026581Y020267D01*
X026533Y020252D01*
X026484Y020241D01*
X026435Y020234D01*
X026385Y020231D01*
X026334Y020232D01*
X026285Y020237D01*
X026235Y020246D01*
X026187Y020259D01*
X026140Y020275D01*
X026094Y020296D01*
X026050Y020320D01*
X026008Y020347D01*
X025968Y020377D01*
X025931Y020411D01*
X025897Y020448D01*
X025865Y020487D01*
X025837Y020528D01*
X025812Y020572D01*
X025791Y020617D01*
X025774Y020664D01*
X025760Y020712D01*
X025750Y020761D01*
X025744Y020811D01*
X025742Y020861D01*
X005242Y020861D02*
X005244Y020911D01*
X005250Y020961D01*
X005260Y021010D01*
X005274Y021058D01*
X005291Y021105D01*
X005312Y021150D01*
X005337Y021194D01*
X005365Y021235D01*
X005397Y021274D01*
X005431Y021311D01*
X005468Y021345D01*
X005508Y021375D01*
X005550Y021402D01*
X005594Y021426D01*
X005640Y021447D01*
X005687Y021463D01*
X005735Y021476D01*
X005785Y021485D01*
X005834Y021490D01*
X005885Y021491D01*
X005935Y021488D01*
X005984Y021481D01*
X006033Y021470D01*
X006081Y021455D01*
X006127Y021437D01*
X006172Y021415D01*
X006215Y021389D01*
X006256Y021360D01*
X006295Y021328D01*
X006331Y021293D01*
X006363Y021255D01*
X006393Y021215D01*
X006420Y021172D01*
X006443Y021128D01*
X006462Y021082D01*
X006478Y021034D01*
X006490Y020985D01*
X006498Y020936D01*
X006502Y020886D01*
X006502Y020836D01*
X006498Y020786D01*
X006490Y020737D01*
X006478Y020688D01*
X006462Y020640D01*
X006443Y020594D01*
X006420Y020550D01*
X006393Y020507D01*
X006363Y020467D01*
X006331Y020429D01*
X006295Y020394D01*
X006256Y020362D01*
X006215Y020333D01*
X006172Y020307D01*
X006127Y020285D01*
X006081Y020267D01*
X006033Y020252D01*
X005984Y020241D01*
X005935Y020234D01*
X005885Y020231D01*
X005834Y020232D01*
X005785Y020237D01*
X005735Y020246D01*
X005687Y020259D01*
X005640Y020275D01*
X005594Y020296D01*
X005550Y020320D01*
X005508Y020347D01*
X005468Y020377D01*
X005431Y020411D01*
X005397Y020448D01*
X005365Y020487D01*
X005337Y020528D01*
X005312Y020572D01*
X005291Y020617D01*
X005274Y020664D01*
X005260Y020712D01*
X005250Y020761D01*
X005244Y020811D01*
X005242Y020861D01*
D11*
X017872Y020861D03*
X024922Y012861D03*
X024872Y001861D03*
X010872Y001861D03*
X006872Y003361D03*
D12*
X006872Y004361D03*
X006872Y005361D03*
X006872Y006361D03*
X006872Y007361D03*
X006872Y008361D03*
X011872Y001861D03*
X012872Y001861D03*
X013872Y001861D03*
X014872Y001861D03*
X015872Y001861D03*
X016872Y001861D03*
X017872Y001861D03*
X019872Y001861D03*
X020872Y001861D03*
X021872Y001861D03*
X022872Y001861D03*
X023872Y001861D03*
X024922Y010861D03*
X025922Y010861D03*
X025922Y011861D03*
X024922Y011861D03*
X025922Y012861D03*
X024872Y020861D03*
X023872Y020861D03*
X022872Y020861D03*
X021872Y020861D03*
X020872Y020861D03*
X019872Y020861D03*
X018872Y020861D03*
X016272Y020861D03*
X015272Y020861D03*
X014272Y020861D03*
X013272Y020861D03*
X012272Y020861D03*
X011272Y020861D03*
X010272Y020861D03*
X009272Y020861D03*
X008272Y020861D03*
D13*
X025872Y009300D03*
D14*
X025872Y007922D03*
D15*
X007272Y020861D03*
D16*
X010772Y015761D03*
X015372Y012361D03*
X016072Y012261D03*
X017372Y012361D03*
X018172Y012161D03*
X018872Y011861D03*
X019372Y011861D03*
X017972Y011661D03*
X014972Y009661D03*
X013772Y008161D03*
X013372Y008361D03*
X014172Y007861D03*
X014872Y007361D03*
X015872Y006861D03*
X016672Y006661D03*
X017672Y006161D03*
X018472Y006561D03*
X018772Y006961D03*
X021072Y007961D03*
X021362Y008573D03*
X023672Y007961D03*
X020172Y014161D03*
X019372Y014761D03*
X019372Y016661D03*
X020172Y017261D03*
X022372Y015861D03*
X022372Y014361D03*
X012872Y006861D03*
D17*
X012872Y002861D01*
X013872Y001861D01*
X014872Y001861D02*
X014872Y005461D01*
X010772Y009561D01*
X010772Y015761D01*
X012872Y002861D02*
X011872Y001861D01*
D18*
X011455Y002043D02*
X011327Y002043D01*
X011327Y002141D02*
X011509Y002141D01*
X011486Y002118D02*
X011417Y001951D01*
X011417Y001770D01*
X011486Y001603D01*
X011614Y001475D01*
X011781Y001406D01*
X011962Y001406D01*
X012130Y001475D01*
X012258Y001603D01*
X012327Y001770D01*
X012327Y001951D01*
X012307Y001999D01*
X012872Y002564D01*
X013437Y001999D01*
X013417Y001951D01*
X013417Y001770D01*
X013486Y001603D01*
X013614Y001475D01*
X013781Y001406D01*
X013962Y001406D01*
X014130Y001475D01*
X014258Y001603D01*
X014327Y001770D01*
X014327Y001951D01*
X014258Y002118D01*
X014130Y002246D01*
X013962Y002316D01*
X013781Y002316D01*
X013734Y002296D01*
X013082Y002948D01*
X013082Y006635D01*
X013133Y006686D01*
X013180Y006799D01*
X013180Y006856D01*
X014662Y005374D01*
X014662Y002266D01*
X014614Y002246D01*
X014486Y002118D01*
X014417Y001951D01*
X014417Y001770D01*
X014486Y001603D01*
X014614Y001475D01*
X014781Y001406D01*
X014962Y001406D01*
X015130Y001475D01*
X015258Y001603D01*
X015327Y001770D01*
X015327Y001951D01*
X015258Y002118D01*
X015130Y002246D01*
X015082Y002266D01*
X015082Y005396D01*
X018692Y001786D01*
X018797Y001681D01*
X019454Y001681D01*
X019486Y001603D01*
X019614Y001475D01*
X019781Y001406D01*
X019962Y001406D01*
X020130Y001475D01*
X020258Y001603D01*
X020327Y001770D01*
X020327Y001951D01*
X020258Y002118D01*
X020195Y002181D01*
X020297Y002181D01*
X020449Y002029D01*
X020417Y001951D01*
X020417Y001770D01*
X020486Y001603D01*
X020614Y001475D01*
X020781Y001406D01*
X020962Y001406D01*
X021130Y001475D01*
X021258Y001603D01*
X021327Y001770D01*
X021327Y001951D01*
X021258Y002118D01*
X021130Y002246D01*
X020962Y002316D01*
X020781Y002316D01*
X020704Y002283D01*
X020446Y002541D01*
X018946Y002541D01*
X018806Y002681D01*
X020797Y002681D01*
X021449Y002029D01*
X021417Y001951D01*
X021417Y001770D01*
X021486Y001603D01*
X021614Y001475D01*
X021781Y001406D01*
X021962Y001406D01*
X022130Y001475D01*
X022258Y001603D01*
X022327Y001770D01*
X022327Y001951D01*
X022258Y002118D01*
X022130Y002246D01*
X021962Y002316D01*
X021781Y002316D01*
X021704Y002283D01*
X020946Y003041D01*
X018946Y003041D01*
X018806Y003181D01*
X021297Y003181D01*
X022449Y002029D01*
X022417Y001951D01*
X022417Y001770D01*
X022486Y001603D01*
X022614Y001475D01*
X022781Y001406D01*
X022962Y001406D01*
X023130Y001475D01*
X023258Y001603D01*
X023327Y001770D01*
X023327Y001951D01*
X023258Y002118D01*
X023130Y002246D01*
X022962Y002316D01*
X022781Y002316D01*
X022704Y002283D01*
X021446Y003541D01*
X018946Y003541D01*
X018806Y003681D01*
X021797Y003681D01*
X023449Y002029D01*
X023417Y001951D01*
X023417Y001770D01*
X023486Y001603D01*
X023614Y001475D01*
X023781Y001406D01*
X023962Y001406D01*
X024130Y001475D01*
X024258Y001603D01*
X024327Y001770D01*
X024327Y001951D01*
X024258Y002118D01*
X024130Y002246D01*
X023962Y002316D01*
X023781Y002316D01*
X023704Y002283D01*
X021946Y004041D01*
X018946Y004041D01*
X018806Y004181D01*
X022297Y004181D01*
X024417Y002061D01*
X024417Y001482D01*
X024493Y001406D01*
X025251Y001406D01*
X025327Y001482D01*
X025327Y002240D01*
X025631Y002240D01*
X025668Y002331D02*
X025542Y002026D01*
X025542Y001696D01*
X025668Y001391D01*
X025902Y001157D01*
X026135Y001061D01*
X006109Y001061D01*
X006342Y001157D01*
X006576Y001391D01*
X006702Y001696D01*
X006702Y002026D01*
X006576Y002331D01*
X006342Y002564D01*
X006037Y002691D01*
X005707Y002691D01*
X005402Y002564D01*
X005168Y002331D01*
X005072Y002098D01*
X005072Y020623D01*
X005168Y020391D01*
X005402Y020157D01*
X005707Y020031D01*
X006037Y020031D01*
X006342Y020157D01*
X006576Y020391D01*
X006702Y020696D01*
X006702Y021026D01*
X006576Y021331D01*
X006342Y021564D01*
X006109Y021661D01*
X026135Y021661D01*
X025902Y021564D01*
X025668Y021331D01*
X025542Y021026D01*
X025542Y020696D01*
X025668Y020391D01*
X025902Y020157D01*
X026207Y020031D01*
X026537Y020031D01*
X026842Y020157D01*
X027076Y020391D01*
X027172Y020623D01*
X027172Y002098D01*
X027076Y002331D01*
X026842Y002564D01*
X026537Y002691D01*
X026207Y002691D01*
X025902Y002564D01*
X025668Y002331D01*
X025676Y002338D02*
X024649Y002338D01*
X024671Y002316D02*
X022446Y004541D01*
X018946Y004541D01*
X017635Y005853D01*
X017733Y005853D01*
X017846Y005899D01*
X017928Y005981D01*
X022246Y005981D01*
X022946Y006681D01*
X023052Y006786D01*
X023052Y008086D01*
X023646Y008681D01*
X023752Y008786D01*
X023752Y010086D01*
X024146Y010481D01*
X024252Y010586D01*
X024252Y019986D01*
X024704Y020438D01*
X024781Y020406D01*
X024962Y020406D01*
X025130Y020475D01*
X025258Y020603D01*
X025327Y020770D01*
X025327Y020951D01*
X025258Y021118D01*
X025130Y021246D01*
X024962Y021316D01*
X024781Y021316D01*
X024614Y021246D01*
X024486Y021118D01*
X024417Y020951D01*
X024417Y020770D01*
X024449Y020692D01*
X024052Y020295D01*
X024052Y020443D01*
X024130Y020475D01*
X024258Y020603D01*
X024327Y020770D01*
X024327Y020951D01*
X024258Y021118D01*
X024130Y021246D01*
X023962Y021316D01*
X023781Y021316D01*
X023614Y021246D01*
X023486Y021118D01*
X023417Y020951D01*
X023417Y020770D01*
X023486Y020603D01*
X023614Y020475D01*
X023692Y020443D01*
X023692Y020295D01*
X023295Y020692D01*
X023327Y020770D01*
X023327Y020951D01*
X023258Y021118D01*
X023130Y021246D01*
X022962Y021316D01*
X022781Y021316D01*
X022614Y021246D01*
X022486Y021118D01*
X022417Y020951D01*
X022417Y020770D01*
X022486Y020603D01*
X022614Y020475D01*
X022781Y020406D01*
X022962Y020406D01*
X023040Y020438D01*
X023492Y019986D01*
X023492Y019495D01*
X023446Y019541D01*
X022295Y020692D01*
X022327Y020770D01*
X022327Y020951D01*
X022258Y021118D01*
X022130Y021246D01*
X021962Y021316D01*
X021781Y021316D01*
X021614Y021246D01*
X021486Y021118D01*
X021417Y020951D01*
X021417Y020770D01*
X021486Y020603D01*
X021614Y020475D01*
X021781Y020406D01*
X021962Y020406D01*
X022040Y020438D01*
X023192Y019286D01*
X023192Y011435D01*
X023052Y011295D01*
X023052Y018935D01*
X021295Y020692D01*
X021327Y020770D01*
X021327Y020951D01*
X021258Y021118D01*
X021130Y021246D01*
X020962Y021316D01*
X020781Y021316D01*
X020614Y021246D01*
X020486Y021118D01*
X020417Y020951D01*
X020417Y020770D01*
X020486Y020603D01*
X020614Y020475D01*
X020781Y020406D01*
X020962Y020406D01*
X021040Y020438D01*
X022692Y018786D01*
X022692Y011335D01*
X022597Y011241D01*
X022492Y011135D01*
X022492Y009635D01*
X021614Y008757D01*
X021536Y008834D01*
X021423Y008881D01*
X021301Y008881D01*
X021187Y008834D01*
X021101Y008748D01*
X021054Y008635D01*
X021054Y008512D01*
X021101Y008399D01*
X021187Y008312D01*
X021301Y008265D01*
X021423Y008265D01*
X021492Y008294D01*
X021492Y008141D01*
X021328Y008141D01*
X021246Y008222D01*
X021133Y008269D01*
X021011Y008269D01*
X020897Y008222D01*
X020811Y008135D01*
X020764Y008022D01*
X020764Y007899D01*
X020811Y007786D01*
X020897Y007699D01*
X021011Y007653D01*
X021133Y007653D01*
X021246Y007699D01*
X021328Y007781D01*
X021746Y007781D01*
X021852Y007886D01*
X021852Y008186D01*
X021892Y008226D01*
X021892Y007141D01*
X019028Y007141D01*
X018946Y007222D01*
X018833Y007269D01*
X018711Y007269D01*
X018597Y007222D01*
X018511Y007135D01*
X018464Y007022D01*
X018464Y006899D01*
X018477Y006869D01*
X018411Y006869D01*
X018297Y006822D01*
X018211Y006735D01*
X018164Y006622D01*
X018164Y006499D01*
X018211Y006386D01*
X018256Y006341D01*
X017928Y006341D01*
X017846Y006422D01*
X017733Y006469D01*
X017611Y006469D01*
X017497Y006422D01*
X017411Y006335D01*
X017364Y006222D01*
X017364Y006123D01*
X016953Y006534D01*
X016980Y006599D01*
X016980Y006722D01*
X016933Y006835D01*
X016846Y006922D01*
X016733Y006969D01*
X016618Y006969D01*
X014052Y009535D01*
X014052Y017426D01*
X014192Y017286D01*
X014192Y009586D01*
X014297Y009481D01*
X014716Y009481D01*
X014797Y009399D01*
X014911Y009353D01*
X015033Y009353D01*
X015146Y009399D01*
X015233Y009486D01*
X015280Y009599D01*
X015280Y009722D01*
X015233Y009835D01*
X015146Y009922D01*
X015033Y009969D01*
X014911Y009969D01*
X014797Y009922D01*
X014716Y009841D01*
X014552Y009841D01*
X014552Y017326D01*
X014692Y017186D01*
X014692Y012786D01*
X015064Y012414D01*
X015064Y012299D01*
X015111Y012186D01*
X015197Y012099D01*
X015311Y012053D01*
X015433Y012053D01*
X015546Y012099D01*
X015633Y012186D01*
X015680Y012299D01*
X015680Y012398D01*
X015764Y012314D01*
X015764Y012199D01*
X015811Y012086D01*
X015897Y011999D01*
X016011Y011953D01*
X016133Y011953D01*
X016246Y011999D01*
X016333Y012086D01*
X016380Y012199D01*
X016380Y012322D01*
X016333Y012435D01*
X016246Y012522D01*
X016133Y012569D01*
X016018Y012569D01*
X015552Y013035D01*
X015552Y017435D01*
X015446Y017541D01*
X012517Y020470D01*
X012530Y020475D01*
X012658Y020603D01*
X012727Y020770D01*
X012727Y020951D01*
X012658Y021118D01*
X012530Y021246D01*
X012362Y021316D01*
X012181Y021316D01*
X012014Y021246D01*
X011886Y021118D01*
X011817Y020951D01*
X011817Y020770D01*
X011886Y020603D01*
X012014Y020475D01*
X012092Y020443D01*
X012092Y020386D01*
X015192Y017286D01*
X015192Y012886D01*
X015409Y012669D01*
X015318Y012669D01*
X015052Y012935D01*
X015052Y017335D01*
X014946Y017441D01*
X011695Y020692D01*
X011727Y020770D01*
X011727Y020951D01*
X011658Y021118D01*
X011530Y021246D01*
X011362Y021316D01*
X011181Y021316D01*
X011014Y021246D01*
X010886Y021118D01*
X010817Y020951D01*
X010817Y020770D01*
X010886Y020603D01*
X011014Y020475D01*
X011181Y020406D01*
X011362Y020406D01*
X011440Y020438D01*
X011837Y020041D01*
X009946Y020041D01*
X009517Y020470D01*
X009530Y020475D01*
X009658Y020603D01*
X009727Y020770D01*
X009727Y020951D01*
X009658Y021118D01*
X009530Y021246D01*
X009362Y021316D01*
X009181Y021316D01*
X009014Y021246D01*
X008952Y021184D01*
X008952Y021235D01*
X008846Y021341D01*
X008646Y021541D01*
X007797Y021541D01*
X007692Y021435D01*
X007516Y021260D01*
X007460Y021316D01*
X007083Y021316D01*
X006817Y021049D01*
X006817Y020672D01*
X007083Y020406D01*
X007460Y020406D01*
X007727Y020672D01*
X007727Y020961D01*
X007946Y021181D01*
X007948Y021181D01*
X007886Y021118D01*
X007817Y020951D01*
X007817Y020770D01*
X007886Y020603D01*
X008014Y020475D01*
X008092Y020443D01*
X008092Y020386D01*
X009692Y018786D01*
X009797Y018681D01*
X011797Y018681D01*
X013192Y017286D01*
X013192Y009286D01*
X014810Y007668D01*
X014697Y007622D01*
X014611Y007535D01*
X014564Y007423D01*
X014367Y007620D01*
X014433Y007686D01*
X014480Y007799D01*
X014480Y007922D01*
X014433Y008035D01*
X014346Y008122D01*
X014233Y008169D01*
X014111Y008169D01*
X014080Y008156D01*
X014080Y008222D01*
X014033Y008335D01*
X013946Y008422D01*
X013833Y008469D01*
X013711Y008469D01*
X013668Y008451D01*
X013633Y008535D01*
X013546Y008622D01*
X013433Y008669D01*
X013311Y008669D01*
X013197Y008622D01*
X013111Y008535D01*
X013064Y008422D01*
X013064Y008299D01*
X013111Y008186D01*
X013192Y008105D01*
X013192Y007438D01*
X010982Y009648D01*
X010982Y015535D01*
X011033Y015586D01*
X011080Y015699D01*
X011080Y015822D01*
X011033Y015935D01*
X010946Y016022D01*
X010833Y016069D01*
X010711Y016069D01*
X010597Y016022D01*
X010511Y015935D01*
X010464Y015822D01*
X010464Y015699D01*
X010511Y015586D01*
X010562Y015535D01*
X010562Y009474D01*
X010685Y009351D01*
X012867Y007169D01*
X012811Y007169D01*
X012697Y007122D01*
X012611Y007035D01*
X012564Y006922D01*
X012564Y006799D01*
X012611Y006686D01*
X012662Y006635D01*
X012662Y002948D01*
X012010Y002296D01*
X011962Y002316D01*
X011781Y002316D01*
X011614Y002246D01*
X011486Y002118D01*
X011607Y002240D02*
X011327Y002240D01*
X011251Y002316D01*
X010493Y002316D01*
X010417Y002240D01*
X006613Y002240D01*
X006654Y002141D02*
X010417Y002141D01*
X010417Y002043D02*
X006695Y002043D01*
X006702Y001944D02*
X010417Y001944D01*
X010417Y001846D02*
X006702Y001846D01*
X006702Y001747D02*
X010417Y001747D01*
X010417Y001649D02*
X006682Y001649D01*
X006642Y001550D02*
X010417Y001550D01*
X010417Y001482D02*
X010493Y001406D01*
X011251Y001406D01*
X011327Y001482D01*
X011327Y002240D01*
X011327Y001944D02*
X011417Y001944D01*
X011417Y001846D02*
X011327Y001846D01*
X011327Y001747D02*
X011426Y001747D01*
X011467Y001649D02*
X011327Y001649D01*
X011327Y001550D02*
X011539Y001550D01*
X011670Y001452D02*
X011297Y001452D01*
X010447Y001452D02*
X006601Y001452D01*
X006538Y001353D02*
X025706Y001353D01*
X025643Y001452D02*
X025297Y001452D01*
X025327Y001550D02*
X025602Y001550D01*
X025561Y001649D02*
X025327Y001649D01*
X025327Y001747D02*
X025542Y001747D01*
X025542Y001846D02*
X025327Y001846D01*
X025327Y001944D02*
X025542Y001944D01*
X025549Y002043D02*
X025327Y002043D01*
X025327Y002141D02*
X025590Y002141D01*
X025327Y002240D02*
X025251Y002316D01*
X024671Y002316D01*
X024550Y002437D02*
X025774Y002437D01*
X025873Y002535D02*
X024452Y002535D01*
X024353Y002634D02*
X026069Y002634D01*
X026674Y002634D02*
X027172Y002634D01*
X027172Y002732D02*
X024255Y002732D01*
X024156Y002831D02*
X027172Y002831D01*
X027172Y002929D02*
X024058Y002929D01*
X023959Y003028D02*
X027172Y003028D01*
X027172Y003126D02*
X023861Y003126D01*
X023762Y003225D02*
X027172Y003225D01*
X027172Y003323D02*
X023664Y003323D01*
X023565Y003422D02*
X027172Y003422D01*
X027172Y003520D02*
X023467Y003520D01*
X023368Y003619D02*
X027172Y003619D01*
X027172Y003717D02*
X023270Y003717D01*
X023171Y003816D02*
X027172Y003816D01*
X027172Y003914D02*
X023073Y003914D01*
X022974Y004013D02*
X027172Y004013D01*
X027172Y004111D02*
X022876Y004111D01*
X022777Y004210D02*
X027172Y004210D01*
X027172Y004308D02*
X022679Y004308D01*
X022580Y004407D02*
X027172Y004407D01*
X027172Y004505D02*
X024053Y004505D01*
X024027Y004479D02*
X024153Y004606D01*
X024222Y004771D01*
X024222Y004950D01*
X024153Y005116D01*
X024027Y005242D01*
X023861Y005311D01*
X023682Y005311D01*
X023517Y005242D01*
X023390Y005116D01*
X023322Y004950D01*
X023322Y004771D01*
X023390Y004606D01*
X023517Y004479D01*
X023682Y004411D01*
X023861Y004411D01*
X024027Y004479D01*
X024151Y004604D02*
X027172Y004604D01*
X027172Y004702D02*
X024193Y004702D01*
X024222Y004801D02*
X027172Y004801D01*
X027172Y004899D02*
X024222Y004899D01*
X024202Y004998D02*
X027172Y004998D01*
X027172Y005096D02*
X024161Y005096D01*
X024074Y005195D02*
X027172Y005195D01*
X027172Y005293D02*
X023904Y005293D01*
X023640Y005293D02*
X018194Y005293D01*
X018292Y005195D02*
X023470Y005195D01*
X023382Y005096D02*
X018391Y005096D01*
X018489Y004998D02*
X023342Y004998D01*
X023322Y004899D02*
X018588Y004899D01*
X018686Y004801D02*
X023322Y004801D01*
X023351Y004702D02*
X018785Y004702D01*
X018883Y004604D02*
X023393Y004604D01*
X023491Y004505D02*
X022482Y004505D01*
X022372Y004361D02*
X024872Y001861D01*
X024417Y001846D02*
X024327Y001846D01*
X024327Y001944D02*
X024417Y001944D01*
X024417Y002043D02*
X024289Y002043D01*
X024337Y002141D02*
X024235Y002141D01*
X024238Y002240D02*
X024136Y002240D01*
X024140Y002338D02*
X023649Y002338D01*
X023550Y002437D02*
X024041Y002437D01*
X023943Y002535D02*
X023452Y002535D01*
X023353Y002634D02*
X023844Y002634D01*
X023746Y002732D02*
X023255Y002732D01*
X023156Y002831D02*
X023647Y002831D01*
X023549Y002929D02*
X023058Y002929D01*
X022959Y003028D02*
X023450Y003028D01*
X023352Y003126D02*
X022861Y003126D01*
X022762Y003225D02*
X023253Y003225D01*
X023155Y003323D02*
X022664Y003323D01*
X022565Y003422D02*
X023056Y003422D01*
X022958Y003520D02*
X022467Y003520D01*
X022368Y003619D02*
X022859Y003619D01*
X022761Y003717D02*
X022270Y003717D01*
X022171Y003816D02*
X022662Y003816D01*
X022564Y003914D02*
X022073Y003914D01*
X021974Y004013D02*
X022465Y004013D01*
X022367Y004111D02*
X018876Y004111D01*
X018872Y004361D02*
X022372Y004361D01*
X021872Y003861D02*
X023872Y001861D01*
X023417Y001846D02*
X023327Y001846D01*
X023327Y001944D02*
X023417Y001944D01*
X023435Y002043D02*
X023289Y002043D01*
X023337Y002141D02*
X023235Y002141D01*
X023238Y002240D02*
X023136Y002240D01*
X023140Y002338D02*
X022649Y002338D01*
X022550Y002437D02*
X023041Y002437D01*
X022943Y002535D02*
X022452Y002535D01*
X022353Y002634D02*
X022844Y002634D01*
X022746Y002732D02*
X022255Y002732D01*
X022156Y002831D02*
X022647Y002831D01*
X022549Y002929D02*
X022058Y002929D01*
X021959Y003028D02*
X022450Y003028D01*
X022352Y003126D02*
X021861Y003126D01*
X021762Y003225D02*
X022253Y003225D01*
X022155Y003323D02*
X021664Y003323D01*
X021565Y003422D02*
X022056Y003422D01*
X021958Y003520D02*
X021467Y003520D01*
X021372Y003361D02*
X022872Y001861D01*
X023205Y001550D02*
X023539Y001550D01*
X023467Y001649D02*
X023277Y001649D01*
X023317Y001747D02*
X023426Y001747D01*
X023670Y001452D02*
X023074Y001452D01*
X022670Y001452D02*
X022074Y001452D01*
X022205Y001550D02*
X022539Y001550D01*
X022467Y001649D02*
X022277Y001649D01*
X022317Y001747D02*
X022426Y001747D01*
X022417Y001846D02*
X022327Y001846D01*
X022327Y001944D02*
X022417Y001944D01*
X022435Y002043D02*
X022289Y002043D01*
X022337Y002141D02*
X022235Y002141D01*
X022238Y002240D02*
X022136Y002240D01*
X022140Y002338D02*
X021649Y002338D01*
X021550Y002437D02*
X022041Y002437D01*
X021943Y002535D02*
X021452Y002535D01*
X021353Y002634D02*
X021844Y002634D01*
X021746Y002732D02*
X021255Y002732D01*
X021156Y002831D02*
X021647Y002831D01*
X021549Y002929D02*
X021058Y002929D01*
X020959Y003028D02*
X021450Y003028D01*
X021352Y003126D02*
X018861Y003126D01*
X018872Y003361D02*
X021372Y003361D01*
X021859Y003619D02*
X018868Y003619D01*
X018872Y003861D02*
X021872Y003861D01*
X020872Y002861D02*
X021872Y001861D01*
X021539Y001550D02*
X021205Y001550D01*
X021277Y001649D02*
X021467Y001649D01*
X021426Y001747D02*
X021317Y001747D01*
X021327Y001846D02*
X021417Y001846D01*
X021417Y001944D02*
X021327Y001944D01*
X021289Y002043D02*
X021435Y002043D01*
X021337Y002141D02*
X021235Y002141D01*
X021238Y002240D02*
X021136Y002240D01*
X021140Y002338D02*
X020649Y002338D01*
X020550Y002437D02*
X021041Y002437D01*
X020943Y002535D02*
X020452Y002535D01*
X020372Y002361D02*
X020872Y001861D01*
X020417Y001846D02*
X020327Y001846D01*
X020327Y001944D02*
X020417Y001944D01*
X020435Y002043D02*
X020289Y002043D01*
X020337Y002141D02*
X020235Y002141D01*
X020372Y002361D02*
X018872Y002361D01*
X013772Y007461D01*
X013772Y008161D01*
X013890Y008445D02*
X014033Y008445D01*
X014022Y008347D02*
X014131Y008347D01*
X014069Y008248D02*
X014230Y008248D01*
X014279Y008150D02*
X014328Y008150D01*
X014417Y008051D02*
X014427Y008051D01*
X014467Y007953D02*
X014525Y007953D01*
X014480Y007854D02*
X014624Y007854D01*
X014722Y007756D02*
X014462Y007756D01*
X014404Y007657D02*
X014783Y007657D01*
X014634Y007559D02*
X014428Y007559D01*
X014527Y007460D02*
X014580Y007460D01*
X014872Y007361D02*
X018872Y003361D01*
X018872Y003861D02*
X015872Y006861D01*
X013372Y009361D01*
X013372Y017361D01*
X011872Y018861D01*
X009872Y018861D01*
X008272Y020461D01*
X008272Y020861D01*
X007928Y020561D02*
X007615Y020561D01*
X007517Y020462D02*
X008045Y020462D01*
X008114Y020364D02*
X006549Y020364D01*
X006605Y020462D02*
X007027Y020462D01*
X006928Y020561D02*
X006646Y020561D01*
X006687Y020659D02*
X006830Y020659D01*
X006817Y020758D02*
X006702Y020758D01*
X006702Y020856D02*
X006817Y020856D01*
X006817Y020955D02*
X006702Y020955D01*
X006690Y021053D02*
X006821Y021053D01*
X006920Y021152D02*
X006650Y021152D01*
X006609Y021250D02*
X007018Y021250D01*
X007272Y020861D02*
X007372Y020861D01*
X007872Y021361D01*
X008572Y021361D01*
X008772Y021161D01*
X008772Y020561D01*
X009872Y019461D01*
X011772Y019461D01*
X013872Y017361D01*
X013872Y009461D01*
X016672Y006661D01*
X016672Y006561D01*
X018872Y004361D01*
X018095Y005392D02*
X027172Y005392D01*
X027172Y005490D02*
X017997Y005490D01*
X017898Y005589D02*
X027172Y005589D01*
X027172Y005687D02*
X017800Y005687D01*
X017701Y005786D02*
X027172Y005786D01*
X027172Y005884D02*
X017810Y005884D01*
X017672Y006161D02*
X022172Y006161D01*
X022872Y006861D01*
X022872Y008161D01*
X023572Y008861D01*
X023572Y010161D01*
X024072Y010661D01*
X024072Y020061D01*
X024872Y020861D01*
X024417Y020856D02*
X024327Y020856D01*
X024322Y020758D02*
X024422Y020758D01*
X024416Y020659D02*
X024281Y020659D01*
X024317Y020561D02*
X024215Y020561D01*
X024219Y020462D02*
X024099Y020462D01*
X024120Y020364D02*
X024052Y020364D01*
X024334Y020068D02*
X026116Y020068D01*
X025892Y020167D02*
X024433Y020167D01*
X024531Y020265D02*
X025794Y020265D01*
X025695Y020364D02*
X024630Y020364D01*
X025099Y020462D02*
X025639Y020462D01*
X025598Y020561D02*
X025215Y020561D01*
X025281Y020659D02*
X025557Y020659D01*
X025542Y020758D02*
X025322Y020758D01*
X025327Y020856D02*
X025542Y020856D01*
X025542Y020955D02*
X025325Y020955D01*
X025285Y021053D02*
X025553Y021053D01*
X025594Y021152D02*
X025224Y021152D01*
X025120Y021250D02*
X025635Y021250D01*
X025686Y021349D02*
X008838Y021349D01*
X008740Y021447D02*
X025785Y021447D01*
X025883Y021546D02*
X006361Y021546D01*
X006459Y021447D02*
X007704Y021447D01*
X007692Y021435D02*
X007692Y021435D01*
X007605Y021349D02*
X006558Y021349D01*
X006149Y021644D02*
X026095Y021644D01*
X027146Y020561D02*
X027172Y020561D01*
X027172Y020462D02*
X027105Y020462D01*
X027049Y020364D02*
X027172Y020364D01*
X027172Y020265D02*
X026950Y020265D01*
X026852Y020167D02*
X027172Y020167D01*
X027172Y020068D02*
X026627Y020068D01*
X027172Y019970D02*
X024252Y019970D01*
X024252Y019871D02*
X027172Y019871D01*
X027172Y019773D02*
X024252Y019773D01*
X024252Y019674D02*
X027172Y019674D01*
X027172Y019576D02*
X024252Y019576D01*
X024252Y019477D02*
X027172Y019477D01*
X027172Y019379D02*
X024252Y019379D01*
X024252Y019280D02*
X027172Y019280D01*
X027172Y019182D02*
X024252Y019182D01*
X024252Y019083D02*
X027172Y019083D01*
X027172Y018985D02*
X024252Y018985D01*
X024252Y018886D02*
X027172Y018886D01*
X027172Y018788D02*
X024252Y018788D01*
X024252Y018689D02*
X027172Y018689D01*
X027172Y018591D02*
X024252Y018591D01*
X024252Y018492D02*
X027172Y018492D01*
X027172Y018394D02*
X025937Y018394D01*
X025926Y018405D02*
X025788Y018462D01*
X025639Y018462D01*
X025501Y018405D01*
X025395Y018299D01*
X025338Y018161D01*
X025338Y018012D01*
X025395Y017874D01*
X025501Y017769D01*
X025639Y017712D01*
X025788Y017712D01*
X025926Y017769D01*
X026031Y017874D01*
X026088Y018012D01*
X026088Y018161D01*
X026031Y018299D01*
X025926Y018405D01*
X026033Y018295D02*
X027172Y018295D01*
X027172Y018197D02*
X026074Y018197D01*
X026088Y018098D02*
X027172Y018098D01*
X027172Y018000D02*
X026083Y018000D01*
X026042Y017901D02*
X027172Y017901D01*
X027172Y017803D02*
X025960Y017803D01*
X025467Y017803D02*
X024252Y017803D01*
X024252Y017901D02*
X025384Y017901D01*
X025343Y018000D02*
X024252Y018000D01*
X024252Y018098D02*
X025338Y018098D01*
X025353Y018197D02*
X024252Y018197D01*
X024252Y018295D02*
X025394Y018295D01*
X025490Y018394D02*
X024252Y018394D01*
X024252Y017704D02*
X027172Y017704D01*
X027172Y017606D02*
X024252Y017606D01*
X024252Y017507D02*
X027172Y017507D01*
X027172Y017409D02*
X024252Y017409D01*
X024252Y017310D02*
X027172Y017310D01*
X027172Y017212D02*
X024252Y017212D01*
X024252Y017113D02*
X027172Y017113D01*
X027172Y017015D02*
X024252Y017015D01*
X024252Y016916D02*
X027172Y016916D01*
X027172Y016818D02*
X024252Y016818D01*
X024252Y016719D02*
X027172Y016719D01*
X027172Y016621D02*
X024252Y016621D01*
X024252Y016522D02*
X027172Y016522D01*
X027172Y016424D02*
X024252Y016424D01*
X024252Y016325D02*
X027172Y016325D01*
X027172Y016227D02*
X024252Y016227D01*
X024252Y016128D02*
X027172Y016128D01*
X027172Y016030D02*
X024252Y016030D01*
X024252Y015931D02*
X027172Y015931D01*
X027172Y015833D02*
X024252Y015833D01*
X024252Y015734D02*
X027172Y015734D01*
X027172Y015636D02*
X024252Y015636D01*
X024252Y015537D02*
X027172Y015537D01*
X027172Y015439D02*
X024252Y015439D01*
X024252Y015340D02*
X027172Y015340D01*
X027172Y015242D02*
X025939Y015242D01*
X025926Y015255D02*
X025788Y015312D01*
X025639Y015312D01*
X025501Y015255D01*
X025395Y015149D01*
X025338Y015012D01*
X025338Y014862D01*
X025395Y014725D01*
X025501Y014619D01*
X025639Y014562D01*
X025788Y014562D01*
X025926Y014619D01*
X026031Y014725D01*
X026088Y014862D01*
X026088Y015012D01*
X026031Y015149D01*
X025926Y015255D01*
X026034Y015143D02*
X027172Y015143D01*
X027172Y015045D02*
X026075Y015045D01*
X026088Y014946D02*
X027172Y014946D01*
X027172Y014848D02*
X026082Y014848D01*
X026041Y014749D02*
X027172Y014749D01*
X027172Y014651D02*
X025957Y014651D01*
X025469Y014651D02*
X024252Y014651D01*
X024252Y014749D02*
X025385Y014749D01*
X025344Y014848D02*
X024252Y014848D01*
X024252Y014946D02*
X025338Y014946D01*
X025352Y015045D02*
X024252Y015045D01*
X024252Y015143D02*
X025393Y015143D01*
X025488Y015242D02*
X024252Y015242D01*
X024252Y014552D02*
X027172Y014552D01*
X027172Y014454D02*
X024252Y014454D01*
X024252Y014355D02*
X027172Y014355D01*
X027172Y014257D02*
X024252Y014257D01*
X024252Y014158D02*
X027172Y014158D01*
X027172Y014060D02*
X024252Y014060D01*
X024252Y013961D02*
X027172Y013961D01*
X027172Y013863D02*
X024252Y013863D01*
X024252Y013764D02*
X027172Y013764D01*
X027172Y013666D02*
X024252Y013666D01*
X024252Y013567D02*
X027172Y013567D01*
X027172Y013469D02*
X024252Y013469D01*
X024252Y013370D02*
X027172Y013370D01*
X027172Y013272D02*
X026119Y013272D01*
X026180Y013246D02*
X026012Y013316D01*
X025831Y013316D01*
X025664Y013246D01*
X025536Y013118D01*
X025467Y012951D01*
X025467Y012770D01*
X025536Y012603D01*
X025664Y012475D01*
X025831Y012406D01*
X026012Y012406D01*
X026180Y012475D01*
X026308Y012603D01*
X026377Y012770D01*
X026377Y012951D01*
X026308Y013118D01*
X026180Y013246D01*
X026253Y013173D02*
X027172Y013173D01*
X027172Y013075D02*
X026326Y013075D01*
X026367Y012976D02*
X027172Y012976D01*
X027172Y012878D02*
X026377Y012878D01*
X026377Y012779D02*
X027172Y012779D01*
X027172Y012681D02*
X026340Y012681D01*
X026287Y012582D02*
X027172Y012582D01*
X027172Y012484D02*
X026188Y012484D01*
X026082Y012287D02*
X027172Y012287D01*
X027172Y012385D02*
X024252Y012385D01*
X024252Y012287D02*
X024761Y012287D01*
X024831Y012316D02*
X024664Y012246D01*
X024536Y012118D01*
X024467Y011951D01*
X024467Y011770D01*
X024536Y011603D01*
X024664Y011475D01*
X024831Y011406D01*
X025012Y011406D01*
X025180Y011475D01*
X025308Y011603D01*
X025377Y011770D01*
X025377Y011951D01*
X025308Y012118D01*
X025180Y012246D01*
X025012Y012316D01*
X024831Y012316D01*
X025082Y012287D02*
X025761Y012287D01*
X025831Y012316D02*
X025664Y012246D01*
X025536Y012118D01*
X025467Y011951D01*
X025467Y011770D01*
X025536Y011603D01*
X025664Y011475D01*
X025831Y011406D01*
X026012Y011406D01*
X026180Y011475D01*
X026308Y011603D01*
X026377Y011770D01*
X026377Y011951D01*
X026308Y012118D01*
X026180Y012246D01*
X026012Y012316D01*
X025831Y012316D01*
X025655Y012484D02*
X025377Y012484D01*
X025377Y012482D02*
X025301Y012406D01*
X024543Y012406D01*
X024467Y012482D01*
X024467Y013240D01*
X024543Y013316D01*
X025301Y013316D01*
X025377Y013240D01*
X025377Y012482D01*
X025377Y012582D02*
X025557Y012582D01*
X025504Y012681D02*
X025377Y012681D01*
X025377Y012779D02*
X025467Y012779D01*
X025467Y012878D02*
X025377Y012878D01*
X025377Y012976D02*
X025477Y012976D01*
X025518Y013075D02*
X025377Y013075D01*
X025377Y013173D02*
X025591Y013173D01*
X025725Y013272D02*
X025345Y013272D01*
X024499Y013272D02*
X024252Y013272D01*
X024252Y013173D02*
X024467Y013173D01*
X024467Y013075D02*
X024252Y013075D01*
X024252Y012976D02*
X024467Y012976D01*
X024467Y012878D02*
X024252Y012878D01*
X024252Y012779D02*
X024467Y012779D01*
X024467Y012681D02*
X024252Y012681D01*
X024252Y012582D02*
X024467Y012582D01*
X024467Y012484D02*
X024252Y012484D01*
X024252Y012188D02*
X024606Y012188D01*
X024524Y012090D02*
X024252Y012090D01*
X024252Y011991D02*
X024484Y011991D01*
X024467Y011893D02*
X024252Y011893D01*
X024252Y011794D02*
X024467Y011794D01*
X024498Y011696D02*
X024252Y011696D01*
X024252Y011597D02*
X024542Y011597D01*
X024640Y011499D02*
X024252Y011499D01*
X024252Y011400D02*
X027172Y011400D01*
X027172Y011302D02*
X026102Y011302D01*
X026104Y011301D02*
X026033Y011324D01*
X025959Y011336D01*
X025959Y010898D01*
X025884Y010898D01*
X025884Y010823D01*
X025447Y010823D01*
X025459Y010749D01*
X025482Y010678D01*
X025516Y010612D01*
X025560Y010551D01*
X025612Y010498D01*
X025673Y010454D01*
X025740Y010420D01*
X025811Y010397D01*
X025884Y010386D01*
X025884Y010823D01*
X025959Y010823D01*
X025959Y010386D01*
X026033Y010397D01*
X026104Y010420D01*
X026171Y010454D01*
X026231Y010498D01*
X026284Y010551D01*
X026328Y010612D01*
X026362Y010678D01*
X026385Y010749D01*
X026397Y010823D01*
X025959Y010823D01*
X025959Y010898D01*
X026397Y010898D01*
X026385Y010972D01*
X026362Y011043D01*
X026328Y011110D01*
X026284Y011170D01*
X026231Y011223D01*
X026171Y011267D01*
X026104Y011301D01*
X025959Y011302D02*
X025884Y011302D01*
X025884Y011336D02*
X025811Y011324D01*
X025740Y011301D01*
X025673Y011267D01*
X025612Y011223D01*
X025560Y011170D01*
X025516Y011110D01*
X025482Y011043D01*
X025459Y010972D01*
X025447Y010898D01*
X025884Y010898D01*
X025884Y011336D01*
X025884Y011203D02*
X025959Y011203D01*
X025959Y011105D02*
X025884Y011105D01*
X025884Y011006D02*
X025959Y011006D01*
X025959Y010908D02*
X025884Y010908D01*
X025884Y010809D02*
X025959Y010809D01*
X025959Y010711D02*
X025884Y010711D01*
X025884Y010612D02*
X025959Y010612D01*
X025959Y010514D02*
X025884Y010514D01*
X025884Y010415D02*
X025959Y010415D01*
X026088Y010415D02*
X027172Y010415D01*
X027172Y010317D02*
X023983Y010317D01*
X024081Y010415D02*
X024808Y010415D01*
X024831Y010406D02*
X025012Y010406D01*
X025180Y010475D01*
X025308Y010603D01*
X025377Y010770D01*
X025377Y010951D01*
X025308Y011118D01*
X025180Y011246D01*
X025012Y011316D01*
X024831Y011316D01*
X024664Y011246D01*
X024536Y011118D01*
X024467Y010951D01*
X024467Y010770D01*
X024536Y010603D01*
X024664Y010475D01*
X024831Y010406D01*
X025035Y010415D02*
X025756Y010415D01*
X025597Y010514D02*
X025218Y010514D01*
X025312Y010612D02*
X025515Y010612D01*
X025471Y010711D02*
X025352Y010711D01*
X025377Y010809D02*
X025449Y010809D01*
X025448Y010908D02*
X025377Y010908D01*
X025354Y011006D02*
X025470Y011006D01*
X025513Y011105D02*
X025313Y011105D01*
X025223Y011203D02*
X025593Y011203D01*
X025742Y011302D02*
X025046Y011302D01*
X024798Y011302D02*
X024252Y011302D01*
X024252Y011203D02*
X024621Y011203D01*
X024531Y011105D02*
X024252Y011105D01*
X024252Y011006D02*
X024490Y011006D01*
X024467Y010908D02*
X024252Y010908D01*
X024252Y010809D02*
X024467Y010809D01*
X024492Y010711D02*
X024252Y010711D01*
X024252Y010612D02*
X024532Y010612D01*
X024625Y010514D02*
X024180Y010514D01*
X023884Y010218D02*
X027172Y010218D01*
X027172Y010120D02*
X023786Y010120D01*
X023752Y010021D02*
X027172Y010021D01*
X027172Y009923D02*
X023752Y009923D01*
X023752Y009824D02*
X027172Y009824D01*
X027172Y009726D02*
X026374Y009726D01*
X026376Y009722D02*
X026356Y009756D01*
X026328Y009784D01*
X026294Y009804D01*
X026256Y009814D01*
X025920Y009814D01*
X025920Y009348D01*
X025824Y009348D01*
X025824Y009814D01*
X025488Y009814D01*
X025450Y009804D01*
X025416Y009784D01*
X025388Y009756D01*
X025368Y009722D01*
X025358Y009684D01*
X025358Y009348D01*
X025824Y009348D01*
X025824Y009251D01*
X025920Y009251D01*
X025920Y008785D01*
X026256Y008785D01*
X026294Y008796D01*
X026328Y008815D01*
X026356Y008843D01*
X026376Y008878D01*
X026386Y008916D01*
X026386Y009251D01*
X025920Y009251D01*
X025920Y009348D01*
X026386Y009348D01*
X026386Y009684D01*
X026376Y009722D01*
X026386Y009627D02*
X027172Y009627D01*
X027172Y009529D02*
X026386Y009529D01*
X026386Y009430D02*
X027172Y009430D01*
X027172Y009332D02*
X025920Y009332D01*
X025824Y009332D02*
X023752Y009332D01*
X023752Y009430D02*
X025358Y009430D01*
X025358Y009529D02*
X023752Y009529D01*
X023752Y009627D02*
X025358Y009627D01*
X025370Y009726D02*
X023752Y009726D01*
X023272Y010261D02*
X023872Y010861D01*
X023872Y020861D01*
X023417Y020856D02*
X023327Y020856D01*
X023322Y020758D02*
X023422Y020758D01*
X023463Y020659D02*
X023328Y020659D01*
X023426Y020561D02*
X023528Y020561D01*
X023525Y020462D02*
X023645Y020462D01*
X023623Y020364D02*
X023692Y020364D01*
X023672Y020061D02*
X023672Y011061D01*
X023072Y010461D01*
X023072Y009261D01*
X022072Y008261D01*
X022072Y007061D01*
X021972Y006961D01*
X018772Y006961D01*
X018464Y006968D02*
X016736Y006968D01*
X016899Y006869D02*
X018476Y006869D01*
X018482Y007066D02*
X016521Y007066D01*
X016422Y007165D02*
X018540Y007165D01*
X018697Y007263D02*
X016324Y007263D01*
X016225Y007362D02*
X021892Y007362D01*
X021892Y007460D02*
X016127Y007460D01*
X016028Y007559D02*
X021892Y007559D01*
X021892Y007657D02*
X021144Y007657D01*
X020999Y007657D02*
X015930Y007657D01*
X015831Y007756D02*
X020841Y007756D01*
X020783Y007854D02*
X015733Y007854D01*
X015634Y007953D02*
X020764Y007953D01*
X020776Y008051D02*
X015536Y008051D01*
X015437Y008150D02*
X020825Y008150D01*
X020961Y008248D02*
X015339Y008248D01*
X015240Y008347D02*
X021153Y008347D01*
X021183Y008248D02*
X021492Y008248D01*
X021492Y008150D02*
X021319Y008150D01*
X021072Y007961D02*
X021672Y007961D01*
X021672Y008261D01*
X022872Y009461D01*
X022872Y010861D01*
X023372Y011361D01*
X023372Y019361D01*
X021872Y020861D01*
X022327Y020856D02*
X022417Y020856D01*
X022422Y020758D02*
X022322Y020758D01*
X022328Y020659D02*
X022463Y020659D01*
X022426Y020561D02*
X022528Y020561D01*
X022525Y020462D02*
X022645Y020462D01*
X022623Y020364D02*
X023114Y020364D01*
X023213Y020265D02*
X022722Y020265D01*
X022820Y020167D02*
X023311Y020167D01*
X023410Y020068D02*
X022919Y020068D01*
X023017Y019970D02*
X023492Y019970D01*
X023492Y019871D02*
X023116Y019871D01*
X023214Y019773D02*
X023492Y019773D01*
X023492Y019674D02*
X023313Y019674D01*
X023411Y019576D02*
X023492Y019576D01*
X023192Y019280D02*
X022707Y019280D01*
X022805Y019182D02*
X023192Y019182D01*
X023192Y019083D02*
X022904Y019083D01*
X023002Y018985D02*
X023192Y018985D01*
X023192Y018886D02*
X023052Y018886D01*
X023052Y018788D02*
X023192Y018788D01*
X023192Y018689D02*
X023052Y018689D01*
X023052Y018591D02*
X023192Y018591D01*
X023192Y018492D02*
X023052Y018492D01*
X023052Y018394D02*
X023192Y018394D01*
X023192Y018295D02*
X023052Y018295D01*
X023052Y018197D02*
X023192Y018197D01*
X023192Y018098D02*
X023052Y018098D01*
X023052Y018000D02*
X023192Y018000D01*
X023192Y017901D02*
X023052Y017901D01*
X023052Y017803D02*
X023192Y017803D01*
X023192Y017704D02*
X023052Y017704D01*
X023052Y017606D02*
X023192Y017606D01*
X023192Y017507D02*
X023052Y017507D01*
X023052Y017409D02*
X023192Y017409D01*
X023192Y017310D02*
X023052Y017310D01*
X023052Y017212D02*
X023192Y017212D01*
X023192Y017113D02*
X023052Y017113D01*
X023052Y017015D02*
X023192Y017015D01*
X023192Y016916D02*
X023052Y016916D01*
X023052Y016818D02*
X023192Y016818D01*
X023192Y016719D02*
X023052Y016719D01*
X023052Y016621D02*
X023192Y016621D01*
X023192Y016522D02*
X023052Y016522D01*
X023052Y016424D02*
X023192Y016424D01*
X023192Y016325D02*
X023052Y016325D01*
X023052Y016227D02*
X023192Y016227D01*
X023192Y016128D02*
X023052Y016128D01*
X023052Y016030D02*
X023192Y016030D01*
X023192Y015931D02*
X023052Y015931D01*
X023052Y015833D02*
X023192Y015833D01*
X023192Y015734D02*
X023052Y015734D01*
X023052Y015636D02*
X023192Y015636D01*
X023192Y015537D02*
X023052Y015537D01*
X023052Y015439D02*
X023192Y015439D01*
X023192Y015340D02*
X023052Y015340D01*
X023052Y015242D02*
X023192Y015242D01*
X023192Y015143D02*
X023052Y015143D01*
X023052Y015045D02*
X023192Y015045D01*
X023192Y014946D02*
X023052Y014946D01*
X023052Y014848D02*
X023192Y014848D01*
X023192Y014749D02*
X023052Y014749D01*
X023052Y014651D02*
X023192Y014651D01*
X023192Y014552D02*
X023052Y014552D01*
X023052Y014454D02*
X023192Y014454D01*
X023192Y014355D02*
X023052Y014355D01*
X023052Y014257D02*
X023192Y014257D01*
X023192Y014158D02*
X023052Y014158D01*
X023052Y014060D02*
X023192Y014060D01*
X023192Y013961D02*
X023052Y013961D01*
X023052Y013863D02*
X023192Y013863D01*
X023192Y013764D02*
X023052Y013764D01*
X023052Y013666D02*
X023192Y013666D01*
X023192Y013567D02*
X023052Y013567D01*
X023052Y013469D02*
X023192Y013469D01*
X023192Y013370D02*
X023052Y013370D01*
X023052Y013272D02*
X023192Y013272D01*
X023192Y013173D02*
X023052Y013173D01*
X023052Y013075D02*
X023192Y013075D01*
X023192Y012976D02*
X023052Y012976D01*
X023052Y012878D02*
X023192Y012878D01*
X023192Y012779D02*
X023052Y012779D01*
X023052Y012681D02*
X023192Y012681D01*
X023192Y012582D02*
X023052Y012582D01*
X023052Y012484D02*
X023192Y012484D01*
X023192Y012385D02*
X023052Y012385D01*
X023052Y012287D02*
X023192Y012287D01*
X023192Y012188D02*
X023052Y012188D01*
X023052Y012090D02*
X023192Y012090D01*
X023192Y011991D02*
X023052Y011991D01*
X023052Y011893D02*
X023192Y011893D01*
X023192Y011794D02*
X023052Y011794D01*
X023052Y011696D02*
X023192Y011696D01*
X023192Y011597D02*
X023052Y011597D01*
X023052Y011499D02*
X023192Y011499D01*
X023157Y011400D02*
X023052Y011400D01*
X023052Y011302D02*
X023058Y011302D01*
X022872Y011261D02*
X022672Y011061D01*
X022672Y009561D01*
X021685Y008573D01*
X021362Y008573D01*
X021081Y008445D02*
X015142Y008445D01*
X015043Y008544D02*
X021054Y008544D01*
X021057Y008642D02*
X014945Y008642D01*
X014846Y008741D02*
X021098Y008741D01*
X021199Y008839D02*
X014748Y008839D01*
X014649Y008938D02*
X021794Y008938D01*
X021696Y008839D02*
X021525Y008839D01*
X021893Y009036D02*
X014551Y009036D01*
X014452Y009135D02*
X021991Y009135D01*
X022090Y009233D02*
X014354Y009233D01*
X014255Y009332D02*
X022188Y009332D01*
X022287Y009430D02*
X015177Y009430D01*
X015251Y009529D02*
X022385Y009529D01*
X022484Y009627D02*
X015280Y009627D01*
X015279Y009726D02*
X022492Y009726D01*
X022492Y009824D02*
X015238Y009824D01*
X015144Y009923D02*
X022492Y009923D01*
X022492Y010021D02*
X014552Y010021D01*
X014552Y009923D02*
X014799Y009923D01*
X014552Y010120D02*
X022492Y010120D01*
X022492Y010218D02*
X014552Y010218D01*
X014552Y010317D02*
X022492Y010317D01*
X022492Y010415D02*
X014552Y010415D01*
X014552Y010514D02*
X022492Y010514D01*
X022492Y010612D02*
X014552Y010612D01*
X014552Y010711D02*
X022492Y010711D01*
X022492Y010809D02*
X014552Y010809D01*
X014552Y010908D02*
X022492Y010908D01*
X022492Y011006D02*
X014552Y011006D01*
X014552Y011105D02*
X022492Y011105D01*
X022560Y011203D02*
X014552Y011203D01*
X014552Y011302D02*
X022658Y011302D01*
X022692Y011400D02*
X018147Y011400D01*
X018146Y011399D02*
X018228Y011481D01*
X018346Y011481D01*
X018594Y011728D01*
X018611Y011686D01*
X018697Y011599D01*
X018811Y011553D01*
X018933Y011553D01*
X019046Y011599D01*
X019122Y011675D01*
X019197Y011599D01*
X019311Y011553D01*
X019433Y011553D01*
X019546Y011599D01*
X019633Y011686D01*
X019680Y011799D01*
X019680Y011922D01*
X019633Y012035D01*
X019552Y012116D01*
X019552Y012135D01*
X019352Y012335D01*
X019352Y013635D01*
X018052Y014935D01*
X018052Y018786D01*
X019704Y020438D01*
X019781Y020406D01*
X019962Y020406D01*
X020130Y020475D01*
X020258Y020603D01*
X020327Y020770D01*
X020327Y020951D01*
X020258Y021118D01*
X020130Y021246D01*
X019962Y021316D01*
X019781Y021316D01*
X019614Y021246D01*
X019486Y021118D01*
X019417Y020951D01*
X019417Y020770D01*
X019449Y020692D01*
X017692Y018935D01*
X017692Y014795D01*
X017552Y014935D01*
X017552Y019286D01*
X018704Y020438D01*
X018781Y020406D01*
X018962Y020406D01*
X019130Y020475D01*
X019258Y020603D01*
X019327Y020770D01*
X019327Y020951D01*
X019258Y021118D01*
X019130Y021246D01*
X018962Y021316D01*
X018781Y021316D01*
X018614Y021246D01*
X018486Y021118D01*
X018417Y020951D01*
X018417Y020770D01*
X018449Y020692D01*
X018327Y020570D01*
X018327Y021240D01*
X018251Y021316D01*
X017493Y021316D01*
X017417Y021240D01*
X017417Y020660D01*
X016692Y019935D01*
X016692Y014795D01*
X016552Y014935D01*
X016552Y020497D01*
X016658Y020603D01*
X016727Y020770D01*
X016727Y020951D01*
X016658Y021118D01*
X016530Y021246D01*
X016362Y021316D01*
X016181Y021316D01*
X016014Y021246D01*
X015886Y021118D01*
X015817Y020951D01*
X015817Y020770D01*
X015886Y020603D01*
X016014Y020475D01*
X016181Y020406D01*
X016192Y020406D01*
X016192Y014786D01*
X016297Y014681D01*
X017992Y012986D01*
X017992Y012416D01*
X017911Y012335D01*
X017864Y012222D01*
X017864Y012099D01*
X017911Y011986D01*
X017928Y011969D01*
X017911Y011969D01*
X017797Y011922D01*
X017711Y011835D01*
X017664Y011722D01*
X017664Y011599D01*
X017711Y011486D01*
X017797Y011399D01*
X017911Y011353D01*
X018033Y011353D01*
X018146Y011399D01*
X018365Y011499D02*
X022692Y011499D01*
X022692Y011597D02*
X019541Y011597D01*
X019637Y011696D02*
X022692Y011696D01*
X022692Y011794D02*
X019678Y011794D01*
X019680Y011893D02*
X022692Y011893D01*
X022692Y011991D02*
X019651Y011991D01*
X019579Y012090D02*
X022692Y012090D01*
X022692Y012188D02*
X019499Y012188D01*
X019400Y012287D02*
X022692Y012287D01*
X022692Y012385D02*
X019352Y012385D01*
X019352Y012484D02*
X022692Y012484D01*
X022692Y012582D02*
X019352Y012582D01*
X019352Y012681D02*
X022692Y012681D01*
X022692Y012779D02*
X019352Y012779D01*
X019352Y012878D02*
X022692Y012878D01*
X022692Y012976D02*
X019352Y012976D01*
X019352Y013075D02*
X022692Y013075D01*
X022692Y013173D02*
X019352Y013173D01*
X019352Y013272D02*
X022692Y013272D01*
X022692Y013370D02*
X019352Y013370D01*
X019352Y013469D02*
X022692Y013469D01*
X022692Y013567D02*
X019352Y013567D01*
X019321Y013666D02*
X022692Y013666D01*
X022692Y013764D02*
X019223Y013764D01*
X019124Y013863D02*
X020086Y013863D01*
X020111Y013853D02*
X020233Y013853D01*
X020346Y013899D01*
X020433Y013986D01*
X020480Y014099D01*
X020480Y014222D01*
X020433Y014335D01*
X020352Y014416D01*
X020352Y017005D01*
X020433Y017086D01*
X020480Y017199D01*
X020480Y017322D01*
X020433Y017435D01*
X020346Y017522D01*
X020233Y017569D01*
X020111Y017569D01*
X019997Y017522D01*
X019911Y017435D01*
X019864Y017322D01*
X019864Y017199D01*
X019911Y017086D01*
X019992Y017005D01*
X019992Y014416D01*
X019911Y014335D01*
X019864Y014222D01*
X019864Y014099D01*
X019911Y013986D01*
X019997Y013899D01*
X020111Y013853D01*
X020258Y013863D02*
X022692Y013863D01*
X022692Y013961D02*
X020408Y013961D01*
X020464Y014060D02*
X022293Y014060D01*
X022311Y014053D02*
X022433Y014053D01*
X022546Y014099D01*
X022633Y014186D01*
X022680Y014299D01*
X022680Y014422D01*
X022633Y014535D01*
X022552Y014616D01*
X022552Y015605D01*
X022633Y015686D01*
X022680Y015799D01*
X022680Y015922D01*
X022633Y016035D01*
X022546Y016122D01*
X022433Y016169D01*
X022311Y016169D01*
X022197Y016122D01*
X022111Y016035D01*
X022064Y015922D01*
X022064Y015799D01*
X022111Y015686D01*
X022192Y015605D01*
X022192Y014616D01*
X022111Y014535D01*
X022064Y014422D01*
X022064Y014299D01*
X022111Y014186D01*
X022197Y014099D01*
X022311Y014053D01*
X022450Y014060D02*
X022692Y014060D01*
X022692Y014158D02*
X022605Y014158D01*
X022662Y014257D02*
X022692Y014257D01*
X022680Y014355D02*
X022692Y014355D01*
X022692Y014454D02*
X022667Y014454D01*
X022692Y014552D02*
X022616Y014552D01*
X022552Y014651D02*
X022692Y014651D01*
X022692Y014749D02*
X022552Y014749D01*
X022552Y014848D02*
X022692Y014848D01*
X022692Y014946D02*
X022552Y014946D01*
X022552Y015045D02*
X022692Y015045D01*
X022692Y015143D02*
X022552Y015143D01*
X022552Y015242D02*
X022692Y015242D01*
X022692Y015340D02*
X022552Y015340D01*
X022552Y015439D02*
X022692Y015439D01*
X022692Y015537D02*
X022552Y015537D01*
X022583Y015636D02*
X022692Y015636D01*
X022692Y015734D02*
X022653Y015734D01*
X022680Y015833D02*
X022692Y015833D01*
X022692Y015931D02*
X022676Y015931D01*
X022692Y016030D02*
X022635Y016030D01*
X022692Y016128D02*
X022531Y016128D01*
X022692Y016227D02*
X020352Y016227D01*
X020352Y016325D02*
X022692Y016325D01*
X022692Y016424D02*
X020352Y016424D01*
X020352Y016522D02*
X022692Y016522D01*
X022692Y016621D02*
X020352Y016621D01*
X020352Y016719D02*
X022692Y016719D01*
X022692Y016818D02*
X020352Y016818D01*
X020352Y016916D02*
X022692Y016916D01*
X022692Y017015D02*
X020362Y017015D01*
X020444Y017113D02*
X022692Y017113D01*
X022692Y017212D02*
X020480Y017212D01*
X020480Y017310D02*
X022692Y017310D01*
X022692Y017409D02*
X020444Y017409D01*
X020361Y017507D02*
X022692Y017507D01*
X022692Y017606D02*
X018052Y017606D01*
X018052Y017704D02*
X022692Y017704D01*
X022692Y017803D02*
X018052Y017803D01*
X018052Y017901D02*
X022692Y017901D01*
X022692Y018000D02*
X018052Y018000D01*
X018052Y018098D02*
X022692Y018098D01*
X022692Y018197D02*
X018052Y018197D01*
X018052Y018295D02*
X022692Y018295D01*
X022692Y018394D02*
X018052Y018394D01*
X018052Y018492D02*
X022692Y018492D01*
X022692Y018591D02*
X018052Y018591D01*
X018052Y018689D02*
X022692Y018689D01*
X022690Y018788D02*
X018054Y018788D01*
X018152Y018886D02*
X022592Y018886D01*
X022493Y018985D02*
X018251Y018985D01*
X018349Y019083D02*
X022395Y019083D01*
X022296Y019182D02*
X018448Y019182D01*
X018546Y019280D02*
X022198Y019280D01*
X022099Y019379D02*
X018645Y019379D01*
X018743Y019477D02*
X022001Y019477D01*
X021902Y019576D02*
X018842Y019576D01*
X018940Y019674D02*
X021804Y019674D01*
X021705Y019773D02*
X019039Y019773D01*
X019137Y019871D02*
X021607Y019871D01*
X021508Y019970D02*
X019236Y019970D01*
X019334Y020068D02*
X021410Y020068D01*
X021311Y020167D02*
X019433Y020167D01*
X019531Y020265D02*
X021213Y020265D01*
X021114Y020364D02*
X019630Y020364D01*
X019416Y020659D02*
X019281Y020659D01*
X019317Y020561D02*
X019215Y020561D01*
X019219Y020462D02*
X019099Y020462D01*
X019120Y020364D02*
X018630Y020364D01*
X018531Y020265D02*
X019022Y020265D01*
X018923Y020167D02*
X018433Y020167D01*
X018334Y020068D02*
X018825Y020068D01*
X018726Y019970D02*
X018236Y019970D01*
X018137Y019871D02*
X018628Y019871D01*
X018529Y019773D02*
X018039Y019773D01*
X017940Y019674D02*
X018431Y019674D01*
X018332Y019576D02*
X017842Y019576D01*
X017743Y019477D02*
X018234Y019477D01*
X018135Y019379D02*
X017645Y019379D01*
X017552Y019280D02*
X018037Y019280D01*
X017938Y019182D02*
X017552Y019182D01*
X017552Y019083D02*
X017840Y019083D01*
X017741Y018985D02*
X017552Y018985D01*
X017552Y018886D02*
X017692Y018886D01*
X017692Y018788D02*
X017552Y018788D01*
X017552Y018689D02*
X017692Y018689D01*
X017692Y018591D02*
X017552Y018591D01*
X017552Y018492D02*
X017692Y018492D01*
X017692Y018394D02*
X017552Y018394D01*
X017552Y018295D02*
X017692Y018295D01*
X017692Y018197D02*
X017552Y018197D01*
X017552Y018098D02*
X017692Y018098D01*
X017692Y018000D02*
X017552Y018000D01*
X017552Y017901D02*
X017692Y017901D01*
X017692Y017803D02*
X017552Y017803D01*
X017552Y017704D02*
X017692Y017704D01*
X017692Y017606D02*
X017552Y017606D01*
X017552Y017507D02*
X017692Y017507D01*
X017692Y017409D02*
X017552Y017409D01*
X017552Y017310D02*
X017692Y017310D01*
X017692Y017212D02*
X017552Y017212D01*
X017552Y017113D02*
X017692Y017113D01*
X017692Y017015D02*
X017552Y017015D01*
X017552Y016916D02*
X017692Y016916D01*
X017692Y016818D02*
X017552Y016818D01*
X017552Y016719D02*
X017692Y016719D01*
X017692Y016621D02*
X017552Y016621D01*
X017552Y016522D02*
X017692Y016522D01*
X017692Y016424D02*
X017552Y016424D01*
X017552Y016325D02*
X017692Y016325D01*
X017692Y016227D02*
X017552Y016227D01*
X017552Y016128D02*
X017692Y016128D01*
X017692Y016030D02*
X017552Y016030D01*
X017552Y015931D02*
X017692Y015931D01*
X017692Y015833D02*
X017552Y015833D01*
X017552Y015734D02*
X017692Y015734D01*
X017692Y015636D02*
X017552Y015636D01*
X017552Y015537D02*
X017692Y015537D01*
X017692Y015439D02*
X017552Y015439D01*
X017552Y015340D02*
X017692Y015340D01*
X017692Y015242D02*
X017552Y015242D01*
X017552Y015143D02*
X017692Y015143D01*
X017692Y015045D02*
X017552Y015045D01*
X017552Y014946D02*
X017692Y014946D01*
X017692Y014848D02*
X017639Y014848D01*
X017872Y014861D02*
X017872Y018861D01*
X019872Y020861D01*
X019417Y020856D02*
X019327Y020856D01*
X019322Y020758D02*
X019422Y020758D01*
X019418Y020955D02*
X019325Y020955D01*
X019285Y021053D02*
X019459Y021053D01*
X019520Y021152D02*
X019224Y021152D01*
X019120Y021250D02*
X019623Y021250D01*
X020120Y021250D02*
X020623Y021250D01*
X020520Y021152D02*
X020224Y021152D01*
X020285Y021053D02*
X020459Y021053D01*
X020418Y020955D02*
X020325Y020955D01*
X020327Y020856D02*
X020417Y020856D01*
X020422Y020758D02*
X020322Y020758D01*
X020281Y020659D02*
X020463Y020659D01*
X020528Y020561D02*
X020215Y020561D01*
X020099Y020462D02*
X020645Y020462D01*
X020872Y020861D02*
X022872Y018861D01*
X022872Y011261D01*
X023272Y010261D02*
X023272Y008961D01*
X022372Y008061D01*
X022372Y006861D01*
X022072Y006561D01*
X018472Y006561D01*
X018185Y006672D02*
X016980Y006672D01*
X016969Y006574D02*
X018164Y006574D01*
X018174Y006475D02*
X017012Y006475D01*
X017110Y006377D02*
X017452Y006377D01*
X017387Y006278D02*
X017209Y006278D01*
X017307Y006180D02*
X017364Y006180D01*
X017892Y006377D02*
X018220Y006377D01*
X018246Y006771D02*
X016960Y006771D01*
X018847Y007263D02*
X021892Y007263D01*
X021892Y007165D02*
X019004Y007165D01*
X021303Y007756D02*
X021892Y007756D01*
X021892Y007854D02*
X021820Y007854D01*
X021852Y007953D02*
X021892Y007953D01*
X021892Y008051D02*
X021852Y008051D01*
X021852Y008150D02*
X021892Y008150D01*
X023052Y008051D02*
X023376Y008051D01*
X023364Y008022D02*
X023364Y007899D01*
X023411Y007786D01*
X023497Y007699D01*
X023611Y007653D01*
X023733Y007653D01*
X023846Y007699D01*
X023928Y007781D01*
X025365Y007781D01*
X025396Y007778D01*
X025453Y007642D01*
X025592Y007503D01*
X025774Y007428D01*
X025970Y007428D01*
X026152Y007503D01*
X026291Y007642D01*
X026366Y007823D01*
X026366Y008020D01*
X026291Y008202D01*
X026152Y008341D01*
X025970Y008416D01*
X025774Y008416D01*
X025592Y008341D01*
X025453Y008202D01*
X025428Y008141D01*
X025379Y008141D01*
X025312Y008146D01*
X025305Y008141D01*
X023928Y008141D01*
X023846Y008222D01*
X023733Y008269D01*
X023611Y008269D01*
X023497Y008222D01*
X023411Y008135D01*
X023364Y008022D01*
X023364Y007953D02*
X023052Y007953D01*
X023052Y007854D02*
X023383Y007854D01*
X023441Y007756D02*
X023052Y007756D01*
X023052Y007657D02*
X023599Y007657D01*
X023744Y007657D02*
X025447Y007657D01*
X025406Y007756D02*
X023903Y007756D01*
X023672Y007961D02*
X025372Y007961D01*
X025872Y007922D01*
X026208Y007559D02*
X027172Y007559D01*
X027172Y007657D02*
X026297Y007657D01*
X026338Y007756D02*
X027172Y007756D01*
X027172Y007854D02*
X026366Y007854D01*
X026366Y007953D02*
X027172Y007953D01*
X027172Y008051D02*
X026353Y008051D01*
X026312Y008150D02*
X027172Y008150D01*
X027172Y008248D02*
X026244Y008248D01*
X026137Y008347D02*
X027172Y008347D01*
X027172Y008445D02*
X023411Y008445D01*
X023313Y008347D02*
X025607Y008347D01*
X025500Y008248D02*
X023783Y008248D01*
X023919Y008150D02*
X025431Y008150D01*
X025488Y008785D02*
X025824Y008785D01*
X025824Y009251D01*
X025358Y009251D01*
X025358Y008916D01*
X025368Y008878D01*
X025388Y008843D01*
X025416Y008815D01*
X025450Y008796D01*
X025488Y008785D01*
X025392Y008839D02*
X023752Y008839D01*
X023752Y008938D02*
X025358Y008938D01*
X025358Y009036D02*
X023752Y009036D01*
X023752Y009135D02*
X025358Y009135D01*
X025358Y009233D02*
X023752Y009233D01*
X023707Y008741D02*
X027172Y008741D01*
X027172Y008839D02*
X026352Y008839D01*
X026386Y008938D02*
X027172Y008938D01*
X027172Y009036D02*
X026386Y009036D01*
X026386Y009135D02*
X027172Y009135D01*
X027172Y009233D02*
X026386Y009233D01*
X025920Y009233D02*
X025824Y009233D01*
X025824Y009135D02*
X025920Y009135D01*
X025920Y009036D02*
X025824Y009036D01*
X025824Y008938D02*
X025920Y008938D01*
X025920Y008839D02*
X025824Y008839D01*
X025824Y009430D02*
X025920Y009430D01*
X025920Y009529D02*
X025824Y009529D01*
X025824Y009627D02*
X025920Y009627D01*
X025920Y009726D02*
X025824Y009726D01*
X026247Y010514D02*
X027172Y010514D01*
X027172Y010612D02*
X026328Y010612D01*
X026373Y010711D02*
X027172Y010711D01*
X027172Y010809D02*
X026395Y010809D01*
X026395Y010908D02*
X027172Y010908D01*
X027172Y011006D02*
X026374Y011006D01*
X026331Y011105D02*
X027172Y011105D01*
X027172Y011203D02*
X026251Y011203D01*
X026203Y011499D02*
X027172Y011499D01*
X027172Y011597D02*
X026302Y011597D01*
X026346Y011696D02*
X027172Y011696D01*
X027172Y011794D02*
X026377Y011794D01*
X026377Y011893D02*
X027172Y011893D01*
X027172Y011991D02*
X026360Y011991D01*
X026320Y012090D02*
X027172Y012090D01*
X027172Y012188D02*
X026238Y012188D01*
X025606Y012188D02*
X025238Y012188D01*
X025320Y012090D02*
X025524Y012090D01*
X025484Y011991D02*
X025360Y011991D01*
X025377Y011893D02*
X025467Y011893D01*
X025467Y011794D02*
X025377Y011794D01*
X025346Y011696D02*
X025498Y011696D01*
X025542Y011597D02*
X025302Y011597D01*
X025203Y011499D02*
X025640Y011499D01*
X022139Y014158D02*
X020480Y014158D01*
X020466Y014257D02*
X022082Y014257D01*
X022064Y014355D02*
X020413Y014355D01*
X020352Y014454D02*
X022077Y014454D01*
X022128Y014552D02*
X020352Y014552D01*
X020352Y014651D02*
X022192Y014651D01*
X022192Y014749D02*
X020352Y014749D01*
X020352Y014848D02*
X022192Y014848D01*
X022192Y014946D02*
X020352Y014946D01*
X020352Y015045D02*
X022192Y015045D01*
X022192Y015143D02*
X020352Y015143D01*
X020352Y015242D02*
X022192Y015242D01*
X022192Y015340D02*
X020352Y015340D01*
X020352Y015439D02*
X022192Y015439D01*
X022192Y015537D02*
X020352Y015537D01*
X020352Y015636D02*
X022161Y015636D01*
X022091Y015734D02*
X020352Y015734D01*
X020352Y015833D02*
X022064Y015833D01*
X022068Y015931D02*
X020352Y015931D01*
X020352Y016030D02*
X022108Y016030D01*
X022213Y016128D02*
X020352Y016128D01*
X019992Y016128D02*
X019552Y016128D01*
X019552Y016030D02*
X019992Y016030D01*
X019992Y015931D02*
X019552Y015931D01*
X019552Y015833D02*
X019992Y015833D01*
X019992Y015734D02*
X019552Y015734D01*
X019552Y015636D02*
X019992Y015636D01*
X019992Y015537D02*
X019552Y015537D01*
X019552Y015439D02*
X019992Y015439D01*
X019992Y015340D02*
X019552Y015340D01*
X019552Y015242D02*
X019992Y015242D01*
X019992Y015143D02*
X019552Y015143D01*
X019552Y015045D02*
X019992Y015045D01*
X019992Y014946D02*
X019622Y014946D01*
X019633Y014935D02*
X019552Y015016D01*
X019552Y016405D01*
X019633Y016486D01*
X019680Y016599D01*
X019680Y016722D01*
X019633Y016835D01*
X019546Y016922D01*
X019433Y016969D01*
X019311Y016969D01*
X019197Y016922D01*
X019111Y016835D01*
X019064Y016722D01*
X019064Y016599D01*
X019111Y016486D01*
X019192Y016405D01*
X019192Y015016D01*
X019111Y014935D01*
X019064Y014822D01*
X019064Y014699D01*
X019111Y014586D01*
X019197Y014499D01*
X019311Y014453D01*
X019433Y014453D01*
X019546Y014499D01*
X019633Y014586D01*
X019680Y014699D01*
X019680Y014822D01*
X019633Y014935D01*
X019669Y014848D02*
X019992Y014848D01*
X019992Y014749D02*
X019680Y014749D01*
X019660Y014651D02*
X019992Y014651D01*
X019992Y014552D02*
X019599Y014552D01*
X019436Y014454D02*
X019992Y014454D01*
X019931Y014355D02*
X018632Y014355D01*
X018730Y014257D02*
X019878Y014257D01*
X019864Y014158D02*
X018829Y014158D01*
X018927Y014060D02*
X019880Y014060D01*
X019936Y013961D02*
X019026Y013961D01*
X019172Y013561D02*
X017872Y014861D01*
X018052Y014946D02*
X019122Y014946D01*
X019074Y014848D02*
X018139Y014848D01*
X018238Y014749D02*
X019064Y014749D01*
X019084Y014651D02*
X018336Y014651D01*
X018435Y014552D02*
X019145Y014552D01*
X019308Y014454D02*
X018533Y014454D01*
X018052Y015045D02*
X019192Y015045D01*
X019192Y015143D02*
X018052Y015143D01*
X018052Y015242D02*
X019192Y015242D01*
X019192Y015340D02*
X018052Y015340D01*
X018052Y015439D02*
X019192Y015439D01*
X019192Y015537D02*
X018052Y015537D01*
X018052Y015636D02*
X019192Y015636D01*
X019192Y015734D02*
X018052Y015734D01*
X018052Y015833D02*
X019192Y015833D01*
X019192Y015931D02*
X018052Y015931D01*
X018052Y016030D02*
X019192Y016030D01*
X019192Y016128D02*
X018052Y016128D01*
X018052Y016227D02*
X019192Y016227D01*
X019192Y016325D02*
X018052Y016325D01*
X018052Y016424D02*
X019173Y016424D01*
X019096Y016522D02*
X018052Y016522D01*
X018052Y016621D02*
X019064Y016621D01*
X019064Y016719D02*
X018052Y016719D01*
X018052Y016818D02*
X019103Y016818D01*
X019192Y016916D02*
X018052Y016916D01*
X018052Y017015D02*
X019982Y017015D01*
X019992Y016916D02*
X019552Y016916D01*
X019640Y016818D02*
X019992Y016818D01*
X019992Y016719D02*
X019680Y016719D01*
X019680Y016621D02*
X019992Y016621D01*
X019992Y016522D02*
X019648Y016522D01*
X019571Y016424D02*
X019992Y016424D01*
X019992Y016325D02*
X019552Y016325D01*
X019552Y016227D02*
X019992Y016227D01*
X019372Y016661D02*
X019372Y014761D01*
X020172Y014161D02*
X020172Y017261D01*
X019900Y017409D02*
X018052Y017409D01*
X018052Y017507D02*
X019983Y017507D01*
X019864Y017310D02*
X018052Y017310D01*
X018052Y017212D02*
X019864Y017212D01*
X019900Y017113D02*
X018052Y017113D01*
X016692Y017113D02*
X016552Y017113D01*
X016552Y017015D02*
X016692Y017015D01*
X016692Y016916D02*
X016552Y016916D01*
X016552Y016818D02*
X016692Y016818D01*
X016692Y016719D02*
X016552Y016719D01*
X016552Y016621D02*
X016692Y016621D01*
X016692Y016522D02*
X016552Y016522D01*
X016552Y016424D02*
X016692Y016424D01*
X016692Y016325D02*
X016552Y016325D01*
X016552Y016227D02*
X016692Y016227D01*
X016692Y016128D02*
X016552Y016128D01*
X016552Y016030D02*
X016692Y016030D01*
X016692Y015931D02*
X016552Y015931D01*
X016552Y015833D02*
X016692Y015833D01*
X016692Y015734D02*
X016552Y015734D01*
X016552Y015636D02*
X016692Y015636D01*
X016692Y015537D02*
X016552Y015537D01*
X016552Y015439D02*
X016692Y015439D01*
X016692Y015340D02*
X016552Y015340D01*
X016552Y015242D02*
X016692Y015242D01*
X016692Y015143D02*
X016552Y015143D01*
X016552Y015045D02*
X016692Y015045D01*
X016692Y014946D02*
X016552Y014946D01*
X016639Y014848D02*
X016692Y014848D01*
X016872Y014861D02*
X016872Y019861D01*
X017872Y020861D01*
X018327Y020856D02*
X018417Y020856D01*
X018422Y020758D02*
X018327Y020758D01*
X018327Y020659D02*
X018416Y020659D01*
X018872Y020861D02*
X017372Y019361D01*
X017372Y014861D01*
X018872Y013361D01*
X018872Y011861D01*
X018607Y011696D02*
X018562Y011696D01*
X018463Y011597D02*
X018703Y011597D01*
X019041Y011597D02*
X019203Y011597D01*
X019372Y011861D02*
X019372Y012061D01*
X019172Y012261D01*
X019172Y013561D01*
X018572Y013161D02*
X016872Y014861D01*
X016372Y014861D02*
X016372Y020761D01*
X016272Y020861D01*
X016727Y020856D02*
X017417Y020856D01*
X017417Y020758D02*
X016722Y020758D01*
X016681Y020659D02*
X017416Y020659D01*
X017317Y020561D02*
X016615Y020561D01*
X016552Y020462D02*
X017219Y020462D01*
X017120Y020364D02*
X016552Y020364D01*
X016552Y020265D02*
X017022Y020265D01*
X016923Y020167D02*
X016552Y020167D01*
X016552Y020068D02*
X016825Y020068D01*
X016726Y019970D02*
X016552Y019970D01*
X016552Y019871D02*
X016692Y019871D01*
X016692Y019773D02*
X016552Y019773D01*
X016552Y019674D02*
X016692Y019674D01*
X016692Y019576D02*
X016552Y019576D01*
X016552Y019477D02*
X016692Y019477D01*
X016692Y019379D02*
X016552Y019379D01*
X016552Y019280D02*
X016692Y019280D01*
X016692Y019182D02*
X016552Y019182D01*
X016552Y019083D02*
X016692Y019083D01*
X016692Y018985D02*
X016552Y018985D01*
X016552Y018886D02*
X016692Y018886D01*
X016692Y018788D02*
X016552Y018788D01*
X016552Y018689D02*
X016692Y018689D01*
X016692Y018591D02*
X016552Y018591D01*
X016552Y018492D02*
X016692Y018492D01*
X016692Y018394D02*
X016552Y018394D01*
X016552Y018295D02*
X016692Y018295D01*
X016692Y018197D02*
X016552Y018197D01*
X016552Y018098D02*
X016692Y018098D01*
X016692Y018000D02*
X016552Y018000D01*
X016552Y017901D02*
X016692Y017901D01*
X016692Y017803D02*
X016552Y017803D01*
X016552Y017704D02*
X016692Y017704D01*
X016692Y017606D02*
X016552Y017606D01*
X016552Y017507D02*
X016692Y017507D01*
X016692Y017409D02*
X016552Y017409D01*
X016552Y017310D02*
X016692Y017310D01*
X016692Y017212D02*
X016552Y017212D01*
X016192Y017212D02*
X016052Y017212D01*
X016052Y017310D02*
X016192Y017310D01*
X016192Y017409D02*
X016052Y017409D01*
X016052Y017507D02*
X016192Y017507D01*
X016192Y017606D02*
X016052Y017606D01*
X016052Y017704D02*
X016192Y017704D01*
X016192Y017803D02*
X016052Y017803D01*
X016052Y017901D02*
X016192Y017901D01*
X016192Y018000D02*
X016052Y018000D01*
X016052Y018098D02*
X016192Y018098D01*
X016192Y018197D02*
X016052Y018197D01*
X016052Y018295D02*
X016192Y018295D01*
X016192Y018394D02*
X016052Y018394D01*
X016052Y018492D02*
X016192Y018492D01*
X016192Y018591D02*
X016052Y018591D01*
X016052Y018689D02*
X016192Y018689D01*
X016192Y018788D02*
X016052Y018788D01*
X016052Y018886D02*
X016192Y018886D01*
X016192Y018985D02*
X016052Y018985D01*
X016052Y019083D02*
X016192Y019083D01*
X016192Y019182D02*
X016052Y019182D01*
X016052Y019280D02*
X016192Y019280D01*
X016192Y019379D02*
X016052Y019379D01*
X016052Y019477D02*
X016192Y019477D01*
X016192Y019576D02*
X016052Y019576D01*
X016052Y019674D02*
X016192Y019674D01*
X016192Y019773D02*
X016052Y019773D01*
X016052Y019871D02*
X016192Y019871D01*
X016192Y019970D02*
X016017Y019970D01*
X016052Y019935D02*
X015517Y020470D01*
X015530Y020475D01*
X015658Y020603D01*
X015727Y020770D01*
X015727Y020951D01*
X015658Y021118D01*
X015530Y021246D01*
X015362Y021316D01*
X015181Y021316D01*
X015014Y021246D01*
X014886Y021118D01*
X014817Y020951D01*
X014817Y020770D01*
X014886Y020603D01*
X015014Y020475D01*
X015092Y020443D01*
X015092Y020386D01*
X015692Y019786D01*
X015692Y013786D01*
X017064Y012414D01*
X017064Y012299D01*
X017111Y012186D01*
X017197Y012099D01*
X017311Y012053D01*
X017433Y012053D01*
X017546Y012099D01*
X017633Y012186D01*
X017680Y012299D01*
X017680Y012422D01*
X017633Y012535D01*
X017546Y012622D01*
X017433Y012669D01*
X017318Y012669D01*
X016052Y013935D01*
X016052Y019935D01*
X015919Y020068D02*
X016192Y020068D01*
X016192Y020167D02*
X015820Y020167D01*
X015722Y020265D02*
X016192Y020265D01*
X016192Y020364D02*
X015623Y020364D01*
X015525Y020462D02*
X016045Y020462D01*
X015928Y020561D02*
X015615Y020561D01*
X015681Y020659D02*
X015863Y020659D01*
X015822Y020758D02*
X015722Y020758D01*
X015727Y020856D02*
X015817Y020856D01*
X015818Y020955D02*
X015725Y020955D01*
X015685Y021053D02*
X015859Y021053D01*
X015920Y021152D02*
X015624Y021152D01*
X015520Y021250D02*
X016023Y021250D01*
X016520Y021250D02*
X017428Y021250D01*
X017417Y021152D02*
X016624Y021152D01*
X016685Y021053D02*
X017417Y021053D01*
X017417Y020955D02*
X016725Y020955D01*
X015872Y019861D02*
X015272Y020461D01*
X015272Y020861D01*
X014928Y020561D02*
X014615Y020561D01*
X014658Y020603D02*
X014727Y020770D01*
X014727Y020951D01*
X014658Y021118D01*
X014530Y021246D01*
X014362Y021316D01*
X014181Y021316D01*
X014014Y021246D01*
X013886Y021118D01*
X013817Y020951D01*
X013817Y020770D01*
X013886Y020603D01*
X014014Y020475D01*
X014181Y020406D01*
X014362Y020406D01*
X014530Y020475D01*
X014658Y020603D01*
X014681Y020659D02*
X014863Y020659D01*
X014822Y020758D02*
X014722Y020758D01*
X014727Y020856D02*
X014817Y020856D01*
X014818Y020955D02*
X014725Y020955D01*
X014685Y021053D02*
X014859Y021053D01*
X014920Y021152D02*
X014624Y021152D01*
X014520Y021250D02*
X015023Y021250D01*
X014023Y021250D02*
X013520Y021250D01*
X013530Y021246D02*
X013362Y021316D01*
X013181Y021316D01*
X013014Y021246D01*
X012886Y021118D01*
X012817Y020951D01*
X012817Y020770D01*
X012886Y020603D01*
X013014Y020475D01*
X013181Y020406D01*
X013362Y020406D01*
X013530Y020475D01*
X013658Y020603D01*
X013727Y020770D01*
X013727Y020951D01*
X013658Y021118D01*
X013530Y021246D01*
X013624Y021152D02*
X013920Y021152D01*
X013859Y021053D02*
X013685Y021053D01*
X013725Y020955D02*
X013818Y020955D01*
X013817Y020856D02*
X013727Y020856D01*
X013722Y020758D02*
X013822Y020758D01*
X013863Y020659D02*
X013681Y020659D01*
X013615Y020561D02*
X013928Y020561D01*
X014045Y020462D02*
X013499Y020462D01*
X013045Y020462D02*
X012525Y020462D01*
X012615Y020561D02*
X012928Y020561D01*
X012863Y020659D02*
X012681Y020659D01*
X012722Y020758D02*
X012822Y020758D01*
X012817Y020856D02*
X012727Y020856D01*
X012725Y020955D02*
X012818Y020955D01*
X012859Y021053D02*
X012685Y021053D01*
X012624Y021152D02*
X012920Y021152D01*
X013023Y021250D02*
X012520Y021250D01*
X012023Y021250D02*
X011520Y021250D01*
X011624Y021152D02*
X011920Y021152D01*
X011859Y021053D02*
X011685Y021053D01*
X011725Y020955D02*
X011818Y020955D01*
X011817Y020856D02*
X011727Y020856D01*
X011722Y020758D02*
X011822Y020758D01*
X011863Y020659D02*
X011728Y020659D01*
X011826Y020561D02*
X011928Y020561D01*
X011925Y020462D02*
X012045Y020462D01*
X012023Y020364D02*
X012114Y020364D01*
X012122Y020265D02*
X012213Y020265D01*
X012220Y020167D02*
X012311Y020167D01*
X012319Y020068D02*
X012410Y020068D01*
X012417Y019970D02*
X012508Y019970D01*
X012516Y019871D02*
X012607Y019871D01*
X012614Y019773D02*
X012705Y019773D01*
X012713Y019674D02*
X012804Y019674D01*
X012811Y019576D02*
X012902Y019576D01*
X012910Y019477D02*
X013001Y019477D01*
X013008Y019379D02*
X013099Y019379D01*
X013107Y019280D02*
X013198Y019280D01*
X013205Y019182D02*
X013296Y019182D01*
X013304Y019083D02*
X013395Y019083D01*
X013402Y018985D02*
X013493Y018985D01*
X013501Y018886D02*
X013592Y018886D01*
X013599Y018788D02*
X013690Y018788D01*
X013698Y018689D02*
X013789Y018689D01*
X013796Y018591D02*
X013887Y018591D01*
X013895Y018492D02*
X013986Y018492D01*
X013993Y018394D02*
X014084Y018394D01*
X014092Y018295D02*
X014183Y018295D01*
X014190Y018197D02*
X014281Y018197D01*
X014289Y018098D02*
X014380Y018098D01*
X014387Y018000D02*
X014478Y018000D01*
X014486Y017901D02*
X014577Y017901D01*
X014584Y017803D02*
X014675Y017803D01*
X014683Y017704D02*
X014774Y017704D01*
X014781Y017606D02*
X014872Y017606D01*
X014880Y017507D02*
X014971Y017507D01*
X014978Y017409D02*
X015069Y017409D01*
X015052Y017310D02*
X015168Y017310D01*
X015192Y017212D02*
X015052Y017212D01*
X015052Y017113D02*
X015192Y017113D01*
X015192Y017015D02*
X015052Y017015D01*
X015052Y016916D02*
X015192Y016916D01*
X015192Y016818D02*
X015052Y016818D01*
X015052Y016719D02*
X015192Y016719D01*
X015192Y016621D02*
X015052Y016621D01*
X015052Y016522D02*
X015192Y016522D01*
X015192Y016424D02*
X015052Y016424D01*
X015052Y016325D02*
X015192Y016325D01*
X015192Y016227D02*
X015052Y016227D01*
X015052Y016128D02*
X015192Y016128D01*
X015192Y016030D02*
X015052Y016030D01*
X015052Y015931D02*
X015192Y015931D01*
X015192Y015833D02*
X015052Y015833D01*
X015052Y015734D02*
X015192Y015734D01*
X015192Y015636D02*
X015052Y015636D01*
X015052Y015537D02*
X015192Y015537D01*
X015192Y015439D02*
X015052Y015439D01*
X015052Y015340D02*
X015192Y015340D01*
X015192Y015242D02*
X015052Y015242D01*
X015052Y015143D02*
X015192Y015143D01*
X015192Y015045D02*
X015052Y015045D01*
X015052Y014946D02*
X015192Y014946D01*
X015192Y014848D02*
X015052Y014848D01*
X015052Y014749D02*
X015192Y014749D01*
X015192Y014651D02*
X015052Y014651D01*
X015052Y014552D02*
X015192Y014552D01*
X015192Y014454D02*
X015052Y014454D01*
X015052Y014355D02*
X015192Y014355D01*
X015192Y014257D02*
X015052Y014257D01*
X015052Y014158D02*
X015192Y014158D01*
X015192Y014060D02*
X015052Y014060D01*
X015052Y013961D02*
X015192Y013961D01*
X015192Y013863D02*
X015052Y013863D01*
X015052Y013764D02*
X015192Y013764D01*
X015192Y013666D02*
X015052Y013666D01*
X015052Y013567D02*
X015192Y013567D01*
X015192Y013469D02*
X015052Y013469D01*
X015052Y013370D02*
X015192Y013370D01*
X015192Y013272D02*
X015052Y013272D01*
X015052Y013173D02*
X015192Y013173D01*
X015192Y013075D02*
X015052Y013075D01*
X015052Y012976D02*
X015192Y012976D01*
X015200Y012878D02*
X015109Y012878D01*
X015208Y012779D02*
X015299Y012779D01*
X015306Y012681D02*
X015397Y012681D01*
X015372Y012961D02*
X016072Y012261D01*
X016285Y012484D02*
X016994Y012484D01*
X017064Y012385D02*
X016354Y012385D01*
X016380Y012287D02*
X017069Y012287D01*
X017110Y012188D02*
X016375Y012188D01*
X016335Y012090D02*
X017221Y012090D01*
X017523Y012090D02*
X017868Y012090D01*
X017864Y012188D02*
X017634Y012188D01*
X017675Y012287D02*
X017891Y012287D01*
X017961Y012385D02*
X017680Y012385D01*
X017654Y012484D02*
X017992Y012484D01*
X017992Y012582D02*
X017586Y012582D01*
X017306Y012681D02*
X017992Y012681D01*
X017992Y012779D02*
X017208Y012779D01*
X017109Y012878D02*
X017992Y012878D01*
X017992Y012976D02*
X017011Y012976D01*
X016912Y013075D02*
X017903Y013075D01*
X017805Y013173D02*
X016814Y013173D01*
X016715Y013272D02*
X017706Y013272D01*
X017608Y013370D02*
X016617Y013370D01*
X016518Y013469D02*
X017509Y013469D01*
X017411Y013567D02*
X016420Y013567D01*
X016321Y013666D02*
X017312Y013666D01*
X017214Y013764D02*
X016223Y013764D01*
X016124Y013863D02*
X017115Y013863D01*
X017017Y013961D02*
X016052Y013961D01*
X016052Y014060D02*
X016918Y014060D01*
X016820Y014158D02*
X016052Y014158D01*
X016052Y014257D02*
X016721Y014257D01*
X016623Y014355D02*
X016052Y014355D01*
X016052Y014454D02*
X016524Y014454D01*
X016426Y014552D02*
X016052Y014552D01*
X016052Y014651D02*
X016327Y014651D01*
X016229Y014749D02*
X016052Y014749D01*
X016052Y014848D02*
X016192Y014848D01*
X016192Y014946D02*
X016052Y014946D01*
X016052Y015045D02*
X016192Y015045D01*
X016192Y015143D02*
X016052Y015143D01*
X016052Y015242D02*
X016192Y015242D01*
X016192Y015340D02*
X016052Y015340D01*
X016052Y015439D02*
X016192Y015439D01*
X016192Y015537D02*
X016052Y015537D01*
X016052Y015636D02*
X016192Y015636D01*
X016192Y015734D02*
X016052Y015734D01*
X016052Y015833D02*
X016192Y015833D01*
X016192Y015931D02*
X016052Y015931D01*
X016052Y016030D02*
X016192Y016030D01*
X016192Y016128D02*
X016052Y016128D01*
X016052Y016227D02*
X016192Y016227D01*
X016192Y016325D02*
X016052Y016325D01*
X016052Y016424D02*
X016192Y016424D01*
X016192Y016522D02*
X016052Y016522D01*
X016052Y016621D02*
X016192Y016621D01*
X016192Y016719D02*
X016052Y016719D01*
X016052Y016818D02*
X016192Y016818D01*
X016192Y016916D02*
X016052Y016916D01*
X016052Y017015D02*
X016192Y017015D01*
X016192Y017113D02*
X016052Y017113D01*
X015692Y017113D02*
X015552Y017113D01*
X015552Y017015D02*
X015692Y017015D01*
X015692Y016916D02*
X015552Y016916D01*
X015552Y016818D02*
X015692Y016818D01*
X015692Y016719D02*
X015552Y016719D01*
X015552Y016621D02*
X015692Y016621D01*
X015692Y016522D02*
X015552Y016522D01*
X015552Y016424D02*
X015692Y016424D01*
X015692Y016325D02*
X015552Y016325D01*
X015552Y016227D02*
X015692Y016227D01*
X015692Y016128D02*
X015552Y016128D01*
X015552Y016030D02*
X015692Y016030D01*
X015692Y015931D02*
X015552Y015931D01*
X015552Y015833D02*
X015692Y015833D01*
X015692Y015734D02*
X015552Y015734D01*
X015552Y015636D02*
X015692Y015636D01*
X015692Y015537D02*
X015552Y015537D01*
X015552Y015439D02*
X015692Y015439D01*
X015692Y015340D02*
X015552Y015340D01*
X015552Y015242D02*
X015692Y015242D01*
X015692Y015143D02*
X015552Y015143D01*
X015552Y015045D02*
X015692Y015045D01*
X015692Y014946D02*
X015552Y014946D01*
X015552Y014848D02*
X015692Y014848D01*
X015692Y014749D02*
X015552Y014749D01*
X015552Y014651D02*
X015692Y014651D01*
X015692Y014552D02*
X015552Y014552D01*
X015552Y014454D02*
X015692Y014454D01*
X015692Y014355D02*
X015552Y014355D01*
X015552Y014257D02*
X015692Y014257D01*
X015692Y014158D02*
X015552Y014158D01*
X015552Y014060D02*
X015692Y014060D01*
X015692Y013961D02*
X015552Y013961D01*
X015552Y013863D02*
X015692Y013863D01*
X015714Y013764D02*
X015552Y013764D01*
X015552Y013666D02*
X015812Y013666D01*
X015911Y013567D02*
X015552Y013567D01*
X015552Y013469D02*
X016009Y013469D01*
X016108Y013370D02*
X015552Y013370D01*
X015552Y013272D02*
X016206Y013272D01*
X016305Y013173D02*
X015552Y013173D01*
X015552Y013075D02*
X016403Y013075D01*
X016502Y012976D02*
X015611Y012976D01*
X015709Y012878D02*
X016600Y012878D01*
X016699Y012779D02*
X015808Y012779D01*
X015906Y012681D02*
X016797Y012681D01*
X016896Y012582D02*
X016005Y012582D01*
X015693Y012385D02*
X015680Y012385D01*
X015675Y012287D02*
X015764Y012287D01*
X015768Y012188D02*
X015634Y012188D01*
X015523Y012090D02*
X015809Y012090D01*
X015917Y011991D02*
X014552Y011991D01*
X014552Y011893D02*
X017768Y011893D01*
X017694Y011794D02*
X014552Y011794D01*
X014552Y011696D02*
X017664Y011696D01*
X017665Y011597D02*
X014552Y011597D01*
X014552Y011499D02*
X017706Y011499D01*
X017797Y011400D02*
X014552Y011400D01*
X014192Y011400D02*
X014052Y011400D01*
X014052Y011302D02*
X014192Y011302D01*
X014192Y011203D02*
X014052Y011203D01*
X014052Y011105D02*
X014192Y011105D01*
X014192Y011006D02*
X014052Y011006D01*
X014052Y010908D02*
X014192Y010908D01*
X014192Y010809D02*
X014052Y010809D01*
X014052Y010711D02*
X014192Y010711D01*
X014192Y010612D02*
X014052Y010612D01*
X014052Y010514D02*
X014192Y010514D01*
X014192Y010415D02*
X014052Y010415D01*
X014052Y010317D02*
X014192Y010317D01*
X014192Y010218D02*
X014052Y010218D01*
X014052Y010120D02*
X014192Y010120D01*
X014192Y010021D02*
X014052Y010021D01*
X014052Y009923D02*
X014192Y009923D01*
X014192Y009824D02*
X014052Y009824D01*
X014052Y009726D02*
X014192Y009726D01*
X014192Y009627D02*
X014052Y009627D01*
X014058Y009529D02*
X014249Y009529D01*
X014157Y009430D02*
X014767Y009430D01*
X014972Y009661D02*
X014372Y009661D01*
X014372Y017361D01*
X011872Y019861D01*
X009872Y019861D01*
X009272Y020461D01*
X009272Y020861D01*
X009727Y020856D02*
X010234Y020856D01*
X010234Y020823D02*
X009797Y020823D01*
X009809Y020749D01*
X009832Y020678D01*
X009866Y020612D01*
X009910Y020551D01*
X009962Y020498D01*
X010023Y020454D01*
X010090Y020420D01*
X010161Y020397D01*
X010234Y020386D01*
X010234Y020823D01*
X010234Y020898D01*
X009797Y020898D01*
X009809Y020972D01*
X009832Y021043D01*
X009866Y021110D01*
X009910Y021170D01*
X009962Y021223D01*
X010023Y021267D01*
X010090Y021301D01*
X010161Y021324D01*
X010234Y021336D01*
X010234Y020898D01*
X010309Y020898D01*
X010309Y021336D01*
X010383Y021324D01*
X010454Y021301D01*
X010521Y021267D01*
X010581Y021223D01*
X010634Y021170D01*
X010678Y021110D01*
X010712Y021043D01*
X010735Y020972D01*
X010747Y020898D01*
X010309Y020898D01*
X010309Y020823D01*
X010309Y020386D01*
X010383Y020397D01*
X010454Y020420D01*
X010521Y020454D01*
X010581Y020498D01*
X010634Y020551D01*
X010678Y020612D01*
X010712Y020678D01*
X010735Y020749D01*
X010747Y020823D01*
X010309Y020823D01*
X010234Y020823D01*
X010234Y020758D02*
X010309Y020758D01*
X010309Y020856D02*
X010817Y020856D01*
X010822Y020758D02*
X010737Y020758D01*
X010702Y020659D02*
X010863Y020659D01*
X010928Y020561D02*
X010641Y020561D01*
X010532Y020462D02*
X011045Y020462D01*
X011272Y020861D02*
X014872Y017261D01*
X014872Y012861D01*
X015372Y012361D01*
X015064Y012385D02*
X014552Y012385D01*
X014552Y012287D02*
X015069Y012287D01*
X015110Y012188D02*
X014552Y012188D01*
X014552Y012090D02*
X015221Y012090D01*
X014994Y012484D02*
X014552Y012484D01*
X014552Y012582D02*
X014896Y012582D01*
X014797Y012681D02*
X014552Y012681D01*
X014552Y012779D02*
X014699Y012779D01*
X014692Y012878D02*
X014552Y012878D01*
X014552Y012976D02*
X014692Y012976D01*
X014692Y013075D02*
X014552Y013075D01*
X014552Y013173D02*
X014692Y013173D01*
X014692Y013272D02*
X014552Y013272D01*
X014552Y013370D02*
X014692Y013370D01*
X014692Y013469D02*
X014552Y013469D01*
X014552Y013567D02*
X014692Y013567D01*
X014692Y013666D02*
X014552Y013666D01*
X014552Y013764D02*
X014692Y013764D01*
X014692Y013863D02*
X014552Y013863D01*
X014552Y013961D02*
X014692Y013961D01*
X014692Y014060D02*
X014552Y014060D01*
X014552Y014158D02*
X014692Y014158D01*
X014692Y014257D02*
X014552Y014257D01*
X014552Y014355D02*
X014692Y014355D01*
X014692Y014454D02*
X014552Y014454D01*
X014552Y014552D02*
X014692Y014552D01*
X014692Y014651D02*
X014552Y014651D01*
X014552Y014749D02*
X014692Y014749D01*
X014692Y014848D02*
X014552Y014848D01*
X014552Y014946D02*
X014692Y014946D01*
X014692Y015045D02*
X014552Y015045D01*
X014552Y015143D02*
X014692Y015143D01*
X014692Y015242D02*
X014552Y015242D01*
X014552Y015340D02*
X014692Y015340D01*
X014692Y015439D02*
X014552Y015439D01*
X014552Y015537D02*
X014692Y015537D01*
X014692Y015636D02*
X014552Y015636D01*
X014552Y015734D02*
X014692Y015734D01*
X014692Y015833D02*
X014552Y015833D01*
X014552Y015931D02*
X014692Y015931D01*
X014692Y016030D02*
X014552Y016030D01*
X014552Y016128D02*
X014692Y016128D01*
X014692Y016227D02*
X014552Y016227D01*
X014552Y016325D02*
X014692Y016325D01*
X014692Y016424D02*
X014552Y016424D01*
X014552Y016522D02*
X014692Y016522D01*
X014692Y016621D02*
X014552Y016621D01*
X014552Y016719D02*
X014692Y016719D01*
X014692Y016818D02*
X014552Y016818D01*
X014552Y016916D02*
X014692Y016916D01*
X014692Y017015D02*
X014552Y017015D01*
X014552Y017113D02*
X014692Y017113D01*
X014666Y017212D02*
X014552Y017212D01*
X014552Y017310D02*
X014568Y017310D01*
X014192Y017212D02*
X014052Y017212D01*
X014052Y017310D02*
X014168Y017310D01*
X014069Y017409D02*
X014052Y017409D01*
X014052Y017113D02*
X014192Y017113D01*
X014192Y017015D02*
X014052Y017015D01*
X014052Y016916D02*
X014192Y016916D01*
X014192Y016818D02*
X014052Y016818D01*
X014052Y016719D02*
X014192Y016719D01*
X014192Y016621D02*
X014052Y016621D01*
X014052Y016522D02*
X014192Y016522D01*
X014192Y016424D02*
X014052Y016424D01*
X014052Y016325D02*
X014192Y016325D01*
X014192Y016227D02*
X014052Y016227D01*
X014052Y016128D02*
X014192Y016128D01*
X014192Y016030D02*
X014052Y016030D01*
X014052Y015931D02*
X014192Y015931D01*
X014192Y015833D02*
X014052Y015833D01*
X014052Y015734D02*
X014192Y015734D01*
X014192Y015636D02*
X014052Y015636D01*
X014052Y015537D02*
X014192Y015537D01*
X014192Y015439D02*
X014052Y015439D01*
X014052Y015340D02*
X014192Y015340D01*
X014192Y015242D02*
X014052Y015242D01*
X014052Y015143D02*
X014192Y015143D01*
X014192Y015045D02*
X014052Y015045D01*
X014052Y014946D02*
X014192Y014946D01*
X014192Y014848D02*
X014052Y014848D01*
X014052Y014749D02*
X014192Y014749D01*
X014192Y014651D02*
X014052Y014651D01*
X014052Y014552D02*
X014192Y014552D01*
X014192Y014454D02*
X014052Y014454D01*
X014052Y014355D02*
X014192Y014355D01*
X014192Y014257D02*
X014052Y014257D01*
X014052Y014158D02*
X014192Y014158D01*
X014192Y014060D02*
X014052Y014060D01*
X014052Y013961D02*
X014192Y013961D01*
X014192Y013863D02*
X014052Y013863D01*
X014052Y013764D02*
X014192Y013764D01*
X014192Y013666D02*
X014052Y013666D01*
X014052Y013567D02*
X014192Y013567D01*
X014192Y013469D02*
X014052Y013469D01*
X014052Y013370D02*
X014192Y013370D01*
X014192Y013272D02*
X014052Y013272D01*
X014052Y013173D02*
X014192Y013173D01*
X014192Y013075D02*
X014052Y013075D01*
X014052Y012976D02*
X014192Y012976D01*
X014192Y012878D02*
X014052Y012878D01*
X014052Y012779D02*
X014192Y012779D01*
X014192Y012681D02*
X014052Y012681D01*
X014052Y012582D02*
X014192Y012582D01*
X014192Y012484D02*
X014052Y012484D01*
X014052Y012385D02*
X014192Y012385D01*
X014192Y012287D02*
X014052Y012287D01*
X014052Y012188D02*
X014192Y012188D01*
X014192Y012090D02*
X014052Y012090D01*
X014052Y011991D02*
X014192Y011991D01*
X014192Y011893D02*
X014052Y011893D01*
X014052Y011794D02*
X014192Y011794D01*
X014192Y011696D02*
X014052Y011696D01*
X014052Y011597D02*
X014192Y011597D01*
X014192Y011499D02*
X014052Y011499D01*
X013192Y011499D02*
X010982Y011499D01*
X010982Y011597D02*
X013192Y011597D01*
X013192Y011696D02*
X010982Y011696D01*
X010982Y011794D02*
X013192Y011794D01*
X013192Y011893D02*
X010982Y011893D01*
X010982Y011991D02*
X013192Y011991D01*
X013192Y012090D02*
X010982Y012090D01*
X010982Y012188D02*
X013192Y012188D01*
X013192Y012287D02*
X010982Y012287D01*
X010982Y012385D02*
X013192Y012385D01*
X013192Y012484D02*
X010982Y012484D01*
X010982Y012582D02*
X013192Y012582D01*
X013192Y012681D02*
X010982Y012681D01*
X010982Y012779D02*
X013192Y012779D01*
X013192Y012878D02*
X010982Y012878D01*
X010982Y012976D02*
X013192Y012976D01*
X013192Y013075D02*
X010982Y013075D01*
X010982Y013173D02*
X013192Y013173D01*
X013192Y013272D02*
X010982Y013272D01*
X010982Y013370D02*
X013192Y013370D01*
X013192Y013469D02*
X010982Y013469D01*
X010982Y013567D02*
X013192Y013567D01*
X013192Y013666D02*
X010982Y013666D01*
X010982Y013764D02*
X013192Y013764D01*
X013192Y013863D02*
X010982Y013863D01*
X010982Y013961D02*
X013192Y013961D01*
X013192Y014060D02*
X010982Y014060D01*
X010982Y014158D02*
X013192Y014158D01*
X013192Y014257D02*
X010982Y014257D01*
X010982Y014355D02*
X013192Y014355D01*
X013192Y014454D02*
X010982Y014454D01*
X010982Y014552D02*
X013192Y014552D01*
X013192Y014651D02*
X010982Y014651D01*
X010982Y014749D02*
X013192Y014749D01*
X013192Y014848D02*
X010982Y014848D01*
X010982Y014946D02*
X013192Y014946D01*
X013192Y015045D02*
X010982Y015045D01*
X010982Y015143D02*
X013192Y015143D01*
X013192Y015242D02*
X010982Y015242D01*
X010982Y015340D02*
X013192Y015340D01*
X013192Y015439D02*
X010982Y015439D01*
X010984Y015537D02*
X013192Y015537D01*
X013192Y015636D02*
X011054Y015636D01*
X011080Y015734D02*
X013192Y015734D01*
X013192Y015833D02*
X011076Y015833D01*
X011035Y015931D02*
X013192Y015931D01*
X013192Y016030D02*
X010928Y016030D01*
X010616Y016030D02*
X005072Y016030D01*
X005072Y016128D02*
X013192Y016128D01*
X013192Y016227D02*
X005072Y016227D01*
X005072Y016325D02*
X013192Y016325D01*
X013192Y016424D02*
X005072Y016424D01*
X005072Y016522D02*
X013192Y016522D01*
X013192Y016621D02*
X005072Y016621D01*
X005072Y016719D02*
X013192Y016719D01*
X013192Y016818D02*
X005072Y016818D01*
X005072Y016916D02*
X013192Y016916D01*
X013192Y017015D02*
X005072Y017015D01*
X005072Y017113D02*
X013192Y017113D01*
X013192Y017212D02*
X005072Y017212D01*
X005072Y017310D02*
X013168Y017310D01*
X013069Y017409D02*
X005072Y017409D01*
X005072Y017507D02*
X012971Y017507D01*
X012872Y017606D02*
X005072Y017606D01*
X005072Y017704D02*
X012774Y017704D01*
X012675Y017803D02*
X005072Y017803D01*
X005072Y017901D02*
X012577Y017901D01*
X012478Y018000D02*
X005072Y018000D01*
X005072Y018098D02*
X012380Y018098D01*
X012281Y018197D02*
X005072Y018197D01*
X005072Y018295D02*
X012183Y018295D01*
X012084Y018394D02*
X005072Y018394D01*
X005072Y018492D02*
X011986Y018492D01*
X011887Y018591D02*
X005072Y018591D01*
X005072Y018689D02*
X009789Y018689D01*
X009690Y018788D02*
X005072Y018788D01*
X005072Y018886D02*
X009592Y018886D01*
X009493Y018985D02*
X005072Y018985D01*
X005072Y019083D02*
X009395Y019083D01*
X009296Y019182D02*
X005072Y019182D01*
X005072Y019280D02*
X009198Y019280D01*
X009099Y019379D02*
X005072Y019379D01*
X005072Y019477D02*
X009001Y019477D01*
X008902Y019576D02*
X005072Y019576D01*
X005072Y019674D02*
X008804Y019674D01*
X008705Y019773D02*
X005072Y019773D01*
X005072Y019871D02*
X008607Y019871D01*
X008508Y019970D02*
X005072Y019970D01*
X005072Y020068D02*
X005616Y020068D01*
X005392Y020167D02*
X005072Y020167D01*
X005072Y020265D02*
X005294Y020265D01*
X005195Y020364D02*
X005072Y020364D01*
X005072Y020462D02*
X005139Y020462D01*
X005098Y020561D02*
X005072Y020561D01*
X006127Y020068D02*
X008410Y020068D01*
X008311Y020167D02*
X006352Y020167D01*
X006450Y020265D02*
X008213Y020265D01*
X007863Y020659D02*
X007714Y020659D01*
X007727Y020758D02*
X007822Y020758D01*
X007817Y020856D02*
X007727Y020856D01*
X007727Y020955D02*
X007818Y020955D01*
X007819Y021053D02*
X007859Y021053D01*
X007918Y021152D02*
X007920Y021152D01*
X008937Y021250D02*
X009023Y021250D01*
X009520Y021250D02*
X010000Y021250D01*
X009896Y021152D02*
X009624Y021152D01*
X009685Y021053D02*
X009837Y021053D01*
X009806Y020955D02*
X009725Y020955D01*
X009722Y020758D02*
X009807Y020758D01*
X009841Y020659D02*
X009681Y020659D01*
X009615Y020561D02*
X009903Y020561D01*
X010012Y020462D02*
X009525Y020462D01*
X009623Y020364D02*
X011514Y020364D01*
X011613Y020265D02*
X009722Y020265D01*
X009820Y020167D02*
X011711Y020167D01*
X011810Y020068D02*
X009919Y020068D01*
X010234Y020462D02*
X010309Y020462D01*
X010309Y020561D02*
X010234Y020561D01*
X010234Y020659D02*
X010309Y020659D01*
X010309Y020955D02*
X010234Y020955D01*
X010234Y021053D02*
X010309Y021053D01*
X010309Y021152D02*
X010234Y021152D01*
X010234Y021250D02*
X010309Y021250D01*
X010544Y021250D02*
X011023Y021250D01*
X010920Y021152D02*
X010648Y021152D01*
X010707Y021053D02*
X010859Y021053D01*
X010818Y020955D02*
X010738Y020955D01*
X012272Y020861D02*
X012272Y020461D01*
X015372Y017361D01*
X015372Y012961D01*
X015872Y013861D02*
X017372Y012361D01*
X017909Y011991D02*
X016227Y011991D01*
X017972Y011661D02*
X018272Y011661D01*
X018572Y011961D01*
X018572Y013161D01*
X018172Y013061D02*
X016372Y014861D01*
X015872Y013861D02*
X015872Y019861D01*
X015692Y019773D02*
X013214Y019773D01*
X013116Y019871D02*
X015607Y019871D01*
X015508Y019970D02*
X013017Y019970D01*
X012919Y020068D02*
X015410Y020068D01*
X015311Y020167D02*
X012820Y020167D01*
X012722Y020265D02*
X015213Y020265D01*
X015114Y020364D02*
X012623Y020364D01*
X013313Y019674D02*
X015692Y019674D01*
X015692Y019576D02*
X013411Y019576D01*
X013510Y019477D02*
X015692Y019477D01*
X015692Y019379D02*
X013608Y019379D01*
X013707Y019280D02*
X015692Y019280D01*
X015692Y019182D02*
X013805Y019182D01*
X013904Y019083D02*
X015692Y019083D01*
X015692Y018985D02*
X014002Y018985D01*
X014101Y018886D02*
X015692Y018886D01*
X015692Y018788D02*
X014199Y018788D01*
X014298Y018689D02*
X015692Y018689D01*
X015692Y018591D02*
X014396Y018591D01*
X014495Y018492D02*
X015692Y018492D01*
X015692Y018394D02*
X014593Y018394D01*
X014692Y018295D02*
X015692Y018295D01*
X015692Y018197D02*
X014790Y018197D01*
X014889Y018098D02*
X015692Y018098D01*
X015692Y018000D02*
X014987Y018000D01*
X015086Y017901D02*
X015692Y017901D01*
X015692Y017803D02*
X015184Y017803D01*
X015283Y017704D02*
X015692Y017704D01*
X015692Y017606D02*
X015381Y017606D01*
X015480Y017507D02*
X015692Y017507D01*
X015692Y017409D02*
X015552Y017409D01*
X015552Y017310D02*
X015692Y017310D01*
X015692Y017212D02*
X015552Y017212D01*
X015045Y020462D02*
X014499Y020462D01*
X018327Y020955D02*
X018418Y020955D01*
X018459Y021053D02*
X018327Y021053D01*
X018327Y021152D02*
X018520Y021152D01*
X018623Y021250D02*
X018316Y021250D01*
X021120Y021250D02*
X021623Y021250D01*
X021520Y021152D02*
X021224Y021152D01*
X021285Y021053D02*
X021459Y021053D01*
X021418Y020955D02*
X021325Y020955D01*
X021327Y020856D02*
X021417Y020856D01*
X021422Y020758D02*
X021322Y020758D01*
X021328Y020659D02*
X021463Y020659D01*
X021426Y020561D02*
X021528Y020561D01*
X021525Y020462D02*
X021645Y020462D01*
X021623Y020364D02*
X022114Y020364D01*
X022213Y020265D02*
X021722Y020265D01*
X021820Y020167D02*
X022311Y020167D01*
X022410Y020068D02*
X021919Y020068D01*
X022017Y019970D02*
X022508Y019970D01*
X022607Y019871D02*
X022116Y019871D01*
X022214Y019773D02*
X022705Y019773D01*
X022804Y019674D02*
X022313Y019674D01*
X022411Y019576D02*
X022902Y019576D01*
X023001Y019477D02*
X022510Y019477D01*
X022608Y019379D02*
X023099Y019379D01*
X023672Y020061D02*
X022872Y020861D01*
X023285Y021053D02*
X023459Y021053D01*
X023418Y020955D02*
X023325Y020955D01*
X023224Y021152D02*
X023520Y021152D01*
X023623Y021250D02*
X023120Y021250D01*
X022623Y021250D02*
X022120Y021250D01*
X022224Y021152D02*
X022520Y021152D01*
X022459Y021053D02*
X022285Y021053D01*
X022325Y020955D02*
X022418Y020955D01*
X024120Y021250D02*
X024623Y021250D01*
X024520Y021152D02*
X024224Y021152D01*
X024285Y021053D02*
X024459Y021053D01*
X024418Y020955D02*
X024325Y020955D01*
X022372Y015861D02*
X022372Y014361D01*
X018172Y013061D02*
X018172Y012161D01*
X013639Y008839D02*
X011790Y008839D01*
X011692Y008938D02*
X013540Y008938D01*
X013442Y009036D02*
X011593Y009036D01*
X011495Y009135D02*
X013343Y009135D01*
X013245Y009233D02*
X011396Y009233D01*
X011298Y009332D02*
X013192Y009332D01*
X013192Y009430D02*
X011199Y009430D01*
X011101Y009529D02*
X013192Y009529D01*
X013192Y009627D02*
X011002Y009627D01*
X010982Y009726D02*
X013192Y009726D01*
X013192Y009824D02*
X010982Y009824D01*
X010982Y009923D02*
X013192Y009923D01*
X013192Y010021D02*
X010982Y010021D01*
X010982Y010120D02*
X013192Y010120D01*
X013192Y010218D02*
X010982Y010218D01*
X010982Y010317D02*
X013192Y010317D01*
X013192Y010415D02*
X010982Y010415D01*
X010982Y010514D02*
X013192Y010514D01*
X013192Y010612D02*
X010982Y010612D01*
X010982Y010711D02*
X013192Y010711D01*
X013192Y010809D02*
X010982Y010809D01*
X010982Y010908D02*
X013192Y010908D01*
X013192Y011006D02*
X010982Y011006D01*
X010982Y011105D02*
X013192Y011105D01*
X013192Y011203D02*
X010982Y011203D01*
X010982Y011302D02*
X013192Y011302D01*
X013192Y011400D02*
X010982Y011400D01*
X010562Y011400D02*
X005072Y011400D01*
X005072Y011302D02*
X010562Y011302D01*
X010562Y011203D02*
X005072Y011203D01*
X005072Y011105D02*
X010562Y011105D01*
X010562Y011006D02*
X005072Y011006D01*
X005072Y010908D02*
X010562Y010908D01*
X010562Y010809D02*
X005072Y010809D01*
X005072Y010711D02*
X010562Y010711D01*
X010562Y010612D02*
X005072Y010612D01*
X005072Y010514D02*
X010562Y010514D01*
X010562Y010415D02*
X005072Y010415D01*
X005072Y010317D02*
X010562Y010317D01*
X010562Y010218D02*
X005072Y010218D01*
X005072Y010120D02*
X010562Y010120D01*
X010562Y010021D02*
X005072Y010021D01*
X005072Y009923D02*
X010562Y009923D01*
X010562Y009824D02*
X005072Y009824D01*
X005072Y009726D02*
X010562Y009726D01*
X010562Y009627D02*
X005072Y009627D01*
X005072Y009529D02*
X010562Y009529D01*
X010605Y009430D02*
X005072Y009430D01*
X005072Y009332D02*
X010704Y009332D01*
X010802Y009233D02*
X005072Y009233D01*
X005072Y009135D02*
X010901Y009135D01*
X010999Y009036D02*
X005072Y009036D01*
X005072Y008938D02*
X011098Y008938D01*
X011196Y008839D02*
X005072Y008839D01*
X005072Y008741D02*
X006608Y008741D01*
X006614Y008746D02*
X006486Y008618D01*
X006417Y008451D01*
X006417Y008270D01*
X006486Y008103D01*
X006614Y007975D01*
X006781Y007906D01*
X006962Y007906D01*
X007130Y007975D01*
X007258Y008103D01*
X007327Y008270D01*
X007327Y008451D01*
X007258Y008618D01*
X007130Y008746D01*
X006962Y008816D01*
X006781Y008816D01*
X006614Y008746D01*
X006510Y008642D02*
X005072Y008642D01*
X005072Y008544D02*
X006455Y008544D01*
X006417Y008445D02*
X005072Y008445D01*
X005072Y008347D02*
X006417Y008347D01*
X006426Y008248D02*
X005072Y008248D01*
X005072Y008150D02*
X006467Y008150D01*
X006538Y008051D02*
X005072Y008051D01*
X005072Y007953D02*
X006668Y007953D01*
X006781Y007816D02*
X006614Y007746D01*
X006486Y007618D01*
X006417Y007451D01*
X006417Y007270D01*
X006486Y007103D01*
X006614Y006975D01*
X006781Y006906D01*
X006962Y006906D01*
X007130Y006975D01*
X007258Y007103D01*
X007327Y007270D01*
X007327Y007451D01*
X007258Y007618D01*
X007130Y007746D01*
X006962Y007816D01*
X006781Y007816D01*
X006637Y007756D02*
X005072Y007756D01*
X005072Y007854D02*
X012181Y007854D01*
X012083Y007953D02*
X007076Y007953D01*
X007206Y008051D02*
X011984Y008051D01*
X011886Y008150D02*
X007277Y008150D01*
X007318Y008248D02*
X011787Y008248D01*
X011689Y008347D02*
X007327Y008347D01*
X007327Y008445D02*
X011590Y008445D01*
X011492Y008544D02*
X007289Y008544D01*
X007234Y008642D02*
X011393Y008642D01*
X011295Y008741D02*
X007135Y008741D01*
X007107Y007756D02*
X012280Y007756D01*
X012378Y007657D02*
X007219Y007657D01*
X007282Y007559D02*
X012477Y007559D01*
X012575Y007460D02*
X007323Y007460D01*
X007327Y007362D02*
X012674Y007362D01*
X012772Y007263D02*
X007324Y007263D01*
X007283Y007165D02*
X012801Y007165D01*
X012642Y007066D02*
X007221Y007066D01*
X007112Y006968D02*
X012583Y006968D01*
X012564Y006869D02*
X005072Y006869D01*
X005072Y006771D02*
X006673Y006771D01*
X006614Y006746D02*
X006781Y006816D01*
X006962Y006816D01*
X007130Y006746D01*
X007258Y006618D01*
X007327Y006451D01*
X007327Y006270D01*
X007258Y006103D01*
X007130Y005975D01*
X006962Y005906D01*
X006781Y005906D01*
X006614Y005975D01*
X006486Y006103D01*
X006417Y006270D01*
X006417Y006451D01*
X006486Y006618D01*
X006614Y006746D01*
X006540Y006672D02*
X005072Y006672D01*
X005072Y006574D02*
X006468Y006574D01*
X006427Y006475D02*
X005072Y006475D01*
X005072Y006377D02*
X006417Y006377D01*
X006417Y006278D02*
X005072Y006278D01*
X005072Y006180D02*
X006454Y006180D01*
X006508Y006081D02*
X005072Y006081D01*
X005072Y005983D02*
X006606Y005983D01*
X006709Y005786D02*
X005072Y005786D01*
X005072Y005884D02*
X012662Y005884D01*
X012662Y005786D02*
X007035Y005786D01*
X006962Y005816D02*
X006781Y005816D01*
X006614Y005746D01*
X006486Y005618D01*
X006417Y005451D01*
X006417Y005270D01*
X006486Y005103D01*
X006614Y004975D01*
X006781Y004906D01*
X006962Y004906D01*
X007130Y004975D01*
X007258Y005103D01*
X007327Y005270D01*
X007327Y005451D01*
X007258Y005618D01*
X007130Y005746D01*
X006962Y005816D01*
X007137Y005983D02*
X012662Y005983D01*
X012662Y006081D02*
X007236Y006081D01*
X007289Y006180D02*
X012662Y006180D01*
X012662Y006278D02*
X007327Y006278D01*
X007327Y006377D02*
X012662Y006377D01*
X012662Y006475D02*
X007317Y006475D01*
X007276Y006574D02*
X012662Y006574D01*
X012625Y006672D02*
X007204Y006672D01*
X007071Y006771D02*
X012576Y006771D01*
X013082Y006574D02*
X013462Y006574D01*
X013363Y006672D02*
X013119Y006672D01*
X013168Y006771D02*
X013265Y006771D01*
X013082Y006475D02*
X013560Y006475D01*
X013659Y006377D02*
X013082Y006377D01*
X013082Y006278D02*
X013757Y006278D01*
X013856Y006180D02*
X013082Y006180D01*
X013082Y006081D02*
X013954Y006081D01*
X014053Y005983D02*
X013082Y005983D01*
X013082Y005884D02*
X014151Y005884D01*
X014250Y005786D02*
X013082Y005786D01*
X013082Y005687D02*
X014348Y005687D01*
X014447Y005589D02*
X013082Y005589D01*
X013082Y005490D02*
X014545Y005490D01*
X014644Y005392D02*
X013082Y005392D01*
X013082Y005293D02*
X014662Y005293D01*
X014662Y005195D02*
X013082Y005195D01*
X013082Y005096D02*
X014662Y005096D01*
X014662Y004998D02*
X013082Y004998D01*
X013082Y004899D02*
X014662Y004899D01*
X014662Y004801D02*
X013082Y004801D01*
X013082Y004702D02*
X014662Y004702D01*
X014662Y004604D02*
X013082Y004604D01*
X013082Y004505D02*
X014662Y004505D01*
X014662Y004407D02*
X013082Y004407D01*
X013082Y004308D02*
X014662Y004308D01*
X014662Y004210D02*
X013082Y004210D01*
X013082Y004111D02*
X014662Y004111D01*
X014662Y004013D02*
X013082Y004013D01*
X013082Y003914D02*
X014662Y003914D01*
X014662Y003816D02*
X013082Y003816D01*
X013082Y003717D02*
X014662Y003717D01*
X014662Y003619D02*
X013082Y003619D01*
X013082Y003520D02*
X014662Y003520D01*
X014662Y003422D02*
X013082Y003422D01*
X013082Y003323D02*
X014662Y003323D01*
X014662Y003225D02*
X013082Y003225D01*
X013082Y003126D02*
X014662Y003126D01*
X014662Y003028D02*
X013082Y003028D01*
X013100Y002929D02*
X014662Y002929D01*
X014662Y002831D02*
X013199Y002831D01*
X013297Y002732D02*
X014662Y002732D01*
X014662Y002634D02*
X013396Y002634D01*
X013494Y002535D02*
X014662Y002535D01*
X014662Y002437D02*
X013593Y002437D01*
X013691Y002338D02*
X014662Y002338D01*
X014607Y002240D02*
X014136Y002240D01*
X014235Y002141D02*
X014509Y002141D01*
X014455Y002043D02*
X014289Y002043D01*
X014327Y001944D02*
X014417Y001944D01*
X014417Y001846D02*
X014327Y001846D01*
X014317Y001747D02*
X014426Y001747D01*
X014467Y001649D02*
X014277Y001649D01*
X014205Y001550D02*
X014539Y001550D01*
X014670Y001452D02*
X014074Y001452D01*
X013670Y001452D02*
X013074Y001452D01*
X013130Y001475D02*
X013258Y001603D01*
X013327Y001770D01*
X013327Y001951D01*
X013258Y002118D01*
X013130Y002246D01*
X012962Y002316D01*
X012781Y002316D01*
X012614Y002246D01*
X012486Y002118D01*
X012417Y001951D01*
X012417Y001770D01*
X012486Y001603D01*
X012614Y001475D01*
X012781Y001406D01*
X012962Y001406D01*
X013130Y001475D01*
X013205Y001550D02*
X013539Y001550D01*
X013467Y001649D02*
X013277Y001649D01*
X013317Y001747D02*
X013426Y001747D01*
X013417Y001846D02*
X013327Y001846D01*
X013327Y001944D02*
X013417Y001944D01*
X013393Y002043D02*
X013289Y002043D01*
X013294Y002141D02*
X013235Y002141D01*
X013196Y002240D02*
X013136Y002240D01*
X013097Y002338D02*
X012646Y002338D01*
X012607Y002240D02*
X012548Y002240D01*
X012509Y002141D02*
X012449Y002141D01*
X012455Y002043D02*
X012351Y002043D01*
X012327Y001944D02*
X012417Y001944D01*
X012417Y001846D02*
X012327Y001846D01*
X012317Y001747D02*
X012426Y001747D01*
X012467Y001649D02*
X012277Y001649D01*
X012205Y001550D02*
X012539Y001550D01*
X012670Y001452D02*
X012074Y001452D01*
X012052Y002338D02*
X006568Y002338D01*
X006470Y002437D02*
X012151Y002437D01*
X012249Y002535D02*
X006371Y002535D01*
X006174Y002634D02*
X012348Y002634D01*
X012446Y002732D02*
X005072Y002732D01*
X005072Y002634D02*
X005569Y002634D01*
X005373Y002535D02*
X005072Y002535D01*
X005072Y002437D02*
X005274Y002437D01*
X005176Y002338D02*
X005072Y002338D01*
X005072Y002240D02*
X005131Y002240D01*
X005090Y002141D02*
X005072Y002141D01*
X005072Y002831D02*
X012545Y002831D01*
X012643Y002929D02*
X007303Y002929D01*
X007289Y002916D02*
X007317Y002944D01*
X007337Y002978D01*
X007347Y003016D01*
X007347Y003323D01*
X006909Y003323D01*
X006909Y002886D01*
X007217Y002886D01*
X007255Y002896D01*
X007289Y002916D01*
X007347Y003028D02*
X012662Y003028D01*
X012662Y003126D02*
X007347Y003126D01*
X007347Y003225D02*
X012662Y003225D01*
X012662Y003323D02*
X006909Y003323D01*
X006834Y003323D01*
X006397Y003323D01*
X006397Y003016D01*
X006407Y002978D01*
X006427Y002944D01*
X006455Y002916D01*
X006489Y002896D01*
X006527Y002886D01*
X006834Y002886D01*
X006834Y003323D01*
X006834Y003398D01*
X006397Y003398D01*
X006397Y003705D01*
X006407Y003744D01*
X006427Y003778D01*
X006455Y003806D01*
X006489Y003825D01*
X006527Y003836D01*
X006834Y003836D01*
X006834Y003398D01*
X006909Y003398D01*
X006909Y003836D01*
X007217Y003836D01*
X007255Y003825D01*
X007289Y003806D01*
X007317Y003778D01*
X007337Y003744D01*
X007347Y003705D01*
X007347Y003398D01*
X006909Y003398D01*
X006909Y003323D01*
X006834Y003323D02*
X005072Y003323D01*
X005072Y003225D02*
X006397Y003225D01*
X006397Y003126D02*
X005072Y003126D01*
X005072Y003028D02*
X006397Y003028D01*
X006441Y002929D02*
X005072Y002929D01*
X005072Y003422D02*
X006397Y003422D01*
X006397Y003520D02*
X005072Y003520D01*
X005072Y003619D02*
X006397Y003619D01*
X006400Y003717D02*
X005072Y003717D01*
X005072Y003816D02*
X006472Y003816D01*
X006614Y003975D02*
X006781Y003906D01*
X006962Y003906D01*
X007130Y003975D01*
X007258Y004103D01*
X007327Y004270D01*
X007327Y004451D01*
X007258Y004618D01*
X007130Y004746D01*
X006962Y004816D01*
X006781Y004816D01*
X006614Y004746D01*
X006486Y004618D01*
X006417Y004451D01*
X006417Y004270D01*
X006486Y004103D01*
X006614Y003975D01*
X006576Y004013D02*
X005072Y004013D01*
X005072Y004111D02*
X006483Y004111D01*
X006442Y004210D02*
X005072Y004210D01*
X005072Y004308D02*
X006417Y004308D01*
X006417Y004407D02*
X005072Y004407D01*
X005072Y004505D02*
X006439Y004505D01*
X006480Y004604D02*
X005072Y004604D01*
X005072Y004702D02*
X006570Y004702D01*
X006745Y004801D02*
X005072Y004801D01*
X005072Y004899D02*
X012662Y004899D01*
X012662Y004801D02*
X006999Y004801D01*
X007174Y004702D02*
X012662Y004702D01*
X012662Y004604D02*
X007264Y004604D01*
X007305Y004505D02*
X012662Y004505D01*
X012662Y004407D02*
X007327Y004407D01*
X007327Y004308D02*
X012662Y004308D01*
X012662Y004210D02*
X007302Y004210D01*
X007261Y004111D02*
X012662Y004111D01*
X012662Y004013D02*
X007167Y004013D01*
X006983Y003914D02*
X012662Y003914D01*
X012662Y003816D02*
X007272Y003816D01*
X007344Y003717D02*
X012662Y003717D01*
X012662Y003619D02*
X007347Y003619D01*
X007347Y003520D02*
X012662Y003520D01*
X012662Y003422D02*
X007347Y003422D01*
X006909Y003422D02*
X006834Y003422D01*
X006834Y003520D02*
X006909Y003520D01*
X006909Y003619D02*
X006834Y003619D01*
X006834Y003717D02*
X006909Y003717D01*
X006909Y003816D02*
X006834Y003816D01*
X006761Y003914D02*
X005072Y003914D01*
X005072Y004998D02*
X006591Y004998D01*
X006493Y005096D02*
X005072Y005096D01*
X005072Y005195D02*
X006448Y005195D01*
X006417Y005293D02*
X005072Y005293D01*
X005072Y005392D02*
X006417Y005392D01*
X006433Y005490D02*
X005072Y005490D01*
X005072Y005589D02*
X006474Y005589D01*
X006555Y005687D02*
X005072Y005687D01*
X005072Y006968D02*
X006632Y006968D01*
X006523Y007066D02*
X005072Y007066D01*
X005072Y007165D02*
X006461Y007165D01*
X006420Y007263D02*
X005072Y007263D01*
X005072Y007362D02*
X006417Y007362D01*
X006421Y007460D02*
X005072Y007460D01*
X005072Y007559D02*
X006461Y007559D01*
X006525Y007657D02*
X005072Y007657D01*
X007189Y005687D02*
X012662Y005687D01*
X012662Y005589D02*
X007270Y005589D01*
X007311Y005490D02*
X012662Y005490D01*
X012662Y005392D02*
X007327Y005392D01*
X007327Y005293D02*
X012662Y005293D01*
X012662Y005195D02*
X007296Y005195D01*
X007251Y005096D02*
X012662Y005096D01*
X012662Y004998D02*
X007152Y004998D01*
X006909Y003225D02*
X006834Y003225D01*
X006834Y003126D02*
X006909Y003126D01*
X006909Y003028D02*
X006834Y003028D01*
X006834Y002929D02*
X006909Y002929D01*
X006440Y001255D02*
X025804Y001255D01*
X025904Y001156D02*
X006340Y001156D01*
X010417Y001482D02*
X010417Y002240D01*
X012745Y002437D02*
X012999Y002437D01*
X012900Y002535D02*
X012843Y002535D01*
X015082Y002535D02*
X017943Y002535D01*
X018041Y002437D02*
X015082Y002437D01*
X015082Y002338D02*
X018140Y002338D01*
X018130Y002246D02*
X017962Y002316D01*
X017781Y002316D01*
X017614Y002246D01*
X017486Y002118D01*
X017417Y001951D01*
X017417Y001770D01*
X017486Y001603D01*
X017614Y001475D01*
X017781Y001406D01*
X017962Y001406D01*
X018130Y001475D01*
X018258Y001603D01*
X018327Y001770D01*
X018327Y001951D01*
X018258Y002118D01*
X018130Y002246D01*
X018136Y002240D02*
X018238Y002240D01*
X018235Y002141D02*
X018337Y002141D01*
X018289Y002043D02*
X018435Y002043D01*
X018534Y001944D02*
X018327Y001944D01*
X018327Y001846D02*
X018632Y001846D01*
X018692Y001786D02*
X018692Y001786D01*
X018731Y001747D02*
X018317Y001747D01*
X018277Y001649D02*
X019467Y001649D01*
X019539Y001550D02*
X018205Y001550D01*
X018074Y001452D02*
X019670Y001452D01*
X020074Y001452D02*
X020670Y001452D01*
X020539Y001550D02*
X020205Y001550D01*
X020277Y001649D02*
X020467Y001649D01*
X020426Y001747D02*
X020317Y001747D01*
X019872Y001861D02*
X018872Y001861D01*
X013372Y007361D01*
X013372Y008361D01*
X013085Y008248D02*
X012381Y008248D01*
X012283Y008347D02*
X013064Y008347D01*
X013073Y008445D02*
X012184Y008445D01*
X012086Y008544D02*
X013119Y008544D01*
X013246Y008642D02*
X011987Y008642D01*
X011889Y008741D02*
X013737Y008741D01*
X013836Y008642D02*
X013497Y008642D01*
X013625Y008544D02*
X013934Y008544D01*
X014172Y007861D02*
X014172Y007561D01*
X018872Y002861D01*
X020872Y002861D01*
X020844Y002634D02*
X018853Y002634D01*
X017844Y002634D02*
X015082Y002634D01*
X015082Y002732D02*
X017746Y002732D01*
X017647Y002831D02*
X015082Y002831D01*
X015082Y002929D02*
X017549Y002929D01*
X017450Y003028D02*
X015082Y003028D01*
X015082Y003126D02*
X017352Y003126D01*
X017253Y003225D02*
X015082Y003225D01*
X015082Y003323D02*
X017155Y003323D01*
X017056Y003422D02*
X015082Y003422D01*
X015082Y003520D02*
X016958Y003520D01*
X016859Y003619D02*
X015082Y003619D01*
X015082Y003717D02*
X016761Y003717D01*
X016662Y003816D02*
X015082Y003816D01*
X015082Y003914D02*
X016564Y003914D01*
X016465Y004013D02*
X015082Y004013D01*
X015082Y004111D02*
X016367Y004111D01*
X016268Y004210D02*
X015082Y004210D01*
X015082Y004308D02*
X016170Y004308D01*
X016071Y004407D02*
X015082Y004407D01*
X015082Y004505D02*
X015973Y004505D01*
X015874Y004604D02*
X015082Y004604D01*
X015082Y004702D02*
X015776Y004702D01*
X015677Y004801D02*
X015082Y004801D01*
X015082Y004899D02*
X015579Y004899D01*
X015480Y004998D02*
X015082Y004998D01*
X015082Y005096D02*
X015382Y005096D01*
X015283Y005195D02*
X015082Y005195D01*
X015082Y005293D02*
X015185Y005293D01*
X015086Y005392D02*
X015082Y005392D01*
X013192Y007460D02*
X013169Y007460D01*
X013192Y007559D02*
X013071Y007559D01*
X012972Y007657D02*
X013192Y007657D01*
X013192Y007756D02*
X012874Y007756D01*
X012775Y007854D02*
X013192Y007854D01*
X013192Y007953D02*
X012677Y007953D01*
X012578Y008051D02*
X013192Y008051D01*
X013147Y008150D02*
X012480Y008150D01*
X010562Y011499D02*
X005072Y011499D01*
X005072Y011597D02*
X010562Y011597D01*
X010562Y011696D02*
X005072Y011696D01*
X005072Y011794D02*
X010562Y011794D01*
X010562Y011893D02*
X005072Y011893D01*
X005072Y011991D02*
X010562Y011991D01*
X010562Y012090D02*
X005072Y012090D01*
X005072Y012188D02*
X010562Y012188D01*
X010562Y012287D02*
X005072Y012287D01*
X005072Y012385D02*
X010562Y012385D01*
X010562Y012484D02*
X005072Y012484D01*
X005072Y012582D02*
X010562Y012582D01*
X010562Y012681D02*
X005072Y012681D01*
X005072Y012779D02*
X010562Y012779D01*
X010562Y012878D02*
X005072Y012878D01*
X005072Y012976D02*
X010562Y012976D01*
X010562Y013075D02*
X005072Y013075D01*
X005072Y013173D02*
X010562Y013173D01*
X010562Y013272D02*
X005072Y013272D01*
X005072Y013370D02*
X010562Y013370D01*
X010562Y013469D02*
X005072Y013469D01*
X005072Y013567D02*
X010562Y013567D01*
X010562Y013666D02*
X005072Y013666D01*
X005072Y013764D02*
X010562Y013764D01*
X010562Y013863D02*
X005072Y013863D01*
X005072Y013961D02*
X010562Y013961D01*
X010562Y014060D02*
X005072Y014060D01*
X005072Y014158D02*
X010562Y014158D01*
X010562Y014257D02*
X005072Y014257D01*
X005072Y014355D02*
X010562Y014355D01*
X010562Y014454D02*
X005072Y014454D01*
X005072Y014552D02*
X010562Y014552D01*
X010562Y014651D02*
X005072Y014651D01*
X005072Y014749D02*
X010562Y014749D01*
X010562Y014848D02*
X005072Y014848D01*
X005072Y014946D02*
X010562Y014946D01*
X010562Y015045D02*
X005072Y015045D01*
X005072Y015143D02*
X010562Y015143D01*
X010562Y015242D02*
X005072Y015242D01*
X005072Y015340D02*
X010562Y015340D01*
X010562Y015439D02*
X005072Y015439D01*
X005072Y015537D02*
X010560Y015537D01*
X010490Y015636D02*
X005072Y015636D01*
X005072Y015734D02*
X010464Y015734D01*
X010468Y015833D02*
X005072Y015833D01*
X005072Y015931D02*
X010509Y015931D01*
X023052Y007559D02*
X025536Y007559D01*
X025695Y007460D02*
X023052Y007460D01*
X023052Y007362D02*
X027172Y007362D01*
X027172Y007460D02*
X026049Y007460D01*
X027172Y007263D02*
X023052Y007263D01*
X023052Y007165D02*
X027172Y007165D01*
X027172Y007066D02*
X023052Y007066D01*
X023052Y006968D02*
X027172Y006968D01*
X027172Y006869D02*
X023052Y006869D01*
X023037Y006771D02*
X027172Y006771D01*
X027172Y006672D02*
X022938Y006672D01*
X022840Y006574D02*
X027172Y006574D01*
X027172Y006475D02*
X022741Y006475D01*
X022643Y006377D02*
X027172Y006377D01*
X027172Y006278D02*
X022544Y006278D01*
X022446Y006180D02*
X027172Y006180D01*
X027172Y006081D02*
X022347Y006081D01*
X022249Y005983D02*
X027172Y005983D01*
X027172Y008544D02*
X023510Y008544D01*
X023608Y008642D02*
X027172Y008642D01*
X023561Y008248D02*
X023214Y008248D01*
X023116Y008150D02*
X023425Y008150D01*
X026871Y002535D02*
X027172Y002535D01*
X027172Y002437D02*
X026970Y002437D01*
X027068Y002338D02*
X027172Y002338D01*
X027172Y002240D02*
X027113Y002240D01*
X027154Y002141D02*
X027172Y002141D01*
X024417Y001747D02*
X024317Y001747D01*
X024277Y001649D02*
X024417Y001649D01*
X024417Y001550D02*
X024205Y001550D01*
X024074Y001452D02*
X024447Y001452D01*
X021670Y001452D02*
X021074Y001452D01*
X017670Y001452D02*
X017116Y001452D01*
X017121Y001454D02*
X017181Y001498D01*
X017234Y001551D01*
X017278Y001612D01*
X017312Y001678D01*
X017335Y001749D01*
X017347Y001823D01*
X016909Y001823D01*
X016909Y001386D01*
X016983Y001397D01*
X017054Y001420D01*
X017121Y001454D01*
X017233Y001550D02*
X017539Y001550D01*
X017467Y001649D02*
X017297Y001649D01*
X017335Y001747D02*
X017426Y001747D01*
X017417Y001846D02*
X016909Y001846D01*
X016909Y001823D02*
X016909Y001898D01*
X016834Y001898D01*
X016834Y001823D01*
X016397Y001823D01*
X016409Y001749D01*
X016432Y001678D01*
X016466Y001612D01*
X016510Y001551D01*
X016562Y001498D01*
X016623Y001454D01*
X016690Y001420D01*
X016761Y001397D01*
X016834Y001386D01*
X016834Y001823D01*
X016909Y001823D01*
X016909Y001898D02*
X017347Y001898D01*
X017335Y001972D01*
X017312Y002043D01*
X017278Y002110D01*
X017234Y002170D01*
X017181Y002223D01*
X017121Y002267D01*
X017054Y002301D01*
X016983Y002324D01*
X016909Y002336D01*
X016909Y001898D01*
X016909Y001944D02*
X016834Y001944D01*
X016834Y001898D02*
X016834Y002336D01*
X016761Y002324D01*
X016690Y002301D01*
X016623Y002267D01*
X016562Y002223D01*
X016510Y002170D01*
X016466Y002110D01*
X016432Y002043D01*
X016409Y001972D01*
X016397Y001898D01*
X016834Y001898D01*
X016834Y001846D02*
X015909Y001846D01*
X015909Y001823D02*
X015909Y001898D01*
X015834Y001898D01*
X015834Y001823D01*
X015397Y001823D01*
X015409Y001749D01*
X015432Y001678D01*
X015466Y001612D01*
X015510Y001551D01*
X015562Y001498D01*
X015623Y001454D01*
X015690Y001420D01*
X015761Y001397D01*
X015834Y001386D01*
X015834Y001823D01*
X015909Y001823D01*
X015909Y001386D01*
X015983Y001397D01*
X016054Y001420D01*
X016121Y001454D01*
X016181Y001498D01*
X016234Y001551D01*
X016278Y001612D01*
X016312Y001678D01*
X016335Y001749D01*
X016347Y001823D01*
X015909Y001823D01*
X015909Y001898D02*
X016347Y001898D01*
X016335Y001972D01*
X016312Y002043D01*
X016278Y002110D01*
X016234Y002170D01*
X016181Y002223D01*
X016121Y002267D01*
X016054Y002301D01*
X015983Y002324D01*
X015909Y002336D01*
X015909Y001898D01*
X015909Y001944D02*
X015834Y001944D01*
X015834Y001898D02*
X015834Y002336D01*
X015761Y002324D01*
X015690Y002301D01*
X015623Y002267D01*
X015562Y002223D01*
X015510Y002170D01*
X015466Y002110D01*
X015432Y002043D01*
X015409Y001972D01*
X015397Y001898D01*
X015834Y001898D01*
X015834Y001846D02*
X015327Y001846D01*
X015327Y001944D02*
X015404Y001944D01*
X015432Y002043D02*
X015289Y002043D01*
X015235Y002141D02*
X015489Y002141D01*
X015585Y002240D02*
X015136Y002240D01*
X015317Y001747D02*
X015409Y001747D01*
X015447Y001649D02*
X015277Y001649D01*
X015205Y001550D02*
X015511Y001550D01*
X015628Y001452D02*
X015074Y001452D01*
X015834Y001452D02*
X015909Y001452D01*
X015909Y001550D02*
X015834Y001550D01*
X015834Y001649D02*
X015909Y001649D01*
X015909Y001747D02*
X015834Y001747D01*
X016116Y001452D02*
X016628Y001452D01*
X016511Y001550D02*
X016233Y001550D01*
X016297Y001649D02*
X016447Y001649D01*
X016409Y001747D02*
X016335Y001747D01*
X016340Y001944D02*
X016404Y001944D01*
X016432Y002043D02*
X016312Y002043D01*
X016255Y002141D02*
X016489Y002141D01*
X016585Y002240D02*
X016158Y002240D01*
X015909Y002240D02*
X015834Y002240D01*
X015834Y002141D02*
X015909Y002141D01*
X015909Y002043D02*
X015834Y002043D01*
X016834Y002043D02*
X016909Y002043D01*
X016909Y002141D02*
X016834Y002141D01*
X016834Y002240D02*
X016909Y002240D01*
X017158Y002240D02*
X017607Y002240D01*
X017509Y002141D02*
X017255Y002141D01*
X017312Y002043D02*
X017455Y002043D01*
X017417Y001944D02*
X017340Y001944D01*
X016909Y001747D02*
X016834Y001747D01*
X016834Y001649D02*
X016909Y001649D01*
X016909Y001550D02*
X016834Y001550D01*
X016834Y001452D02*
X016909Y001452D01*
M02*
